%TF.GenerationSoftware,KiCad,Pcbnew,(7.0.0)*%
%TF.CreationDate,2023-10-09T21:37:50-04:00*%
%TF.ProjectId,CPS V2,43505320-5632-42e6-9b69-6361645f7063,rev?*%
%TF.SameCoordinates,Original*%
%TF.FileFunction,Soldermask,Top*%
%TF.FilePolarity,Negative*%
%FSLAX46Y46*%
G04 Gerber Fmt 4.6, Leading zero omitted, Abs format (unit mm)*
G04 Created by KiCad (PCBNEW (7.0.0)) date 2023-10-09 21:37:50*
%MOMM*%
%LPD*%
G01*
G04 APERTURE LIST*
G04 Aperture macros list*
%AMRoundRect*
0 Rectangle with rounded corners*
0 $1 Rounding radius*
0 $2 $3 $4 $5 $6 $7 $8 $9 X,Y pos of 4 corners*
0 Add a 4 corners polygon primitive as box body*
4,1,4,$2,$3,$4,$5,$6,$7,$8,$9,$2,$3,0*
0 Add four circle primitives for the rounded corners*
1,1,$1+$1,$2,$3*
1,1,$1+$1,$4,$5*
1,1,$1+$1,$6,$7*
1,1,$1+$1,$8,$9*
0 Add four rect primitives between the rounded corners*
20,1,$1+$1,$2,$3,$4,$5,0*
20,1,$1+$1,$4,$5,$6,$7,0*
20,1,$1+$1,$6,$7,$8,$9,0*
20,1,$1+$1,$8,$9,$2,$3,0*%
G04 Aperture macros list end*
%ADD10C,1.600000*%
%ADD11O,1.600000X1.600000*%
%ADD12C,4.400000*%
%ADD13RoundRect,0.150000X0.625000X-0.150000X0.625000X0.150000X-0.625000X0.150000X-0.625000X-0.150000X0*%
%ADD14RoundRect,0.250000X0.650000X-0.350000X0.650000X0.350000X-0.650000X0.350000X-0.650000X-0.350000X0*%
%ADD15R,1.600000X1.600000*%
%ADD16R,2.000000X1.905000*%
%ADD17O,2.000000X1.905000*%
%ADD18R,2.600000X2.600000*%
%ADD19C,2.600000*%
G04 APERTURE END LIST*
D10*
%TO.C,R4*%
X151130000Y-69850000D03*
D11*
X161289999Y-69849999D03*
%TD*%
D10*
%TO.C,R2*%
X151765000Y-102870000D03*
D11*
X151764999Y-92709999D03*
%TD*%
D12*
%TO.C,H2*%
X167640000Y-93980000D03*
%TD*%
D10*
%TO.C,C1*%
X129580000Y-69850000D03*
X132080000Y-69850000D03*
%TD*%
D13*
%TO.C,J3*%
X166275000Y-67280000D03*
X166275000Y-66280000D03*
X166275000Y-65280000D03*
X166275000Y-64280000D03*
D14*
X170150000Y-68580000D03*
X170150000Y-62980000D03*
%TD*%
D15*
%TO.C,C2*%
X129539999Y-96479999D03*
D10*
X129540000Y-93980000D03*
%TD*%
D16*
%TO.C,U1*%
X139699999Y-101599999D03*
D17*
X139699999Y-99059999D03*
X139699999Y-96519999D03*
%TD*%
D15*
%TO.C,A1*%
X129539999Y-88899999D03*
D11*
X132079999Y-88899999D03*
X134619999Y-88899999D03*
X137159999Y-88899999D03*
X139699999Y-88899999D03*
X142239999Y-88899999D03*
X144779999Y-88899999D03*
X147319999Y-88899999D03*
X149859999Y-88899999D03*
X152399999Y-88899999D03*
X154939999Y-88899999D03*
X157479999Y-88899999D03*
X160019999Y-88899999D03*
X162559999Y-88899999D03*
X165099999Y-88899999D03*
X165099999Y-73659999D03*
X162559999Y-73659999D03*
X160019999Y-73659999D03*
X157479999Y-73659999D03*
X154939999Y-73659999D03*
X152399999Y-73659999D03*
X149859999Y-73659999D03*
X147319999Y-73659999D03*
X144779999Y-73659999D03*
X142239999Y-73659999D03*
X139699999Y-73659999D03*
X137159999Y-73659999D03*
X134619999Y-73659999D03*
X132079999Y-73659999D03*
X129539999Y-73659999D03*
%TD*%
D15*
%TO.C,C3*%
X146089999Y-102869999D03*
D10*
X148590000Y-102870000D03*
%TD*%
D18*
%TO.C,J2*%
X166524999Y-109219999D03*
D19*
X166525000Y-104220000D03*
%TD*%
D10*
%TO.C,R1*%
X154940000Y-92710000D03*
D11*
X154939999Y-102869999D03*
%TD*%
D18*
%TO.C,J1*%
X129539999Y-104259999D03*
D19*
X129540000Y-109260000D03*
%TD*%
D15*
%TO.C,C4*%
X146089999Y-95249999D03*
D10*
X148590000Y-95250000D03*
%TD*%
%TO.C,R3*%
X152400000Y-66040000D03*
D11*
X162559999Y-66039999D03*
%TD*%
D12*
%TO.C,H1*%
X130810000Y-64770000D03*
%TD*%
D16*
%TO.C,Q1*%
X160019999Y-101599999D03*
D17*
X160019999Y-99059999D03*
X160019999Y-96519999D03*
%TD*%
M02*
