  0
SECTION
  2
HEADER
  9
$ANGBASE
  50
0.0
  9
$ANGDIR
  70
1
  9
$MEASUREMENT
  70
1
  0
ENDSEC
  0
SECTION
  2
TABLES
  0
TABLE
  2
LTYPE
  70
4
  0
LTYPE
  5
40F
  2
CONTINUOUS
  70
0
  3
Solid line
  72
65
  73
0
  40
0.0
  0
LTYPE
  5
410
  2
DASHDOT
 70
0
  3
Dash Dot ____ _ ____ _
 72
65
 73
4
 40
2.0
 49
1.25
 49
-0.25
 49
0.25
 49
-0.25
  0
LTYPE
  5
411
  2
DASHED
 70
0
  3
Dashed __ __ __ __ __
 72
65
 73
2
 40
0.75
 49
0.5
 49
-0.25
  0
LTYPE
  5
43B
  2
DOTTED
 70
0
  3
Dotted .  .  .  .
 72
65
 73
2
 40
0.2
 49
0.0
 49
-0.2
  0
ENDTAB
  0
TABLE
  2
STYLE
  70
4
  0
STYLE
  2
KICAD
  70
0
  40
0
  41
1
  42
1
  50
0
  71
0
  3
isocp.shx
  0
STYLE
  2
KICADB
  70
0
  40
0
  41
1
  42
1
  50
0
  71
0
  3
isocp.shx
  0
STYLE
  2
KICADI
  70
0
  40
0
  41
1
  42
1
  50
15
  71
0
  3
isocp.shx
  0
STYLE
  2
KICADBI
  70
0
  40
0
  41
1
  42
1
  50
15
  71
0
  3
isocp.shx
  0
ENDTAB
  0
TABLE
  2
LAYER
  70
1
  0
LAYER
  2
BLACK
  70
0
  62
7
  6
CONTINUOUS
  0
ENDTAB
  0
ENDSEC
  0
SECTION
  2
ENTITIES
0
LINE
8
BLACK
6
CONTINUOUS
10
124.46
20
-60.96
11
171.45
21
-60.96
0
LINE
8
BLACK
6
CONTINUOUS
10
171.45
20
-60.96
11
171.45
21
-113.03
0
LINE
8
BLACK
6
CONTINUOUS
10
171.45
20
-113.03
11
124.46
21
-113.03
0
LINE
8
BLACK
6
CONTINUOUS
10
124.46
20
-113.03
11
124.46
21
-60.96
0
LINE
8
BLACK
6
CONTINUOUS
10
152.2
20
-70.92
11
152.6
21
-71.32
0
LINE
8
BLACK
6
CONTINUOUS
10
152.6
20
-70.92
11
152.2
21
-71.32
0
LINE
8
BLACK
6
CONTINUOUS
10
154.74
20
-68.38
11
155.14
21
-68.78
0
LINE
8
BLACK
6
CONTINUOUS
10
155.14
20
-68.38
11
154.74
21
-68.78
0
LINE
8
BLACK
6
CONTINUOUS
10
157.28
20
-70.92
11
157.68
21
-71.32
0
LINE
8
BLACK
6
CONTINUOUS
10
157.68
20
-70.92
11
157.28
21
-71.32
0
LINE
8
BLACK
6
CONTINUOUS
10
163.63
20
-63.3
11
164.03
21
-63.7
0
LINE
8
BLACK
6
CONTINUOUS
10
164.03
20
-63.3
11
163.63
21
-63.7
0
CIRCLE
8
BLACK
10
129.54
20
-93.98
40
0.4
0
CIRCLE
8
BLACK
10
129.54
20
-96.48
40
0.4
0
CIRCLE
8
BLACK
10
129.58
20
-69.85
40
0.4
0
CIRCLE
8
BLACK
10
132.08
20
-69.85
40
0.4
0
CIRCLE
8
BLACK
10
146.09
20
-95.25
40
0.4
0
CIRCLE
8
BLACK
10
146.09
20
-102.87
40
0.4
0
CIRCLE
8
BLACK
10
148.59
20
-95.25
40
0.4
0
CIRCLE
8
BLACK
10
148.59
20
-102.87
40
0.4
0
CIRCLE
8
BLACK
10
151.13
20
-69.85
40
0.4
0
CIRCLE
8
BLACK
10
151.765
20
-92.71
40
0.4
0
CIRCLE
8
BLACK
10
151.765
20
-102.87
40
0.4
0
CIRCLE
8
BLACK
10
152.4
20
-66.04
40
0.4
0
CIRCLE
8
BLACK
10
154.94
20
-92.71
40
0.4
0
CIRCLE
8
BLACK
10
154.94
20
-102.87
40
0.4
0
CIRCLE
8
BLACK
10
161.29
20
-69.85
40
0.4
0
CIRCLE
8
BLACK
10
162.56
20
-66.04
40
0.4
0
LINE
8
BLACK
6
CONTINUOUS
10
129.54
20
-73.16
11
129.54
21
-74.16
0
LINE
8
BLACK
6
CONTINUOUS
10
129.04
20
-73.66
11
130.04
21
-73.66
0
LINE
8
BLACK
6
CONTINUOUS
10
129.54
20
-88.4
11
129.54
21
-89.4
0
LINE
8
BLACK
6
CONTINUOUS
10
129.04
20
-88.9
11
130.04
21
-88.9
0
LINE
8
BLACK
6
CONTINUOUS
10
132.08
20
-73.16
11
132.08
21
-74.16
0
LINE
8
BLACK
6
CONTINUOUS
10
131.58
20
-73.66
11
132.58
21
-73.66
0
LINE
8
BLACK
6
CONTINUOUS
10
132.08
20
-88.4
11
132.08
21
-89.4
0
LINE
8
BLACK
6
CONTINUOUS
10
131.58
20
-88.9
11
132.58
21
-88.9
0
LINE
8
BLACK
6
CONTINUOUS
10
134.62
20
-73.16
11
134.62
21
-74.16
0
LINE
8
BLACK
6
CONTINUOUS
10
134.12
20
-73.66
11
135.12
21
-73.66
0
LINE
8
BLACK
6
CONTINUOUS
10
134.62
20
-88.4
11
134.62
21
-89.4
0
LINE
8
BLACK
6
CONTINUOUS
10
134.12
20
-88.9
11
135.12
21
-88.9
0
LINE
8
BLACK
6
CONTINUOUS
10
137.16
20
-73.16
11
137.16
21
-74.16
0
LINE
8
BLACK
6
CONTINUOUS
10
136.66
20
-73.66
11
137.66
21
-73.66
0
LINE
8
BLACK
6
CONTINUOUS
10
137.16
20
-88.4
11
137.16
21
-89.4
0
LINE
8
BLACK
6
CONTINUOUS
10
136.66
20
-88.9
11
137.66
21
-88.9
0
LINE
8
BLACK
6
CONTINUOUS
10
139.7
20
-73.16
11
139.7
21
-74.16
0
LINE
8
BLACK
6
CONTINUOUS
10
139.2
20
-73.66
11
140.2
21
-73.66
0
LINE
8
BLACK
6
CONTINUOUS
10
139.7
20
-88.4
11
139.7
21
-89.4
0
LINE
8
BLACK
6
CONTINUOUS
10
139.2
20
-88.9
11
140.2
21
-88.9
0
LINE
8
BLACK
6
CONTINUOUS
10
142.24
20
-73.16
11
142.24
21
-74.16
0
LINE
8
BLACK
6
CONTINUOUS
10
141.74
20
-73.66
11
142.74
21
-73.66
0
LINE
8
BLACK
6
CONTINUOUS
10
142.24
20
-88.4
11
142.24
21
-89.4
0
LINE
8
BLACK
6
CONTINUOUS
10
141.74
20
-88.9
11
142.74
21
-88.9
0
LINE
8
BLACK
6
CONTINUOUS
10
144.78
20
-73.16
11
144.78
21
-74.16
0
LINE
8
BLACK
6
CONTINUOUS
10
144.28
20
-73.66
11
145.28
21
-73.66
0
LINE
8
BLACK
6
CONTINUOUS
10
144.78
20
-88.4
11
144.78
21
-89.4
0
LINE
8
BLACK
6
CONTINUOUS
10
144.28
20
-88.9
11
145.28
21
-88.9
0
LINE
8
BLACK
6
CONTINUOUS
10
147.32
20
-73.16
11
147.32
21
-74.16
0
LINE
8
BLACK
6
CONTINUOUS
10
146.82
20
-73.66
11
147.82
21
-73.66
0
LINE
8
BLACK
6
CONTINUOUS
10
147.32
20
-88.4
11
147.32
21
-89.4
0
LINE
8
BLACK
6
CONTINUOUS
10
146.82
20
-88.9
11
147.82
21
-88.9
0
LINE
8
BLACK
6
CONTINUOUS
10
149.86
20
-73.16
11
149.86
21
-74.16
0
LINE
8
BLACK
6
CONTINUOUS
10
149.36
20
-73.66
11
150.36
21
-73.66
0
LINE
8
BLACK
6
CONTINUOUS
10
149.86
20
-88.4
11
149.86
21
-89.4
0
LINE
8
BLACK
6
CONTINUOUS
10
149.36
20
-88.9
11
150.36
21
-88.9
0
LINE
8
BLACK
6
CONTINUOUS
10
152.4
20
-73.16
11
152.4
21
-74.16
0
LINE
8
BLACK
6
CONTINUOUS
10
151.9
20
-73.66
11
152.9
21
-73.66
0
LINE
8
BLACK
6
CONTINUOUS
10
152.4
20
-88.4
11
152.4
21
-89.4
0
LINE
8
BLACK
6
CONTINUOUS
10
151.9
20
-88.9
11
152.9
21
-88.9
0
LINE
8
BLACK
6
CONTINUOUS
10
154.94
20
-73.16
11
154.94
21
-74.16
0
LINE
8
BLACK
6
CONTINUOUS
10
154.44
20
-73.66
11
155.44
21
-73.66
0
LINE
8
BLACK
6
CONTINUOUS
10
154.94
20
-88.4
11
154.94
21
-89.4
0
LINE
8
BLACK
6
CONTINUOUS
10
154.44
20
-88.9
11
155.44
21
-88.9
0
LINE
8
BLACK
6
CONTINUOUS
10
157.48
20
-73.16
11
157.48
21
-74.16
0
LINE
8
BLACK
6
CONTINUOUS
10
156.98
20
-73.66
11
157.98
21
-73.66
0
LINE
8
BLACK
6
CONTINUOUS
10
157.48
20
-88.4
11
157.48
21
-89.4
0
LINE
8
BLACK
6
CONTINUOUS
10
156.98
20
-88.9
11
157.98
21
-88.9
0
LINE
8
BLACK
6
CONTINUOUS
10
160.02
20
-73.16
11
160.02
21
-74.16
0
LINE
8
BLACK
6
CONTINUOUS
10
159.52
20
-73.66
11
160.52
21
-73.66
0
LINE
8
BLACK
6
CONTINUOUS
10
160.02
20
-88.4
11
160.02
21
-89.4
0
LINE
8
BLACK
6
CONTINUOUS
10
159.52
20
-88.9
11
160.52
21
-88.9
0
LINE
8
BLACK
6
CONTINUOUS
10
162.56
20
-73.16
11
162.56
21
-74.16
0
LINE
8
BLACK
6
CONTINUOUS
10
162.06
20
-73.66
11
163.06
21
-73.66
0
LINE
8
BLACK
6
CONTINUOUS
10
162.56
20
-88.4
11
162.56
21
-89.4
0
LINE
8
BLACK
6
CONTINUOUS
10
162.06
20
-88.9
11
163.06
21
-88.9
0
LINE
8
BLACK
6
CONTINUOUS
10
165.1
20
-73.16
11
165.1
21
-74.16
0
LINE
8
BLACK
6
CONTINUOUS
10
164.6
20
-73.66
11
165.6
21
-73.66
0
LINE
8
BLACK
6
CONTINUOUS
10
165.1
20
-88.4
11
165.1
21
-89.4
0
LINE
8
BLACK
6
CONTINUOUS
10
164.6
20
-88.9
11
165.6
21
-88.9
0
LINE
8
BLACK
6
CONTINUOUS
10
140.089
20
-96.9089
11
140.089
21
-96.1311
0
LINE
8
BLACK
6
CONTINUOUS
10
140.089
20
-96.1311
11
139.311
21
-96.1311
0
LINE
8
BLACK
6
CONTINUOUS
10
139.311
20
-96.1311
11
139.311
21
-96.9089
0
LINE
8
BLACK
6
CONTINUOUS
10
139.311
20
-96.9089
11
140.089
21
-96.9089
0
LINE
8
BLACK
6
CONTINUOUS
10
140.089
20
-99.4489
11
140.089
21
-98.6711
0
LINE
8
BLACK
6
CONTINUOUS
10
140.089
20
-98.6711
11
139.311
21
-98.6711
0
LINE
8
BLACK
6
CONTINUOUS
10
139.311
20
-98.6711
11
139.311
21
-99.4489
0
LINE
8
BLACK
6
CONTINUOUS
10
139.311
20
-99.4489
11
140.089
21
-99.4489
0
LINE
8
BLACK
6
CONTINUOUS
10
140.089
20
-101.989
11
140.089
21
-101.211
0
LINE
8
BLACK
6
CONTINUOUS
10
140.089
20
-101.211
11
139.311
21
-101.211
0
LINE
8
BLACK
6
CONTINUOUS
10
139.311
20
-101.211
11
139.311
21
-101.989
0
LINE
8
BLACK
6
CONTINUOUS
10
139.311
20
-101.989
11
140.089
21
-101.989
0
LINE
8
BLACK
6
CONTINUOUS
10
160.409
20
-96.9089
11
160.409
21
-96.1311
0
LINE
8
BLACK
6
CONTINUOUS
10
160.409
20
-96.1311
11
159.631
21
-96.1311
0
LINE
8
BLACK
6
CONTINUOUS
10
159.631
20
-96.1311
11
159.631
21
-96.9089
0
LINE
8
BLACK
6
CONTINUOUS
10
159.631
20
-96.9089
11
160.409
21
-96.9089
0
LINE
8
BLACK
6
CONTINUOUS
10
160.409
20
-99.4489
11
160.409
21
-98.6711
0
LINE
8
BLACK
6
CONTINUOUS
10
160.409
20
-98.6711
11
159.631
21
-98.6711
0
LINE
8
BLACK
6
CONTINUOUS
10
159.631
20
-98.6711
11
159.631
21
-99.4489
0
LINE
8
BLACK
6
CONTINUOUS
10
159.631
20
-99.4489
11
160.409
21
-99.4489
0
LINE
8
BLACK
6
CONTINUOUS
10
160.409
20
-101.989
11
160.409
21
-101.211
0
LINE
8
BLACK
6
CONTINUOUS
10
160.409
20
-101.211
11
159.631
21
-101.211
0
LINE
8
BLACK
6
CONTINUOUS
10
159.631
20
-101.211
11
159.631
21
-101.989
0
LINE
8
BLACK
6
CONTINUOUS
10
159.631
20
-101.989
11
160.409
21
-101.989
0
LINE
8
BLACK
6
CONTINUOUS
10
129.54
20
-104.91
11
130.19
21
-104.26
0
LINE
8
BLACK
6
CONTINUOUS
10
130.19
20
-104.26
11
129.54
21
-103.61
0
LINE
8
BLACK
6
CONTINUOUS
10
129.54
20
-103.61
11
128.89
21
-104.26
0
LINE
8
BLACK
6
CONTINUOUS
10
128.89
20
-104.26
11
129.54
21
-104.91
0
LINE
8
BLACK
6
CONTINUOUS
10
129.54
20
-109.91
11
130.19
21
-109.26
0
LINE
8
BLACK
6
CONTINUOUS
10
130.19
20
-109.26
11
129.54
21
-108.61
0
LINE
8
BLACK
6
CONTINUOUS
10
129.54
20
-108.61
11
128.89
21
-109.26
0
LINE
8
BLACK
6
CONTINUOUS
10
128.89
20
-109.26
11
129.54
21
-109.91
0
LINE
8
BLACK
6
CONTINUOUS
10
166.525
20
-104.87
11
167.175
21
-104.22
0
LINE
8
BLACK
6
CONTINUOUS
10
167.175
20
-104.22
11
166.525
21
-103.57
0
LINE
8
BLACK
6
CONTINUOUS
10
166.525
20
-103.57
11
165.875
21
-104.22
0
LINE
8
BLACK
6
CONTINUOUS
10
165.875
20
-104.22
11
166.525
21
-104.87
0
LINE
8
BLACK
6
CONTINUOUS
10
166.525
20
-109.87
11
167.175
21
-109.22
0
LINE
8
BLACK
6
CONTINUOUS
10
167.175
20
-109.22
11
166.525
21
-108.57
0
LINE
8
BLACK
6
CONTINUOUS
10
166.525
20
-108.57
11
165.875
21
-109.22
0
LINE
8
BLACK
6
CONTINUOUS
10
165.875
20
-109.22
11
166.525
21
-109.87
0
LINE
8
BLACK
6
CONTINUOUS
10
129.71
20
-63.67
11
131.91
21
-65.87
0
LINE
8
BLACK
6
CONTINUOUS
10
131.91
20
-63.67
11
129.71
21
-65.87
0
CIRCLE
8
BLACK
10
130.81
20
-64.77
40
1.1
0
LINE
8
BLACK
6
CONTINUOUS
10
166.54
20
-92.88
11
168.74
21
-95.08
0
LINE
8
BLACK
6
CONTINUOUS
10
168.74
20
-92.88
11
166.54
21
-95.08
0
CIRCLE
8
BLACK
10
167.64
20
-93.98
40
1.1
0
LINE
8
BLACK
6
CONTINUOUS
10
126.836
20
-116.065
11
126.836
21
-114.065
0
LINE
8
BLACK
6
CONTINUOUS
10
126.836
20
-114.065
11
127.312
21
-114.065
0
LINE
8
BLACK
6
CONTINUOUS
10
127.312
20
-114.065
11
127.598
21
-114.16
0
LINE
8
BLACK
6
CONTINUOUS
10
127.598
20
-114.16
11
127.789
21
-114.35
0
LINE
8
BLACK
6
CONTINUOUS
10
127.789
20
-114.35
11
127.884
21
-114.541
0
LINE
8
BLACK
6
CONTINUOUS
10
127.884
20
-114.541
11
127.979
21
-114.922
0
LINE
8
BLACK
6
CONTINUOUS
10
127.979
20
-114.922
11
127.979
21
-115.208
0
LINE
8
BLACK
6
CONTINUOUS
10
127.979
20
-115.208
11
127.884
21
-115.589
0
LINE
8
BLACK
6
CONTINUOUS
10
127.884
20
-115.589
11
127.789
21
-115.779
0
LINE
8
BLACK
6
CONTINUOUS
10
127.789
20
-115.779
11
127.598
21
-115.97
0
LINE
8
BLACK
6
CONTINUOUS
10
127.598
20
-115.97
11
127.312
21
-116.065
0
LINE
8
BLACK
6
CONTINUOUS
10
127.312
20
-116.065
11
126.836
21
-116.065
0
LINE
8
BLACK
6
CONTINUOUS
10
128.836
20
-116.065
11
128.836
21
-114.731
0
LINE
8
BLACK
6
CONTINUOUS
10
128.836
20
-115.112
11
128.931
21
-114.922
0
LINE
8
BLACK
6
CONTINUOUS
10
128.931
20
-114.922
11
129.027
21
-114.827
0
LINE
8
BLACK
6
CONTINUOUS
10
129.027
20
-114.827
11
129.217
21
-114.731
0
LINE
8
BLACK
6
CONTINUOUS
10
129.217
20
-114.731
11
129.408
21
-114.731
0
LINE
8
BLACK
6
CONTINUOUS
10
130.074
20
-116.065
11
130.074
21
-114.731
0
LINE
8
BLACK
6
CONTINUOUS
10
130.074
20
-114.065
11
129.979
21
-114.16
0
LINE
8
BLACK
6
CONTINUOUS
10
129.979
20
-114.16
11
130.074
21
-114.255
0
LINE
8
BLACK
6
CONTINUOUS
10
130.074
20
-114.255
11
130.17
21
-114.16
0
LINE
8
BLACK
6
CONTINUOUS
10
130.17
20
-114.16
11
130.074
21
-114.065
0
LINE
8
BLACK
6
CONTINUOUS
10
130.074
20
-114.065
11
130.074
21
-114.255
0
LINE
8
BLACK
6
CONTINUOUS
10
131.312
20
-116.065
11
131.122
21
-115.97
0
LINE
8
BLACK
6
CONTINUOUS
10
131.122
20
-115.97
11
131.027
21
-115.779
0
LINE
8
BLACK
6
CONTINUOUS
10
131.027
20
-115.779
11
131.027
21
-114.065
0
LINE
8
BLACK
6
CONTINUOUS
10
132.36
20
-116.065
11
132.17
21
-115.97
0
LINE
8
BLACK
6
CONTINUOUS
10
132.17
20
-115.97
11
132.074
21
-115.779
0
LINE
8
BLACK
6
CONTINUOUS
10
132.074
20
-115.779
11
132.074
21
-114.065
0
LINE
8
BLACK
6
CONTINUOUS
10
134.322
20
-116.065
11
134.322
21
-114.065
0
LINE
8
BLACK
6
CONTINUOUS
10
134.322
20
-114.065
11
134.989
21
-115.493
0
LINE
8
BLACK
6
CONTINUOUS
10
134.989
20
-115.493
11
135.655
21
-114.065
0
LINE
8
BLACK
6
CONTINUOUS
10
135.655
20
-114.065
11
135.655
21
-116.065
0
LINE
8
BLACK
6
CONTINUOUS
10
137.465
20
-116.065
11
137.465
21
-115.017
0
LINE
8
BLACK
6
CONTINUOUS
10
137.465
20
-115.017
11
137.37
21
-114.827
0
LINE
8
BLACK
6
CONTINUOUS
10
137.37
20
-114.827
11
137.179
21
-114.731
0
LINE
8
BLACK
6
CONTINUOUS
10
137.179
20
-114.731
11
136.798
21
-114.731
0
LINE
8
BLACK
6
CONTINUOUS
10
136.798
20
-114.731
11
136.608
21
-114.827
0
LINE
8
BLACK
6
CONTINUOUS
10
137.465
20
-115.97
11
137.274
21
-116.065
0
LINE
8
BLACK
6
CONTINUOUS
10
137.274
20
-116.065
11
136.798
21
-116.065
0
LINE
8
BLACK
6
CONTINUOUS
10
136.798
20
-116.065
11
136.608
21
-115.97
0
LINE
8
BLACK
6
CONTINUOUS
10
136.608
20
-115.97
11
136.512
21
-115.779
0
LINE
8
BLACK
6
CONTINUOUS
10
136.512
20
-115.779
11
136.512
21
-115.589
0
LINE
8
BLACK
6
CONTINUOUS
10
136.512
20
-115.589
11
136.608
21
-115.398
0
LINE
8
BLACK
6
CONTINUOUS
10
136.608
20
-115.398
11
136.798
21
-115.303
0
LINE
8
BLACK
6
CONTINUOUS
10
136.798
20
-115.303
11
137.274
21
-115.303
0
LINE
8
BLACK
6
CONTINUOUS
10
137.274
20
-115.303
11
137.465
21
-115.208
0
LINE
8
BLACK
6
CONTINUOUS
10
138.417
20
-114.731
11
138.417
21
-116.731
0
LINE
8
BLACK
6
CONTINUOUS
10
138.417
20
-114.827
11
138.608
21
-114.731
0
LINE
8
BLACK
6
CONTINUOUS
10
138.608
20
-114.731
11
138.989
21
-114.731
0
LINE
8
BLACK
6
CONTINUOUS
10
138.989
20
-114.731
11
139.179
21
-114.827
0
LINE
8
BLACK
6
CONTINUOUS
10
139.179
20
-114.827
11
139.274
21
-114.922
0
LINE
8
BLACK
6
CONTINUOUS
10
139.274
20
-114.922
11
139.37
21
-115.112
0
LINE
8
BLACK
6
CONTINUOUS
10
139.37
20
-115.112
11
139.37
21
-115.684
0
LINE
8
BLACK
6
CONTINUOUS
10
139.37
20
-115.684
11
139.274
21
-115.874
0
LINE
8
BLACK
6
CONTINUOUS
10
139.274
20
-115.874
11
139.179
21
-115.97
0
LINE
8
BLACK
6
CONTINUOUS
10
139.179
20
-115.97
11
138.989
21
-116.065
0
LINE
8
BLACK
6
CONTINUOUS
10
138.989
20
-116.065
11
138.608
21
-116.065
0
LINE
8
BLACK
6
CONTINUOUS
10
138.608
20
-116.065
11
138.417
21
-115.97
0
LINE
8
BLACK
6
CONTINUOUS
10
140.227
20
-115.874
11
140.322
21
-115.97
0
LINE
8
BLACK
6
CONTINUOUS
10
140.322
20
-115.97
11
140.227
21
-116.065
0
LINE
8
BLACK
6
CONTINUOUS
10
140.227
20
-116.065
11
140.131
21
-115.97
0
LINE
8
BLACK
6
CONTINUOUS
10
140.131
20
-115.97
11
140.227
21
-115.874
0
LINE
8
BLACK
6
CONTINUOUS
10
140.227
20
-115.874
11
140.227
21
-116.065
0
LINE
8
BLACK
6
CONTINUOUS
10
140.227
20
-114.827
11
140.322
21
-114.922
0
LINE
8
BLACK
6
CONTINUOUS
10
140.322
20
-114.922
11
140.227
21
-115.017
0
LINE
8
BLACK
6
CONTINUOUS
10
140.227
20
-115.017
11
140.131
21
-114.922
0
LINE
8
BLACK
6
CONTINUOUS
10
140.131
20
-114.922
11
140.227
21
-114.827
0
LINE
8
BLACK
6
CONTINUOUS
10
140.227
20
-114.827
11
140.227
21
-115.017
0
LINE
8
BLACK
6
CONTINUOUS
10
123.96
20
-119.33
11
124.36
21
-119.73
0
LINE
8
BLACK
6
CONTINUOUS
10
124.36
20
-119.33
11
123.96
21
-119.73
0
LINE
8
BLACK
6
CONTINUOUS
10
127.217
20
-118.265
11
127.408
21
-118.265
0
LINE
8
BLACK
6
CONTINUOUS
10
127.408
20
-118.265
11
127.598
21
-118.36
0
LINE
8
BLACK
6
CONTINUOUS
10
127.598
20
-118.36
11
127.693
21
-118.455
0
LINE
8
BLACK
6
CONTINUOUS
10
127.693
20
-118.455
11
127.789
21
-118.646
0
LINE
8
BLACK
6
CONTINUOUS
10
127.789
20
-118.646
11
127.884
21
-119.027
0
LINE
8
BLACK
6
CONTINUOUS
10
127.884
20
-119.027
11
127.884
21
-119.503
0
LINE
8
BLACK
6
CONTINUOUS
10
127.884
20
-119.503
11
127.789
21
-119.884
0
LINE
8
BLACK
6
CONTINUOUS
10
127.789
20
-119.884
11
127.693
21
-120.074
0
LINE
8
BLACK
6
CONTINUOUS
10
127.693
20
-120.074
11
127.598
21
-120.17
0
LINE
8
BLACK
6
CONTINUOUS
10
127.598
20
-120.17
11
127.408
21
-120.265
0
LINE
8
BLACK
6
CONTINUOUS
10
127.408
20
-120.265
11
127.217
21
-120.265
0
LINE
8
BLACK
6
CONTINUOUS
10
127.217
20
-120.265
11
127.027
21
-120.17
0
LINE
8
BLACK
6
CONTINUOUS
10
127.027
20
-120.17
11
126.931
21
-120.074
0
LINE
8
BLACK
6
CONTINUOUS
10
126.931
20
-120.074
11
126.836
21
-119.884
0
LINE
8
BLACK
6
CONTINUOUS
10
126.836
20
-119.884
11
126.741
21
-119.503
0
LINE
8
BLACK
6
CONTINUOUS
10
126.741
20
-119.503
11
126.741
21
-119.027
0
LINE
8
BLACK
6
CONTINUOUS
10
126.741
20
-119.027
11
126.836
21
-118.646
0
LINE
8
BLACK
6
CONTINUOUS
10
126.836
20
-118.646
11
126.931
21
-118.455
0
LINE
8
BLACK
6
CONTINUOUS
10
126.931
20
-118.455
11
127.027
21
-118.36
0
LINE
8
BLACK
6
CONTINUOUS
10
127.027
20
-118.36
11
127.217
21
-118.265
0
LINE
8
BLACK
6
CONTINUOUS
10
128.741
20
-120.074
11
128.836
21
-120.17
0
LINE
8
BLACK
6
CONTINUOUS
10
128.836
20
-120.17
11
128.741
21
-120.265
0
LINE
8
BLACK
6
CONTINUOUS
10
128.741
20
-120.265
11
128.646
21
-120.17
0
LINE
8
BLACK
6
CONTINUOUS
10
128.646
20
-120.17
11
128.741
21
-120.074
0
LINE
8
BLACK
6
CONTINUOUS
10
128.741
20
-120.074
11
128.741
21
-120.265
0
LINE
8
BLACK
6
CONTINUOUS
10
130.55
20
-118.931
11
130.55
21
-120.265
0
LINE
8
BLACK
6
CONTINUOUS
10
130.074
20
-118.17
11
129.598
21
-119.598
0
LINE
8
BLACK
6
CONTINUOUS
10
129.598
20
-119.598
11
130.836
21
-119.598
0
LINE
8
BLACK
6
CONTINUOUS
10
131.979
20
-118.265
11
132.17
21
-118.265
0
LINE
8
BLACK
6
CONTINUOUS
10
132.17
20
-118.265
11
132.36
21
-118.36
0
LINE
8
BLACK
6
CONTINUOUS
10
132.36
20
-118.36
11
132.455
21
-118.455
0
LINE
8
BLACK
6
CONTINUOUS
10
132.455
20
-118.455
11
132.55
21
-118.646
0
LINE
8
BLACK
6
CONTINUOUS
10
132.55
20
-118.646
11
132.646
21
-119.027
0
LINE
8
BLACK
6
CONTINUOUS
10
132.646
20
-119.027
11
132.646
21
-119.503
0
LINE
8
BLACK
6
CONTINUOUS
10
132.646
20
-119.503
11
132.55
21
-119.884
0
LINE
8
BLACK
6
CONTINUOUS
10
132.55
20
-119.884
11
132.455
21
-120.074
0
LINE
8
BLACK
6
CONTINUOUS
10
132.455
20
-120.074
11
132.36
21
-120.17
0
LINE
8
BLACK
6
CONTINUOUS
10
132.36
20
-120.17
11
132.17
21
-120.265
0
LINE
8
BLACK
6
CONTINUOUS
10
132.17
20
-120.265
11
131.979
21
-120.265
0
LINE
8
BLACK
6
CONTINUOUS
10
131.979
20
-120.265
11
131.789
21
-120.17
0
LINE
8
BLACK
6
CONTINUOUS
10
131.789
20
-120.17
11
131.693
21
-120.074
0
LINE
8
BLACK
6
CONTINUOUS
10
131.693
20
-120.074
11
131.598
21
-119.884
0
LINE
8
BLACK
6
CONTINUOUS
10
131.598
20
-119.884
11
131.503
21
-119.503
0
LINE
8
BLACK
6
CONTINUOUS
10
131.503
20
-119.503
11
131.503
21
-119.027
0
LINE
8
BLACK
6
CONTINUOUS
10
131.503
20
-119.027
11
131.598
21
-118.646
0
LINE
8
BLACK
6
CONTINUOUS
10
131.598
20
-118.646
11
131.693
21
-118.455
0
LINE
8
BLACK
6
CONTINUOUS
10
131.693
20
-118.455
11
131.789
21
-118.36
0
LINE
8
BLACK
6
CONTINUOUS
10
131.789
20
-118.36
11
131.979
21
-118.265
0
LINE
8
BLACK
6
CONTINUOUS
10
133.884
20
-118.265
11
134.074
21
-118.265
0
LINE
8
BLACK
6
CONTINUOUS
10
134.074
20
-118.265
11
134.265
21
-118.36
0
LINE
8
BLACK
6
CONTINUOUS
10
134.265
20
-118.36
11
134.36
21
-118.455
0
LINE
8
BLACK
6
CONTINUOUS
10
134.36
20
-118.455
11
134.455
21
-118.646
0
LINE
8
BLACK
6
CONTINUOUS
10
134.455
20
-118.646
11
134.55
21
-119.027
0
LINE
8
BLACK
6
CONTINUOUS
10
134.55
20
-119.027
11
134.55
21
-119.503
0
LINE
8
BLACK
6
CONTINUOUS
10
134.55
20
-119.503
11
134.455
21
-119.884
0
LINE
8
BLACK
6
CONTINUOUS
10
134.455
20
-119.884
11
134.36
21
-120.074
0
LINE
8
BLACK
6
CONTINUOUS
10
134.36
20
-120.074
11
134.265
21
-120.17
0
LINE
8
BLACK
6
CONTINUOUS
10
134.265
20
-120.17
11
134.074
21
-120.265
0
LINE
8
BLACK
6
CONTINUOUS
10
134.074
20
-120.265
11
133.884
21
-120.265
0
LINE
8
BLACK
6
CONTINUOUS
10
133.884
20
-120.265
11
133.693
21
-120.17
0
LINE
8
BLACK
6
CONTINUOUS
10
133.693
20
-120.17
11
133.598
21
-120.074
0
LINE
8
BLACK
6
CONTINUOUS
10
133.598
20
-120.074
11
133.503
21
-119.884
0
LINE
8
BLACK
6
CONTINUOUS
10
133.503
20
-119.884
11
133.408
21
-119.503
0
LINE
8
BLACK
6
CONTINUOUS
10
133.408
20
-119.503
11
133.408
21
-119.027
0
LINE
8
BLACK
6
CONTINUOUS
10
133.408
20
-119.027
11
133.503
21
-118.646
0
LINE
8
BLACK
6
CONTINUOUS
10
133.503
20
-118.646
11
133.598
21
-118.455
0
LINE
8
BLACK
6
CONTINUOUS
10
133.598
20
-118.455
11
133.693
21
-118.36
0
LINE
8
BLACK
6
CONTINUOUS
10
133.693
20
-118.36
11
133.884
21
-118.265
0
LINE
8
BLACK
6
CONTINUOUS
10
135.408
20
-120.265
11
135.408
21
-118.931
0
LINE
8
BLACK
6
CONTINUOUS
10
135.408
20
-119.122
11
135.503
21
-119.027
0
LINE
8
BLACK
6
CONTINUOUS
10
135.503
20
-119.027
11
135.693
21
-118.931
0
LINE
8
BLACK
6
CONTINUOUS
10
135.693
20
-118.931
11
135.979
21
-118.931
0
LINE
8
BLACK
6
CONTINUOUS
10
135.979
20
-118.931
11
136.17
21
-119.027
0
LINE
8
BLACK
6
CONTINUOUS
10
136.17
20
-119.027
11
136.265
21
-119.217
0
LINE
8
BLACK
6
CONTINUOUS
10
136.265
20
-119.217
11
136.265
21
-120.265
0
LINE
8
BLACK
6
CONTINUOUS
10
136.265
20
-119.217
11
136.36
21
-119.027
0
LINE
8
BLACK
6
CONTINUOUS
10
136.36
20
-119.027
11
136.55
21
-118.931
0
LINE
8
BLACK
6
CONTINUOUS
10
136.55
20
-118.931
11
136.836
21
-118.931
0
LINE
8
BLACK
6
CONTINUOUS
10
136.836
20
-118.931
11
137.027
21
-119.027
0
LINE
8
BLACK
6
CONTINUOUS
10
137.027
20
-119.027
11
137.122
21
-119.217
0
LINE
8
BLACK
6
CONTINUOUS
10
137.122
20
-119.217
11
137.122
21
-120.265
0
LINE
8
BLACK
6
CONTINUOUS
10
138.074
20
-120.265
11
138.074
21
-118.931
0
LINE
8
BLACK
6
CONTINUOUS
10
138.074
20
-119.122
11
138.17
21
-119.027
0
LINE
8
BLACK
6
CONTINUOUS
10
138.17
20
-119.027
11
138.36
21
-118.931
0
LINE
8
BLACK
6
CONTINUOUS
10
138.36
20
-118.931
11
138.646
21
-118.931
0
LINE
8
BLACK
6
CONTINUOUS
10
138.646
20
-118.931
11
138.836
21
-119.027
0
LINE
8
BLACK
6
CONTINUOUS
10
138.836
20
-119.027
11
138.931
21
-119.217
0
LINE
8
BLACK
6
CONTINUOUS
10
138.931
20
-119.217
11
138.931
21
-120.265
0
LINE
8
BLACK
6
CONTINUOUS
10
138.931
20
-119.217
11
139.027
21
-119.027
0
LINE
8
BLACK
6
CONTINUOUS
10
139.027
20
-119.027
11
139.217
21
-118.931
0
LINE
8
BLACK
6
CONTINUOUS
10
139.217
20
-118.931
11
139.503
21
-118.931
0
LINE
8
BLACK
6
CONTINUOUS
10
139.503
20
-118.931
11
139.693
21
-119.027
0
LINE
8
BLACK
6
CONTINUOUS
10
139.693
20
-119.027
11
139.789
21
-119.217
0
LINE
8
BLACK
6
CONTINUOUS
10
139.789
20
-119.217
11
139.789
21
-120.265
0
LINE
8
BLACK
6
CONTINUOUS
10
143.37
20
-118.17
11
141.655
21
-120.741
0
LINE
8
BLACK
6
CONTINUOUS
10
145.617
20
-118.265
11
145.808
21
-118.265
0
LINE
8
BLACK
6
CONTINUOUS
10
145.808
20
-118.265
11
145.998
21
-118.36
0
LINE
8
BLACK
6
CONTINUOUS
10
145.998
20
-118.36
11
146.093
21
-118.455
0
LINE
8
BLACK
6
CONTINUOUS
10
146.093
20
-118.455
11
146.189
21
-118.646
0
LINE
8
BLACK
6
CONTINUOUS
10
146.189
20
-118.646
11
146.284
21
-119.027
0
LINE
8
BLACK
6
CONTINUOUS
10
146.284
20
-119.027
11
146.284
21
-119.503
0
LINE
8
BLACK
6
CONTINUOUS
10
146.284
20
-119.503
11
146.189
21
-119.884
0
LINE
8
BLACK
6
CONTINUOUS
10
146.189
20
-119.884
11
146.093
21
-120.074
0
LINE
8
BLACK
6
CONTINUOUS
10
146.093
20
-120.074
11
145.998
21
-120.17
0
LINE
8
BLACK
6
CONTINUOUS
10
145.998
20
-120.17
11
145.808
21
-120.265
0
LINE
8
BLACK
6
CONTINUOUS
10
145.808
20
-120.265
11
145.617
21
-120.265
0
LINE
8
BLACK
6
CONTINUOUS
10
145.617
20
-120.265
11
145.427
21
-120.17
0
LINE
8
BLACK
6
CONTINUOUS
10
145.427
20
-120.17
11
145.331
21
-120.074
0
LINE
8
BLACK
6
CONTINUOUS
10
145.331
20
-120.074
11
145.236
21
-119.884
0
LINE
8
BLACK
6
CONTINUOUS
10
145.236
20
-119.884
11
145.141
21
-119.503
0
LINE
8
BLACK
6
CONTINUOUS
10
145.141
20
-119.503
11
145.141
21
-119.027
0
LINE
8
BLACK
6
CONTINUOUS
10
145.141
20
-119.027
11
145.236
21
-118.646
0
LINE
8
BLACK
6
CONTINUOUS
10
145.236
20
-118.646
11
145.331
21
-118.455
0
LINE
8
BLACK
6
CONTINUOUS
10
145.331
20
-118.455
11
145.427
21
-118.36
0
LINE
8
BLACK
6
CONTINUOUS
10
145.427
20
-118.36
11
145.617
21
-118.265
0
LINE
8
BLACK
6
CONTINUOUS
10
147.141
20
-120.074
11
147.236
21
-120.17
0
LINE
8
BLACK
6
CONTINUOUS
10
147.236
20
-120.17
11
147.141
21
-120.265
0
LINE
8
BLACK
6
CONTINUOUS
10
147.141
20
-120.265
11
147.046
21
-120.17
0
LINE
8
BLACK
6
CONTINUOUS
10
147.046
20
-120.17
11
147.141
21
-120.074
0
LINE
8
BLACK
6
CONTINUOUS
10
147.141
20
-120.074
11
147.141
21
-120.265
0
LINE
8
BLACK
6
CONTINUOUS
10
148.474
20
-118.265
11
148.665
21
-118.265
0
LINE
8
BLACK
6
CONTINUOUS
10
148.665
20
-118.265
11
148.855
21
-118.36
0
LINE
8
BLACK
6
CONTINUOUS
10
148.855
20
-118.36
11
148.95
21
-118.455
0
LINE
8
BLACK
6
CONTINUOUS
10
148.95
20
-118.455
11
149.046
21
-118.646
0
LINE
8
BLACK
6
CONTINUOUS
10
149.046
20
-118.646
11
149.141
21
-119.027
0
LINE
8
BLACK
6
CONTINUOUS
10
149.141
20
-119.027
11
149.141
21
-119.503
0
LINE
8
BLACK
6
CONTINUOUS
10
149.141
20
-119.503
11
149.046
21
-119.884
0
LINE
8
BLACK
6
CONTINUOUS
10
149.046
20
-119.884
11
148.95
21
-120.074
0
LINE
8
BLACK
6
CONTINUOUS
10
148.95
20
-120.074
11
148.855
21
-120.17
0
LINE
8
BLACK
6
CONTINUOUS
10
148.855
20
-120.17
11
148.665
21
-120.265
0
LINE
8
BLACK
6
CONTINUOUS
10
148.665
20
-120.265
11
148.474
21
-120.265
0
LINE
8
BLACK
6
CONTINUOUS
10
148.474
20
-120.265
11
148.284
21
-120.17
0
LINE
8
BLACK
6
CONTINUOUS
10
148.284
20
-120.17
11
148.189
21
-120.074
0
LINE
8
BLACK
6
CONTINUOUS
10
148.189
20
-120.074
11
148.093
21
-119.884
0
LINE
8
BLACK
6
CONTINUOUS
10
148.093
20
-119.884
11
147.998
21
-119.503
0
LINE
8
BLACK
6
CONTINUOUS
10
147.998
20
-119.503
11
147.998
21
-119.027
0
LINE
8
BLACK
6
CONTINUOUS
10
147.998
20
-119.027
11
148.093
21
-118.646
0
LINE
8
BLACK
6
CONTINUOUS
10
148.093
20
-118.646
11
148.189
21
-118.455
0
LINE
8
BLACK
6
CONTINUOUS
10
148.189
20
-118.455
11
148.284
21
-118.36
0
LINE
8
BLACK
6
CONTINUOUS
10
148.284
20
-118.36
11
148.474
21
-118.265
0
LINE
8
BLACK
6
CONTINUOUS
10
151.046
20
-120.265
11
149.903
21
-120.265
0
LINE
8
BLACK
6
CONTINUOUS
10
150.474
20
-120.265
11
150.474
21
-118.265
0
LINE
8
BLACK
6
CONTINUOUS
10
150.474
20
-118.265
11
150.284
21
-118.55
0
LINE
8
BLACK
6
CONTINUOUS
10
150.284
20
-118.55
11
150.093
21
-118.741
0
LINE
8
BLACK
6
CONTINUOUS
10
150.093
20
-118.741
11
149.903
21
-118.836
0
LINE
8
BLACK
6
CONTINUOUS
10
152.855
20
-118.265
11
151.903
21
-118.265
0
LINE
8
BLACK
6
CONTINUOUS
10
151.903
20
-118.265
11
151.808
21
-119.217
0
LINE
8
BLACK
6
CONTINUOUS
10
151.808
20
-119.217
11
151.903
21
-119.122
0
LINE
8
BLACK
6
CONTINUOUS
10
151.903
20
-119.122
11
152.093
21
-119.027
0
LINE
8
BLACK
6
CONTINUOUS
10
152.093
20
-119.027
11
152.57
21
-119.027
0
LINE
8
BLACK
6
CONTINUOUS
10
152.57
20
-119.027
11
152.76
21
-119.122
0
LINE
8
BLACK
6
CONTINUOUS
10
152.76
20
-119.122
11
152.855
21
-119.217
0
LINE
8
BLACK
6
CONTINUOUS
10
152.855
20
-119.217
11
152.95
21
-119.408
0
LINE
8
BLACK
6
CONTINUOUS
10
152.95
20
-119.408
11
152.95
21
-119.884
0
LINE
8
BLACK
6
CONTINUOUS
10
152.95
20
-119.884
11
152.855
21
-120.074
0
LINE
8
BLACK
6
CONTINUOUS
10
152.855
20
-120.074
11
152.76
21
-120.17
0
LINE
8
BLACK
6
CONTINUOUS
10
152.76
20
-120.17
11
152.57
21
-120.265
0
LINE
8
BLACK
6
CONTINUOUS
10
152.57
20
-120.265
11
152.093
21
-120.265
0
LINE
8
BLACK
6
CONTINUOUS
10
152.093
20
-120.265
11
151.903
21
-120.17
0
LINE
8
BLACK
6
CONTINUOUS
10
151.903
20
-120.17
11
151.808
21
-120.074
0
LINE
8
BLACK
6
CONTINUOUS
10
153.617
20
-118.265
11
154.95
21
-118.265
0
LINE
8
BLACK
6
CONTINUOUS
10
154.95
20
-118.265
11
154.093
21
-120.265
0
LINE
8
BLACK
6
CONTINUOUS
10
155.617
20
-118.265
11
155.617
21
-118.646
0
LINE
8
BLACK
6
CONTINUOUS
10
156.379
20
-118.265
11
156.379
21
-118.646
0
LINE
8
BLACK
6
CONTINUOUS
10
159.008
20
-121.027
11
158.912
21
-120.931
0
LINE
8
BLACK
6
CONTINUOUS
10
158.912
20
-120.931
11
158.722
21
-120.646
0
LINE
8
BLACK
6
CONTINUOUS
10
158.722
20
-120.646
11
158.627
21
-120.455
0
LINE
8
BLACK
6
CONTINUOUS
10
158.627
20
-120.455
11
158.531
21
-120.17
0
LINE
8
BLACK
6
CONTINUOUS
10
158.531
20
-120.17
11
158.436
21
-119.693
0
LINE
8
BLACK
6
CONTINUOUS
10
158.436
20
-119.693
11
158.436
21
-119.312
0
LINE
8
BLACK
6
CONTINUOUS
10
158.436
20
-119.312
11
158.531
21
-118.836
0
LINE
8
BLACK
6
CONTINUOUS
10
158.531
20
-118.836
11
158.627
21
-118.55
0
LINE
8
BLACK
6
CONTINUOUS
10
158.627
20
-118.55
11
158.722
21
-118.36
0
LINE
8
BLACK
6
CONTINUOUS
10
158.722
20
-118.36
11
158.912
21
-118.074
0
LINE
8
BLACK
6
CONTINUOUS
10
158.912
20
-118.074
11
159.008
21
-117.979
0
LINE
8
BLACK
6
CONTINUOUS
10
160.627
20
-118.931
11
160.627
21
-120.265
0
LINE
8
BLACK
6
CONTINUOUS
10
160.15
20
-118.17
11
159.674
21
-119.598
0
LINE
8
BLACK
6
CONTINUOUS
10
159.674
20
-119.598
11
160.912
21
-119.598
0
LINE
8
BLACK
6
CONTINUOUS
10
162.874
20
-120.265
11
162.874
21
-118.265
0
LINE
8
BLACK
6
CONTINUOUS
10
163.731
20
-120.265
11
163.731
21
-119.217
0
LINE
8
BLACK
6
CONTINUOUS
10
163.731
20
-119.217
11
163.636
21
-119.027
0
LINE
8
BLACK
6
CONTINUOUS
10
163.636
20
-119.027
11
163.446
21
-118.931
0
LINE
8
BLACK
6
CONTINUOUS
10
163.446
20
-118.931
11
163.16
21
-118.931
0
LINE
8
BLACK
6
CONTINUOUS
10
163.16
20
-118.931
11
162.97
21
-119.027
0
LINE
8
BLACK
6
CONTINUOUS
10
162.97
20
-119.027
11
162.874
21
-119.122
0
LINE
8
BLACK
6
CONTINUOUS
10
164.97
20
-120.265
11
164.779
21
-120.17
0
LINE
8
BLACK
6
CONTINUOUS
10
164.779
20
-120.17
11
164.684
21
-120.074
0
LINE
8
BLACK
6
CONTINUOUS
10
164.684
20
-120.074
11
164.589
21
-119.884
0
LINE
8
BLACK
6
CONTINUOUS
10
164.589
20
-119.884
11
164.589
21
-119.312
0
LINE
8
BLACK
6
CONTINUOUS
10
164.589
20
-119.312
11
164.684
21
-119.122
0
LINE
8
BLACK
6
CONTINUOUS
10
164.684
20
-119.122
11
164.779
21
-119.027
0
LINE
8
BLACK
6
CONTINUOUS
10
164.779
20
-119.027
11
164.97
21
-118.931
0
LINE
8
BLACK
6
CONTINUOUS
10
164.97
20
-118.931
11
165.255
21
-118.931
0
LINE
8
BLACK
6
CONTINUOUS
10
165.255
20
-118.931
11
165.446
21
-119.027
0
LINE
8
BLACK
6
CONTINUOUS
10
165.446
20
-119.027
11
165.541
21
-119.122
0
LINE
8
BLACK
6
CONTINUOUS
10
165.541
20
-119.122
11
165.636
21
-119.312
0
LINE
8
BLACK
6
CONTINUOUS
10
165.636
20
-119.312
11
165.636
21
-119.884
0
LINE
8
BLACK
6
CONTINUOUS
10
165.636
20
-119.884
11
165.541
21
-120.074
0
LINE
8
BLACK
6
CONTINUOUS
10
165.541
20
-120.074
11
165.446
21
-120.17
0
LINE
8
BLACK
6
CONTINUOUS
10
165.446
20
-120.17
11
165.255
21
-120.265
0
LINE
8
BLACK
6
CONTINUOUS
10
165.255
20
-120.265
11
164.97
21
-120.265
0
LINE
8
BLACK
6
CONTINUOUS
10
166.779
20
-120.265
11
166.589
21
-120.17
0
LINE
8
BLACK
6
CONTINUOUS
10
166.589
20
-120.17
11
166.493
21
-119.979
0
LINE
8
BLACK
6
CONTINUOUS
10
166.493
20
-119.979
11
166.493
21
-118.265
0
LINE
8
BLACK
6
CONTINUOUS
10
168.303
20
-120.17
11
168.112
21
-120.265
0
LINE
8
BLACK
6
CONTINUOUS
10
168.112
20
-120.265
11
167.731
21
-120.265
0
LINE
8
BLACK
6
CONTINUOUS
10
167.731
20
-120.265
11
167.541
21
-120.17
0
LINE
8
BLACK
6
CONTINUOUS
10
167.541
20
-120.17
11
167.446
21
-119.979
0
LINE
8
BLACK
6
CONTINUOUS
10
167.446
20
-119.979
11
167.446
21
-119.217
0
LINE
8
BLACK
6
CONTINUOUS
10
167.446
20
-119.217
11
167.541
21
-119.027
0
LINE
8
BLACK
6
CONTINUOUS
10
167.541
20
-119.027
11
167.731
21
-118.931
0
LINE
8
BLACK
6
CONTINUOUS
10
167.731
20
-118.931
11
168.112
21
-118.931
0
LINE
8
BLACK
6
CONTINUOUS
10
168.112
20
-118.931
11
168.303
21
-119.027
0
LINE
8
BLACK
6
CONTINUOUS
10
168.303
20
-119.027
11
168.398
21
-119.217
0
LINE
8
BLACK
6
CONTINUOUS
10
168.398
20
-119.217
11
168.398
21
-119.408
0
LINE
8
BLACK
6
CONTINUOUS
10
168.398
20
-119.408
11
167.446
21
-119.598
0
LINE
8
BLACK
6
CONTINUOUS
10
169.16
20
-120.17
11
169.35
21
-120.265
0
LINE
8
BLACK
6
CONTINUOUS
10
169.35
20
-120.265
11
169.731
21
-120.265
0
LINE
8
BLACK
6
CONTINUOUS
10
169.731
20
-120.265
11
169.922
21
-120.17
0
LINE
8
BLACK
6
CONTINUOUS
10
169.922
20
-120.17
11
170.017
21
-119.979
0
LINE
8
BLACK
6
CONTINUOUS
10
170.017
20
-119.979
11
170.017
21
-119.884
0
LINE
8
BLACK
6
CONTINUOUS
10
170.017
20
-119.884
11
169.922
21
-119.693
0
LINE
8
BLACK
6
CONTINUOUS
10
169.922
20
-119.693
11
169.731
21
-119.598
0
LINE
8
BLACK
6
CONTINUOUS
10
169.731
20
-119.598
11
169.446
21
-119.598
0
LINE
8
BLACK
6
CONTINUOUS
10
169.446
20
-119.598
11
169.255
21
-119.503
0
LINE
8
BLACK
6
CONTINUOUS
10
169.255
20
-119.503
11
169.16
21
-119.312
0
LINE
8
BLACK
6
CONTINUOUS
10
169.16
20
-119.312
11
169.16
21
-119.217
0
LINE
8
BLACK
6
CONTINUOUS
10
169.16
20
-119.217
11
169.255
21
-119.027
0
LINE
8
BLACK
6
CONTINUOUS
10
169.255
20
-119.027
11
169.446
21
-118.931
0
LINE
8
BLACK
6
CONTINUOUS
10
169.446
20
-118.931
11
169.731
21
-118.931
0
LINE
8
BLACK
6
CONTINUOUS
10
169.731
20
-118.931
11
169.922
21
-119.027
0
LINE
8
BLACK
6
CONTINUOUS
10
170.684
20
-121.027
11
170.779
21
-120.931
0
LINE
8
BLACK
6
CONTINUOUS
10
170.779
20
-120.931
11
170.97
21
-120.646
0
LINE
8
BLACK
6
CONTINUOUS
10
170.97
20
-120.646
11
171.065
21
-120.455
0
LINE
8
BLACK
6
CONTINUOUS
10
171.065
20
-120.455
11
171.16
21
-120.17
0
LINE
8
BLACK
6
CONTINUOUS
10
171.16
20
-120.17
11
171.255
21
-119.693
0
LINE
8
BLACK
6
CONTINUOUS
10
171.255
20
-119.693
11
171.255
21
-119.312
0
LINE
8
BLACK
6
CONTINUOUS
10
171.255
20
-119.312
11
171.16
21
-118.836
0
LINE
8
BLACK
6
CONTINUOUS
10
171.16
20
-118.836
11
171.065
21
-118.55
0
LINE
8
BLACK
6
CONTINUOUS
10
171.065
20
-118.55
11
170.97
21
-118.36
0
LINE
8
BLACK
6
CONTINUOUS
10
170.97
20
-118.36
11
170.779
21
-118.074
0
LINE
8
BLACK
6
CONTINUOUS
10
170.779
20
-118.074
11
170.684
21
-117.979
0
CIRCLE
8
BLACK
10
123.96
20
-122.17
40
0.4
0
LINE
8
BLACK
6
CONTINUOUS
10
127.217
20
-120.905
11
127.408
21
-120.905
0
LINE
8
BLACK
6
CONTINUOUS
10
127.408
20
-120.905
11
127.598
21
-121
0
LINE
8
BLACK
6
CONTINUOUS
10
127.598
20
-121
11
127.693
21
-121.095
0
LINE
8
BLACK
6
CONTINUOUS
10
127.693
20
-121.095
11
127.789
21
-121.286
0
LINE
8
BLACK
6
CONTINUOUS
10
127.789
20
-121.286
11
127.884
21
-121.667
0
LINE
8
BLACK
6
CONTINUOUS
10
127.884
20
-121.667
11
127.884
21
-122.143
0
LINE
8
BLACK
6
CONTINUOUS
10
127.884
20
-122.143
11
127.789
21
-122.524
0
LINE
8
BLACK
6
CONTINUOUS
10
127.789
20
-122.524
11
127.693
21
-122.714
0
LINE
8
BLACK
6
CONTINUOUS
10
127.693
20
-122.714
11
127.598
21
-122.81
0
LINE
8
BLACK
6
CONTINUOUS
10
127.598
20
-122.81
11
127.408
21
-122.905
0
LINE
8
BLACK
6
CONTINUOUS
10
127.408
20
-122.905
11
127.217
21
-122.905
0
LINE
8
BLACK
6
CONTINUOUS
10
127.217
20
-122.905
11
127.027
21
-122.81
0
LINE
8
BLACK
6
CONTINUOUS
10
127.027
20
-122.81
11
126.931
21
-122.714
0
LINE
8
BLACK
6
CONTINUOUS
10
126.931
20
-122.714
11
126.836
21
-122.524
0
LINE
8
BLACK
6
CONTINUOUS
10
126.836
20
-122.524
11
126.741
21
-122.143
0
LINE
8
BLACK
6
CONTINUOUS
10
126.741
20
-122.143
11
126.741
21
-121.667
0
LINE
8
BLACK
6
CONTINUOUS
10
126.741
20
-121.667
11
126.836
21
-121.286
0
LINE
8
BLACK
6
CONTINUOUS
10
126.836
20
-121.286
11
126.931
21
-121.095
0
LINE
8
BLACK
6
CONTINUOUS
10
126.931
20
-121.095
11
127.027
21
-121
0
LINE
8
BLACK
6
CONTINUOUS
10
127.027
20
-121
11
127.217
21
-120.905
0
LINE
8
BLACK
6
CONTINUOUS
10
128.741
20
-122.714
11
128.836
21
-122.81
0
LINE
8
BLACK
6
CONTINUOUS
10
128.836
20
-122.81
11
128.741
21
-122.905
0
LINE
8
BLACK
6
CONTINUOUS
10
128.741
20
-122.905
11
128.646
21
-122.81
0
LINE
8
BLACK
6
CONTINUOUS
10
128.646
20
-122.81
11
128.741
21
-122.714
0
LINE
8
BLACK
6
CONTINUOUS
10
128.741
20
-122.714
11
128.741
21
-122.905
0
LINE
8
BLACK
6
CONTINUOUS
10
129.979
20
-121.762
11
129.789
21
-121.667
0
LINE
8
BLACK
6
CONTINUOUS
10
129.789
20
-121.667
11
129.693
21
-121.571
0
LINE
8
BLACK
6
CONTINUOUS
10
129.693
20
-121.571
11
129.598
21
-121.381
0
LINE
8
BLACK
6
CONTINUOUS
10
129.598
20
-121.381
11
129.598
21
-121.286
0
LINE
8
BLACK
6
CONTINUOUS
10
129.598
20
-121.286
11
129.693
21
-121.095
0
LINE
8
BLACK
6
CONTINUOUS
10
129.693
20
-121.095
11
129.789
21
-121
0
LINE
8
BLACK
6
CONTINUOUS
10
129.789
20
-121
11
129.979
21
-120.905
0
LINE
8
BLACK
6
CONTINUOUS
10
129.979
20
-120.905
11
130.36
21
-120.905
0
LINE
8
BLACK
6
CONTINUOUS
10
130.36
20
-120.905
11
130.55
21
-121
0
LINE
8
BLACK
6
CONTINUOUS
10
130.55
20
-121
11
130.646
21
-121.095
0
LINE
8
BLACK
6
CONTINUOUS
10
130.646
20
-121.095
11
130.741
21
-121.286
0
LINE
8
BLACK
6
CONTINUOUS
10
130.741
20
-121.286
11
130.741
21
-121.381
0
LINE
8
BLACK
6
CONTINUOUS
10
130.741
20
-121.381
11
130.646
21
-121.571
0
LINE
8
BLACK
6
CONTINUOUS
10
130.646
20
-121.571
11
130.55
21
-121.667
0
LINE
8
BLACK
6
CONTINUOUS
10
130.55
20
-121.667
11
130.36
21
-121.762
0
LINE
8
BLACK
6
CONTINUOUS
10
130.36
20
-121.762
11
129.979
21
-121.762
0
LINE
8
BLACK
6
CONTINUOUS
10
129.979
20
-121.762
11
129.789
21
-121.857
0
LINE
8
BLACK
6
CONTINUOUS
10
129.789
20
-121.857
11
129.693
21
-121.952
0
LINE
8
BLACK
6
CONTINUOUS
10
129.693
20
-121.952
11
129.598
21
-122.143
0
LINE
8
BLACK
6
CONTINUOUS
10
129.598
20
-122.143
11
129.598
21
-122.524
0
LINE
8
BLACK
6
CONTINUOUS
10
129.598
20
-122.524
11
129.693
21
-122.714
0
LINE
8
BLACK
6
CONTINUOUS
10
129.693
20
-122.714
11
129.789
21
-122.81
0
LINE
8
BLACK
6
CONTINUOUS
10
129.789
20
-122.81
11
129.979
21
-122.905
0
LINE
8
BLACK
6
CONTINUOUS
10
129.979
20
-122.905
11
130.36
21
-122.905
0
LINE
8
BLACK
6
CONTINUOUS
10
130.36
20
-122.905
11
130.55
21
-122.81
0
LINE
8
BLACK
6
CONTINUOUS
10
130.55
20
-122.81
11
130.646
21
-122.714
0
LINE
8
BLACK
6
CONTINUOUS
10
130.646
20
-122.714
11
130.741
21
-122.524
0
LINE
8
BLACK
6
CONTINUOUS
10
130.741
20
-122.524
11
130.741
21
-122.143
0
LINE
8
BLACK
6
CONTINUOUS
10
130.741
20
-122.143
11
130.646
21
-121.952
0
LINE
8
BLACK
6
CONTINUOUS
10
130.646
20
-121.952
11
130.55
21
-121.857
0
LINE
8
BLACK
6
CONTINUOUS
10
130.55
20
-121.857
11
130.36
21
-121.762
0
LINE
8
BLACK
6
CONTINUOUS
10
131.979
20
-120.905
11
132.17
21
-120.905
0
LINE
8
BLACK
6
CONTINUOUS
10
132.17
20
-120.905
11
132.36
21
-121
0
LINE
8
BLACK
6
CONTINUOUS
10
132.36
20
-121
11
132.455
21
-121.095
0
LINE
8
BLACK
6
CONTINUOUS
10
132.455
20
-121.095
11
132.55
21
-121.286
0
LINE
8
BLACK
6
CONTINUOUS
10
132.55
20
-121.286
11
132.646
21
-121.667
0
LINE
8
BLACK
6
CONTINUOUS
10
132.646
20
-121.667
11
132.646
21
-122.143
0
LINE
8
BLACK
6
CONTINUOUS
10
132.646
20
-122.143
11
132.55
21
-122.524
0
LINE
8
BLACK
6
CONTINUOUS
10
132.55
20
-122.524
11
132.455
21
-122.714
0
LINE
8
BLACK
6
CONTINUOUS
10
132.455
20
-122.714
11
132.36
21
-122.81
0
LINE
8
BLACK
6
CONTINUOUS
10
132.36
20
-122.81
11
132.17
21
-122.905
0
LINE
8
BLACK
6
CONTINUOUS
10
132.17
20
-122.905
11
131.979
21
-122.905
0
LINE
8
BLACK
6
CONTINUOUS
10
131.979
20
-122.905
11
131.789
21
-122.81
0
LINE
8
BLACK
6
CONTINUOUS
10
131.789
20
-122.81
11
131.693
21
-122.714
0
LINE
8
BLACK
6
CONTINUOUS
10
131.693
20
-122.714
11
131.598
21
-122.524
0
LINE
8
BLACK
6
CONTINUOUS
10
131.598
20
-122.524
11
131.503
21
-122.143
0
LINE
8
BLACK
6
CONTINUOUS
10
131.503
20
-122.143
11
131.503
21
-121.667
0
LINE
8
BLACK
6
CONTINUOUS
10
131.503
20
-121.667
11
131.598
21
-121.286
0
LINE
8
BLACK
6
CONTINUOUS
10
131.598
20
-121.286
11
131.693
21
-121.095
0
LINE
8
BLACK
6
CONTINUOUS
10
131.693
20
-121.095
11
131.789
21
-121
0
LINE
8
BLACK
6
CONTINUOUS
10
131.789
20
-121
11
131.979
21
-120.905
0
LINE
8
BLACK
6
CONTINUOUS
10
133.884
20
-120.905
11
134.074
21
-120.905
0
LINE
8
BLACK
6
CONTINUOUS
10
134.074
20
-120.905
11
134.265
21
-121
0
LINE
8
BLACK
6
CONTINUOUS
10
134.265
20
-121
11
134.36
21
-121.095
0
LINE
8
BLACK
6
CONTINUOUS
10
134.36
20
-121.095
11
134.455
21
-121.286
0
LINE
8
BLACK
6
CONTINUOUS
10
134.455
20
-121.286
11
134.55
21
-121.667
0
LINE
8
BLACK
6
CONTINUOUS
10
134.55
20
-121.667
11
134.55
21
-122.143
0
LINE
8
BLACK
6
CONTINUOUS
10
134.55
20
-122.143
11
134.455
21
-122.524
0
LINE
8
BLACK
6
CONTINUOUS
10
134.455
20
-122.524
11
134.36
21
-122.714
0
LINE
8
BLACK
6
CONTINUOUS
10
134.36
20
-122.714
11
134.265
21
-122.81
0
LINE
8
BLACK
6
CONTINUOUS
10
134.265
20
-122.81
11
134.074
21
-122.905
0
LINE
8
BLACK
6
CONTINUOUS
10
134.074
20
-122.905
11
133.884
21
-122.905
0
LINE
8
BLACK
6
CONTINUOUS
10
133.884
20
-122.905
11
133.693
21
-122.81
0
LINE
8
BLACK
6
CONTINUOUS
10
133.693
20
-122.81
11
133.598
21
-122.714
0
LINE
8
BLACK
6
CONTINUOUS
10
133.598
20
-122.714
11
133.503
21
-122.524
0
LINE
8
BLACK
6
CONTINUOUS
10
133.503
20
-122.524
11
133.408
21
-122.143
0
LINE
8
BLACK
6
CONTINUOUS
10
133.408
20
-122.143
11
133.408
21
-121.667
0
LINE
8
BLACK
6
CONTINUOUS
10
133.408
20
-121.667
11
133.503
21
-121.286
0
LINE
8
BLACK
6
CONTINUOUS
10
133.503
20
-121.286
11
133.598
21
-121.095
0
LINE
8
BLACK
6
CONTINUOUS
10
133.598
20
-121.095
11
133.693
21
-121
0
LINE
8
BLACK
6
CONTINUOUS
10
133.693
20
-121
11
133.884
21
-120.905
0
LINE
8
BLACK
6
CONTINUOUS
10
135.408
20
-122.905
11
135.408
21
-121.571
0
LINE
8
BLACK
6
CONTINUOUS
10
135.408
20
-121.762
11
135.503
21
-121.667
0
LINE
8
BLACK
6
CONTINUOUS
10
135.503
20
-121.667
11
135.693
21
-121.571
0
LINE
8
BLACK
6
CONTINUOUS
10
135.693
20
-121.571
11
135.979
21
-121.571
0
LINE
8
BLACK
6
CONTINUOUS
10
135.979
20
-121.571
11
136.17
21
-121.667
0
LINE
8
BLACK
6
CONTINUOUS
10
136.17
20
-121.667
11
136.265
21
-121.857
0
LINE
8
BLACK
6
CONTINUOUS
10
136.265
20
-121.857
11
136.265
21
-122.905
0
LINE
8
BLACK
6
CONTINUOUS
10
136.265
20
-121.857
11
136.36
21
-121.667
0
LINE
8
BLACK
6
CONTINUOUS
10
136.36
20
-121.667
11
136.55
21
-121.571
0
LINE
8
BLACK
6
CONTINUOUS
10
136.55
20
-121.571
11
136.836
21
-121.571
0
LINE
8
BLACK
6
CONTINUOUS
10
136.836
20
-121.571
11
137.027
21
-121.667
0
LINE
8
BLACK
6
CONTINUOUS
10
137.027
20
-121.667
11
137.122
21
-121.857
0
LINE
8
BLACK
6
CONTINUOUS
10
137.122
20
-121.857
11
137.122
21
-122.905
0
LINE
8
BLACK
6
CONTINUOUS
10
138.074
20
-122.905
11
138.074
21
-121.571
0
LINE
8
BLACK
6
CONTINUOUS
10
138.074
20
-121.762
11
138.17
21
-121.667
0
LINE
8
BLACK
6
CONTINUOUS
10
138.17
20
-121.667
11
138.36
21
-121.571
0
LINE
8
BLACK
6
CONTINUOUS
10
138.36
20
-121.571
11
138.646
21
-121.571
0
LINE
8
BLACK
6
CONTINUOUS
10
138.646
20
-121.571
11
138.836
21
-121.667
0
LINE
8
BLACK
6
CONTINUOUS
10
138.836
20
-121.667
11
138.931
21
-121.857
0
LINE
8
BLACK
6
CONTINUOUS
10
138.931
20
-121.857
11
138.931
21
-122.905
0
LINE
8
BLACK
6
CONTINUOUS
10
138.931
20
-121.857
11
139.027
21
-121.667
0
LINE
8
BLACK
6
CONTINUOUS
10
139.027
20
-121.667
11
139.217
21
-121.571
0
LINE
8
BLACK
6
CONTINUOUS
10
139.217
20
-121.571
11
139.503
21
-121.571
0
LINE
8
BLACK
6
CONTINUOUS
10
139.503
20
-121.571
11
139.693
21
-121.667
0
LINE
8
BLACK
6
CONTINUOUS
10
139.693
20
-121.667
11
139.789
21
-121.857
0
LINE
8
BLACK
6
CONTINUOUS
10
139.789
20
-121.857
11
139.789
21
-122.905
0
LINE
8
BLACK
6
CONTINUOUS
10
143.37
20
-120.81
11
141.655
21
-123.381
0
LINE
8
BLACK
6
CONTINUOUS
10
145.617
20
-120.905
11
145.808
21
-120.905
0
LINE
8
BLACK
6
CONTINUOUS
10
145.808
20
-120.905
11
145.998
21
-121
0
LINE
8
BLACK
6
CONTINUOUS
10
145.998
20
-121
11
146.093
21
-121.095
0
LINE
8
BLACK
6
CONTINUOUS
10
146.093
20
-121.095
11
146.189
21
-121.286
0
LINE
8
BLACK
6
CONTINUOUS
10
146.189
20
-121.286
11
146.284
21
-121.667
0
LINE
8
BLACK
6
CONTINUOUS
10
146.284
20
-121.667
11
146.284
21
-122.143
0
LINE
8
BLACK
6
CONTINUOUS
10
146.284
20
-122.143
11
146.189
21
-122.524
0
LINE
8
BLACK
6
CONTINUOUS
10
146.189
20
-122.524
11
146.093
21
-122.714
0
LINE
8
BLACK
6
CONTINUOUS
10
146.093
20
-122.714
11
145.998
21
-122.81
0
LINE
8
BLACK
6
CONTINUOUS
10
145.998
20
-122.81
11
145.808
21
-122.905
0
LINE
8
BLACK
6
CONTINUOUS
10
145.808
20
-122.905
11
145.617
21
-122.905
0
LINE
8
BLACK
6
CONTINUOUS
10
145.617
20
-122.905
11
145.427
21
-122.81
0
LINE
8
BLACK
6
CONTINUOUS
10
145.427
20
-122.81
11
145.331
21
-122.714
0
LINE
8
BLACK
6
CONTINUOUS
10
145.331
20
-122.714
11
145.236
21
-122.524
0
LINE
8
BLACK
6
CONTINUOUS
10
145.236
20
-122.524
11
145.141
21
-122.143
0
LINE
8
BLACK
6
CONTINUOUS
10
145.141
20
-122.143
11
145.141
21
-121.667
0
LINE
8
BLACK
6
CONTINUOUS
10
145.141
20
-121.667
11
145.236
21
-121.286
0
LINE
8
BLACK
6
CONTINUOUS
10
145.236
20
-121.286
11
145.331
21
-121.095
0
LINE
8
BLACK
6
CONTINUOUS
10
145.331
20
-121.095
11
145.427
21
-121
0
LINE
8
BLACK
6
CONTINUOUS
10
145.427
20
-121
11
145.617
21
-120.905
0
LINE
8
BLACK
6
CONTINUOUS
10
147.141
20
-122.714
11
147.236
21
-122.81
0
LINE
8
BLACK
6
CONTINUOUS
10
147.236
20
-122.81
11
147.141
21
-122.905
0
LINE
8
BLACK
6
CONTINUOUS
10
147.141
20
-122.905
11
147.046
21
-122.81
0
LINE
8
BLACK
6
CONTINUOUS
10
147.046
20
-122.81
11
147.141
21
-122.714
0
LINE
8
BLACK
6
CONTINUOUS
10
147.141
20
-122.714
11
147.141
21
-122.905
0
LINE
8
BLACK
6
CONTINUOUS
10
148.474
20
-120.905
11
148.665
21
-120.905
0
LINE
8
BLACK
6
CONTINUOUS
10
148.665
20
-120.905
11
148.855
21
-121
0
LINE
8
BLACK
6
CONTINUOUS
10
148.855
20
-121
11
148.95
21
-121.095
0
LINE
8
BLACK
6
CONTINUOUS
10
148.95
20
-121.095
11
149.046
21
-121.286
0
LINE
8
BLACK
6
CONTINUOUS
10
149.046
20
-121.286
11
149.141
21
-121.667
0
LINE
8
BLACK
6
CONTINUOUS
10
149.141
20
-121.667
11
149.141
21
-122.143
0
LINE
8
BLACK
6
CONTINUOUS
10
149.141
20
-122.143
11
149.046
21
-122.524
0
LINE
8
BLACK
6
CONTINUOUS
10
149.046
20
-122.524
11
148.95
21
-122.714
0
LINE
8
BLACK
6
CONTINUOUS
10
148.95
20
-122.714
11
148.855
21
-122.81
0
LINE
8
BLACK
6
CONTINUOUS
10
148.855
20
-122.81
11
148.665
21
-122.905
0
LINE
8
BLACK
6
CONTINUOUS
10
148.665
20
-122.905
11
148.474
21
-122.905
0
LINE
8
BLACK
6
CONTINUOUS
10
148.474
20
-122.905
11
148.284
21
-122.81
0
LINE
8
BLACK
6
CONTINUOUS
10
148.284
20
-122.81
11
148.189
21
-122.714
0
LINE
8
BLACK
6
CONTINUOUS
10
148.189
20
-122.714
11
148.093
21
-122.524
0
LINE
8
BLACK
6
CONTINUOUS
10
148.093
20
-122.524
11
147.998
21
-122.143
0
LINE
8
BLACK
6
CONTINUOUS
10
147.998
20
-122.143
11
147.998
21
-121.667
0
LINE
8
BLACK
6
CONTINUOUS
10
147.998
20
-121.667
11
148.093
21
-121.286
0
LINE
8
BLACK
6
CONTINUOUS
10
148.093
20
-121.286
11
148.189
21
-121.095
0
LINE
8
BLACK
6
CONTINUOUS
10
148.189
20
-121.095
11
148.284
21
-121
0
LINE
8
BLACK
6
CONTINUOUS
10
148.284
20
-121
11
148.474
21
-120.905
0
LINE
8
BLACK
6
CONTINUOUS
10
149.808
20
-120.905
11
151.046
21
-120.905
0
LINE
8
BLACK
6
CONTINUOUS
10
151.046
20
-120.905
11
150.379
21
-121.667
0
LINE
8
BLACK
6
CONTINUOUS
10
150.379
20
-121.667
11
150.665
21
-121.667
0
LINE
8
BLACK
6
CONTINUOUS
10
150.665
20
-121.667
11
150.855
21
-121.762
0
LINE
8
BLACK
6
CONTINUOUS
10
150.855
20
-121.762
11
150.95
21
-121.857
0
LINE
8
BLACK
6
CONTINUOUS
10
150.95
20
-121.857
11
151.046
21
-122.048
0
LINE
8
BLACK
6
CONTINUOUS
10
151.046
20
-122.048
11
151.046
21
-122.524
0
LINE
8
BLACK
6
CONTINUOUS
10
151.046
20
-122.524
11
150.95
21
-122.714
0
LINE
8
BLACK
6
CONTINUOUS
10
150.95
20
-122.714
11
150.855
21
-122.81
0
LINE
8
BLACK
6
CONTINUOUS
10
150.855
20
-122.81
11
150.665
21
-122.905
0
LINE
8
BLACK
6
CONTINUOUS
10
150.665
20
-122.905
11
150.093
21
-122.905
0
LINE
8
BLACK
6
CONTINUOUS
10
150.093
20
-122.905
11
149.903
21
-122.81
0
LINE
8
BLACK
6
CONTINUOUS
10
149.903
20
-122.81
11
149.808
21
-122.714
0
LINE
8
BLACK
6
CONTINUOUS
10
152.95
20
-122.905
11
151.808
21
-122.905
0
LINE
8
BLACK
6
CONTINUOUS
10
152.379
20
-122.905
11
152.379
21
-120.905
0
LINE
8
BLACK
6
CONTINUOUS
10
152.379
20
-120.905
11
152.189
21
-121.19
0
LINE
8
BLACK
6
CONTINUOUS
10
152.189
20
-121.19
11
151.998
21
-121.381
0
LINE
8
BLACK
6
CONTINUOUS
10
151.998
20
-121.381
11
151.808
21
-121.476
0
LINE
8
BLACK
6
CONTINUOUS
10
154.76
20
-120.905
11
153.808
21
-120.905
0
LINE
8
BLACK
6
CONTINUOUS
10
153.808
20
-120.905
11
153.712
21
-121.857
0
LINE
8
BLACK
6
CONTINUOUS
10
153.712
20
-121.857
11
153.808
21
-121.762
0
LINE
8
BLACK
6
CONTINUOUS
10
153.808
20
-121.762
11
153.998
21
-121.667
0
LINE
8
BLACK
6
CONTINUOUS
10
153.998
20
-121.667
11
154.474
21
-121.667
0
LINE
8
BLACK
6
CONTINUOUS
10
154.474
20
-121.667
11
154.665
21
-121.762
0
LINE
8
BLACK
6
CONTINUOUS
10
154.665
20
-121.762
11
154.76
21
-121.857
0
LINE
8
BLACK
6
CONTINUOUS
10
154.76
20
-121.857
11
154.855
21
-122.048
0
LINE
8
BLACK
6
CONTINUOUS
10
154.855
20
-122.048
11
154.855
21
-122.524
0
LINE
8
BLACK
6
CONTINUOUS
10
154.855
20
-122.524
11
154.76
21
-122.714
0
LINE
8
BLACK
6
CONTINUOUS
10
154.76
20
-122.714
11
154.665
21
-122.81
0
LINE
8
BLACK
6
CONTINUOUS
10
154.665
20
-122.81
11
154.474
21
-122.905
0
LINE
8
BLACK
6
CONTINUOUS
10
154.474
20
-122.905
11
153.998
21
-122.905
0
LINE
8
BLACK
6
CONTINUOUS
10
153.998
20
-122.905
11
153.808
21
-122.81
0
LINE
8
BLACK
6
CONTINUOUS
10
153.808
20
-122.81
11
153.712
21
-122.714
0
LINE
8
BLACK
6
CONTINUOUS
10
155.617
20
-120.905
11
155.617
21
-121.286
0
LINE
8
BLACK
6
CONTINUOUS
10
156.379
20
-120.905
11
156.379
21
-121.286
0
LINE
8
BLACK
6
CONTINUOUS
10
159.008
20
-123.667
11
158.912
21
-123.571
0
LINE
8
BLACK
6
CONTINUOUS
10
158.912
20
-123.571
11
158.722
21
-123.286
0
LINE
8
BLACK
6
CONTINUOUS
10
158.722
20
-123.286
11
158.627
21
-123.095
0
LINE
8
BLACK
6
CONTINUOUS
10
158.627
20
-123.095
11
158.531
21
-122.81
0
LINE
8
BLACK
6
CONTINUOUS
10
158.531
20
-122.81
11
158.436
21
-122.333
0
LINE
8
BLACK
6
CONTINUOUS
10
158.436
20
-122.333
11
158.436
21
-121.952
0
LINE
8
BLACK
6
CONTINUOUS
10
158.436
20
-121.952
11
158.531
21
-121.476
0
LINE
8
BLACK
6
CONTINUOUS
10
158.531
20
-121.476
11
158.627
21
-121.19
0
LINE
8
BLACK
6
CONTINUOUS
10
158.627
20
-121.19
11
158.722
21
-121
0
LINE
8
BLACK
6
CONTINUOUS
10
158.722
20
-121
11
158.912
21
-120.714
0
LINE
8
BLACK
6
CONTINUOUS
10
158.912
20
-120.714
11
159.008
21
-120.619
0
LINE
8
BLACK
6
CONTINUOUS
10
160.817
20
-122.905
11
159.674
21
-122.905
0
LINE
8
BLACK
6
CONTINUOUS
10
160.246
20
-122.905
11
160.246
21
-120.905
0
LINE
8
BLACK
6
CONTINUOUS
10
160.246
20
-120.905
11
160.055
21
-121.19
0
LINE
8
BLACK
6
CONTINUOUS
10
160.055
20
-121.19
11
159.865
21
-121.381
0
LINE
8
BLACK
6
CONTINUOUS
10
159.865
20
-121.381
11
159.674
21
-121.476
0
LINE
8
BLACK
6
CONTINUOUS
10
162.531
20
-120.905
11
162.15
21
-120.905
0
LINE
8
BLACK
6
CONTINUOUS
10
162.15
20
-120.905
11
161.96
21
-121
0
LINE
8
BLACK
6
CONTINUOUS
10
161.96
20
-121
11
161.865
21
-121.095
0
LINE
8
BLACK
6
CONTINUOUS
10
161.865
20
-121.095
11
161.674
21
-121.381
0
LINE
8
BLACK
6
CONTINUOUS
10
161.674
20
-121.381
11
161.579
21
-121.762
0
LINE
8
BLACK
6
CONTINUOUS
10
161.579
20
-121.762
11
161.579
21
-122.524
0
LINE
8
BLACK
6
CONTINUOUS
10
161.579
20
-122.524
11
161.674
21
-122.714
0
LINE
8
BLACK
6
CONTINUOUS
10
161.674
20
-122.714
11
161.77
21
-122.81
0
LINE
8
BLACK
6
CONTINUOUS
10
161.77
20
-122.81
11
161.96
21
-122.905
0
LINE
8
BLACK
6
CONTINUOUS
10
161.96
20
-122.905
11
162.341
21
-122.905
0
LINE
8
BLACK
6
CONTINUOUS
10
162.341
20
-122.905
11
162.531
21
-122.81
0
LINE
8
BLACK
6
CONTINUOUS
10
162.531
20
-122.81
11
162.627
21
-122.714
0
LINE
8
BLACK
6
CONTINUOUS
10
162.627
20
-122.714
11
162.722
21
-122.524
0
LINE
8
BLACK
6
CONTINUOUS
10
162.722
20
-122.524
11
162.722
21
-122.048
0
LINE
8
BLACK
6
CONTINUOUS
10
162.722
20
-122.048
11
162.627
21
-121.857
0
LINE
8
BLACK
6
CONTINUOUS
10
162.627
20
-121.857
11
162.531
21
-121.762
0
LINE
8
BLACK
6
CONTINUOUS
10
162.531
20
-121.762
11
162.341
21
-121.667
0
LINE
8
BLACK
6
CONTINUOUS
10
162.341
20
-121.667
11
161.96
21
-121.667
0
LINE
8
BLACK
6
CONTINUOUS
10
161.96
20
-121.667
11
161.77
21
-121.762
0
LINE
8
BLACK
6
CONTINUOUS
10
161.77
20
-121.762
11
161.674
21
-121.857
0
LINE
8
BLACK
6
CONTINUOUS
10
161.674
20
-121.857
11
161.579
21
-122.048
0
LINE
8
BLACK
6
CONTINUOUS
10
164.779
20
-122.905
11
164.779
21
-120.905
0
LINE
8
BLACK
6
CONTINUOUS
10
165.636
20
-122.905
11
165.636
21
-121.857
0
LINE
8
BLACK
6
CONTINUOUS
10
165.636
20
-121.857
11
165.541
21
-121.667
0
LINE
8
BLACK
6
CONTINUOUS
10
165.541
20
-121.667
11
165.35
21
-121.571
0
LINE
8
BLACK
6
CONTINUOUS
10
165.35
20
-121.571
11
165.065
21
-121.571
0
LINE
8
BLACK
6
CONTINUOUS
10
165.065
20
-121.571
11
164.874
21
-121.667
0
LINE
8
BLACK
6
CONTINUOUS
10
164.874
20
-121.667
11
164.779
21
-121.762
0
LINE
8
BLACK
6
CONTINUOUS
10
166.874
20
-122.905
11
166.684
21
-122.81
0
LINE
8
BLACK
6
CONTINUOUS
10
166.684
20
-122.81
11
166.589
21
-122.714
0
LINE
8
BLACK
6
CONTINUOUS
10
166.589
20
-122.714
11
166.493
21
-122.524
0
LINE
8
BLACK
6
CONTINUOUS
10
166.493
20
-122.524
11
166.493
21
-121.952
0
LINE
8
BLACK
6
CONTINUOUS
10
166.493
20
-121.952
11
166.589
21
-121.762
0
LINE
8
BLACK
6
CONTINUOUS
10
166.589
20
-121.762
11
166.684
21
-121.667
0
LINE
8
BLACK
6
CONTINUOUS
10
166.684
20
-121.667
11
166.874
21
-121.571
0
LINE
8
BLACK
6
CONTINUOUS
10
166.874
20
-121.571
11
167.16
21
-121.571
0
LINE
8
BLACK
6
CONTINUOUS
10
167.16
20
-121.571
11
167.35
21
-121.667
0
LINE
8
BLACK
6
CONTINUOUS
10
167.35
20
-121.667
11
167.446
21
-121.762
0
LINE
8
BLACK
6
CONTINUOUS
10
167.446
20
-121.762
11
167.541
21
-121.952
0
LINE
8
BLACK
6
CONTINUOUS
10
167.541
20
-121.952
11
167.541
21
-122.524
0
LINE
8
BLACK
6
CONTINUOUS
10
167.541
20
-122.524
11
167.446
21
-122.714
0
LINE
8
BLACK
6
CONTINUOUS
10
167.446
20
-122.714
11
167.35
21
-122.81
0
LINE
8
BLACK
6
CONTINUOUS
10
167.35
20
-122.81
11
167.16
21
-122.905
0
LINE
8
BLACK
6
CONTINUOUS
10
167.16
20
-122.905
11
166.874
21
-122.905
0
LINE
8
BLACK
6
CONTINUOUS
10
168.684
20
-122.905
11
168.493
21
-122.81
0
LINE
8
BLACK
6
CONTINUOUS
10
168.493
20
-122.81
11
168.398
21
-122.619
0
LINE
8
BLACK
6
CONTINUOUS
10
168.398
20
-122.619
11
168.398
21
-120.905
0
LINE
8
BLACK
6
CONTINUOUS
10
170.208
20
-122.81
11
170.017
21
-122.905
0
LINE
8
BLACK
6
CONTINUOUS
10
170.017
20
-122.905
11
169.636
21
-122.905
0
LINE
8
BLACK
6
CONTINUOUS
10
169.636
20
-122.905
11
169.446
21
-122.81
0
LINE
8
BLACK
6
CONTINUOUS
10
169.446
20
-122.81
11
169.35
21
-122.619
0
LINE
8
BLACK
6
CONTINUOUS
10
169.35
20
-122.619
11
169.35
21
-121.857
0
LINE
8
BLACK
6
CONTINUOUS
10
169.35
20
-121.857
11
169.446
21
-121.667
0
LINE
8
BLACK
6
CONTINUOUS
10
169.446
20
-121.667
11
169.636
21
-121.571
0
LINE
8
BLACK
6
CONTINUOUS
10
169.636
20
-121.571
11
170.017
21
-121.571
0
LINE
8
BLACK
6
CONTINUOUS
10
170.017
20
-121.571
11
170.208
21
-121.667
0
LINE
8
BLACK
6
CONTINUOUS
10
170.208
20
-121.667
11
170.303
21
-121.857
0
LINE
8
BLACK
6
CONTINUOUS
10
170.303
20
-121.857
11
170.303
21
-122.048
0
LINE
8
BLACK
6
CONTINUOUS
10
170.303
20
-122.048
11
169.35
21
-122.238
0
LINE
8
BLACK
6
CONTINUOUS
10
171.065
20
-122.81
11
171.255
21
-122.905
0
LINE
8
BLACK
6
CONTINUOUS
10
171.255
20
-122.905
11
171.636
21
-122.905
0
LINE
8
BLACK
6
CONTINUOUS
10
171.636
20
-122.905
11
171.827
21
-122.81
0
LINE
8
BLACK
6
CONTINUOUS
10
171.827
20
-122.81
11
171.922
21
-122.619
0
LINE
8
BLACK
6
CONTINUOUS
10
171.922
20
-122.619
11
171.922
21
-122.524
0
LINE
8
BLACK
6
CONTINUOUS
10
171.922
20
-122.524
11
171.827
21
-122.333
0
LINE
8
BLACK
6
CONTINUOUS
10
171.827
20
-122.333
11
171.636
21
-122.238
0
LINE
8
BLACK
6
CONTINUOUS
10
171.636
20
-122.238
11
171.35
21
-122.238
0
LINE
8
BLACK
6
CONTINUOUS
10
171.35
20
-122.238
11
171.16
21
-122.143
0
LINE
8
BLACK
6
CONTINUOUS
10
171.16
20
-122.143
11
171.065
21
-121.952
0
LINE
8
BLACK
6
CONTINUOUS
10
171.065
20
-121.952
11
171.065
21
-121.857
0
LINE
8
BLACK
6
CONTINUOUS
10
171.065
20
-121.857
11
171.16
21
-121.667
0
LINE
8
BLACK
6
CONTINUOUS
10
171.16
20
-121.667
11
171.35
21
-121.571
0
LINE
8
BLACK
6
CONTINUOUS
10
171.35
20
-121.571
11
171.636
21
-121.571
0
LINE
8
BLACK
6
CONTINUOUS
10
171.636
20
-121.571
11
171.827
21
-121.667
0
LINE
8
BLACK
6
CONTINUOUS
10
172.589
20
-123.667
11
172.684
21
-123.571
0
LINE
8
BLACK
6
CONTINUOUS
10
172.684
20
-123.571
11
172.874
21
-123.286
0
LINE
8
BLACK
6
CONTINUOUS
10
172.874
20
-123.286
11
172.97
21
-123.095
0
LINE
8
BLACK
6
CONTINUOUS
10
172.97
20
-123.095
11
173.065
21
-122.81
0
LINE
8
BLACK
6
CONTINUOUS
10
173.065
20
-122.81
11
173.16
21
-122.333
0
LINE
8
BLACK
6
CONTINUOUS
10
173.16
20
-122.333
11
173.16
21
-121.952
0
LINE
8
BLACK
6
CONTINUOUS
10
173.16
20
-121.952
11
173.065
21
-121.476
0
LINE
8
BLACK
6
CONTINUOUS
10
173.065
20
-121.476
11
172.97
21
-121.19
0
LINE
8
BLACK
6
CONTINUOUS
10
172.97
20
-121.19
11
172.874
21
-121
0
LINE
8
BLACK
6
CONTINUOUS
10
172.874
20
-121
11
172.684
21
-120.714
0
LINE
8
BLACK
6
CONTINUOUS
10
172.684
20
-120.714
11
172.589
21
-120.619
0
LINE
8
BLACK
6
CONTINUOUS
10
123.86
20
-124.31
11
123.86
21
-125.31
0
LINE
8
BLACK
6
CONTINUOUS
10
123.36
20
-124.81
11
124.36
21
-124.81
0
LINE
8
BLACK
6
CONTINUOUS
10
127.884
20
-125.545
11
126.741
21
-125.545
0
LINE
8
BLACK
6
CONTINUOUS
10
127.312
20
-125.545
11
127.312
21
-123.545
0
LINE
8
BLACK
6
CONTINUOUS
10
127.312
20
-123.545
11
127.122
21
-123.83
0
LINE
8
BLACK
6
CONTINUOUS
10
127.122
20
-123.83
11
126.931
21
-124.021
0
LINE
8
BLACK
6
CONTINUOUS
10
126.931
20
-124.021
11
126.741
21
-124.116
0
LINE
8
BLACK
6
CONTINUOUS
10
128.741
20
-125.354
11
128.836
21
-125.45
0
LINE
8
BLACK
6
CONTINUOUS
10
128.836
20
-125.45
11
128.741
21
-125.545
0
LINE
8
BLACK
6
CONTINUOUS
10
128.741
20
-125.545
11
128.646
21
-125.45
0
LINE
8
BLACK
6
CONTINUOUS
10
128.646
20
-125.45
11
128.741
21
-125.354
0
LINE
8
BLACK
6
CONTINUOUS
10
128.741
20
-125.354
11
128.741
21
-125.545
0
LINE
8
BLACK
6
CONTINUOUS
10
130.074
20
-123.545
11
130.265
21
-123.545
0
LINE
8
BLACK
6
CONTINUOUS
10
130.265
20
-123.545
11
130.455
21
-123.64
0
LINE
8
BLACK
6
CONTINUOUS
10
130.455
20
-123.64
11
130.55
21
-123.735
0
LINE
8
BLACK
6
CONTINUOUS
10
130.55
20
-123.735
11
130.646
21
-123.926
0
LINE
8
BLACK
6
CONTINUOUS
10
130.646
20
-123.926
11
130.741
21
-124.307
0
LINE
8
BLACK
6
CONTINUOUS
10
130.741
20
-124.307
11
130.741
21
-124.783
0
LINE
8
BLACK
6
CONTINUOUS
10
130.741
20
-124.783
11
130.646
21
-125.164
0
LINE
8
BLACK
6
CONTINUOUS
10
130.646
20
-125.164
11
130.55
21
-125.354
0
LINE
8
BLACK
6
CONTINUOUS
10
130.55
20
-125.354
11
130.455
21
-125.45
0
LINE
8
BLACK
6
CONTINUOUS
10
130.455
20
-125.45
11
130.265
21
-125.545
0
LINE
8
BLACK
6
CONTINUOUS
10
130.265
20
-125.545
11
130.074
21
-125.545
0
LINE
8
BLACK
6
CONTINUOUS
10
130.074
20
-125.545
11
129.884
21
-125.45
0
LINE
8
BLACK
6
CONTINUOUS
10
129.884
20
-125.45
11
129.789
21
-125.354
0
LINE
8
BLACK
6
CONTINUOUS
10
129.789
20
-125.354
11
129.693
21
-125.164
0
LINE
8
BLACK
6
CONTINUOUS
10
129.693
20
-125.164
11
129.598
21
-124.783
0
LINE
8
BLACK
6
CONTINUOUS
10
129.598
20
-124.783
11
129.598
21
-124.307
0
LINE
8
BLACK
6
CONTINUOUS
10
129.598
20
-124.307
11
129.693
21
-123.926
0
LINE
8
BLACK
6
CONTINUOUS
10
129.693
20
-123.926
11
129.789
21
-123.735
0
LINE
8
BLACK
6
CONTINUOUS
10
129.789
20
-123.735
11
129.884
21
-123.64
0
LINE
8
BLACK
6
CONTINUOUS
10
129.884
20
-123.64
11
130.074
21
-123.545
0
LINE
8
BLACK
6
CONTINUOUS
10
131.979
20
-123.545
11
132.17
21
-123.545
0
LINE
8
BLACK
6
CONTINUOUS
10
132.17
20
-123.545
11
132.36
21
-123.64
0
LINE
8
BLACK
6
CONTINUOUS
10
132.36
20
-123.64
11
132.455
21
-123.735
0
LINE
8
BLACK
6
CONTINUOUS
10
132.455
20
-123.735
11
132.55
21
-123.926
0
LINE
8
BLACK
6
CONTINUOUS
10
132.55
20
-123.926
11
132.646
21
-124.307
0
LINE
8
BLACK
6
CONTINUOUS
10
132.646
20
-124.307
11
132.646
21
-124.783
0
LINE
8
BLACK
6
CONTINUOUS
10
132.646
20
-124.783
11
132.55
21
-125.164
0
LINE
8
BLACK
6
CONTINUOUS
10
132.55
20
-125.164
11
132.455
21
-125.354
0
LINE
8
BLACK
6
CONTINUOUS
10
132.455
20
-125.354
11
132.36
21
-125.45
0
LINE
8
BLACK
6
CONTINUOUS
10
132.36
20
-125.45
11
132.17
21
-125.545
0
LINE
8
BLACK
6
CONTINUOUS
10
132.17
20
-125.545
11
131.979
21
-125.545
0
LINE
8
BLACK
6
CONTINUOUS
10
131.979
20
-125.545
11
131.789
21
-125.45
0
LINE
8
BLACK
6
CONTINUOUS
10
131.789
20
-125.45
11
131.693
21
-125.354
0
LINE
8
BLACK
6
CONTINUOUS
10
131.693
20
-125.354
11
131.598
21
-125.164
0
LINE
8
BLACK
6
CONTINUOUS
10
131.598
20
-125.164
11
131.503
21
-124.783
0
LINE
8
BLACK
6
CONTINUOUS
10
131.503
20
-124.783
11
131.503
21
-124.307
0
LINE
8
BLACK
6
CONTINUOUS
10
131.503
20
-124.307
11
131.598
21
-123.926
0
LINE
8
BLACK
6
CONTINUOUS
10
131.598
20
-123.926
11
131.693
21
-123.735
0
LINE
8
BLACK
6
CONTINUOUS
10
131.693
20
-123.735
11
131.789
21
-123.64
0
LINE
8
BLACK
6
CONTINUOUS
10
131.789
20
-123.64
11
131.979
21
-123.545
0
LINE
8
BLACK
6
CONTINUOUS
10
133.884
20
-123.545
11
134.074
21
-123.545
0
LINE
8
BLACK
6
CONTINUOUS
10
134.074
20
-123.545
11
134.265
21
-123.64
0
LINE
8
BLACK
6
CONTINUOUS
10
134.265
20
-123.64
11
134.36
21
-123.735
0
LINE
8
BLACK
6
CONTINUOUS
10
134.36
20
-123.735
11
134.455
21
-123.926
0
LINE
8
BLACK
6
CONTINUOUS
10
134.455
20
-123.926
11
134.55
21
-124.307
0
LINE
8
BLACK
6
CONTINUOUS
10
134.55
20
-124.307
11
134.55
21
-124.783
0
LINE
8
BLACK
6
CONTINUOUS
10
134.55
20
-124.783
11
134.455
21
-125.164
0
LINE
8
BLACK
6
CONTINUOUS
10
134.455
20
-125.164
11
134.36
21
-125.354
0
LINE
8
BLACK
6
CONTINUOUS
10
134.36
20
-125.354
11
134.265
21
-125.45
0
LINE
8
BLACK
6
CONTINUOUS
10
134.265
20
-125.45
11
134.074
21
-125.545
0
LINE
8
BLACK
6
CONTINUOUS
10
134.074
20
-125.545
11
133.884
21
-125.545
0
LINE
8
BLACK
6
CONTINUOUS
10
133.884
20
-125.545
11
133.693
21
-125.45
0
LINE
8
BLACK
6
CONTINUOUS
10
133.693
20
-125.45
11
133.598
21
-125.354
0
LINE
8
BLACK
6
CONTINUOUS
10
133.598
20
-125.354
11
133.503
21
-125.164
0
LINE
8
BLACK
6
CONTINUOUS
10
133.503
20
-125.164
11
133.408
21
-124.783
0
LINE
8
BLACK
6
CONTINUOUS
10
133.408
20
-124.783
11
133.408
21
-124.307
0
LINE
8
BLACK
6
CONTINUOUS
10
133.408
20
-124.307
11
133.503
21
-123.926
0
LINE
8
BLACK
6
CONTINUOUS
10
133.503
20
-123.926
11
133.598
21
-123.735
0
LINE
8
BLACK
6
CONTINUOUS
10
133.598
20
-123.735
11
133.693
21
-123.64
0
LINE
8
BLACK
6
CONTINUOUS
10
133.693
20
-123.64
11
133.884
21
-123.545
0
LINE
8
BLACK
6
CONTINUOUS
10
135.408
20
-125.545
11
135.408
21
-124.211
0
LINE
8
BLACK
6
CONTINUOUS
10
135.408
20
-124.402
11
135.503
21
-124.307
0
LINE
8
BLACK
6
CONTINUOUS
10
135.503
20
-124.307
11
135.693
21
-124.211
0
LINE
8
BLACK
6
CONTINUOUS
10
135.693
20
-124.211
11
135.979
21
-124.211
0
LINE
8
BLACK
6
CONTINUOUS
10
135.979
20
-124.211
11
136.17
21
-124.307
0
LINE
8
BLACK
6
CONTINUOUS
10
136.17
20
-124.307
11
136.265
21
-124.497
0
LINE
8
BLACK
6
CONTINUOUS
10
136.265
20
-124.497
11
136.265
21
-125.545
0
LINE
8
BLACK
6
CONTINUOUS
10
136.265
20
-124.497
11
136.36
21
-124.307
0
LINE
8
BLACK
6
CONTINUOUS
10
136.36
20
-124.307
11
136.55
21
-124.211
0
LINE
8
BLACK
6
CONTINUOUS
10
136.55
20
-124.211
11
136.836
21
-124.211
0
LINE
8
BLACK
6
CONTINUOUS
10
136.836
20
-124.211
11
137.027
21
-124.307
0
LINE
8
BLACK
6
CONTINUOUS
10
137.027
20
-124.307
11
137.122
21
-124.497
0
LINE
8
BLACK
6
CONTINUOUS
10
137.122
20
-124.497
11
137.122
21
-125.545
0
LINE
8
BLACK
6
CONTINUOUS
10
138.074
20
-125.545
11
138.074
21
-124.211
0
LINE
8
BLACK
6
CONTINUOUS
10
138.074
20
-124.402
11
138.17
21
-124.307
0
LINE
8
BLACK
6
CONTINUOUS
10
138.17
20
-124.307
11
138.36
21
-124.211
0
LINE
8
BLACK
6
CONTINUOUS
10
138.36
20
-124.211
11
138.646
21
-124.211
0
LINE
8
BLACK
6
CONTINUOUS
10
138.646
20
-124.211
11
138.836
21
-124.307
0
LINE
8
BLACK
6
CONTINUOUS
10
138.836
20
-124.307
11
138.931
21
-124.497
0
LINE
8
BLACK
6
CONTINUOUS
10
138.931
20
-124.497
11
138.931
21
-125.545
0
LINE
8
BLACK
6
CONTINUOUS
10
138.931
20
-124.497
11
139.027
21
-124.307
0
LINE
8
BLACK
6
CONTINUOUS
10
139.027
20
-124.307
11
139.217
21
-124.211
0
LINE
8
BLACK
6
CONTINUOUS
10
139.217
20
-124.211
11
139.503
21
-124.211
0
LINE
8
BLACK
6
CONTINUOUS
10
139.503
20
-124.211
11
139.693
21
-124.307
0
LINE
8
BLACK
6
CONTINUOUS
10
139.693
20
-124.307
11
139.789
21
-124.497
0
LINE
8
BLACK
6
CONTINUOUS
10
139.789
20
-124.497
11
139.789
21
-125.545
0
LINE
8
BLACK
6
CONTINUOUS
10
143.37
20
-123.45
11
141.655
21
-126.021
0
LINE
8
BLACK
6
CONTINUOUS
10
145.617
20
-123.545
11
145.808
21
-123.545
0
LINE
8
BLACK
6
CONTINUOUS
10
145.808
20
-123.545
11
145.998
21
-123.64
0
LINE
8
BLACK
6
CONTINUOUS
10
145.998
20
-123.64
11
146.093
21
-123.735
0
LINE
8
BLACK
6
CONTINUOUS
10
146.093
20
-123.735
11
146.189
21
-123.926
0
LINE
8
BLACK
6
CONTINUOUS
10
146.189
20
-123.926
11
146.284
21
-124.307
0
LINE
8
BLACK
6
CONTINUOUS
10
146.284
20
-124.307
11
146.284
21
-124.783
0
LINE
8
BLACK
6
CONTINUOUS
10
146.284
20
-124.783
11
146.189
21
-125.164
0
LINE
8
BLACK
6
CONTINUOUS
10
146.189
20
-125.164
11
146.093
21
-125.354
0
LINE
8
BLACK
6
CONTINUOUS
10
146.093
20
-125.354
11
145.998
21
-125.45
0
LINE
8
BLACK
6
CONTINUOUS
10
145.998
20
-125.45
11
145.808
21
-125.545
0
LINE
8
BLACK
6
CONTINUOUS
10
145.808
20
-125.545
11
145.617
21
-125.545
0
LINE
8
BLACK
6
CONTINUOUS
10
145.617
20
-125.545
11
145.427
21
-125.45
0
LINE
8
BLACK
6
CONTINUOUS
10
145.427
20
-125.45
11
145.331
21
-125.354
0
LINE
8
BLACK
6
CONTINUOUS
10
145.331
20
-125.354
11
145.236
21
-125.164
0
LINE
8
BLACK
6
CONTINUOUS
10
145.236
20
-125.164
11
145.141
21
-124.783
0
LINE
8
BLACK
6
CONTINUOUS
10
145.141
20
-124.783
11
145.141
21
-124.307
0
LINE
8
BLACK
6
CONTINUOUS
10
145.141
20
-124.307
11
145.236
21
-123.926
0
LINE
8
BLACK
6
CONTINUOUS
10
145.236
20
-123.926
11
145.331
21
-123.735
0
LINE
8
BLACK
6
CONTINUOUS
10
145.331
20
-123.735
11
145.427
21
-123.64
0
LINE
8
BLACK
6
CONTINUOUS
10
145.427
20
-123.64
11
145.617
21
-123.545
0
LINE
8
BLACK
6
CONTINUOUS
10
147.141
20
-125.354
11
147.236
21
-125.45
0
LINE
8
BLACK
6
CONTINUOUS
10
147.236
20
-125.45
11
147.141
21
-125.545
0
LINE
8
BLACK
6
CONTINUOUS
10
147.141
20
-125.545
11
147.046
21
-125.45
0
LINE
8
BLACK
6
CONTINUOUS
10
147.046
20
-125.45
11
147.141
21
-125.354
0
LINE
8
BLACK
6
CONTINUOUS
10
147.141
20
-125.354
11
147.141
21
-125.545
0
LINE
8
BLACK
6
CONTINUOUS
10
148.474
20
-123.545
11
148.665
21
-123.545
0
LINE
8
BLACK
6
CONTINUOUS
10
148.665
20
-123.545
11
148.855
21
-123.64
0
LINE
8
BLACK
6
CONTINUOUS
10
148.855
20
-123.64
11
148.95
21
-123.735
0
LINE
8
BLACK
6
CONTINUOUS
10
148.95
20
-123.735
11
149.046
21
-123.926
0
LINE
8
BLACK
6
CONTINUOUS
10
149.046
20
-123.926
11
149.141
21
-124.307
0
LINE
8
BLACK
6
CONTINUOUS
10
149.141
20
-124.307
11
149.141
21
-124.783
0
LINE
8
BLACK
6
CONTINUOUS
10
149.141
20
-124.783
11
149.046
21
-125.164
0
LINE
8
BLACK
6
CONTINUOUS
10
149.046
20
-125.164
11
148.95
21
-125.354
0
LINE
8
BLACK
6
CONTINUOUS
10
148.95
20
-125.354
11
148.855
21
-125.45
0
LINE
8
BLACK
6
CONTINUOUS
10
148.855
20
-125.45
11
148.665
21
-125.545
0
LINE
8
BLACK
6
CONTINUOUS
10
148.665
20
-125.545
11
148.474
21
-125.545
0
LINE
8
BLACK
6
CONTINUOUS
10
148.474
20
-125.545
11
148.284
21
-125.45
0
LINE
8
BLACK
6
CONTINUOUS
10
148.284
20
-125.45
11
148.189
21
-125.354
0
LINE
8
BLACK
6
CONTINUOUS
10
148.189
20
-125.354
11
148.093
21
-125.164
0
LINE
8
BLACK
6
CONTINUOUS
10
148.093
20
-125.164
11
147.998
21
-124.783
0
LINE
8
BLACK
6
CONTINUOUS
10
147.998
20
-124.783
11
147.998
21
-124.307
0
LINE
8
BLACK
6
CONTINUOUS
10
147.998
20
-124.307
11
148.093
21
-123.926
0
LINE
8
BLACK
6
CONTINUOUS
10
148.093
20
-123.926
11
148.189
21
-123.735
0
LINE
8
BLACK
6
CONTINUOUS
10
148.189
20
-123.735
11
148.284
21
-123.64
0
LINE
8
BLACK
6
CONTINUOUS
10
148.284
20
-123.64
11
148.474
21
-123.545
0
LINE
8
BLACK
6
CONTINUOUS
10
149.808
20
-123.545
11
151.046
21
-123.545
0
LINE
8
BLACK
6
CONTINUOUS
10
151.046
20
-123.545
11
150.379
21
-124.307
0
LINE
8
BLACK
6
CONTINUOUS
10
150.379
20
-124.307
11
150.665
21
-124.307
0
LINE
8
BLACK
6
CONTINUOUS
10
150.665
20
-124.307
11
150.855
21
-124.402
0
LINE
8
BLACK
6
CONTINUOUS
10
150.855
20
-124.402
11
150.95
21
-124.497
0
LINE
8
BLACK
6
CONTINUOUS
10
150.95
20
-124.497
11
151.046
21
-124.688
0
LINE
8
BLACK
6
CONTINUOUS
10
151.046
20
-124.688
11
151.046
21
-125.164
0
LINE
8
BLACK
6
CONTINUOUS
10
151.046
20
-125.164
11
150.95
21
-125.354
0
LINE
8
BLACK
6
CONTINUOUS
10
150.95
20
-125.354
11
150.855
21
-125.45
0
LINE
8
BLACK
6
CONTINUOUS
10
150.855
20
-125.45
11
150.665
21
-125.545
0
LINE
8
BLACK
6
CONTINUOUS
10
150.665
20
-125.545
11
150.093
21
-125.545
0
LINE
8
BLACK
6
CONTINUOUS
10
150.093
20
-125.545
11
149.903
21
-125.45
0
LINE
8
BLACK
6
CONTINUOUS
10
149.903
20
-125.45
11
149.808
21
-125.354
0
LINE
8
BLACK
6
CONTINUOUS
10
151.998
20
-125.545
11
152.379
21
-125.545
0
LINE
8
BLACK
6
CONTINUOUS
10
152.379
20
-125.545
11
152.57
21
-125.45
0
LINE
8
BLACK
6
CONTINUOUS
10
152.57
20
-125.45
11
152.665
21
-125.354
0
LINE
8
BLACK
6
CONTINUOUS
10
152.665
20
-125.354
11
152.855
21
-125.069
0
LINE
8
BLACK
6
CONTINUOUS
10
152.855
20
-125.069
11
152.95
21
-124.688
0
LINE
8
BLACK
6
CONTINUOUS
10
152.95
20
-124.688
11
152.95
21
-123.926
0
LINE
8
BLACK
6
CONTINUOUS
10
152.95
20
-123.926
11
152.855
21
-123.735
0
LINE
8
BLACK
6
CONTINUOUS
10
152.855
20
-123.735
11
152.76
21
-123.64
0
LINE
8
BLACK
6
CONTINUOUS
10
152.76
20
-123.64
11
152.57
21
-123.545
0
LINE
8
BLACK
6
CONTINUOUS
10
152.57
20
-123.545
11
152.189
21
-123.545
0
LINE
8
BLACK
6
CONTINUOUS
10
152.189
20
-123.545
11
151.998
21
-123.64
0
LINE
8
BLACK
6
CONTINUOUS
10
151.998
20
-123.64
11
151.903
21
-123.735
0
LINE
8
BLACK
6
CONTINUOUS
10
151.903
20
-123.735
11
151.808
21
-123.926
0
LINE
8
BLACK
6
CONTINUOUS
10
151.808
20
-123.926
11
151.808
21
-124.402
0
LINE
8
BLACK
6
CONTINUOUS
10
151.808
20
-124.402
11
151.903
21
-124.592
0
LINE
8
BLACK
6
CONTINUOUS
10
151.903
20
-124.592
11
151.998
21
-124.688
0
LINE
8
BLACK
6
CONTINUOUS
10
151.998
20
-124.688
11
152.189
21
-124.783
0
LINE
8
BLACK
6
CONTINUOUS
10
152.189
20
-124.783
11
152.57
21
-124.783
0
LINE
8
BLACK
6
CONTINUOUS
10
152.57
20
-124.783
11
152.76
21
-124.688
0
LINE
8
BLACK
6
CONTINUOUS
10
152.76
20
-124.688
11
152.855
21
-124.592
0
LINE
8
BLACK
6
CONTINUOUS
10
152.855
20
-124.592
11
152.95
21
-124.402
0
LINE
8
BLACK
6
CONTINUOUS
10
154.665
20
-124.211
11
154.665
21
-125.545
0
LINE
8
BLACK
6
CONTINUOUS
10
154.189
20
-123.45
11
153.712
21
-124.878
0
LINE
8
BLACK
6
CONTINUOUS
10
153.712
20
-124.878
11
154.95
21
-124.878
0
LINE
8
BLACK
6
CONTINUOUS
10
155.617
20
-123.545
11
155.617
21
-123.926
0
LINE
8
BLACK
6
CONTINUOUS
10
156.379
20
-123.545
11
156.379
21
-123.926
0
LINE
8
BLACK
6
CONTINUOUS
10
159.008
20
-126.307
11
158.912
21
-126.211
0
LINE
8
BLACK
6
CONTINUOUS
10
158.912
20
-126.211
11
158.722
21
-125.926
0
LINE
8
BLACK
6
CONTINUOUS
10
158.722
20
-125.926
11
158.627
21
-125.735
0
LINE
8
BLACK
6
CONTINUOUS
10
158.627
20
-125.735
11
158.531
21
-125.45
0
LINE
8
BLACK
6
CONTINUOUS
10
158.531
20
-125.45
11
158.436
21
-124.973
0
LINE
8
BLACK
6
CONTINUOUS
10
158.436
20
-124.973
11
158.436
21
-124.592
0
LINE
8
BLACK
6
CONTINUOUS
10
158.436
20
-124.592
11
158.531
21
-124.116
0
LINE
8
BLACK
6
CONTINUOUS
10
158.531
20
-124.116
11
158.627
21
-123.83
0
LINE
8
BLACK
6
CONTINUOUS
10
158.627
20
-123.83
11
158.722
21
-123.64
0
LINE
8
BLACK
6
CONTINUOUS
10
158.722
20
-123.64
11
158.912
21
-123.354
0
LINE
8
BLACK
6
CONTINUOUS
10
158.912
20
-123.354
11
159.008
21
-123.259
0
LINE
8
BLACK
6
CONTINUOUS
10
159.579
20
-123.545
11
160.817
21
-123.545
0
LINE
8
BLACK
6
CONTINUOUS
10
160.817
20
-123.545
11
160.15
21
-124.307
0
LINE
8
BLACK
6
CONTINUOUS
10
160.15
20
-124.307
11
160.436
21
-124.307
0
LINE
8
BLACK
6
CONTINUOUS
10
160.436
20
-124.307
11
160.627
21
-124.402
0
LINE
8
BLACK
6
CONTINUOUS
10
160.627
20
-124.402
11
160.722
21
-124.497
0
LINE
8
BLACK
6
CONTINUOUS
10
160.722
20
-124.497
11
160.817
21
-124.688
0
LINE
8
BLACK
6
CONTINUOUS
10
160.817
20
-124.688
11
160.817
21
-125.164
0
LINE
8
BLACK
6
CONTINUOUS
10
160.817
20
-125.164
11
160.722
21
-125.354
0
LINE
8
BLACK
6
CONTINUOUS
10
160.722
20
-125.354
11
160.627
21
-125.45
0
LINE
8
BLACK
6
CONTINUOUS
10
160.627
20
-125.45
11
160.436
21
-125.545
0
LINE
8
BLACK
6
CONTINUOUS
10
160.436
20
-125.545
11
159.865
21
-125.545
0
LINE
8
BLACK
6
CONTINUOUS
10
159.865
20
-125.545
11
159.674
21
-125.45
0
LINE
8
BLACK
6
CONTINUOUS
10
159.674
20
-125.45
11
159.579
21
-125.354
0
LINE
8
BLACK
6
CONTINUOUS
10
162.055
20
-123.545
11
162.246
21
-123.545
0
LINE
8
BLACK
6
CONTINUOUS
10
162.246
20
-123.545
11
162.436
21
-123.64
0
LINE
8
BLACK
6
CONTINUOUS
10
162.436
20
-123.64
11
162.531
21
-123.735
0
LINE
8
BLACK
6
CONTINUOUS
10
162.531
20
-123.735
11
162.627
21
-123.926
0
LINE
8
BLACK
6
CONTINUOUS
10
162.627
20
-123.926
11
162.722
21
-124.307
0
LINE
8
BLACK
6
CONTINUOUS
10
162.722
20
-124.307
11
162.722
21
-124.783
0
LINE
8
BLACK
6
CONTINUOUS
10
162.722
20
-124.783
11
162.627
21
-125.164
0
LINE
8
BLACK
6
CONTINUOUS
10
162.627
20
-125.164
11
162.531
21
-125.354
0
LINE
8
BLACK
6
CONTINUOUS
10
162.531
20
-125.354
11
162.436
21
-125.45
0
LINE
8
BLACK
6
CONTINUOUS
10
162.436
20
-125.45
11
162.246
21
-125.545
0
LINE
8
BLACK
6
CONTINUOUS
10
162.246
20
-125.545
11
162.055
21
-125.545
0
LINE
8
BLACK
6
CONTINUOUS
10
162.055
20
-125.545
11
161.865
21
-125.45
0
LINE
8
BLACK
6
CONTINUOUS
10
161.865
20
-125.45
11
161.77
21
-125.354
0
LINE
8
BLACK
6
CONTINUOUS
10
161.77
20
-125.354
11
161.674
21
-125.164
0
LINE
8
BLACK
6
CONTINUOUS
10
161.674
20
-125.164
11
161.579
21
-124.783
0
LINE
8
BLACK
6
CONTINUOUS
10
161.579
20
-124.783
11
161.579
21
-124.307
0
LINE
8
BLACK
6
CONTINUOUS
10
161.579
20
-124.307
11
161.674
21
-123.926
0
LINE
8
BLACK
6
CONTINUOUS
10
161.674
20
-123.926
11
161.77
21
-123.735
0
LINE
8
BLACK
6
CONTINUOUS
10
161.77
20
-123.735
11
161.865
21
-123.64
0
LINE
8
BLACK
6
CONTINUOUS
10
161.865
20
-123.64
11
162.055
21
-123.545
0
LINE
8
BLACK
6
CONTINUOUS
10
164.779
20
-125.545
11
164.779
21
-123.545
0
LINE
8
BLACK
6
CONTINUOUS
10
165.636
20
-125.545
11
165.636
21
-124.497
0
LINE
8
BLACK
6
CONTINUOUS
10
165.636
20
-124.497
11
165.541
21
-124.307
0
LINE
8
BLACK
6
CONTINUOUS
10
165.541
20
-124.307
11
165.35
21
-124.211
0
LINE
8
BLACK
6
CONTINUOUS
10
165.35
20
-124.211
11
165.065
21
-124.211
0
LINE
8
BLACK
6
CONTINUOUS
10
165.065
20
-124.211
11
164.874
21
-124.307
0
LINE
8
BLACK
6
CONTINUOUS
10
164.874
20
-124.307
11
164.779
21
-124.402
0
LINE
8
BLACK
6
CONTINUOUS
10
166.874
20
-125.545
11
166.684
21
-125.45
0
LINE
8
BLACK
6
CONTINUOUS
10
166.684
20
-125.45
11
166.589
21
-125.354
0
LINE
8
BLACK
6
CONTINUOUS
10
166.589
20
-125.354
11
166.493
21
-125.164
0
LINE
8
BLACK
6
CONTINUOUS
10
166.493
20
-125.164
11
166.493
21
-124.592
0
LINE
8
BLACK
6
CONTINUOUS
10
166.493
20
-124.592
11
166.589
21
-124.402
0
LINE
8
BLACK
6
CONTINUOUS
10
166.589
20
-124.402
11
166.684
21
-124.307
0
LINE
8
BLACK
6
CONTINUOUS
10
166.684
20
-124.307
11
166.874
21
-124.211
0
LINE
8
BLACK
6
CONTINUOUS
10
166.874
20
-124.211
11
167.16
21
-124.211
0
LINE
8
BLACK
6
CONTINUOUS
10
167.16
20
-124.211
11
167.35
21
-124.307
0
LINE
8
BLACK
6
CONTINUOUS
10
167.35
20
-124.307
11
167.446
21
-124.402
0
LINE
8
BLACK
6
CONTINUOUS
10
167.446
20
-124.402
11
167.541
21
-124.592
0
LINE
8
BLACK
6
CONTINUOUS
10
167.541
20
-124.592
11
167.541
21
-125.164
0
LINE
8
BLACK
6
CONTINUOUS
10
167.541
20
-125.164
11
167.446
21
-125.354
0
LINE
8
BLACK
6
CONTINUOUS
10
167.446
20
-125.354
11
167.35
21
-125.45
0
LINE
8
BLACK
6
CONTINUOUS
10
167.35
20
-125.45
11
167.16
21
-125.545
0
LINE
8
BLACK
6
CONTINUOUS
10
167.16
20
-125.545
11
166.874
21
-125.545
0
LINE
8
BLACK
6
CONTINUOUS
10
168.684
20
-125.545
11
168.493
21
-125.45
0
LINE
8
BLACK
6
CONTINUOUS
10
168.493
20
-125.45
11
168.398
21
-125.259
0
LINE
8
BLACK
6
CONTINUOUS
10
168.398
20
-125.259
11
168.398
21
-123.545
0
LINE
8
BLACK
6
CONTINUOUS
10
170.208
20
-125.45
11
170.017
21
-125.545
0
LINE
8
BLACK
6
CONTINUOUS
10
170.017
20
-125.545
11
169.636
21
-125.545
0
LINE
8
BLACK
6
CONTINUOUS
10
169.636
20
-125.545
11
169.446
21
-125.45
0
LINE
8
BLACK
6
CONTINUOUS
10
169.446
20
-125.45
11
169.35
21
-125.259
0
LINE
8
BLACK
6
CONTINUOUS
10
169.35
20
-125.259
11
169.35
21
-124.497
0
LINE
8
BLACK
6
CONTINUOUS
10
169.35
20
-124.497
11
169.446
21
-124.307
0
LINE
8
BLACK
6
CONTINUOUS
10
169.446
20
-124.307
11
169.636
21
-124.211
0
LINE
8
BLACK
6
CONTINUOUS
10
169.636
20
-124.211
11
170.017
21
-124.211
0
LINE
8
BLACK
6
CONTINUOUS
10
170.017
20
-124.211
11
170.208
21
-124.307
0
LINE
8
BLACK
6
CONTINUOUS
10
170.208
20
-124.307
11
170.303
21
-124.497
0
LINE
8
BLACK
6
CONTINUOUS
10
170.303
20
-124.497
11
170.303
21
-124.688
0
LINE
8
BLACK
6
CONTINUOUS
10
170.303
20
-124.688
11
169.35
21
-124.878
0
LINE
8
BLACK
6
CONTINUOUS
10
171.065
20
-125.45
11
171.255
21
-125.545
0
LINE
8
BLACK
6
CONTINUOUS
10
171.255
20
-125.545
11
171.636
21
-125.545
0
LINE
8
BLACK
6
CONTINUOUS
10
171.636
20
-125.545
11
171.827
21
-125.45
0
LINE
8
BLACK
6
CONTINUOUS
10
171.827
20
-125.45
11
171.922
21
-125.259
0
LINE
8
BLACK
6
CONTINUOUS
10
171.922
20
-125.259
11
171.922
21
-125.164
0
LINE
8
BLACK
6
CONTINUOUS
10
171.922
20
-125.164
11
171.827
21
-124.973
0
LINE
8
BLACK
6
CONTINUOUS
10
171.827
20
-124.973
11
171.636
21
-124.878
0
LINE
8
BLACK
6
CONTINUOUS
10
171.636
20
-124.878
11
171.35
21
-124.878
0
LINE
8
BLACK
6
CONTINUOUS
10
171.35
20
-124.878
11
171.16
21
-124.783
0
LINE
8
BLACK
6
CONTINUOUS
10
171.16
20
-124.783
11
171.065
21
-124.592
0
LINE
8
BLACK
6
CONTINUOUS
10
171.065
20
-124.592
11
171.065
21
-124.497
0
LINE
8
BLACK
6
CONTINUOUS
10
171.065
20
-124.497
11
171.16
21
-124.307
0
LINE
8
BLACK
6
CONTINUOUS
10
171.16
20
-124.307
11
171.35
21
-124.211
0
LINE
8
BLACK
6
CONTINUOUS
10
171.35
20
-124.211
11
171.636
21
-124.211
0
LINE
8
BLACK
6
CONTINUOUS
10
171.636
20
-124.211
11
171.827
21
-124.307
0
LINE
8
BLACK
6
CONTINUOUS
10
172.589
20
-126.307
11
172.684
21
-126.211
0
LINE
8
BLACK
6
CONTINUOUS
10
172.684
20
-126.211
11
172.874
21
-125.926
0
LINE
8
BLACK
6
CONTINUOUS
10
172.874
20
-125.926
11
172.97
21
-125.735
0
LINE
8
BLACK
6
CONTINUOUS
10
172.97
20
-125.735
11
173.065
21
-125.45
0
LINE
8
BLACK
6
CONTINUOUS
10
173.065
20
-125.45
11
173.16
21
-124.973
0
LINE
8
BLACK
6
CONTINUOUS
10
173.16
20
-124.973
11
173.16
21
-124.592
0
LINE
8
BLACK
6
CONTINUOUS
10
173.16
20
-124.592
11
173.065
21
-124.116
0
LINE
8
BLACK
6
CONTINUOUS
10
173.065
20
-124.116
11
172.97
21
-123.83
0
LINE
8
BLACK
6
CONTINUOUS
10
172.97
20
-123.83
11
172.874
21
-123.64
0
LINE
8
BLACK
6
CONTINUOUS
10
172.874
20
-123.64
11
172.684
21
-123.354
0
LINE
8
BLACK
6
CONTINUOUS
10
172.684
20
-123.354
11
172.589
21
-123.259
0
LINE
8
BLACK
6
CONTINUOUS
10
124.199
20
-127.839
11
124.199
21
-127.061
0
LINE
8
BLACK
6
CONTINUOUS
10
124.199
20
-127.061
11
123.421
21
-127.061
0
LINE
8
BLACK
6
CONTINUOUS
10
123.421
20
-127.061
11
123.421
21
-127.839
0
LINE
8
BLACK
6
CONTINUOUS
10
123.421
20
-127.839
11
124.199
21
-127.839
0
LINE
8
BLACK
6
CONTINUOUS
10
127.884
20
-128.185
11
126.741
21
-128.185
0
LINE
8
BLACK
6
CONTINUOUS
10
127.312
20
-128.185
11
127.312
21
-126.185
0
LINE
8
BLACK
6
CONTINUOUS
10
127.312
20
-126.185
11
127.122
21
-126.47
0
LINE
8
BLACK
6
CONTINUOUS
10
127.122
20
-126.47
11
126.931
21
-126.661
0
LINE
8
BLACK
6
CONTINUOUS
10
126.931
20
-126.661
11
126.741
21
-126.756
0
LINE
8
BLACK
6
CONTINUOUS
10
128.741
20
-127.994
11
128.836
21
-128.09
0
LINE
8
BLACK
6
CONTINUOUS
10
128.836
20
-128.09
11
128.741
21
-128.185
0
LINE
8
BLACK
6
CONTINUOUS
10
128.741
20
-128.185
11
128.646
21
-128.09
0
LINE
8
BLACK
6
CONTINUOUS
10
128.646
20
-128.09
11
128.741
21
-127.994
0
LINE
8
BLACK
6
CONTINUOUS
10
128.741
20
-127.994
11
128.741
21
-128.185
0
LINE
8
BLACK
6
CONTINUOUS
10
130.741
20
-128.185
11
129.598
21
-128.185
0
LINE
8
BLACK
6
CONTINUOUS
10
130.17
20
-128.185
11
130.17
21
-126.185
0
LINE
8
BLACK
6
CONTINUOUS
10
130.17
20
-126.185
11
129.979
21
-126.47
0
LINE
8
BLACK
6
CONTINUOUS
10
129.979
20
-126.47
11
129.789
21
-126.661
0
LINE
8
BLACK
6
CONTINUOUS
10
129.789
20
-126.661
11
129.598
21
-126.756
0
LINE
8
BLACK
6
CONTINUOUS
10
131.979
20
-126.185
11
132.17
21
-126.185
0
LINE
8
BLACK
6
CONTINUOUS
10
132.17
20
-126.185
11
132.36
21
-126.28
0
LINE
8
BLACK
6
CONTINUOUS
10
132.36
20
-126.28
11
132.455
21
-126.375
0
LINE
8
BLACK
6
CONTINUOUS
10
132.455
20
-126.375
11
132.55
21
-126.566
0
LINE
8
BLACK
6
CONTINUOUS
10
132.55
20
-126.566
11
132.646
21
-126.947
0
LINE
8
BLACK
6
CONTINUOUS
10
132.646
20
-126.947
11
132.646
21
-127.423
0
LINE
8
BLACK
6
CONTINUOUS
10
132.646
20
-127.423
11
132.55
21
-127.804
0
LINE
8
BLACK
6
CONTINUOUS
10
132.55
20
-127.804
11
132.455
21
-127.994
0
LINE
8
BLACK
6
CONTINUOUS
10
132.455
20
-127.994
11
132.36
21
-128.09
0
LINE
8
BLACK
6
CONTINUOUS
10
132.36
20
-128.09
11
132.17
21
-128.185
0
LINE
8
BLACK
6
CONTINUOUS
10
132.17
20
-128.185
11
131.979
21
-128.185
0
LINE
8
BLACK
6
CONTINUOUS
10
131.979
20
-128.185
11
131.789
21
-128.09
0
LINE
8
BLACK
6
CONTINUOUS
10
131.789
20
-128.09
11
131.693
21
-127.994
0
LINE
8
BLACK
6
CONTINUOUS
10
131.693
20
-127.994
11
131.598
21
-127.804
0
LINE
8
BLACK
6
CONTINUOUS
10
131.598
20
-127.804
11
131.503
21
-127.423
0
LINE
8
BLACK
6
CONTINUOUS
10
131.503
20
-127.423
11
131.503
21
-126.947
0
LINE
8
BLACK
6
CONTINUOUS
10
131.503
20
-126.947
11
131.598
21
-126.566
0
LINE
8
BLACK
6
CONTINUOUS
10
131.598
20
-126.566
11
131.693
21
-126.375
0
LINE
8
BLACK
6
CONTINUOUS
10
131.693
20
-126.375
11
131.789
21
-126.28
0
LINE
8
BLACK
6
CONTINUOUS
10
131.789
20
-126.28
11
131.979
21
-126.185
0
LINE
8
BLACK
6
CONTINUOUS
10
133.884
20
-126.185
11
134.074
21
-126.185
0
LINE
8
BLACK
6
CONTINUOUS
10
134.074
20
-126.185
11
134.265
21
-126.28
0
LINE
8
BLACK
6
CONTINUOUS
10
134.265
20
-126.28
11
134.36
21
-126.375
0
LINE
8
BLACK
6
CONTINUOUS
10
134.36
20
-126.375
11
134.455
21
-126.566
0
LINE
8
BLACK
6
CONTINUOUS
10
134.455
20
-126.566
11
134.55
21
-126.947
0
LINE
8
BLACK
6
CONTINUOUS
10
134.55
20
-126.947
11
134.55
21
-127.423
0
LINE
8
BLACK
6
CONTINUOUS
10
134.55
20
-127.423
11
134.455
21
-127.804
0
LINE
8
BLACK
6
CONTINUOUS
10
134.455
20
-127.804
11
134.36
21
-127.994
0
LINE
8
BLACK
6
CONTINUOUS
10
134.36
20
-127.994
11
134.265
21
-128.09
0
LINE
8
BLACK
6
CONTINUOUS
10
134.265
20
-128.09
11
134.074
21
-128.185
0
LINE
8
BLACK
6
CONTINUOUS
10
134.074
20
-128.185
11
133.884
21
-128.185
0
LINE
8
BLACK
6
CONTINUOUS
10
133.884
20
-128.185
11
133.693
21
-128.09
0
LINE
8
BLACK
6
CONTINUOUS
10
133.693
20
-128.09
11
133.598
21
-127.994
0
LINE
8
BLACK
6
CONTINUOUS
10
133.598
20
-127.994
11
133.503
21
-127.804
0
LINE
8
BLACK
6
CONTINUOUS
10
133.503
20
-127.804
11
133.408
21
-127.423
0
LINE
8
BLACK
6
CONTINUOUS
10
133.408
20
-127.423
11
133.408
21
-126.947
0
LINE
8
BLACK
6
CONTINUOUS
10
133.408
20
-126.947
11
133.503
21
-126.566
0
LINE
8
BLACK
6
CONTINUOUS
10
133.503
20
-126.566
11
133.598
21
-126.375
0
LINE
8
BLACK
6
CONTINUOUS
10
133.598
20
-126.375
11
133.693
21
-126.28
0
LINE
8
BLACK
6
CONTINUOUS
10
133.693
20
-126.28
11
133.884
21
-126.185
0
LINE
8
BLACK
6
CONTINUOUS
10
135.408
20
-128.185
11
135.408
21
-126.851
0
LINE
8
BLACK
6
CONTINUOUS
10
135.408
20
-127.042
11
135.503
21
-126.947
0
LINE
8
BLACK
6
CONTINUOUS
10
135.503
20
-126.947
11
135.693
21
-126.851
0
LINE
8
BLACK
6
CONTINUOUS
10
135.693
20
-126.851
11
135.979
21
-126.851
0
LINE
8
BLACK
6
CONTINUOUS
10
135.979
20
-126.851
11
136.17
21
-126.947
0
LINE
8
BLACK
6
CONTINUOUS
10
136.17
20
-126.947
11
136.265
21
-127.137
0
LINE
8
BLACK
6
CONTINUOUS
10
136.265
20
-127.137
11
136.265
21
-128.185
0
LINE
8
BLACK
6
CONTINUOUS
10
136.265
20
-127.137
11
136.36
21
-126.947
0
LINE
8
BLACK
6
CONTINUOUS
10
136.36
20
-126.947
11
136.55
21
-126.851
0
LINE
8
BLACK
6
CONTINUOUS
10
136.55
20
-126.851
11
136.836
21
-126.851
0
LINE
8
BLACK
6
CONTINUOUS
10
136.836
20
-126.851
11
137.027
21
-126.947
0
LINE
8
BLACK
6
CONTINUOUS
10
137.027
20
-126.947
11
137.122
21
-127.137
0
LINE
8
BLACK
6
CONTINUOUS
10
137.122
20
-127.137
11
137.122
21
-128.185
0
LINE
8
BLACK
6
CONTINUOUS
10
138.074
20
-128.185
11
138.074
21
-126.851
0
LINE
8
BLACK
6
CONTINUOUS
10
138.074
20
-127.042
11
138.17
21
-126.947
0
LINE
8
BLACK
6
CONTINUOUS
10
138.17
20
-126.947
11
138.36
21
-126.851
0
LINE
8
BLACK
6
CONTINUOUS
10
138.36
20
-126.851
11
138.646
21
-126.851
0
LINE
8
BLACK
6
CONTINUOUS
10
138.646
20
-126.851
11
138.836
21
-126.947
0
LINE
8
BLACK
6
CONTINUOUS
10
138.836
20
-126.947
11
138.931
21
-127.137
0
LINE
8
BLACK
6
CONTINUOUS
10
138.931
20
-127.137
11
138.931
21
-128.185
0
LINE
8
BLACK
6
CONTINUOUS
10
138.931
20
-127.137
11
139.027
21
-126.947
0
LINE
8
BLACK
6
CONTINUOUS
10
139.027
20
-126.947
11
139.217
21
-126.851
0
LINE
8
BLACK
6
CONTINUOUS
10
139.217
20
-126.851
11
139.503
21
-126.851
0
LINE
8
BLACK
6
CONTINUOUS
10
139.503
20
-126.851
11
139.693
21
-126.947
0
LINE
8
BLACK
6
CONTINUOUS
10
139.693
20
-126.947
11
139.789
21
-127.137
0
LINE
8
BLACK
6
CONTINUOUS
10
139.789
20
-127.137
11
139.789
21
-128.185
0
LINE
8
BLACK
6
CONTINUOUS
10
143.37
20
-126.09
11
141.655
21
-128.661
0
LINE
8
BLACK
6
CONTINUOUS
10
145.617
20
-126.185
11
145.808
21
-126.185
0
LINE
8
BLACK
6
CONTINUOUS
10
145.808
20
-126.185
11
145.998
21
-126.28
0
LINE
8
BLACK
6
CONTINUOUS
10
145.998
20
-126.28
11
146.093
21
-126.375
0
LINE
8
BLACK
6
CONTINUOUS
10
146.093
20
-126.375
11
146.189
21
-126.566
0
LINE
8
BLACK
6
CONTINUOUS
10
146.189
20
-126.566
11
146.284
21
-126.947
0
LINE
8
BLACK
6
CONTINUOUS
10
146.284
20
-126.947
11
146.284
21
-127.423
0
LINE
8
BLACK
6
CONTINUOUS
10
146.284
20
-127.423
11
146.189
21
-127.804
0
LINE
8
BLACK
6
CONTINUOUS
10
146.189
20
-127.804
11
146.093
21
-127.994
0
LINE
8
BLACK
6
CONTINUOUS
10
146.093
20
-127.994
11
145.998
21
-128.09
0
LINE
8
BLACK
6
CONTINUOUS
10
145.998
20
-128.09
11
145.808
21
-128.185
0
LINE
8
BLACK
6
CONTINUOUS
10
145.808
20
-128.185
11
145.617
21
-128.185
0
LINE
8
BLACK
6
CONTINUOUS
10
145.617
20
-128.185
11
145.427
21
-128.09
0
LINE
8
BLACK
6
CONTINUOUS
10
145.427
20
-128.09
11
145.331
21
-127.994
0
LINE
8
BLACK
6
CONTINUOUS
10
145.331
20
-127.994
11
145.236
21
-127.804
0
LINE
8
BLACK
6
CONTINUOUS
10
145.236
20
-127.804
11
145.141
21
-127.423
0
LINE
8
BLACK
6
CONTINUOUS
10
145.141
20
-127.423
11
145.141
21
-126.947
0
LINE
8
BLACK
6
CONTINUOUS
10
145.141
20
-126.947
11
145.236
21
-126.566
0
LINE
8
BLACK
6
CONTINUOUS
10
145.236
20
-126.566
11
145.331
21
-126.375
0
LINE
8
BLACK
6
CONTINUOUS
10
145.331
20
-126.375
11
145.427
21
-126.28
0
LINE
8
BLACK
6
CONTINUOUS
10
145.427
20
-126.28
11
145.617
21
-126.185
0
LINE
8
BLACK
6
CONTINUOUS
10
147.141
20
-127.994
11
147.236
21
-128.09
0
LINE
8
BLACK
6
CONTINUOUS
10
147.236
20
-128.09
11
147.141
21
-128.185
0
LINE
8
BLACK
6
CONTINUOUS
10
147.141
20
-128.185
11
147.046
21
-128.09
0
LINE
8
BLACK
6
CONTINUOUS
10
147.046
20
-128.09
11
147.141
21
-127.994
0
LINE
8
BLACK
6
CONTINUOUS
10
147.141
20
-127.994
11
147.141
21
-128.185
0
LINE
8
BLACK
6
CONTINUOUS
10
148.474
20
-126.185
11
148.665
21
-126.185
0
LINE
8
BLACK
6
CONTINUOUS
10
148.665
20
-126.185
11
148.855
21
-126.28
0
LINE
8
BLACK
6
CONTINUOUS
10
148.855
20
-126.28
11
148.95
21
-126.375
0
LINE
8
BLACK
6
CONTINUOUS
10
148.95
20
-126.375
11
149.046
21
-126.566
0
LINE
8
BLACK
6
CONTINUOUS
10
149.046
20
-126.566
11
149.141
21
-126.947
0
LINE
8
BLACK
6
CONTINUOUS
10
149.141
20
-126.947
11
149.141
21
-127.423
0
LINE
8
BLACK
6
CONTINUOUS
10
149.141
20
-127.423
11
149.046
21
-127.804
0
LINE
8
BLACK
6
CONTINUOUS
10
149.046
20
-127.804
11
148.95
21
-127.994
0
LINE
8
BLACK
6
CONTINUOUS
10
148.95
20
-127.994
11
148.855
21
-128.09
0
LINE
8
BLACK
6
CONTINUOUS
10
148.855
20
-128.09
11
148.665
21
-128.185
0
LINE
8
BLACK
6
CONTINUOUS
10
148.665
20
-128.185
11
148.474
21
-128.185
0
LINE
8
BLACK
6
CONTINUOUS
10
148.474
20
-128.185
11
148.284
21
-128.09
0
LINE
8
BLACK
6
CONTINUOUS
10
148.284
20
-128.09
11
148.189
21
-127.994
0
LINE
8
BLACK
6
CONTINUOUS
10
148.189
20
-127.994
11
148.093
21
-127.804
0
LINE
8
BLACK
6
CONTINUOUS
10
148.093
20
-127.804
11
147.998
21
-127.423
0
LINE
8
BLACK
6
CONTINUOUS
10
147.998
20
-127.423
11
147.998
21
-126.947
0
LINE
8
BLACK
6
CONTINUOUS
10
147.998
20
-126.947
11
148.093
21
-126.566
0
LINE
8
BLACK
6
CONTINUOUS
10
148.093
20
-126.566
11
148.189
21
-126.375
0
LINE
8
BLACK
6
CONTINUOUS
10
148.189
20
-126.375
11
148.284
21
-126.28
0
LINE
8
BLACK
6
CONTINUOUS
10
148.284
20
-126.28
11
148.474
21
-126.185
0
LINE
8
BLACK
6
CONTINUOUS
10
150.855
20
-126.851
11
150.855
21
-128.185
0
LINE
8
BLACK
6
CONTINUOUS
10
150.379
20
-126.09
11
149.903
21
-127.518
0
LINE
8
BLACK
6
CONTINUOUS
10
149.903
20
-127.518
11
151.141
21
-127.518
0
LINE
8
BLACK
6
CONTINUOUS
10
151.712
20
-126.185
11
152.95
21
-126.185
0
LINE
8
BLACK
6
CONTINUOUS
10
152.95
20
-126.185
11
152.284
21
-126.947
0
LINE
8
BLACK
6
CONTINUOUS
10
152.284
20
-126.947
11
152.57
21
-126.947
0
LINE
8
BLACK
6
CONTINUOUS
10
152.57
20
-126.947
11
152.76
21
-127.042
0
LINE
8
BLACK
6
CONTINUOUS
10
152.76
20
-127.042
11
152.855
21
-127.137
0
LINE
8
BLACK
6
CONTINUOUS
10
152.855
20
-127.137
11
152.95
21
-127.328
0
LINE
8
BLACK
6
CONTINUOUS
10
152.95
20
-127.328
11
152.95
21
-127.804
0
LINE
8
BLACK
6
CONTINUOUS
10
152.95
20
-127.804
11
152.855
21
-127.994
0
LINE
8
BLACK
6
CONTINUOUS
10
152.855
20
-127.994
11
152.76
21
-128.09
0
LINE
8
BLACK
6
CONTINUOUS
10
152.76
20
-128.09
11
152.57
21
-128.185
0
LINE
8
BLACK
6
CONTINUOUS
10
152.57
20
-128.185
11
151.998
21
-128.185
0
LINE
8
BLACK
6
CONTINUOUS
10
151.998
20
-128.185
11
151.808
21
-128.09
0
LINE
8
BLACK
6
CONTINUOUS
10
151.808
20
-128.09
11
151.712
21
-127.994
0
LINE
8
BLACK
6
CONTINUOUS
10
153.617
20
-126.185
11
154.855
21
-126.185
0
LINE
8
BLACK
6
CONTINUOUS
10
154.855
20
-126.185
11
154.189
21
-126.947
0
LINE
8
BLACK
6
CONTINUOUS
10
154.189
20
-126.947
11
154.474
21
-126.947
0
LINE
8
BLACK
6
CONTINUOUS
10
154.474
20
-126.947
11
154.665
21
-127.042
0
LINE
8
BLACK
6
CONTINUOUS
10
154.665
20
-127.042
11
154.76
21
-127.137
0
LINE
8
BLACK
6
CONTINUOUS
10
154.76
20
-127.137
11
154.855
21
-127.328
0
LINE
8
BLACK
6
CONTINUOUS
10
154.855
20
-127.328
11
154.855
21
-127.804
0
LINE
8
BLACK
6
CONTINUOUS
10
154.855
20
-127.804
11
154.76
21
-127.994
0
LINE
8
BLACK
6
CONTINUOUS
10
154.76
20
-127.994
11
154.665
21
-128.09
0
LINE
8
BLACK
6
CONTINUOUS
10
154.665
20
-128.09
11
154.474
21
-128.185
0
LINE
8
BLACK
6
CONTINUOUS
10
154.474
20
-128.185
11
153.903
21
-128.185
0
LINE
8
BLACK
6
CONTINUOUS
10
153.903
20
-128.185
11
153.712
21
-128.09
0
LINE
8
BLACK
6
CONTINUOUS
10
153.712
20
-128.09
11
153.617
21
-127.994
0
LINE
8
BLACK
6
CONTINUOUS
10
155.617
20
-126.185
11
155.617
21
-126.566
0
LINE
8
BLACK
6
CONTINUOUS
10
156.379
20
-126.185
11
156.379
21
-126.566
0
LINE
8
BLACK
6
CONTINUOUS
10
159.008
20
-128.947
11
158.912
21
-128.851
0
LINE
8
BLACK
6
CONTINUOUS
10
158.912
20
-128.851
11
158.722
21
-128.566
0
LINE
8
BLACK
6
CONTINUOUS
10
158.722
20
-128.566
11
158.627
21
-128.375
0
LINE
8
BLACK
6
CONTINUOUS
10
158.627
20
-128.375
11
158.531
21
-128.09
0
LINE
8
BLACK
6
CONTINUOUS
10
158.531
20
-128.09
11
158.436
21
-127.613
0
LINE
8
BLACK
6
CONTINUOUS
10
158.436
20
-127.613
11
158.436
21
-127.232
0
LINE
8
BLACK
6
CONTINUOUS
10
158.436
20
-127.232
11
158.531
21
-126.756
0
LINE
8
BLACK
6
CONTINUOUS
10
158.531
20
-126.756
11
158.627
21
-126.47
0
LINE
8
BLACK
6
CONTINUOUS
10
158.627
20
-126.47
11
158.722
21
-126.28
0
LINE
8
BLACK
6
CONTINUOUS
10
158.722
20
-126.28
11
158.912
21
-125.994
0
LINE
8
BLACK
6
CONTINUOUS
10
158.912
20
-125.994
11
159.008
21
-125.899
0
LINE
8
BLACK
6
CONTINUOUS
10
160.627
20
-126.185
11
160.246
21
-126.185
0
LINE
8
BLACK
6
CONTINUOUS
10
160.246
20
-126.185
11
160.055
21
-126.28
0
LINE
8
BLACK
6
CONTINUOUS
10
160.055
20
-126.28
11
159.96
21
-126.375
0
LINE
8
BLACK
6
CONTINUOUS
10
159.96
20
-126.375
11
159.77
21
-126.661
0
LINE
8
BLACK
6
CONTINUOUS
10
159.77
20
-126.661
11
159.674
21
-127.042
0
LINE
8
BLACK
6
CONTINUOUS
10
159.674
20
-127.042
11
159.674
21
-127.804
0
LINE
8
BLACK
6
CONTINUOUS
10
159.674
20
-127.804
11
159.77
21
-127.994
0
LINE
8
BLACK
6
CONTINUOUS
10
159.77
20
-127.994
11
159.865
21
-128.09
0
LINE
8
BLACK
6
CONTINUOUS
10
159.865
20
-128.09
11
160.055
21
-128.185
0
LINE
8
BLACK
6
CONTINUOUS
10
160.055
20
-128.185
11
160.436
21
-128.185
0
LINE
8
BLACK
6
CONTINUOUS
10
160.436
20
-128.185
11
160.627
21
-128.09
0
LINE
8
BLACK
6
CONTINUOUS
10
160.627
20
-128.09
11
160.722
21
-127.994
0
LINE
8
BLACK
6
CONTINUOUS
10
160.722
20
-127.994
11
160.817
21
-127.804
0
LINE
8
BLACK
6
CONTINUOUS
10
160.817
20
-127.804
11
160.817
21
-127.328
0
LINE
8
BLACK
6
CONTINUOUS
10
160.817
20
-127.328
11
160.722
21
-127.137
0
LINE
8
BLACK
6
CONTINUOUS
10
160.722
20
-127.137
11
160.627
21
-127.042
0
LINE
8
BLACK
6
CONTINUOUS
10
160.627
20
-127.042
11
160.436
21
-126.947
0
LINE
8
BLACK
6
CONTINUOUS
10
160.436
20
-126.947
11
160.055
21
-126.947
0
LINE
8
BLACK
6
CONTINUOUS
10
160.055
20
-126.947
11
159.865
21
-127.042
0
LINE
8
BLACK
6
CONTINUOUS
10
159.865
20
-127.042
11
159.77
21
-127.137
0
LINE
8
BLACK
6
CONTINUOUS
10
159.77
20
-127.137
11
159.674
21
-127.328
0
LINE
8
BLACK
6
CONTINUOUS
10
162.874
20
-128.185
11
162.874
21
-126.185
0
LINE
8
BLACK
6
CONTINUOUS
10
163.731
20
-128.185
11
163.731
21
-127.137
0
LINE
8
BLACK
6
CONTINUOUS
10
163.731
20
-127.137
11
163.636
21
-126.947
0
LINE
8
BLACK
6
CONTINUOUS
10
163.636
20
-126.947
11
163.446
21
-126.851
0
LINE
8
BLACK
6
CONTINUOUS
10
163.446
20
-126.851
11
163.16
21
-126.851
0
LINE
8
BLACK
6
CONTINUOUS
10
163.16
20
-126.851
11
162.97
21
-126.947
0
LINE
8
BLACK
6
CONTINUOUS
10
162.97
20
-126.947
11
162.874
21
-127.042
0
LINE
8
BLACK
6
CONTINUOUS
10
164.97
20
-128.185
11
164.779
21
-128.09
0
LINE
8
BLACK
6
CONTINUOUS
10
164.779
20
-128.09
11
164.684
21
-127.994
0
LINE
8
BLACK
6
CONTINUOUS
10
164.684
20
-127.994
11
164.589
21
-127.804
0
LINE
8
BLACK
6
CONTINUOUS
10
164.589
20
-127.804
11
164.589
21
-127.232
0
LINE
8
BLACK
6
CONTINUOUS
10
164.589
20
-127.232
11
164.684
21
-127.042
0
LINE
8
BLACK
6
CONTINUOUS
10
164.684
20
-127.042
11
164.779
21
-126.947
0
LINE
8
BLACK
6
CONTINUOUS
10
164.779
20
-126.947
11
164.97
21
-126.851
0
LINE
8
BLACK
6
CONTINUOUS
10
164.97
20
-126.851
11
165.255
21
-126.851
0
LINE
8
BLACK
6
CONTINUOUS
10
165.255
20
-126.851
11
165.446
21
-126.947
0
LINE
8
BLACK
6
CONTINUOUS
10
165.446
20
-126.947
11
165.541
21
-127.042
0
LINE
8
BLACK
6
CONTINUOUS
10
165.541
20
-127.042
11
165.636
21
-127.232
0
LINE
8
BLACK
6
CONTINUOUS
10
165.636
20
-127.232
11
165.636
21
-127.804
0
LINE
8
BLACK
6
CONTINUOUS
10
165.636
20
-127.804
11
165.541
21
-127.994
0
LINE
8
BLACK
6
CONTINUOUS
10
165.541
20
-127.994
11
165.446
21
-128.09
0
LINE
8
BLACK
6
CONTINUOUS
10
165.446
20
-128.09
11
165.255
21
-128.185
0
LINE
8
BLACK
6
CONTINUOUS
10
165.255
20
-128.185
11
164.97
21
-128.185
0
LINE
8
BLACK
6
CONTINUOUS
10
166.779
20
-128.185
11
166.589
21
-128.09
0
LINE
8
BLACK
6
CONTINUOUS
10
166.589
20
-128.09
11
166.493
21
-127.899
0
LINE
8
BLACK
6
CONTINUOUS
10
166.493
20
-127.899
11
166.493
21
-126.185
0
LINE
8
BLACK
6
CONTINUOUS
10
168.303
20
-128.09
11
168.112
21
-128.185
0
LINE
8
BLACK
6
CONTINUOUS
10
168.112
20
-128.185
11
167.731
21
-128.185
0
LINE
8
BLACK
6
CONTINUOUS
10
167.731
20
-128.185
11
167.541
21
-128.09
0
LINE
8
BLACK
6
CONTINUOUS
10
167.541
20
-128.09
11
167.446
21
-127.899
0
LINE
8
BLACK
6
CONTINUOUS
10
167.446
20
-127.899
11
167.446
21
-127.137
0
LINE
8
BLACK
6
CONTINUOUS
10
167.446
20
-127.137
11
167.541
21
-126.947
0
LINE
8
BLACK
6
CONTINUOUS
10
167.541
20
-126.947
11
167.731
21
-126.851
0
LINE
8
BLACK
6
CONTINUOUS
10
167.731
20
-126.851
11
168.112
21
-126.851
0
LINE
8
BLACK
6
CONTINUOUS
10
168.112
20
-126.851
11
168.303
21
-126.947
0
LINE
8
BLACK
6
CONTINUOUS
10
168.303
20
-126.947
11
168.398
21
-127.137
0
LINE
8
BLACK
6
CONTINUOUS
10
168.398
20
-127.137
11
168.398
21
-127.328
0
LINE
8
BLACK
6
CONTINUOUS
10
168.398
20
-127.328
11
167.446
21
-127.518
0
LINE
8
BLACK
6
CONTINUOUS
10
169.16
20
-128.09
11
169.35
21
-128.185
0
LINE
8
BLACK
6
CONTINUOUS
10
169.35
20
-128.185
11
169.731
21
-128.185
0
LINE
8
BLACK
6
CONTINUOUS
10
169.731
20
-128.185
11
169.922
21
-128.09
0
LINE
8
BLACK
6
CONTINUOUS
10
169.922
20
-128.09
11
170.017
21
-127.899
0
LINE
8
BLACK
6
CONTINUOUS
10
170.017
20
-127.899
11
170.017
21
-127.804
0
LINE
8
BLACK
6
CONTINUOUS
10
170.017
20
-127.804
11
169.922
21
-127.613
0
LINE
8
BLACK
6
CONTINUOUS
10
169.922
20
-127.613
11
169.731
21
-127.518
0
LINE
8
BLACK
6
CONTINUOUS
10
169.731
20
-127.518
11
169.446
21
-127.518
0
LINE
8
BLACK
6
CONTINUOUS
10
169.446
20
-127.518
11
169.255
21
-127.423
0
LINE
8
BLACK
6
CONTINUOUS
10
169.255
20
-127.423
11
169.16
21
-127.232
0
LINE
8
BLACK
6
CONTINUOUS
10
169.16
20
-127.232
11
169.16
21
-127.137
0
LINE
8
BLACK
6
CONTINUOUS
10
169.16
20
-127.137
11
169.255
21
-126.947
0
LINE
8
BLACK
6
CONTINUOUS
10
169.255
20
-126.947
11
169.446
21
-126.851
0
LINE
8
BLACK
6
CONTINUOUS
10
169.446
20
-126.851
11
169.731
21
-126.851
0
LINE
8
BLACK
6
CONTINUOUS
10
169.731
20
-126.851
11
169.922
21
-126.947
0
LINE
8
BLACK
6
CONTINUOUS
10
170.684
20
-128.947
11
170.779
21
-128.851
0
LINE
8
BLACK
6
CONTINUOUS
10
170.779
20
-128.851
11
170.97
21
-128.566
0
LINE
8
BLACK
6
CONTINUOUS
10
170.97
20
-128.566
11
171.065
21
-128.375
0
LINE
8
BLACK
6
CONTINUOUS
10
171.065
20
-128.375
11
171.16
21
-128.09
0
LINE
8
BLACK
6
CONTINUOUS
10
171.16
20
-128.09
11
171.255
21
-127.613
0
LINE
8
BLACK
6
CONTINUOUS
10
171.255
20
-127.613
11
171.255
21
-127.232
0
LINE
8
BLACK
6
CONTINUOUS
10
171.255
20
-127.232
11
171.16
21
-126.756
0
LINE
8
BLACK
6
CONTINUOUS
10
171.16
20
-126.756
11
171.065
21
-126.47
0
LINE
8
BLACK
6
CONTINUOUS
10
171.065
20
-126.47
11
170.97
21
-126.28
0
LINE
8
BLACK
6
CONTINUOUS
10
170.97
20
-126.28
11
170.779
21
-125.994
0
LINE
8
BLACK
6
CONTINUOUS
10
170.779
20
-125.994
11
170.684
21
-125.899
0
LINE
8
BLACK
6
CONTINUOUS
10
123.71
20
-130.74
11
124.36
21
-130.09
0
LINE
8
BLACK
6
CONTINUOUS
10
124.36
20
-130.09
11
123.71
21
-129.44
0
LINE
8
BLACK
6
CONTINUOUS
10
123.71
20
-129.44
11
123.06
21
-130.09
0
LINE
8
BLACK
6
CONTINUOUS
10
123.06
20
-130.09
11
123.71
21
-130.74
0
LINE
8
BLACK
6
CONTINUOUS
10
127.884
20
-130.825
11
126.741
21
-130.825
0
LINE
8
BLACK
6
CONTINUOUS
10
127.312
20
-130.825
11
127.312
21
-128.825
0
LINE
8
BLACK
6
CONTINUOUS
10
127.312
20
-128.825
11
127.122
21
-129.11
0
LINE
8
BLACK
6
CONTINUOUS
10
127.122
20
-129.11
11
126.931
21
-129.301
0
LINE
8
BLACK
6
CONTINUOUS
10
126.931
20
-129.301
11
126.741
21
-129.396
0
LINE
8
BLACK
6
CONTINUOUS
10
128.741
20
-130.634
11
128.836
21
-130.73
0
LINE
8
BLACK
6
CONTINUOUS
10
128.836
20
-130.73
11
128.741
21
-130.825
0
LINE
8
BLACK
6
CONTINUOUS
10
128.741
20
-130.825
11
128.646
21
-130.73
0
LINE
8
BLACK
6
CONTINUOUS
10
128.646
20
-130.73
11
128.741
21
-130.634
0
LINE
8
BLACK
6
CONTINUOUS
10
128.741
20
-130.634
11
128.741
21
-130.825
0
LINE
8
BLACK
6
CONTINUOUS
10
129.503
20
-128.825
11
130.741
21
-128.825
0
LINE
8
BLACK
6
CONTINUOUS
10
130.741
20
-128.825
11
130.074
21
-129.587
0
LINE
8
BLACK
6
CONTINUOUS
10
130.074
20
-129.587
11
130.36
21
-129.587
0
LINE
8
BLACK
6
CONTINUOUS
10
130.36
20
-129.587
11
130.55
21
-129.682
0
LINE
8
BLACK
6
CONTINUOUS
10
130.55
20
-129.682
11
130.646
21
-129.777
0
LINE
8
BLACK
6
CONTINUOUS
10
130.646
20
-129.777
11
130.741
21
-129.968
0
LINE
8
BLACK
6
CONTINUOUS
10
130.741
20
-129.968
11
130.741
21
-130.444
0
LINE
8
BLACK
6
CONTINUOUS
10
130.741
20
-130.444
11
130.646
21
-130.634
0
LINE
8
BLACK
6
CONTINUOUS
10
130.646
20
-130.634
11
130.55
21
-130.73
0
LINE
8
BLACK
6
CONTINUOUS
10
130.55
20
-130.73
11
130.36
21
-130.825
0
LINE
8
BLACK
6
CONTINUOUS
10
130.36
20
-130.825
11
129.789
21
-130.825
0
LINE
8
BLACK
6
CONTINUOUS
10
129.789
20
-130.825
11
129.598
21
-130.73
0
LINE
8
BLACK
6
CONTINUOUS
10
129.598
20
-130.73
11
129.503
21
-130.634
0
LINE
8
BLACK
6
CONTINUOUS
10
131.979
20
-128.825
11
132.17
21
-128.825
0
LINE
8
BLACK
6
CONTINUOUS
10
132.17
20
-128.825
11
132.36
21
-128.92
0
LINE
8
BLACK
6
CONTINUOUS
10
132.36
20
-128.92
11
132.455
21
-129.015
0
LINE
8
BLACK
6
CONTINUOUS
10
132.455
20
-129.015
11
132.55
21
-129.206
0
LINE
8
BLACK
6
CONTINUOUS
10
132.55
20
-129.206
11
132.646
21
-129.587
0
LINE
8
BLACK
6
CONTINUOUS
10
132.646
20
-129.587
11
132.646
21
-130.063
0
LINE
8
BLACK
6
CONTINUOUS
10
132.646
20
-130.063
11
132.55
21
-130.444
0
LINE
8
BLACK
6
CONTINUOUS
10
132.55
20
-130.444
11
132.455
21
-130.634
0
LINE
8
BLACK
6
CONTINUOUS
10
132.455
20
-130.634
11
132.36
21
-130.73
0
LINE
8
BLACK
6
CONTINUOUS
10
132.36
20
-130.73
11
132.17
21
-130.825
0
LINE
8
BLACK
6
CONTINUOUS
10
132.17
20
-130.825
11
131.979
21
-130.825
0
LINE
8
BLACK
6
CONTINUOUS
10
131.979
20
-130.825
11
131.789
21
-130.73
0
LINE
8
BLACK
6
CONTINUOUS
10
131.789
20
-130.73
11
131.693
21
-130.634
0
LINE
8
BLACK
6
CONTINUOUS
10
131.693
20
-130.634
11
131.598
21
-130.444
0
LINE
8
BLACK
6
CONTINUOUS
10
131.598
20
-130.444
11
131.503
21
-130.063
0
LINE
8
BLACK
6
CONTINUOUS
10
131.503
20
-130.063
11
131.503
21
-129.587
0
LINE
8
BLACK
6
CONTINUOUS
10
131.503
20
-129.587
11
131.598
21
-129.206
0
LINE
8
BLACK
6
CONTINUOUS
10
131.598
20
-129.206
11
131.693
21
-129.015
0
LINE
8
BLACK
6
CONTINUOUS
10
131.693
20
-129.015
11
131.789
21
-128.92
0
LINE
8
BLACK
6
CONTINUOUS
10
131.789
20
-128.92
11
131.979
21
-128.825
0
LINE
8
BLACK
6
CONTINUOUS
10
133.884
20
-128.825
11
134.074
21
-128.825
0
LINE
8
BLACK
6
CONTINUOUS
10
134.074
20
-128.825
11
134.265
21
-128.92
0
LINE
8
BLACK
6
CONTINUOUS
10
134.265
20
-128.92
11
134.36
21
-129.015
0
LINE
8
BLACK
6
CONTINUOUS
10
134.36
20
-129.015
11
134.455
21
-129.206
0
LINE
8
BLACK
6
CONTINUOUS
10
134.455
20
-129.206
11
134.55
21
-129.587
0
LINE
8
BLACK
6
CONTINUOUS
10
134.55
20
-129.587
11
134.55
21
-130.063
0
LINE
8
BLACK
6
CONTINUOUS
10
134.55
20
-130.063
11
134.455
21
-130.444
0
LINE
8
BLACK
6
CONTINUOUS
10
134.455
20
-130.444
11
134.36
21
-130.634
0
LINE
8
BLACK
6
CONTINUOUS
10
134.36
20
-130.634
11
134.265
21
-130.73
0
LINE
8
BLACK
6
CONTINUOUS
10
134.265
20
-130.73
11
134.074
21
-130.825
0
LINE
8
BLACK
6
CONTINUOUS
10
134.074
20
-130.825
11
133.884
21
-130.825
0
LINE
8
BLACK
6
CONTINUOUS
10
133.884
20
-130.825
11
133.693
21
-130.73
0
LINE
8
BLACK
6
CONTINUOUS
10
133.693
20
-130.73
11
133.598
21
-130.634
0
LINE
8
BLACK
6
CONTINUOUS
10
133.598
20
-130.634
11
133.503
21
-130.444
0
LINE
8
BLACK
6
CONTINUOUS
10
133.503
20
-130.444
11
133.408
21
-130.063
0
LINE
8
BLACK
6
CONTINUOUS
10
133.408
20
-130.063
11
133.408
21
-129.587
0
LINE
8
BLACK
6
CONTINUOUS
10
133.408
20
-129.587
11
133.503
21
-129.206
0
LINE
8
BLACK
6
CONTINUOUS
10
133.503
20
-129.206
11
133.598
21
-129.015
0
LINE
8
BLACK
6
CONTINUOUS
10
133.598
20
-129.015
11
133.693
21
-128.92
0
LINE
8
BLACK
6
CONTINUOUS
10
133.693
20
-128.92
11
133.884
21
-128.825
0
LINE
8
BLACK
6
CONTINUOUS
10
135.408
20
-130.825
11
135.408
21
-129.491
0
LINE
8
BLACK
6
CONTINUOUS
10
135.408
20
-129.682
11
135.503
21
-129.587
0
LINE
8
BLACK
6
CONTINUOUS
10
135.503
20
-129.587
11
135.693
21
-129.491
0
LINE
8
BLACK
6
CONTINUOUS
10
135.693
20
-129.491
11
135.979
21
-129.491
0
LINE
8
BLACK
6
CONTINUOUS
10
135.979
20
-129.491
11
136.17
21
-129.587
0
LINE
8
BLACK
6
CONTINUOUS
10
136.17
20
-129.587
11
136.265
21
-129.777
0
LINE
8
BLACK
6
CONTINUOUS
10
136.265
20
-129.777
11
136.265
21
-130.825
0
LINE
8
BLACK
6
CONTINUOUS
10
136.265
20
-129.777
11
136.36
21
-129.587
0
LINE
8
BLACK
6
CONTINUOUS
10
136.36
20
-129.587
11
136.55
21
-129.491
0
LINE
8
BLACK
6
CONTINUOUS
10
136.55
20
-129.491
11
136.836
21
-129.491
0
LINE
8
BLACK
6
CONTINUOUS
10
136.836
20
-129.491
11
137.027
21
-129.587
0
LINE
8
BLACK
6
CONTINUOUS
10
137.027
20
-129.587
11
137.122
21
-129.777
0
LINE
8
BLACK
6
CONTINUOUS
10
137.122
20
-129.777
11
137.122
21
-130.825
0
LINE
8
BLACK
6
CONTINUOUS
10
138.074
20
-130.825
11
138.074
21
-129.491
0
LINE
8
BLACK
6
CONTINUOUS
10
138.074
20
-129.682
11
138.17
21
-129.587
0
LINE
8
BLACK
6
CONTINUOUS
10
138.17
20
-129.587
11
138.36
21
-129.491
0
LINE
8
BLACK
6
CONTINUOUS
10
138.36
20
-129.491
11
138.646
21
-129.491
0
LINE
8
BLACK
6
CONTINUOUS
10
138.646
20
-129.491
11
138.836
21
-129.587
0
LINE
8
BLACK
6
CONTINUOUS
10
138.836
20
-129.587
11
138.931
21
-129.777
0
LINE
8
BLACK
6
CONTINUOUS
10
138.931
20
-129.777
11
138.931
21
-130.825
0
LINE
8
BLACK
6
CONTINUOUS
10
138.931
20
-129.777
11
139.027
21
-129.587
0
LINE
8
BLACK
6
CONTINUOUS
10
139.027
20
-129.587
11
139.217
21
-129.491
0
LINE
8
BLACK
6
CONTINUOUS
10
139.217
20
-129.491
11
139.503
21
-129.491
0
LINE
8
BLACK
6
CONTINUOUS
10
139.503
20
-129.491
11
139.693
21
-129.587
0
LINE
8
BLACK
6
CONTINUOUS
10
139.693
20
-129.587
11
139.789
21
-129.777
0
LINE
8
BLACK
6
CONTINUOUS
10
139.789
20
-129.777
11
139.789
21
-130.825
0
LINE
8
BLACK
6
CONTINUOUS
10
143.37
20
-128.73
11
141.655
21
-131.301
0
LINE
8
BLACK
6
CONTINUOUS
10
145.617
20
-128.825
11
145.808
21
-128.825
0
LINE
8
BLACK
6
CONTINUOUS
10
145.808
20
-128.825
11
145.998
21
-128.92
0
LINE
8
BLACK
6
CONTINUOUS
10
145.998
20
-128.92
11
146.093
21
-129.015
0
LINE
8
BLACK
6
CONTINUOUS
10
146.093
20
-129.015
11
146.189
21
-129.206
0
LINE
8
BLACK
6
CONTINUOUS
10
146.189
20
-129.206
11
146.284
21
-129.587
0
LINE
8
BLACK
6
CONTINUOUS
10
146.284
20
-129.587
11
146.284
21
-130.063
0
LINE
8
BLACK
6
CONTINUOUS
10
146.284
20
-130.063
11
146.189
21
-130.444
0
LINE
8
BLACK
6
CONTINUOUS
10
146.189
20
-130.444
11
146.093
21
-130.634
0
LINE
8
BLACK
6
CONTINUOUS
10
146.093
20
-130.634
11
145.998
21
-130.73
0
LINE
8
BLACK
6
CONTINUOUS
10
145.998
20
-130.73
11
145.808
21
-130.825
0
LINE
8
BLACK
6
CONTINUOUS
10
145.808
20
-130.825
11
145.617
21
-130.825
0
LINE
8
BLACK
6
CONTINUOUS
10
145.617
20
-130.825
11
145.427
21
-130.73
0
LINE
8
BLACK
6
CONTINUOUS
10
145.427
20
-130.73
11
145.331
21
-130.634
0
LINE
8
BLACK
6
CONTINUOUS
10
145.331
20
-130.634
11
145.236
21
-130.444
0
LINE
8
BLACK
6
CONTINUOUS
10
145.236
20
-130.444
11
145.141
21
-130.063
0
LINE
8
BLACK
6
CONTINUOUS
10
145.141
20
-130.063
11
145.141
21
-129.587
0
LINE
8
BLACK
6
CONTINUOUS
10
145.141
20
-129.587
11
145.236
21
-129.206
0
LINE
8
BLACK
6
CONTINUOUS
10
145.236
20
-129.206
11
145.331
21
-129.015
0
LINE
8
BLACK
6
CONTINUOUS
10
145.331
20
-129.015
11
145.427
21
-128.92
0
LINE
8
BLACK
6
CONTINUOUS
10
145.427
20
-128.92
11
145.617
21
-128.825
0
LINE
8
BLACK
6
CONTINUOUS
10
147.141
20
-130.634
11
147.236
21
-130.73
0
LINE
8
BLACK
6
CONTINUOUS
10
147.236
20
-130.73
11
147.141
21
-130.825
0
LINE
8
BLACK
6
CONTINUOUS
10
147.141
20
-130.825
11
147.046
21
-130.73
0
LINE
8
BLACK
6
CONTINUOUS
10
147.046
20
-130.73
11
147.141
21
-130.634
0
LINE
8
BLACK
6
CONTINUOUS
10
147.141
20
-130.634
11
147.141
21
-130.825
0
LINE
8
BLACK
6
CONTINUOUS
10
148.474
20
-128.825
11
148.665
21
-128.825
0
LINE
8
BLACK
6
CONTINUOUS
10
148.665
20
-128.825
11
148.855
21
-128.92
0
LINE
8
BLACK
6
CONTINUOUS
10
148.855
20
-128.92
11
148.95
21
-129.015
0
LINE
8
BLACK
6
CONTINUOUS
10
148.95
20
-129.015
11
149.046
21
-129.206
0
LINE
8
BLACK
6
CONTINUOUS
10
149.046
20
-129.206
11
149.141
21
-129.587
0
LINE
8
BLACK
6
CONTINUOUS
10
149.141
20
-129.587
11
149.141
21
-130.063
0
LINE
8
BLACK
6
CONTINUOUS
10
149.141
20
-130.063
11
149.046
21
-130.444
0
LINE
8
BLACK
6
CONTINUOUS
10
149.046
20
-130.444
11
148.95
21
-130.634
0
LINE
8
BLACK
6
CONTINUOUS
10
148.95
20
-130.634
11
148.855
21
-130.73
0
LINE
8
BLACK
6
CONTINUOUS
10
148.855
20
-130.73
11
148.665
21
-130.825
0
LINE
8
BLACK
6
CONTINUOUS
10
148.665
20
-130.825
11
148.474
21
-130.825
0
LINE
8
BLACK
6
CONTINUOUS
10
148.474
20
-130.825
11
148.284
21
-130.73
0
LINE
8
BLACK
6
CONTINUOUS
10
148.284
20
-130.73
11
148.189
21
-130.634
0
LINE
8
BLACK
6
CONTINUOUS
10
148.189
20
-130.634
11
148.093
21
-130.444
0
LINE
8
BLACK
6
CONTINUOUS
10
148.093
20
-130.444
11
147.998
21
-130.063
0
LINE
8
BLACK
6
CONTINUOUS
10
147.998
20
-130.063
11
147.998
21
-129.587
0
LINE
8
BLACK
6
CONTINUOUS
10
147.998
20
-129.587
11
148.093
21
-129.206
0
LINE
8
BLACK
6
CONTINUOUS
10
148.093
20
-129.206
11
148.189
21
-129.015
0
LINE
8
BLACK
6
CONTINUOUS
10
148.189
20
-129.015
11
148.284
21
-128.92
0
LINE
8
BLACK
6
CONTINUOUS
10
148.284
20
-128.92
11
148.474
21
-128.825
0
LINE
8
BLACK
6
CONTINUOUS
10
150.95
20
-128.825
11
149.998
21
-128.825
0
LINE
8
BLACK
6
CONTINUOUS
10
149.998
20
-128.825
11
149.903
21
-129.777
0
LINE
8
BLACK
6
CONTINUOUS
10
149.903
20
-129.777
11
149.998
21
-129.682
0
LINE
8
BLACK
6
CONTINUOUS
10
149.998
20
-129.682
11
150.189
21
-129.587
0
LINE
8
BLACK
6
CONTINUOUS
10
150.189
20
-129.587
11
150.665
21
-129.587
0
LINE
8
BLACK
6
CONTINUOUS
10
150.665
20
-129.587
11
150.855
21
-129.682
0
LINE
8
BLACK
6
CONTINUOUS
10
150.855
20
-129.682
11
150.95
21
-129.777
0
LINE
8
BLACK
6
CONTINUOUS
10
150.95
20
-129.777
11
151.046
21
-129.968
0
LINE
8
BLACK
6
CONTINUOUS
10
151.046
20
-129.968
11
151.046
21
-130.444
0
LINE
8
BLACK
6
CONTINUOUS
10
151.046
20
-130.444
11
150.95
21
-130.634
0
LINE
8
BLACK
6
CONTINUOUS
10
150.95
20
-130.634
11
150.855
21
-130.73
0
LINE
8
BLACK
6
CONTINUOUS
10
150.855
20
-130.73
11
150.665
21
-130.825
0
LINE
8
BLACK
6
CONTINUOUS
10
150.665
20
-130.825
11
150.189
21
-130.825
0
LINE
8
BLACK
6
CONTINUOUS
10
150.189
20
-130.825
11
149.998
21
-130.73
0
LINE
8
BLACK
6
CONTINUOUS
10
149.998
20
-130.73
11
149.903
21
-130.634
0
LINE
8
BLACK
6
CONTINUOUS
10
152.95
20
-130.825
11
151.808
21
-130.825
0
LINE
8
BLACK
6
CONTINUOUS
10
152.379
20
-130.825
11
152.379
21
-128.825
0
LINE
8
BLACK
6
CONTINUOUS
10
152.379
20
-128.825
11
152.189
21
-129.11
0
LINE
8
BLACK
6
CONTINUOUS
10
152.189
20
-129.11
11
151.998
21
-129.301
0
LINE
8
BLACK
6
CONTINUOUS
10
151.998
20
-129.301
11
151.808
21
-129.396
0
LINE
8
BLACK
6
CONTINUOUS
10
153.712
20
-129.015
11
153.808
21
-128.92
0
LINE
8
BLACK
6
CONTINUOUS
10
153.808
20
-128.92
11
153.998
21
-128.825
0
LINE
8
BLACK
6
CONTINUOUS
10
153.998
20
-128.825
11
154.474
21
-128.825
0
LINE
8
BLACK
6
CONTINUOUS
10
154.474
20
-128.825
11
154.665
21
-128.92
0
LINE
8
BLACK
6
CONTINUOUS
10
154.665
20
-128.92
11
154.76
21
-129.015
0
LINE
8
BLACK
6
CONTINUOUS
10
154.76
20
-129.015
11
154.855
21
-129.206
0
LINE
8
BLACK
6
CONTINUOUS
10
154.855
20
-129.206
11
154.855
21
-129.396
0
LINE
8
BLACK
6
CONTINUOUS
10
154.855
20
-129.396
11
154.76
21
-129.682
0
LINE
8
BLACK
6
CONTINUOUS
10
154.76
20
-129.682
11
153.617
21
-130.825
0
LINE
8
BLACK
6
CONTINUOUS
10
153.617
20
-130.825
11
154.855
21
-130.825
0
LINE
8
BLACK
6
CONTINUOUS
10
155.617
20
-128.825
11
155.617
21
-129.206
0
LINE
8
BLACK
6
CONTINUOUS
10
156.379
20
-128.825
11
156.379
21
-129.206
0
LINE
8
BLACK
6
CONTINUOUS
10
159.008
20
-131.587
11
158.912
21
-131.491
0
LINE
8
BLACK
6
CONTINUOUS
10
158.912
20
-131.491
11
158.722
21
-131.206
0
LINE
8
BLACK
6
CONTINUOUS
10
158.722
20
-131.206
11
158.627
21
-131.015
0
LINE
8
BLACK
6
CONTINUOUS
10
158.627
20
-131.015
11
158.531
21
-130.73
0
LINE
8
BLACK
6
CONTINUOUS
10
158.531
20
-130.73
11
158.436
21
-130.253
0
LINE
8
BLACK
6
CONTINUOUS
10
158.436
20
-130.253
11
158.436
21
-129.872
0
LINE
8
BLACK
6
CONTINUOUS
10
158.436
20
-129.872
11
158.531
21
-129.396
0
LINE
8
BLACK
6
CONTINUOUS
10
158.531
20
-129.396
11
158.627
21
-129.11
0
LINE
8
BLACK
6
CONTINUOUS
10
158.627
20
-129.11
11
158.722
21
-128.92
0
LINE
8
BLACK
6
CONTINUOUS
10
158.722
20
-128.92
11
158.912
21
-128.634
0
LINE
8
BLACK
6
CONTINUOUS
10
158.912
20
-128.634
11
159.008
21
-128.539
0
LINE
8
BLACK
6
CONTINUOUS
10
160.627
20
-129.491
11
160.627
21
-130.825
0
LINE
8
BLACK
6
CONTINUOUS
10
160.15
20
-128.73
11
159.674
21
-130.158
0
LINE
8
BLACK
6
CONTINUOUS
10
159.674
20
-130.158
11
160.912
21
-130.158
0
LINE
8
BLACK
6
CONTINUOUS
10
162.874
20
-130.825
11
162.874
21
-128.825
0
LINE
8
BLACK
6
CONTINUOUS
10
163.731
20
-130.825
11
163.731
21
-129.777
0
LINE
8
BLACK
6
CONTINUOUS
10
163.731
20
-129.777
11
163.636
21
-129.587
0
LINE
8
BLACK
6
CONTINUOUS
10
163.636
20
-129.587
11
163.446
21
-129.491
0
LINE
8
BLACK
6
CONTINUOUS
10
163.446
20
-129.491
11
163.16
21
-129.491
0
LINE
8
BLACK
6
CONTINUOUS
10
163.16
20
-129.491
11
162.97
21
-129.587
0
LINE
8
BLACK
6
CONTINUOUS
10
162.97
20
-129.587
11
162.874
21
-129.682
0
LINE
8
BLACK
6
CONTINUOUS
10
164.97
20
-130.825
11
164.779
21
-130.73
0
LINE
8
BLACK
6
CONTINUOUS
10
164.779
20
-130.73
11
164.684
21
-130.634
0
LINE
8
BLACK
6
CONTINUOUS
10
164.684
20
-130.634
11
164.589
21
-130.444
0
LINE
8
BLACK
6
CONTINUOUS
10
164.589
20
-130.444
11
164.589
21
-129.872
0
LINE
8
BLACK
6
CONTINUOUS
10
164.589
20
-129.872
11
164.684
21
-129.682
0
LINE
8
BLACK
6
CONTINUOUS
10
164.684
20
-129.682
11
164.779
21
-129.587
0
LINE
8
BLACK
6
CONTINUOUS
10
164.779
20
-129.587
11
164.97
21
-129.491
0
LINE
8
BLACK
6
CONTINUOUS
10
164.97
20
-129.491
11
165.255
21
-129.491
0
LINE
8
BLACK
6
CONTINUOUS
10
165.255
20
-129.491
11
165.446
21
-129.587
0
LINE
8
BLACK
6
CONTINUOUS
10
165.446
20
-129.587
11
165.541
21
-129.682
0
LINE
8
BLACK
6
CONTINUOUS
10
165.541
20
-129.682
11
165.636
21
-129.872
0
LINE
8
BLACK
6
CONTINUOUS
10
165.636
20
-129.872
11
165.636
21
-130.444
0
LINE
8
BLACK
6
CONTINUOUS
10
165.636
20
-130.444
11
165.541
21
-130.634
0
LINE
8
BLACK
6
CONTINUOUS
10
165.541
20
-130.634
11
165.446
21
-130.73
0
LINE
8
BLACK
6
CONTINUOUS
10
165.446
20
-130.73
11
165.255
21
-130.825
0
LINE
8
BLACK
6
CONTINUOUS
10
165.255
20
-130.825
11
164.97
21
-130.825
0
LINE
8
BLACK
6
CONTINUOUS
10
166.779
20
-130.825
11
166.589
21
-130.73
0
LINE
8
BLACK
6
CONTINUOUS
10
166.589
20
-130.73
11
166.493
21
-130.539
0
LINE
8
BLACK
6
CONTINUOUS
10
166.493
20
-130.539
11
166.493
21
-128.825
0
LINE
8
BLACK
6
CONTINUOUS
10
168.303
20
-130.73
11
168.112
21
-130.825
0
LINE
8
BLACK
6
CONTINUOUS
10
168.112
20
-130.825
11
167.731
21
-130.825
0
LINE
8
BLACK
6
CONTINUOUS
10
167.731
20
-130.825
11
167.541
21
-130.73
0
LINE
8
BLACK
6
CONTINUOUS
10
167.541
20
-130.73
11
167.446
21
-130.539
0
LINE
8
BLACK
6
CONTINUOUS
10
167.446
20
-130.539
11
167.446
21
-129.777
0
LINE
8
BLACK
6
CONTINUOUS
10
167.446
20
-129.777
11
167.541
21
-129.587
0
LINE
8
BLACK
6
CONTINUOUS
10
167.541
20
-129.587
11
167.731
21
-129.491
0
LINE
8
BLACK
6
CONTINUOUS
10
167.731
20
-129.491
11
168.112
21
-129.491
0
LINE
8
BLACK
6
CONTINUOUS
10
168.112
20
-129.491
11
168.303
21
-129.587
0
LINE
8
BLACK
6
CONTINUOUS
10
168.303
20
-129.587
11
168.398
21
-129.777
0
LINE
8
BLACK
6
CONTINUOUS
10
168.398
20
-129.777
11
168.398
21
-129.968
0
LINE
8
BLACK
6
CONTINUOUS
10
168.398
20
-129.968
11
167.446
21
-130.158
0
LINE
8
BLACK
6
CONTINUOUS
10
169.16
20
-130.73
11
169.35
21
-130.825
0
LINE
8
BLACK
6
CONTINUOUS
10
169.35
20
-130.825
11
169.731
21
-130.825
0
LINE
8
BLACK
6
CONTINUOUS
10
169.731
20
-130.825
11
169.922
21
-130.73
0
LINE
8
BLACK
6
CONTINUOUS
10
169.922
20
-130.73
11
170.017
21
-130.539
0
LINE
8
BLACK
6
CONTINUOUS
10
170.017
20
-130.539
11
170.017
21
-130.444
0
LINE
8
BLACK
6
CONTINUOUS
10
170.017
20
-130.444
11
169.922
21
-130.253
0
LINE
8
BLACK
6
CONTINUOUS
10
169.922
20
-130.253
11
169.731
21
-130.158
0
LINE
8
BLACK
6
CONTINUOUS
10
169.731
20
-130.158
11
169.446
21
-130.158
0
LINE
8
BLACK
6
CONTINUOUS
10
169.446
20
-130.158
11
169.255
21
-130.063
0
LINE
8
BLACK
6
CONTINUOUS
10
169.255
20
-130.063
11
169.16
21
-129.872
0
LINE
8
BLACK
6
CONTINUOUS
10
169.16
20
-129.872
11
169.16
21
-129.777
0
LINE
8
BLACK
6
CONTINUOUS
10
169.16
20
-129.777
11
169.255
21
-129.587
0
LINE
8
BLACK
6
CONTINUOUS
10
169.255
20
-129.587
11
169.446
21
-129.491
0
LINE
8
BLACK
6
CONTINUOUS
10
169.446
20
-129.491
11
169.731
21
-129.491
0
LINE
8
BLACK
6
CONTINUOUS
10
169.731
20
-129.491
11
169.922
21
-129.587
0
LINE
8
BLACK
6
CONTINUOUS
10
170.684
20
-131.587
11
170.779
21
-131.491
0
LINE
8
BLACK
6
CONTINUOUS
10
170.779
20
-131.491
11
170.97
21
-131.206
0
LINE
8
BLACK
6
CONTINUOUS
10
170.97
20
-131.206
11
171.065
21
-131.015
0
LINE
8
BLACK
6
CONTINUOUS
10
171.065
20
-131.015
11
171.16
21
-130.73
0
LINE
8
BLACK
6
CONTINUOUS
10
171.16
20
-130.73
11
171.255
21
-130.253
0
LINE
8
BLACK
6
CONTINUOUS
10
171.255
20
-130.253
11
171.255
21
-129.872
0
LINE
8
BLACK
6
CONTINUOUS
10
171.255
20
-129.872
11
171.16
21
-129.396
0
LINE
8
BLACK
6
CONTINUOUS
10
171.16
20
-129.396
11
171.065
21
-129.11
0
LINE
8
BLACK
6
CONTINUOUS
10
171.065
20
-129.11
11
170.97
21
-128.92
0
LINE
8
BLACK
6
CONTINUOUS
10
170.97
20
-128.92
11
170.779
21
-128.634
0
LINE
8
BLACK
6
CONTINUOUS
10
170.779
20
-128.634
11
170.684
21
-128.539
0
LINE
8
BLACK
6
CONTINUOUS
10
122.36
20
-131.73
11
124.36
21
-133.73
0
LINE
8
BLACK
6
CONTINUOUS
10
124.36
20
-131.73
11
122.36
21
-133.73
0
CIRCLE
8
BLACK
10
123.36
20
-132.73
40
1
0
LINE
8
BLACK
6
CONTINUOUS
10
126.741
20
-131.655
11
126.836
21
-131.56
0
LINE
8
BLACK
6
CONTINUOUS
10
126.836
20
-131.56
11
127.027
21
-131.465
0
LINE
8
BLACK
6
CONTINUOUS
10
127.027
20
-131.465
11
127.503
21
-131.465
0
LINE
8
BLACK
6
CONTINUOUS
10
127.503
20
-131.465
11
127.693
21
-131.56
0
LINE
8
BLACK
6
CONTINUOUS
10
127.693
20
-131.56
11
127.789
21
-131.655
0
LINE
8
BLACK
6
CONTINUOUS
10
127.789
20
-131.655
11
127.884
21
-131.846
0
LINE
8
BLACK
6
CONTINUOUS
10
127.884
20
-131.846
11
127.884
21
-132.036
0
LINE
8
BLACK
6
CONTINUOUS
10
127.884
20
-132.036
11
127.789
21
-132.322
0
LINE
8
BLACK
6
CONTINUOUS
10
127.789
20
-132.322
11
126.646
21
-133.465
0
LINE
8
BLACK
6
CONTINUOUS
10
126.646
20
-133.465
11
127.884
21
-133.465
0
LINE
8
BLACK
6
CONTINUOUS
10
128.741
20
-133.274
11
128.836
21
-133.37
0
LINE
8
BLACK
6
CONTINUOUS
10
128.836
20
-133.37
11
128.741
21
-133.465
0
LINE
8
BLACK
6
CONTINUOUS
10
128.741
20
-133.465
11
128.646
21
-133.37
0
LINE
8
BLACK
6
CONTINUOUS
10
128.646
20
-133.37
11
128.741
21
-133.274
0
LINE
8
BLACK
6
CONTINUOUS
10
128.741
20
-133.274
11
128.741
21
-133.465
0
LINE
8
BLACK
6
CONTINUOUS
10
129.598
20
-131.655
11
129.693
21
-131.56
0
LINE
8
BLACK
6
CONTINUOUS
10
129.693
20
-131.56
11
129.884
21
-131.465
0
LINE
8
BLACK
6
CONTINUOUS
10
129.884
20
-131.465
11
130.36
21
-131.465
0
LINE
8
BLACK
6
CONTINUOUS
10
130.36
20
-131.465
11
130.55
21
-131.56
0
LINE
8
BLACK
6
CONTINUOUS
10
130.55
20
-131.56
11
130.646
21
-131.655
0
LINE
8
BLACK
6
CONTINUOUS
10
130.646
20
-131.655
11
130.741
21
-131.846
0
LINE
8
BLACK
6
CONTINUOUS
10
130.741
20
-131.846
11
130.741
21
-132.036
0
LINE
8
BLACK
6
CONTINUOUS
10
130.741
20
-132.036
11
130.646
21
-132.322
0
LINE
8
BLACK
6
CONTINUOUS
10
130.646
20
-132.322
11
129.503
21
-133.465
0
LINE
8
BLACK
6
CONTINUOUS
10
129.503
20
-133.465
11
130.741
21
-133.465
0
LINE
8
BLACK
6
CONTINUOUS
10
131.979
20
-131.465
11
132.17
21
-131.465
0
LINE
8
BLACK
6
CONTINUOUS
10
132.17
20
-131.465
11
132.36
21
-131.56
0
LINE
8
BLACK
6
CONTINUOUS
10
132.36
20
-131.56
11
132.455
21
-131.655
0
LINE
8
BLACK
6
CONTINUOUS
10
132.455
20
-131.655
11
132.55
21
-131.846
0
LINE
8
BLACK
6
CONTINUOUS
10
132.55
20
-131.846
11
132.646
21
-132.227
0
LINE
8
BLACK
6
CONTINUOUS
10
132.646
20
-132.227
11
132.646
21
-132.703
0
LINE
8
BLACK
6
CONTINUOUS
10
132.646
20
-132.703
11
132.55
21
-133.084
0
LINE
8
BLACK
6
CONTINUOUS
10
132.55
20
-133.084
11
132.455
21
-133.274
0
LINE
8
BLACK
6
CONTINUOUS
10
132.455
20
-133.274
11
132.36
21
-133.37
0
LINE
8
BLACK
6
CONTINUOUS
10
132.36
20
-133.37
11
132.17
21
-133.465
0
LINE
8
BLACK
6
CONTINUOUS
10
132.17
20
-133.465
11
131.979
21
-133.465
0
LINE
8
BLACK
6
CONTINUOUS
10
131.979
20
-133.465
11
131.789
21
-133.37
0
LINE
8
BLACK
6
CONTINUOUS
10
131.789
20
-133.37
11
131.693
21
-133.274
0
LINE
8
BLACK
6
CONTINUOUS
10
131.693
20
-133.274
11
131.598
21
-133.084
0
LINE
8
BLACK
6
CONTINUOUS
10
131.598
20
-133.084
11
131.503
21
-132.703
0
LINE
8
BLACK
6
CONTINUOUS
10
131.503
20
-132.703
11
131.503
21
-132.227
0
LINE
8
BLACK
6
CONTINUOUS
10
131.503
20
-132.227
11
131.598
21
-131.846
0
LINE
8
BLACK
6
CONTINUOUS
10
131.598
20
-131.846
11
131.693
21
-131.655
0
LINE
8
BLACK
6
CONTINUOUS
10
131.693
20
-131.655
11
131.789
21
-131.56
0
LINE
8
BLACK
6
CONTINUOUS
10
131.789
20
-131.56
11
131.979
21
-131.465
0
LINE
8
BLACK
6
CONTINUOUS
10
133.884
20
-131.465
11
134.074
21
-131.465
0
LINE
8
BLACK
6
CONTINUOUS
10
134.074
20
-131.465
11
134.265
21
-131.56
0
LINE
8
BLACK
6
CONTINUOUS
10
134.265
20
-131.56
11
134.36
21
-131.655
0
LINE
8
BLACK
6
CONTINUOUS
10
134.36
20
-131.655
11
134.455
21
-131.846
0
LINE
8
BLACK
6
CONTINUOUS
10
134.455
20
-131.846
11
134.55
21
-132.227
0
LINE
8
BLACK
6
CONTINUOUS
10
134.55
20
-132.227
11
134.55
21
-132.703
0
LINE
8
BLACK
6
CONTINUOUS
10
134.55
20
-132.703
11
134.455
21
-133.084
0
LINE
8
BLACK
6
CONTINUOUS
10
134.455
20
-133.084
11
134.36
21
-133.274
0
LINE
8
BLACK
6
CONTINUOUS
10
134.36
20
-133.274
11
134.265
21
-133.37
0
LINE
8
BLACK
6
CONTINUOUS
10
134.265
20
-133.37
11
134.074
21
-133.465
0
LINE
8
BLACK
6
CONTINUOUS
10
134.074
20
-133.465
11
133.884
21
-133.465
0
LINE
8
BLACK
6
CONTINUOUS
10
133.884
20
-133.465
11
133.693
21
-133.37
0
LINE
8
BLACK
6
CONTINUOUS
10
133.693
20
-133.37
11
133.598
21
-133.274
0
LINE
8
BLACK
6
CONTINUOUS
10
133.598
20
-133.274
11
133.503
21
-133.084
0
LINE
8
BLACK
6
CONTINUOUS
10
133.503
20
-133.084
11
133.408
21
-132.703
0
LINE
8
BLACK
6
CONTINUOUS
10
133.408
20
-132.703
11
133.408
21
-132.227
0
LINE
8
BLACK
6
CONTINUOUS
10
133.408
20
-132.227
11
133.503
21
-131.846
0
LINE
8
BLACK
6
CONTINUOUS
10
133.503
20
-131.846
11
133.598
21
-131.655
0
LINE
8
BLACK
6
CONTINUOUS
10
133.598
20
-131.655
11
133.693
21
-131.56
0
LINE
8
BLACK
6
CONTINUOUS
10
133.693
20
-131.56
11
133.884
21
-131.465
0
LINE
8
BLACK
6
CONTINUOUS
10
135.408
20
-133.465
11
135.408
21
-132.131
0
LINE
8
BLACK
6
CONTINUOUS
10
135.408
20
-132.322
11
135.503
21
-132.227
0
LINE
8
BLACK
6
CONTINUOUS
10
135.503
20
-132.227
11
135.693
21
-132.131
0
LINE
8
BLACK
6
CONTINUOUS
10
135.693
20
-132.131
11
135.979
21
-132.131
0
LINE
8
BLACK
6
CONTINUOUS
10
135.979
20
-132.131
11
136.17
21
-132.227
0
LINE
8
BLACK
6
CONTINUOUS
10
136.17
20
-132.227
11
136.265
21
-132.417
0
LINE
8
BLACK
6
CONTINUOUS
10
136.265
20
-132.417
11
136.265
21
-133.465
0
LINE
8
BLACK
6
CONTINUOUS
10
136.265
20
-132.417
11
136.36
21
-132.227
0
LINE
8
BLACK
6
CONTINUOUS
10
136.36
20
-132.227
11
136.55
21
-132.131
0
LINE
8
BLACK
6
CONTINUOUS
10
136.55
20
-132.131
11
136.836
21
-132.131
0
LINE
8
BLACK
6
CONTINUOUS
10
136.836
20
-132.131
11
137.027
21
-132.227
0
LINE
8
BLACK
6
CONTINUOUS
10
137.027
20
-132.227
11
137.122
21
-132.417
0
LINE
8
BLACK
6
CONTINUOUS
10
137.122
20
-132.417
11
137.122
21
-133.465
0
LINE
8
BLACK
6
CONTINUOUS
10
138.074
20
-133.465
11
138.074
21
-132.131
0
LINE
8
BLACK
6
CONTINUOUS
10
138.074
20
-132.322
11
138.17
21
-132.227
0
LINE
8
BLACK
6
CONTINUOUS
10
138.17
20
-132.227
11
138.36
21
-132.131
0
LINE
8
BLACK
6
CONTINUOUS
10
138.36
20
-132.131
11
138.646
21
-132.131
0
LINE
8
BLACK
6
CONTINUOUS
10
138.646
20
-132.131
11
138.836
21
-132.227
0
LINE
8
BLACK
6
CONTINUOUS
10
138.836
20
-132.227
11
138.931
21
-132.417
0
LINE
8
BLACK
6
CONTINUOUS
10
138.931
20
-132.417
11
138.931
21
-133.465
0
LINE
8
BLACK
6
CONTINUOUS
10
138.931
20
-132.417
11
139.027
21
-132.227
0
LINE
8
BLACK
6
CONTINUOUS
10
139.027
20
-132.227
11
139.217
21
-132.131
0
LINE
8
BLACK
6
CONTINUOUS
10
139.217
20
-132.131
11
139.503
21
-132.131
0
LINE
8
BLACK
6
CONTINUOUS
10
139.503
20
-132.131
11
139.693
21
-132.227
0
LINE
8
BLACK
6
CONTINUOUS
10
139.693
20
-132.227
11
139.789
21
-132.417
0
LINE
8
BLACK
6
CONTINUOUS
10
139.789
20
-132.417
11
139.789
21
-133.465
0
LINE
8
BLACK
6
CONTINUOUS
10
143.37
20
-131.37
11
141.655
21
-133.941
0
LINE
8
BLACK
6
CONTINUOUS
10
145.617
20
-131.465
11
145.808
21
-131.465
0
LINE
8
BLACK
6
CONTINUOUS
10
145.808
20
-131.465
11
145.998
21
-131.56
0
LINE
8
BLACK
6
CONTINUOUS
10
145.998
20
-131.56
11
146.093
21
-131.655
0
LINE
8
BLACK
6
CONTINUOUS
10
146.093
20
-131.655
11
146.189
21
-131.846
0
LINE
8
BLACK
6
CONTINUOUS
10
146.189
20
-131.846
11
146.284
21
-132.227
0
LINE
8
BLACK
6
CONTINUOUS
10
146.284
20
-132.227
11
146.284
21
-132.703
0
LINE
8
BLACK
6
CONTINUOUS
10
146.284
20
-132.703
11
146.189
21
-133.084
0
LINE
8
BLACK
6
CONTINUOUS
10
146.189
20
-133.084
11
146.093
21
-133.274
0
LINE
8
BLACK
6
CONTINUOUS
10
146.093
20
-133.274
11
145.998
21
-133.37
0
LINE
8
BLACK
6
CONTINUOUS
10
145.998
20
-133.37
11
145.808
21
-133.465
0
LINE
8
BLACK
6
CONTINUOUS
10
145.808
20
-133.465
11
145.617
21
-133.465
0
LINE
8
BLACK
6
CONTINUOUS
10
145.617
20
-133.465
11
145.427
21
-133.37
0
LINE
8
BLACK
6
CONTINUOUS
10
145.427
20
-133.37
11
145.331
21
-133.274
0
LINE
8
BLACK
6
CONTINUOUS
10
145.331
20
-133.274
11
145.236
21
-133.084
0
LINE
8
BLACK
6
CONTINUOUS
10
145.236
20
-133.084
11
145.141
21
-132.703
0
LINE
8
BLACK
6
CONTINUOUS
10
145.141
20
-132.703
11
145.141
21
-132.227
0
LINE
8
BLACK
6
CONTINUOUS
10
145.141
20
-132.227
11
145.236
21
-131.846
0
LINE
8
BLACK
6
CONTINUOUS
10
145.236
20
-131.846
11
145.331
21
-131.655
0
LINE
8
BLACK
6
CONTINUOUS
10
145.331
20
-131.655
11
145.427
21
-131.56
0
LINE
8
BLACK
6
CONTINUOUS
10
145.427
20
-131.56
11
145.617
21
-131.465
0
LINE
8
BLACK
6
CONTINUOUS
10
147.141
20
-133.274
11
147.236
21
-133.37
0
LINE
8
BLACK
6
CONTINUOUS
10
147.236
20
-133.37
11
147.141
21
-133.465
0
LINE
8
BLACK
6
CONTINUOUS
10
147.141
20
-133.465
11
147.046
21
-133.37
0
LINE
8
BLACK
6
CONTINUOUS
10
147.046
20
-133.37
11
147.141
21
-133.274
0
LINE
8
BLACK
6
CONTINUOUS
10
147.141
20
-133.274
11
147.141
21
-133.465
0
LINE
8
BLACK
6
CONTINUOUS
10
148.474
20
-131.465
11
148.665
21
-131.465
0
LINE
8
BLACK
6
CONTINUOUS
10
148.665
20
-131.465
11
148.855
21
-131.56
0
LINE
8
BLACK
6
CONTINUOUS
10
148.855
20
-131.56
11
148.95
21
-131.655
0
LINE
8
BLACK
6
CONTINUOUS
10
148.95
20
-131.655
11
149.046
21
-131.846
0
LINE
8
BLACK
6
CONTINUOUS
10
149.046
20
-131.846
11
149.141
21
-132.227
0
LINE
8
BLACK
6
CONTINUOUS
10
149.141
20
-132.227
11
149.141
21
-132.703
0
LINE
8
BLACK
6
CONTINUOUS
10
149.141
20
-132.703
11
149.046
21
-133.084
0
LINE
8
BLACK
6
CONTINUOUS
10
149.046
20
-133.084
11
148.95
21
-133.274
0
LINE
8
BLACK
6
CONTINUOUS
10
148.95
20
-133.274
11
148.855
21
-133.37
0
LINE
8
BLACK
6
CONTINUOUS
10
148.855
20
-133.37
11
148.665
21
-133.465
0
LINE
8
BLACK
6
CONTINUOUS
10
148.665
20
-133.465
11
148.474
21
-133.465
0
LINE
8
BLACK
6
CONTINUOUS
10
148.474
20
-133.465
11
148.284
21
-133.37
0
LINE
8
BLACK
6
CONTINUOUS
10
148.284
20
-133.37
11
148.189
21
-133.274
0
LINE
8
BLACK
6
CONTINUOUS
10
148.189
20
-133.274
11
148.093
21
-133.084
0
LINE
8
BLACK
6
CONTINUOUS
10
148.093
20
-133.084
11
147.998
21
-132.703
0
LINE
8
BLACK
6
CONTINUOUS
10
147.998
20
-132.703
11
147.998
21
-132.227
0
LINE
8
BLACK
6
CONTINUOUS
10
147.998
20
-132.227
11
148.093
21
-131.846
0
LINE
8
BLACK
6
CONTINUOUS
10
148.093
20
-131.846
11
148.189
21
-131.655
0
LINE
8
BLACK
6
CONTINUOUS
10
148.189
20
-131.655
11
148.284
21
-131.56
0
LINE
8
BLACK
6
CONTINUOUS
10
148.284
20
-131.56
11
148.474
21
-131.465
0
LINE
8
BLACK
6
CONTINUOUS
10
150.284
20
-132.322
11
150.093
21
-132.227
0
LINE
8
BLACK
6
CONTINUOUS
10
150.093
20
-132.227
11
149.998
21
-132.131
0
LINE
8
BLACK
6
CONTINUOUS
10
149.998
20
-132.131
11
149.903
21
-131.941
0
LINE
8
BLACK
6
CONTINUOUS
10
149.903
20
-131.941
11
149.903
21
-131.846
0
LINE
8
BLACK
6
CONTINUOUS
10
149.903
20
-131.846
11
149.998
21
-131.655
0
LINE
8
BLACK
6
CONTINUOUS
10
149.998
20
-131.655
11
150.093
21
-131.56
0
LINE
8
BLACK
6
CONTINUOUS
10
150.093
20
-131.56
11
150.284
21
-131.465
0
LINE
8
BLACK
6
CONTINUOUS
10
150.284
20
-131.465
11
150.665
21
-131.465
0
LINE
8
BLACK
6
CONTINUOUS
10
150.665
20
-131.465
11
150.855
21
-131.56
0
LINE
8
BLACK
6
CONTINUOUS
10
150.855
20
-131.56
11
150.95
21
-131.655
0
LINE
8
BLACK
6
CONTINUOUS
10
150.95
20
-131.655
11
151.046
21
-131.846
0
LINE
8
BLACK
6
CONTINUOUS
10
151.046
20
-131.846
11
151.046
21
-131.941
0
LINE
8
BLACK
6
CONTINUOUS
10
151.046
20
-131.941
11
150.95
21
-132.131
0
LINE
8
BLACK
6
CONTINUOUS
10
150.95
20
-132.131
11
150.855
21
-132.227
0
LINE
8
BLACK
6
CONTINUOUS
10
150.855
20
-132.227
11
150.665
21
-132.322
0
LINE
8
BLACK
6
CONTINUOUS
10
150.665
20
-132.322
11
150.284
21
-132.322
0
LINE
8
BLACK
6
CONTINUOUS
10
150.284
20
-132.322
11
150.093
21
-132.417
0
LINE
8
BLACK
6
CONTINUOUS
10
150.093
20
-132.417
11
149.998
21
-132.512
0
LINE
8
BLACK
6
CONTINUOUS
10
149.998
20
-132.512
11
149.903
21
-132.703
0
LINE
8
BLACK
6
CONTINUOUS
10
149.903
20
-132.703
11
149.903
21
-133.084
0
LINE
8
BLACK
6
CONTINUOUS
10
149.903
20
-133.084
11
149.998
21
-133.274
0
LINE
8
BLACK
6
CONTINUOUS
10
149.998
20
-133.274
11
150.093
21
-133.37
0
LINE
8
BLACK
6
CONTINUOUS
10
150.093
20
-133.37
11
150.284
21
-133.465
0
LINE
8
BLACK
6
CONTINUOUS
10
150.284
20
-133.465
11
150.665
21
-133.465
0
LINE
8
BLACK
6
CONTINUOUS
10
150.665
20
-133.465
11
150.855
21
-133.37
0
LINE
8
BLACK
6
CONTINUOUS
10
150.855
20
-133.37
11
150.95
21
-133.274
0
LINE
8
BLACK
6
CONTINUOUS
10
150.95
20
-133.274
11
151.046
21
-133.084
0
LINE
8
BLACK
6
CONTINUOUS
10
151.046
20
-133.084
11
151.046
21
-132.703
0
LINE
8
BLACK
6
CONTINUOUS
10
151.046
20
-132.703
11
150.95
21
-132.512
0
LINE
8
BLACK
6
CONTINUOUS
10
150.95
20
-132.512
11
150.855
21
-132.417
0
LINE
8
BLACK
6
CONTINUOUS
10
150.855
20
-132.417
11
150.665
21
-132.322
0
LINE
8
BLACK
6
CONTINUOUS
10
152.76
20
-131.465
11
152.379
21
-131.465
0
LINE
8
BLACK
6
CONTINUOUS
10
152.379
20
-131.465
11
152.189
21
-131.56
0
LINE
8
BLACK
6
CONTINUOUS
10
152.189
20
-131.56
11
152.093
21
-131.655
0
LINE
8
BLACK
6
CONTINUOUS
10
152.093
20
-131.655
11
151.903
21
-131.941
0
LINE
8
BLACK
6
CONTINUOUS
10
151.903
20
-131.941
11
151.808
21
-132.322
0
LINE
8
BLACK
6
CONTINUOUS
10
151.808
20
-132.322
11
151.808
21
-133.084
0
LINE
8
BLACK
6
CONTINUOUS
10
151.808
20
-133.084
11
151.903
21
-133.274
0
LINE
8
BLACK
6
CONTINUOUS
10
151.903
20
-133.274
11
151.998
21
-133.37
0
LINE
8
BLACK
6
CONTINUOUS
10
151.998
20
-133.37
11
152.189
21
-133.465
0
LINE
8
BLACK
6
CONTINUOUS
10
152.189
20
-133.465
11
152.57
21
-133.465
0
LINE
8
BLACK
6
CONTINUOUS
10
152.57
20
-133.465
11
152.76
21
-133.37
0
LINE
8
BLACK
6
CONTINUOUS
10
152.76
20
-133.37
11
152.855
21
-133.274
0
LINE
8
BLACK
6
CONTINUOUS
10
152.855
20
-133.274
11
152.95
21
-133.084
0
LINE
8
BLACK
6
CONTINUOUS
10
152.95
20
-133.084
11
152.95
21
-132.608
0
LINE
8
BLACK
6
CONTINUOUS
10
152.95
20
-132.608
11
152.855
21
-132.417
0
LINE
8
BLACK
6
CONTINUOUS
10
152.855
20
-132.417
11
152.76
21
-132.322
0
LINE
8
BLACK
6
CONTINUOUS
10
152.76
20
-132.322
11
152.57
21
-132.227
0
LINE
8
BLACK
6
CONTINUOUS
10
152.57
20
-132.227
11
152.189
21
-132.227
0
LINE
8
BLACK
6
CONTINUOUS
10
152.189
20
-132.227
11
151.998
21
-132.322
0
LINE
8
BLACK
6
CONTINUOUS
10
151.998
20
-132.322
11
151.903
21
-132.417
0
LINE
8
BLACK
6
CONTINUOUS
10
151.903
20
-132.417
11
151.808
21
-132.608
0
LINE
8
BLACK
6
CONTINUOUS
10
154.665
20
-131.465
11
154.284
21
-131.465
0
LINE
8
BLACK
6
CONTINUOUS
10
154.284
20
-131.465
11
154.093
21
-131.56
0
LINE
8
BLACK
6
CONTINUOUS
10
154.093
20
-131.56
11
153.998
21
-131.655
0
LINE
8
BLACK
6
CONTINUOUS
10
153.998
20
-131.655
11
153.808
21
-131.941
0
LINE
8
BLACK
6
CONTINUOUS
10
153.808
20
-131.941
11
153.712
21
-132.322
0
LINE
8
BLACK
6
CONTINUOUS
10
153.712
20
-132.322
11
153.712
21
-133.084
0
LINE
8
BLACK
6
CONTINUOUS
10
153.712
20
-133.084
11
153.808
21
-133.274
0
LINE
8
BLACK
6
CONTINUOUS
10
153.808
20
-133.274
11
153.903
21
-133.37
0
LINE
8
BLACK
6
CONTINUOUS
10
153.903
20
-133.37
11
154.093
21
-133.465
0
LINE
8
BLACK
6
CONTINUOUS
10
154.093
20
-133.465
11
154.474
21
-133.465
0
LINE
8
BLACK
6
CONTINUOUS
10
154.474
20
-133.465
11
154.665
21
-133.37
0
LINE
8
BLACK
6
CONTINUOUS
10
154.665
20
-133.37
11
154.76
21
-133.274
0
LINE
8
BLACK
6
CONTINUOUS
10
154.76
20
-133.274
11
154.855
21
-133.084
0
LINE
8
BLACK
6
CONTINUOUS
10
154.855
20
-133.084
11
154.855
21
-132.608
0
LINE
8
BLACK
6
CONTINUOUS
10
154.855
20
-132.608
11
154.76
21
-132.417
0
LINE
8
BLACK
6
CONTINUOUS
10
154.76
20
-132.417
11
154.665
21
-132.322
0
LINE
8
BLACK
6
CONTINUOUS
10
154.665
20
-132.322
11
154.474
21
-132.227
0
LINE
8
BLACK
6
CONTINUOUS
10
154.474
20
-132.227
11
154.093
21
-132.227
0
LINE
8
BLACK
6
CONTINUOUS
10
154.093
20
-132.227
11
153.903
21
-132.322
0
LINE
8
BLACK
6
CONTINUOUS
10
153.903
20
-132.322
11
153.808
21
-132.417
0
LINE
8
BLACK
6
CONTINUOUS
10
153.808
20
-132.417
11
153.712
21
-132.608
0
LINE
8
BLACK
6
CONTINUOUS
10
155.617
20
-131.465
11
155.617
21
-131.846
0
LINE
8
BLACK
6
CONTINUOUS
10
156.379
20
-131.465
11
156.379
21
-131.846
0
LINE
8
BLACK
6
CONTINUOUS
10
159.008
20
-134.227
11
158.912
21
-134.131
0
LINE
8
BLACK
6
CONTINUOUS
10
158.912
20
-134.131
11
158.722
21
-133.846
0
LINE
8
BLACK
6
CONTINUOUS
10
158.722
20
-133.846
11
158.627
21
-133.655
0
LINE
8
BLACK
6
CONTINUOUS
10
158.627
20
-133.655
11
158.531
21
-133.37
0
LINE
8
BLACK
6
CONTINUOUS
10
158.531
20
-133.37
11
158.436
21
-132.893
0
LINE
8
BLACK
6
CONTINUOUS
10
158.436
20
-132.893
11
158.436
21
-132.512
0
LINE
8
BLACK
6
CONTINUOUS
10
158.436
20
-132.512
11
158.531
21
-132.036
0
LINE
8
BLACK
6
CONTINUOUS
10
158.531
20
-132.036
11
158.627
21
-131.75
0
LINE
8
BLACK
6
CONTINUOUS
10
158.627
20
-131.75
11
158.722
21
-131.56
0
LINE
8
BLACK
6
CONTINUOUS
10
158.722
20
-131.56
11
158.912
21
-131.274
0
LINE
8
BLACK
6
CONTINUOUS
10
158.912
20
-131.274
11
159.008
21
-131.179
0
LINE
8
BLACK
6
CONTINUOUS
10
159.674
20
-131.655
11
159.77
21
-131.56
0
LINE
8
BLACK
6
CONTINUOUS
10
159.77
20
-131.56
11
159.96
21
-131.465
0
LINE
8
BLACK
6
CONTINUOUS
10
159.96
20
-131.465
11
160.436
21
-131.465
0
LINE
8
BLACK
6
CONTINUOUS
10
160.436
20
-131.465
11
160.627
21
-131.56
0
LINE
8
BLACK
6
CONTINUOUS
10
160.627
20
-131.56
11
160.722
21
-131.655
0
LINE
8
BLACK
6
CONTINUOUS
10
160.722
20
-131.655
11
160.817
21
-131.846
0
LINE
8
BLACK
6
CONTINUOUS
10
160.817
20
-131.846
11
160.817
21
-132.036
0
LINE
8
BLACK
6
CONTINUOUS
10
160.817
20
-132.036
11
160.722
21
-132.322
0
LINE
8
BLACK
6
CONTINUOUS
10
160.722
20
-132.322
11
159.579
21
-133.465
0
LINE
8
BLACK
6
CONTINUOUS
10
159.579
20
-133.465
11
160.817
21
-133.465
0
LINE
8
BLACK
6
CONTINUOUS
10
162.874
20
-133.465
11
162.874
21
-131.465
0
LINE
8
BLACK
6
CONTINUOUS
10
163.731
20
-133.465
11
163.731
21
-132.417
0
LINE
8
BLACK
6
CONTINUOUS
10
163.731
20
-132.417
11
163.636
21
-132.227
0
LINE
8
BLACK
6
CONTINUOUS
10
163.636
20
-132.227
11
163.446
21
-132.131
0
LINE
8
BLACK
6
CONTINUOUS
10
163.446
20
-132.131
11
163.16
21
-132.131
0
LINE
8
BLACK
6
CONTINUOUS
10
163.16
20
-132.131
11
162.97
21
-132.227
0
LINE
8
BLACK
6
CONTINUOUS
10
162.97
20
-132.227
11
162.874
21
-132.322
0
LINE
8
BLACK
6
CONTINUOUS
10
164.97
20
-133.465
11
164.779
21
-133.37
0
LINE
8
BLACK
6
CONTINUOUS
10
164.779
20
-133.37
11
164.684
21
-133.274
0
LINE
8
BLACK
6
CONTINUOUS
10
164.684
20
-133.274
11
164.589
21
-133.084
0
LINE
8
BLACK
6
CONTINUOUS
10
164.589
20
-133.084
11
164.589
21
-132.512
0
LINE
8
BLACK
6
CONTINUOUS
10
164.589
20
-132.512
11
164.684
21
-132.322
0
LINE
8
BLACK
6
CONTINUOUS
10
164.684
20
-132.322
11
164.779
21
-132.227
0
LINE
8
BLACK
6
CONTINUOUS
10
164.779
20
-132.227
11
164.97
21
-132.131
0
LINE
8
BLACK
6
CONTINUOUS
10
164.97
20
-132.131
11
165.255
21
-132.131
0
LINE
8
BLACK
6
CONTINUOUS
10
165.255
20
-132.131
11
165.446
21
-132.227
0
LINE
8
BLACK
6
CONTINUOUS
10
165.446
20
-132.227
11
165.541
21
-132.322
0
LINE
8
BLACK
6
CONTINUOUS
10
165.541
20
-132.322
11
165.636
21
-132.512
0
LINE
8
BLACK
6
CONTINUOUS
10
165.636
20
-132.512
11
165.636
21
-133.084
0
LINE
8
BLACK
6
CONTINUOUS
10
165.636
20
-133.084
11
165.541
21
-133.274
0
LINE
8
BLACK
6
CONTINUOUS
10
165.541
20
-133.274
11
165.446
21
-133.37
0
LINE
8
BLACK
6
CONTINUOUS
10
165.446
20
-133.37
11
165.255
21
-133.465
0
LINE
8
BLACK
6
CONTINUOUS
10
165.255
20
-133.465
11
164.97
21
-133.465
0
LINE
8
BLACK
6
CONTINUOUS
10
166.779
20
-133.465
11
166.589
21
-133.37
0
LINE
8
BLACK
6
CONTINUOUS
10
166.589
20
-133.37
11
166.493
21
-133.179
0
LINE
8
BLACK
6
CONTINUOUS
10
166.493
20
-133.179
11
166.493
21
-131.465
0
LINE
8
BLACK
6
CONTINUOUS
10
168.303
20
-133.37
11
168.112
21
-133.465
0
LINE
8
BLACK
6
CONTINUOUS
10
168.112
20
-133.465
11
167.731
21
-133.465
0
LINE
8
BLACK
6
CONTINUOUS
10
167.731
20
-133.465
11
167.541
21
-133.37
0
LINE
8
BLACK
6
CONTINUOUS
10
167.541
20
-133.37
11
167.446
21
-133.179
0
LINE
8
BLACK
6
CONTINUOUS
10
167.446
20
-133.179
11
167.446
21
-132.417
0
LINE
8
BLACK
6
CONTINUOUS
10
167.446
20
-132.417
11
167.541
21
-132.227
0
LINE
8
BLACK
6
CONTINUOUS
10
167.541
20
-132.227
11
167.731
21
-132.131
0
LINE
8
BLACK
6
CONTINUOUS
10
167.731
20
-132.131
11
168.112
21
-132.131
0
LINE
8
BLACK
6
CONTINUOUS
10
168.112
20
-132.131
11
168.303
21
-132.227
0
LINE
8
BLACK
6
CONTINUOUS
10
168.303
20
-132.227
11
168.398
21
-132.417
0
LINE
8
BLACK
6
CONTINUOUS
10
168.398
20
-132.417
11
168.398
21
-132.608
0
LINE
8
BLACK
6
CONTINUOUS
10
168.398
20
-132.608
11
167.446
21
-132.798
0
LINE
8
BLACK
6
CONTINUOUS
10
169.16
20
-133.37
11
169.35
21
-133.465
0
LINE
8
BLACK
6
CONTINUOUS
10
169.35
20
-133.465
11
169.731
21
-133.465
0
LINE
8
BLACK
6
CONTINUOUS
10
169.731
20
-133.465
11
169.922
21
-133.37
0
LINE
8
BLACK
6
CONTINUOUS
10
169.922
20
-133.37
11
170.017
21
-133.179
0
LINE
8
BLACK
6
CONTINUOUS
10
170.017
20
-133.179
11
170.017
21
-133.084
0
LINE
8
BLACK
6
CONTINUOUS
10
170.017
20
-133.084
11
169.922
21
-132.893
0
LINE
8
BLACK
6
CONTINUOUS
10
169.922
20
-132.893
11
169.731
21
-132.798
0
LINE
8
BLACK
6
CONTINUOUS
10
169.731
20
-132.798
11
169.446
21
-132.798
0
LINE
8
BLACK
6
CONTINUOUS
10
169.446
20
-132.798
11
169.255
21
-132.703
0
LINE
8
BLACK
6
CONTINUOUS
10
169.255
20
-132.703
11
169.16
21
-132.512
0
LINE
8
BLACK
6
CONTINUOUS
10
169.16
20
-132.512
11
169.16
21
-132.417
0
LINE
8
BLACK
6
CONTINUOUS
10
169.16
20
-132.417
11
169.255
21
-132.227
0
LINE
8
BLACK
6
CONTINUOUS
10
169.255
20
-132.227
11
169.446
21
-132.131
0
LINE
8
BLACK
6
CONTINUOUS
10
169.446
20
-132.131
11
169.731
21
-132.131
0
LINE
8
BLACK
6
CONTINUOUS
10
169.731
20
-132.131
11
169.922
21
-132.227
0
LINE
8
BLACK
6
CONTINUOUS
10
170.684
20
-134.227
11
170.779
21
-134.131
0
LINE
8
BLACK
6
CONTINUOUS
10
170.779
20
-134.131
11
170.97
21
-133.846
0
LINE
8
BLACK
6
CONTINUOUS
10
170.97
20
-133.846
11
171.065
21
-133.655
0
LINE
8
BLACK
6
CONTINUOUS
10
171.065
20
-133.655
11
171.16
21
-133.37
0
LINE
8
BLACK
6
CONTINUOUS
10
171.16
20
-133.37
11
171.255
21
-132.893
0
LINE
8
BLACK
6
CONTINUOUS
10
171.255
20
-132.893
11
171.255
21
-132.512
0
LINE
8
BLACK
6
CONTINUOUS
10
171.255
20
-132.512
11
171.16
21
-132.036
0
LINE
8
BLACK
6
CONTINUOUS
10
171.16
20
-132.036
11
171.065
21
-131.75
0
LINE
8
BLACK
6
CONTINUOUS
10
171.065
20
-131.75
11
170.97
21
-131.56
0
LINE
8
BLACK
6
CONTINUOUS
10
170.97
20
-131.56
11
170.779
21
-131.274
0
LINE
8
BLACK
6
CONTINUOUS
10
170.779
20
-131.274
11
170.684
21
-131.179
  0
ENDSEC
  0
EOF
