M48
; DRILL file {KiCad (7.0.0)} date Mon Oct  9 21:37:55 2023
; FORMAT={-:-/ absolute / metric / decimal}
; #@! TF.CreationDate,2023-10-09T21:37:55-04:00
; #@! TF.GenerationSoftware,Kicad,Pcbnew,(7.0.0)
; #@! TF.FileFunction,Plated,1,2,PTH
FMAT,2
METRIC
; #@! TA.AperFunction,Plated,PTH,ViaDrill
T1C0.400
; #@! TA.AperFunction,Plated,PTH,ComponentDrill
T2C0.800
; #@! TA.AperFunction,Plated,PTH,ComponentDrill
T3C1.000
; #@! TA.AperFunction,Plated,PTH,ComponentDrill
T4C1.100
; #@! TA.AperFunction,Plated,PTH,ComponentDrill
T5C1.300
; #@! TA.AperFunction,Plated,PTH,ComponentDrill
T6C2.200
%
G90
G05
T1
X152.4Y-71.12
X154.94Y-68.58
X157.48Y-71.12
X163.83Y-63.5
T2
X129.54Y-93.98
X129.54Y-96.48
X129.58Y-69.85
X132.08Y-69.85
X146.09Y-95.25
X146.09Y-102.87
X148.59Y-95.25
X148.59Y-102.87
X151.13Y-69.85
X151.765Y-92.71
X151.765Y-102.87
X152.4Y-66.04
X154.94Y-92.71
X154.94Y-102.87
X161.29Y-69.85
X162.56Y-66.04
T3
X129.54Y-73.66
X129.54Y-88.9
X132.08Y-73.66
X132.08Y-88.9
X134.62Y-73.66
X134.62Y-88.9
X137.16Y-73.66
X137.16Y-88.9
X139.7Y-73.66
X139.7Y-88.9
X142.24Y-73.66
X142.24Y-88.9
X144.78Y-73.66
X144.78Y-88.9
X147.32Y-73.66
X147.32Y-88.9
X149.86Y-73.66
X149.86Y-88.9
X152.4Y-73.66
X152.4Y-88.9
X154.94Y-73.66
X154.94Y-88.9
X157.48Y-73.66
X157.48Y-88.9
X160.02Y-73.66
X160.02Y-88.9
X162.56Y-73.66
X162.56Y-88.9
X165.1Y-73.66
X165.1Y-88.9
T4
X139.7Y-96.52
X139.7Y-99.06
X139.7Y-101.6
X160.02Y-96.52
X160.02Y-99.06
X160.02Y-101.6
T5
X129.54Y-104.26
X129.54Y-109.26
X166.525Y-104.22
X166.525Y-109.22
T6
X130.81Y-64.77
X167.64Y-93.98
T0
M30
