  0
SECTION
  2
HEADER
  9
$ANGBASE
  50
0.0
  9
$ANGDIR
  70
1
  9
$MEASUREMENT
  70
1
  0
ENDSEC
  0
SECTION
  2
TABLES
  0
TABLE
  2
LTYPE
  70
4
  0
LTYPE
  5
40F
  2
CONTINUOUS
  70
0
  3
Solid line
  72
65
  73
0
  40
0.0
  0
LTYPE
  5
410
  2
DASHDOT
 70
0
  3
Dash Dot ____ _ ____ _
 72
65
 73
4
 40
2.0
 49
1.25
 49
-0.25
 49
0.25
 49
-0.25
  0
LTYPE
  5
411
  2
DASHED
 70
0
  3
Dashed __ __ __ __ __
 72
65
 73
2
 40
0.75
 49
0.5
 49
-0.25
  0
LTYPE
  5
43B
  2
DOTTED
 70
0
  3
Dotted .  .  .  .
 72
65
 73
2
 40
0.2
 49
0.0
 49
-0.2
  0
ENDTAB
  0
TABLE
  2
STYLE
  70
4
  0
STYLE
  2
KICAD
  70
0
  40
0
  41
1
  42
1
  50
0
  71
0
  3
isocp.shx
  0
STYLE
  2
KICADB
  70
0
  40
0
  41
1
  42
1
  50
0
  71
0
  3
isocp.shx
  0
STYLE
  2
KICADI
  70
0
  40
0
  41
1
  42
1
  50
15
  71
0
  3
isocp.shx
  0
STYLE
  2
KICADBI
  70
0
  40
0
  41
1
  42
1
  50
15
  71
0
  3
isocp.shx
  0
ENDTAB
  0
TABLE
  2
LAYER
  70
1
  0
LAYER
  2
BLACK
  70
0
  62
7
  6
CONTINUOUS
  0
ENDTAB
  0
ENDSEC
  0
SECTION
  2
ENTITIES
0
LINE
8
BLACK
6
CONTINUOUS
10
124.46
20
-60.96
11
171.45
21
-60.96
0
LINE
8
BLACK
6
CONTINUOUS
10
171.45
20
-60.96
11
171.45
21
-113.03
0
LINE
8
BLACK
6
CONTINUOUS
10
171.45
20
-113.03
11
124.46
21
-113.03
0
LINE
8
BLACK
6
CONTINUOUS
10
124.46
20
-113.03
11
124.46
21
-60.96
0
LINE
8
BLACK
6
CONTINUOUS
10
126.836
20
-116.065
11
126.836
21
-114.065
0
LINE
8
BLACK
6
CONTINUOUS
10
126.836
20
-114.065
11
127.312
21
-114.065
0
LINE
8
BLACK
6
CONTINUOUS
10
127.312
20
-114.065
11
127.598
21
-114.16
0
LINE
8
BLACK
6
CONTINUOUS
10
127.598
20
-114.16
11
127.789
21
-114.35
0
LINE
8
BLACK
6
CONTINUOUS
10
127.789
20
-114.35
11
127.884
21
-114.541
0
LINE
8
BLACK
6
CONTINUOUS
10
127.884
20
-114.541
11
127.979
21
-114.922
0
LINE
8
BLACK
6
CONTINUOUS
10
127.979
20
-114.922
11
127.979
21
-115.208
0
LINE
8
BLACK
6
CONTINUOUS
10
127.979
20
-115.208
11
127.884
21
-115.589
0
LINE
8
BLACK
6
CONTINUOUS
10
127.884
20
-115.589
11
127.789
21
-115.779
0
LINE
8
BLACK
6
CONTINUOUS
10
127.789
20
-115.779
11
127.598
21
-115.97
0
LINE
8
BLACK
6
CONTINUOUS
10
127.598
20
-115.97
11
127.312
21
-116.065
0
LINE
8
BLACK
6
CONTINUOUS
10
127.312
20
-116.065
11
126.836
21
-116.065
0
LINE
8
BLACK
6
CONTINUOUS
10
128.836
20
-116.065
11
128.836
21
-114.731
0
LINE
8
BLACK
6
CONTINUOUS
10
128.836
20
-115.112
11
128.931
21
-114.922
0
LINE
8
BLACK
6
CONTINUOUS
10
128.931
20
-114.922
11
129.027
21
-114.827
0
LINE
8
BLACK
6
CONTINUOUS
10
129.027
20
-114.827
11
129.217
21
-114.731
0
LINE
8
BLACK
6
CONTINUOUS
10
129.217
20
-114.731
11
129.408
21
-114.731
0
LINE
8
BLACK
6
CONTINUOUS
10
130.074
20
-116.065
11
130.074
21
-114.731
0
LINE
8
BLACK
6
CONTINUOUS
10
130.074
20
-114.065
11
129.979
21
-114.16
0
LINE
8
BLACK
6
CONTINUOUS
10
129.979
20
-114.16
11
130.074
21
-114.255
0
LINE
8
BLACK
6
CONTINUOUS
10
130.074
20
-114.255
11
130.17
21
-114.16
0
LINE
8
BLACK
6
CONTINUOUS
10
130.17
20
-114.16
11
130.074
21
-114.065
0
LINE
8
BLACK
6
CONTINUOUS
10
130.074
20
-114.065
11
130.074
21
-114.255
0
LINE
8
BLACK
6
CONTINUOUS
10
131.312
20
-116.065
11
131.122
21
-115.97
0
LINE
8
BLACK
6
CONTINUOUS
10
131.122
20
-115.97
11
131.027
21
-115.779
0
LINE
8
BLACK
6
CONTINUOUS
10
131.027
20
-115.779
11
131.027
21
-114.065
0
LINE
8
BLACK
6
CONTINUOUS
10
132.36
20
-116.065
11
132.17
21
-115.97
0
LINE
8
BLACK
6
CONTINUOUS
10
132.17
20
-115.97
11
132.074
21
-115.779
0
LINE
8
BLACK
6
CONTINUOUS
10
132.074
20
-115.779
11
132.074
21
-114.065
0
LINE
8
BLACK
6
CONTINUOUS
10
134.322
20
-116.065
11
134.322
21
-114.065
0
LINE
8
BLACK
6
CONTINUOUS
10
134.322
20
-114.065
11
134.989
21
-115.493
0
LINE
8
BLACK
6
CONTINUOUS
10
134.989
20
-115.493
11
135.655
21
-114.065
0
LINE
8
BLACK
6
CONTINUOUS
10
135.655
20
-114.065
11
135.655
21
-116.065
0
LINE
8
BLACK
6
CONTINUOUS
10
137.465
20
-116.065
11
137.465
21
-115.017
0
LINE
8
BLACK
6
CONTINUOUS
10
137.465
20
-115.017
11
137.37
21
-114.827
0
LINE
8
BLACK
6
CONTINUOUS
10
137.37
20
-114.827
11
137.179
21
-114.731
0
LINE
8
BLACK
6
CONTINUOUS
10
137.179
20
-114.731
11
136.798
21
-114.731
0
LINE
8
BLACK
6
CONTINUOUS
10
136.798
20
-114.731
11
136.608
21
-114.827
0
LINE
8
BLACK
6
CONTINUOUS
10
137.465
20
-115.97
11
137.274
21
-116.065
0
LINE
8
BLACK
6
CONTINUOUS
10
137.274
20
-116.065
11
136.798
21
-116.065
0
LINE
8
BLACK
6
CONTINUOUS
10
136.798
20
-116.065
11
136.608
21
-115.97
0
LINE
8
BLACK
6
CONTINUOUS
10
136.608
20
-115.97
11
136.512
21
-115.779
0
LINE
8
BLACK
6
CONTINUOUS
10
136.512
20
-115.779
11
136.512
21
-115.589
0
LINE
8
BLACK
6
CONTINUOUS
10
136.512
20
-115.589
11
136.608
21
-115.398
0
LINE
8
BLACK
6
CONTINUOUS
10
136.608
20
-115.398
11
136.798
21
-115.303
0
LINE
8
BLACK
6
CONTINUOUS
10
136.798
20
-115.303
11
137.274
21
-115.303
0
LINE
8
BLACK
6
CONTINUOUS
10
137.274
20
-115.303
11
137.465
21
-115.208
0
LINE
8
BLACK
6
CONTINUOUS
10
138.417
20
-114.731
11
138.417
21
-116.731
0
LINE
8
BLACK
6
CONTINUOUS
10
138.417
20
-114.827
11
138.608
21
-114.731
0
LINE
8
BLACK
6
CONTINUOUS
10
138.608
20
-114.731
11
138.989
21
-114.731
0
LINE
8
BLACK
6
CONTINUOUS
10
138.989
20
-114.731
11
139.179
21
-114.827
0
LINE
8
BLACK
6
CONTINUOUS
10
139.179
20
-114.827
11
139.274
21
-114.922
0
LINE
8
BLACK
6
CONTINUOUS
10
139.274
20
-114.922
11
139.37
21
-115.112
0
LINE
8
BLACK
6
CONTINUOUS
10
139.37
20
-115.112
11
139.37
21
-115.684
0
LINE
8
BLACK
6
CONTINUOUS
10
139.37
20
-115.684
11
139.274
21
-115.874
0
LINE
8
BLACK
6
CONTINUOUS
10
139.274
20
-115.874
11
139.179
21
-115.97
0
LINE
8
BLACK
6
CONTINUOUS
10
139.179
20
-115.97
11
138.989
21
-116.065
0
LINE
8
BLACK
6
CONTINUOUS
10
138.989
20
-116.065
11
138.608
21
-116.065
0
LINE
8
BLACK
6
CONTINUOUS
10
138.608
20
-116.065
11
138.417
21
-115.97
0
LINE
8
BLACK
6
CONTINUOUS
10
140.227
20
-115.874
11
140.322
21
-115.97
0
LINE
8
BLACK
6
CONTINUOUS
10
140.322
20
-115.97
11
140.227
21
-116.065
0
LINE
8
BLACK
6
CONTINUOUS
10
140.227
20
-116.065
11
140.131
21
-115.97
0
LINE
8
BLACK
6
CONTINUOUS
10
140.131
20
-115.97
11
140.227
21
-115.874
0
LINE
8
BLACK
6
CONTINUOUS
10
140.227
20
-115.874
11
140.227
21
-116.065
0
LINE
8
BLACK
6
CONTINUOUS
10
140.227
20
-114.827
11
140.322
21
-114.922
0
LINE
8
BLACK
6
CONTINUOUS
10
140.322
20
-114.922
11
140.227
21
-115.017
0
LINE
8
BLACK
6
CONTINUOUS
10
140.227
20
-115.017
11
140.131
21
-114.922
0
LINE
8
BLACK
6
CONTINUOUS
10
140.131
20
-114.922
11
140.227
21
-114.827
0
LINE
8
BLACK
6
CONTINUOUS
10
140.227
20
-114.827
11
140.227
21
-115.017
  0
ENDSEC
  0
EOF
