%TF.GenerationSoftware,KiCad,Pcbnew,(7.0.0)*%
%TF.CreationDate,2023-10-09T21:37:50-04:00*%
%TF.ProjectId,CPS V2,43505320-5632-42e6-9b69-6361645f7063,rev?*%
%TF.SameCoordinates,Original*%
%TF.FileFunction,Legend,Top*%
%TF.FilePolarity,Positive*%
%FSLAX46Y46*%
G04 Gerber Fmt 4.6, Leading zero omitted, Abs format (unit mm)*
G04 Created by KiCad (PCBNEW (7.0.0)) date 2023-10-09 21:37:50*
%MOMM*%
%LPD*%
G01*
G04 APERTURE LIST*
%ADD10C,0.127000*%
%ADD11C,0.150000*%
%ADD12C,0.120000*%
G04 APERTURE END LIST*
D10*
X137988523Y-82228629D02*
X137988523Y-82591486D01*
X137988523Y-82591486D02*
X137964332Y-82664058D01*
X137964332Y-82664058D02*
X137915951Y-82712439D01*
X137915951Y-82712439D02*
X137843380Y-82736629D01*
X137843380Y-82736629D02*
X137794999Y-82736629D01*
X138472333Y-82736629D02*
X138230428Y-82736629D01*
X138230428Y-82736629D02*
X138230428Y-82228629D01*
X138931952Y-82688248D02*
X138907761Y-82712439D01*
X138907761Y-82712439D02*
X138835190Y-82736629D01*
X138835190Y-82736629D02*
X138786809Y-82736629D01*
X138786809Y-82736629D02*
X138714237Y-82712439D01*
X138714237Y-82712439D02*
X138665856Y-82664058D01*
X138665856Y-82664058D02*
X138641666Y-82615677D01*
X138641666Y-82615677D02*
X138617475Y-82518915D01*
X138617475Y-82518915D02*
X138617475Y-82446343D01*
X138617475Y-82446343D02*
X138641666Y-82349581D01*
X138641666Y-82349581D02*
X138665856Y-82301200D01*
X138665856Y-82301200D02*
X138714237Y-82252820D01*
X138714237Y-82252820D02*
X138786809Y-82228629D01*
X138786809Y-82228629D02*
X138835190Y-82228629D01*
X138835190Y-82228629D02*
X138907761Y-82252820D01*
X138907761Y-82252820D02*
X138931952Y-82277010D01*
X139294809Y-82228629D02*
X139294809Y-82591486D01*
X139294809Y-82591486D02*
X139270618Y-82664058D01*
X139270618Y-82664058D02*
X139222237Y-82712439D01*
X139222237Y-82712439D02*
X139149666Y-82736629D01*
X139149666Y-82736629D02*
X139101285Y-82736629D01*
X139778619Y-82736629D02*
X139536714Y-82736629D01*
X139536714Y-82736629D02*
X139536714Y-82228629D01*
X140238238Y-82688248D02*
X140214047Y-82712439D01*
X140214047Y-82712439D02*
X140141476Y-82736629D01*
X140141476Y-82736629D02*
X140093095Y-82736629D01*
X140093095Y-82736629D02*
X140020523Y-82712439D01*
X140020523Y-82712439D02*
X139972142Y-82664058D01*
X139972142Y-82664058D02*
X139947952Y-82615677D01*
X139947952Y-82615677D02*
X139923761Y-82518915D01*
X139923761Y-82518915D02*
X139923761Y-82446343D01*
X139923761Y-82446343D02*
X139947952Y-82349581D01*
X139947952Y-82349581D02*
X139972142Y-82301200D01*
X139972142Y-82301200D02*
X140020523Y-82252820D01*
X140020523Y-82252820D02*
X140093095Y-82228629D01*
X140093095Y-82228629D02*
X140141476Y-82228629D01*
X140141476Y-82228629D02*
X140214047Y-82252820D01*
X140214047Y-82252820D02*
X140238238Y-82277010D01*
X140601095Y-82228629D02*
X140601095Y-82591486D01*
X140601095Y-82591486D02*
X140576904Y-82664058D01*
X140576904Y-82664058D02*
X140528523Y-82712439D01*
X140528523Y-82712439D02*
X140455952Y-82736629D01*
X140455952Y-82736629D02*
X140407571Y-82736629D01*
X141084905Y-82736629D02*
X140843000Y-82736629D01*
X140843000Y-82736629D02*
X140843000Y-82228629D01*
X141544524Y-82688248D02*
X141520333Y-82712439D01*
X141520333Y-82712439D02*
X141447762Y-82736629D01*
X141447762Y-82736629D02*
X141399381Y-82736629D01*
X141399381Y-82736629D02*
X141326809Y-82712439D01*
X141326809Y-82712439D02*
X141278428Y-82664058D01*
X141278428Y-82664058D02*
X141254238Y-82615677D01*
X141254238Y-82615677D02*
X141230047Y-82518915D01*
X141230047Y-82518915D02*
X141230047Y-82446343D01*
X141230047Y-82446343D02*
X141254238Y-82349581D01*
X141254238Y-82349581D02*
X141278428Y-82301200D01*
X141278428Y-82301200D02*
X141326809Y-82252820D01*
X141326809Y-82252820D02*
X141399381Y-82228629D01*
X141399381Y-82228629D02*
X141447762Y-82228629D01*
X141447762Y-82228629D02*
X141520333Y-82252820D01*
X141520333Y-82252820D02*
X141544524Y-82277010D01*
X141907381Y-82228629D02*
X141907381Y-82591486D01*
X141907381Y-82591486D02*
X141883190Y-82664058D01*
X141883190Y-82664058D02*
X141834809Y-82712439D01*
X141834809Y-82712439D02*
X141762238Y-82736629D01*
X141762238Y-82736629D02*
X141713857Y-82736629D01*
X142391191Y-82736629D02*
X142149286Y-82736629D01*
X142149286Y-82736629D02*
X142149286Y-82228629D01*
X142850810Y-82688248D02*
X142826619Y-82712439D01*
X142826619Y-82712439D02*
X142754048Y-82736629D01*
X142754048Y-82736629D02*
X142705667Y-82736629D01*
X142705667Y-82736629D02*
X142633095Y-82712439D01*
X142633095Y-82712439D02*
X142584714Y-82664058D01*
X142584714Y-82664058D02*
X142560524Y-82615677D01*
X142560524Y-82615677D02*
X142536333Y-82518915D01*
X142536333Y-82518915D02*
X142536333Y-82446343D01*
X142536333Y-82446343D02*
X142560524Y-82349581D01*
X142560524Y-82349581D02*
X142584714Y-82301200D01*
X142584714Y-82301200D02*
X142633095Y-82252820D01*
X142633095Y-82252820D02*
X142705667Y-82228629D01*
X142705667Y-82228629D02*
X142754048Y-82228629D01*
X142754048Y-82228629D02*
X142826619Y-82252820D01*
X142826619Y-82252820D02*
X142850810Y-82277010D01*
X137305142Y-63779218D02*
X137414000Y-63815504D01*
X137414000Y-63815504D02*
X137595428Y-63815504D01*
X137595428Y-63815504D02*
X137668000Y-63779218D01*
X137668000Y-63779218D02*
X137704285Y-63742932D01*
X137704285Y-63742932D02*
X137740571Y-63670361D01*
X137740571Y-63670361D02*
X137740571Y-63597790D01*
X137740571Y-63597790D02*
X137704285Y-63525218D01*
X137704285Y-63525218D02*
X137668000Y-63488932D01*
X137668000Y-63488932D02*
X137595428Y-63452647D01*
X137595428Y-63452647D02*
X137450285Y-63416361D01*
X137450285Y-63416361D02*
X137377714Y-63380075D01*
X137377714Y-63380075D02*
X137341428Y-63343790D01*
X137341428Y-63343790D02*
X137305142Y-63271218D01*
X137305142Y-63271218D02*
X137305142Y-63198647D01*
X137305142Y-63198647D02*
X137341428Y-63126075D01*
X137341428Y-63126075D02*
X137377714Y-63089790D01*
X137377714Y-63089790D02*
X137450285Y-63053504D01*
X137450285Y-63053504D02*
X137631714Y-63053504D01*
X137631714Y-63053504D02*
X137740571Y-63089790D01*
X138175999Y-63815504D02*
X138103428Y-63779218D01*
X138103428Y-63779218D02*
X138067142Y-63742932D01*
X138067142Y-63742932D02*
X138030856Y-63670361D01*
X138030856Y-63670361D02*
X138030856Y-63452647D01*
X138030856Y-63452647D02*
X138067142Y-63380075D01*
X138067142Y-63380075D02*
X138103428Y-63343790D01*
X138103428Y-63343790D02*
X138175999Y-63307504D01*
X138175999Y-63307504D02*
X138284856Y-63307504D01*
X138284856Y-63307504D02*
X138357428Y-63343790D01*
X138357428Y-63343790D02*
X138393714Y-63380075D01*
X138393714Y-63380075D02*
X138429999Y-63452647D01*
X138429999Y-63452647D02*
X138429999Y-63670361D01*
X138429999Y-63670361D02*
X138393714Y-63742932D01*
X138393714Y-63742932D02*
X138357428Y-63779218D01*
X138357428Y-63779218D02*
X138284856Y-63815504D01*
X138284856Y-63815504D02*
X138175999Y-63815504D01*
X138684000Y-63815504D02*
X139083143Y-63307504D01*
X138684000Y-63307504D02*
X139083143Y-63815504D01*
X140266057Y-63742932D02*
X140229771Y-63779218D01*
X140229771Y-63779218D02*
X140120914Y-63815504D01*
X140120914Y-63815504D02*
X140048342Y-63815504D01*
X140048342Y-63815504D02*
X139939485Y-63779218D01*
X139939485Y-63779218D02*
X139866914Y-63706647D01*
X139866914Y-63706647D02*
X139830628Y-63634075D01*
X139830628Y-63634075D02*
X139794342Y-63488932D01*
X139794342Y-63488932D02*
X139794342Y-63380075D01*
X139794342Y-63380075D02*
X139830628Y-63234932D01*
X139830628Y-63234932D02*
X139866914Y-63162361D01*
X139866914Y-63162361D02*
X139939485Y-63089790D01*
X139939485Y-63089790D02*
X140048342Y-63053504D01*
X140048342Y-63053504D02*
X140120914Y-63053504D01*
X140120914Y-63053504D02*
X140229771Y-63089790D01*
X140229771Y-63089790D02*
X140266057Y-63126075D01*
X140592628Y-63815504D02*
X140592628Y-63053504D01*
X140919200Y-63815504D02*
X140919200Y-63416361D01*
X140919200Y-63416361D02*
X140882914Y-63343790D01*
X140882914Y-63343790D02*
X140810342Y-63307504D01*
X140810342Y-63307504D02*
X140701485Y-63307504D01*
X140701485Y-63307504D02*
X140628914Y-63343790D01*
X140628914Y-63343790D02*
X140592628Y-63380075D01*
X141608629Y-63815504D02*
X141608629Y-63416361D01*
X141608629Y-63416361D02*
X141572343Y-63343790D01*
X141572343Y-63343790D02*
X141499771Y-63307504D01*
X141499771Y-63307504D02*
X141354629Y-63307504D01*
X141354629Y-63307504D02*
X141282057Y-63343790D01*
X141608629Y-63779218D02*
X141536057Y-63815504D01*
X141536057Y-63815504D02*
X141354629Y-63815504D01*
X141354629Y-63815504D02*
X141282057Y-63779218D01*
X141282057Y-63779218D02*
X141245771Y-63706647D01*
X141245771Y-63706647D02*
X141245771Y-63634075D01*
X141245771Y-63634075D02*
X141282057Y-63561504D01*
X141282057Y-63561504D02*
X141354629Y-63525218D01*
X141354629Y-63525218D02*
X141536057Y-63525218D01*
X141536057Y-63525218D02*
X141608629Y-63488932D01*
X141971486Y-63815504D02*
X141971486Y-63307504D01*
X141971486Y-63452647D02*
X142007772Y-63380075D01*
X142007772Y-63380075D02*
X142044058Y-63343790D01*
X142044058Y-63343790D02*
X142116629Y-63307504D01*
X142116629Y-63307504D02*
X142189200Y-63307504D01*
X142769772Y-63307504D02*
X142769772Y-63924361D01*
X142769772Y-63924361D02*
X142733486Y-63996932D01*
X142733486Y-63996932D02*
X142697200Y-64033218D01*
X142697200Y-64033218D02*
X142624629Y-64069504D01*
X142624629Y-64069504D02*
X142515772Y-64069504D01*
X142515772Y-64069504D02*
X142443200Y-64033218D01*
X142769772Y-63779218D02*
X142697200Y-63815504D01*
X142697200Y-63815504D02*
X142552057Y-63815504D01*
X142552057Y-63815504D02*
X142479486Y-63779218D01*
X142479486Y-63779218D02*
X142443200Y-63742932D01*
X142443200Y-63742932D02*
X142406914Y-63670361D01*
X142406914Y-63670361D02*
X142406914Y-63452647D01*
X142406914Y-63452647D02*
X142443200Y-63380075D01*
X142443200Y-63380075D02*
X142479486Y-63343790D01*
X142479486Y-63343790D02*
X142552057Y-63307504D01*
X142552057Y-63307504D02*
X142697200Y-63307504D01*
X142697200Y-63307504D02*
X142769772Y-63343790D01*
X143422915Y-63779218D02*
X143350343Y-63815504D01*
X143350343Y-63815504D02*
X143205201Y-63815504D01*
X143205201Y-63815504D02*
X143132629Y-63779218D01*
X143132629Y-63779218D02*
X143096343Y-63706647D01*
X143096343Y-63706647D02*
X143096343Y-63416361D01*
X143096343Y-63416361D02*
X143132629Y-63343790D01*
X143132629Y-63343790D02*
X143205201Y-63307504D01*
X143205201Y-63307504D02*
X143350343Y-63307504D01*
X143350343Y-63307504D02*
X143422915Y-63343790D01*
X143422915Y-63343790D02*
X143459201Y-63416361D01*
X143459201Y-63416361D02*
X143459201Y-63488932D01*
X143459201Y-63488932D02*
X143096343Y-63561504D01*
X143785772Y-63815504D02*
X143785772Y-63307504D01*
X143785772Y-63452647D02*
X143822058Y-63380075D01*
X143822058Y-63380075D02*
X143858344Y-63343790D01*
X143858344Y-63343790D02*
X143930915Y-63307504D01*
X143930915Y-63307504D02*
X144003486Y-63307504D01*
X144714686Y-63815504D02*
X144714686Y-63053504D01*
X144714686Y-63053504D02*
X145004972Y-63053504D01*
X145004972Y-63053504D02*
X145077543Y-63089790D01*
X145077543Y-63089790D02*
X145113829Y-63126075D01*
X145113829Y-63126075D02*
X145150115Y-63198647D01*
X145150115Y-63198647D02*
X145150115Y-63307504D01*
X145150115Y-63307504D02*
X145113829Y-63380075D01*
X145113829Y-63380075D02*
X145077543Y-63416361D01*
X145077543Y-63416361D02*
X145004972Y-63452647D01*
X145004972Y-63452647D02*
X144714686Y-63452647D01*
X145585543Y-63815504D02*
X145512972Y-63779218D01*
X145512972Y-63779218D02*
X145476686Y-63742932D01*
X145476686Y-63742932D02*
X145440400Y-63670361D01*
X145440400Y-63670361D02*
X145440400Y-63452647D01*
X145440400Y-63452647D02*
X145476686Y-63380075D01*
X145476686Y-63380075D02*
X145512972Y-63343790D01*
X145512972Y-63343790D02*
X145585543Y-63307504D01*
X145585543Y-63307504D02*
X145694400Y-63307504D01*
X145694400Y-63307504D02*
X145766972Y-63343790D01*
X145766972Y-63343790D02*
X145803258Y-63380075D01*
X145803258Y-63380075D02*
X145839543Y-63452647D01*
X145839543Y-63452647D02*
X145839543Y-63670361D01*
X145839543Y-63670361D02*
X145803258Y-63742932D01*
X145803258Y-63742932D02*
X145766972Y-63779218D01*
X145766972Y-63779218D02*
X145694400Y-63815504D01*
X145694400Y-63815504D02*
X145585543Y-63815504D01*
X146093544Y-63307504D02*
X146238687Y-63815504D01*
X146238687Y-63815504D02*
X146383829Y-63452647D01*
X146383829Y-63452647D02*
X146528972Y-63815504D01*
X146528972Y-63815504D02*
X146674115Y-63307504D01*
X147254687Y-63779218D02*
X147182115Y-63815504D01*
X147182115Y-63815504D02*
X147036973Y-63815504D01*
X147036973Y-63815504D02*
X146964401Y-63779218D01*
X146964401Y-63779218D02*
X146928115Y-63706647D01*
X146928115Y-63706647D02*
X146928115Y-63416361D01*
X146928115Y-63416361D02*
X146964401Y-63343790D01*
X146964401Y-63343790D02*
X147036973Y-63307504D01*
X147036973Y-63307504D02*
X147182115Y-63307504D01*
X147182115Y-63307504D02*
X147254687Y-63343790D01*
X147254687Y-63343790D02*
X147290973Y-63416361D01*
X147290973Y-63416361D02*
X147290973Y-63488932D01*
X147290973Y-63488932D02*
X146928115Y-63561504D01*
X147617544Y-63815504D02*
X147617544Y-63307504D01*
X147617544Y-63452647D02*
X147653830Y-63380075D01*
X147653830Y-63380075D02*
X147690116Y-63343790D01*
X147690116Y-63343790D02*
X147762687Y-63307504D01*
X147762687Y-63307504D02*
X147835258Y-63307504D01*
X148510172Y-63779218D02*
X148619030Y-63815504D01*
X148619030Y-63815504D02*
X148800458Y-63815504D01*
X148800458Y-63815504D02*
X148873030Y-63779218D01*
X148873030Y-63779218D02*
X148909315Y-63742932D01*
X148909315Y-63742932D02*
X148945601Y-63670361D01*
X148945601Y-63670361D02*
X148945601Y-63597790D01*
X148945601Y-63597790D02*
X148909315Y-63525218D01*
X148909315Y-63525218D02*
X148873030Y-63488932D01*
X148873030Y-63488932D02*
X148800458Y-63452647D01*
X148800458Y-63452647D02*
X148655315Y-63416361D01*
X148655315Y-63416361D02*
X148582744Y-63380075D01*
X148582744Y-63380075D02*
X148546458Y-63343790D01*
X148546458Y-63343790D02*
X148510172Y-63271218D01*
X148510172Y-63271218D02*
X148510172Y-63198647D01*
X148510172Y-63198647D02*
X148546458Y-63126075D01*
X148546458Y-63126075D02*
X148582744Y-63089790D01*
X148582744Y-63089790D02*
X148655315Y-63053504D01*
X148655315Y-63053504D02*
X148836744Y-63053504D01*
X148836744Y-63053504D02*
X148945601Y-63089790D01*
X149199601Y-63307504D02*
X149344744Y-63815504D01*
X149344744Y-63815504D02*
X149489886Y-63452647D01*
X149489886Y-63452647D02*
X149635029Y-63815504D01*
X149635029Y-63815504D02*
X149780172Y-63307504D01*
X150070458Y-63815504D02*
X150070458Y-63307504D01*
X150070458Y-63053504D02*
X150034172Y-63089790D01*
X150034172Y-63089790D02*
X150070458Y-63126075D01*
X150070458Y-63126075D02*
X150106744Y-63089790D01*
X150106744Y-63089790D02*
X150070458Y-63053504D01*
X150070458Y-63053504D02*
X150070458Y-63126075D01*
X150324458Y-63307504D02*
X150614744Y-63307504D01*
X150433315Y-63053504D02*
X150433315Y-63706647D01*
X150433315Y-63706647D02*
X150469601Y-63779218D01*
X150469601Y-63779218D02*
X150542172Y-63815504D01*
X150542172Y-63815504D02*
X150614744Y-63815504D01*
X151195316Y-63779218D02*
X151122744Y-63815504D01*
X151122744Y-63815504D02*
X150977601Y-63815504D01*
X150977601Y-63815504D02*
X150905030Y-63779218D01*
X150905030Y-63779218D02*
X150868744Y-63742932D01*
X150868744Y-63742932D02*
X150832458Y-63670361D01*
X150832458Y-63670361D02*
X150832458Y-63452647D01*
X150832458Y-63452647D02*
X150868744Y-63380075D01*
X150868744Y-63380075D02*
X150905030Y-63343790D01*
X150905030Y-63343790D02*
X150977601Y-63307504D01*
X150977601Y-63307504D02*
X151122744Y-63307504D01*
X151122744Y-63307504D02*
X151195316Y-63343790D01*
X151521887Y-63815504D02*
X151521887Y-63053504D01*
X151848459Y-63815504D02*
X151848459Y-63416361D01*
X151848459Y-63416361D02*
X151812173Y-63343790D01*
X151812173Y-63343790D02*
X151739601Y-63307504D01*
X151739601Y-63307504D02*
X151630744Y-63307504D01*
X151630744Y-63307504D02*
X151558173Y-63343790D01*
X151558173Y-63343790D02*
X151521887Y-63380075D01*
X152559659Y-63053504D02*
X152813659Y-63815504D01*
X152813659Y-63815504D02*
X153067659Y-63053504D01*
X153720802Y-63815504D02*
X153285373Y-63815504D01*
X153503088Y-63815504D02*
X153503088Y-63053504D01*
X153503088Y-63053504D02*
X153430516Y-63162361D01*
X153430516Y-63162361D02*
X153357945Y-63234932D01*
X153357945Y-63234932D02*
X153285373Y-63271218D01*
X154047373Y-63742932D02*
X154083659Y-63779218D01*
X154083659Y-63779218D02*
X154047373Y-63815504D01*
X154047373Y-63815504D02*
X154011087Y-63779218D01*
X154011087Y-63779218D02*
X154047373Y-63742932D01*
X154047373Y-63742932D02*
X154047373Y-63815504D01*
X154337659Y-63053504D02*
X154809373Y-63053504D01*
X154809373Y-63053504D02*
X154555373Y-63343790D01*
X154555373Y-63343790D02*
X154664230Y-63343790D01*
X154664230Y-63343790D02*
X154736802Y-63380075D01*
X154736802Y-63380075D02*
X154773087Y-63416361D01*
X154773087Y-63416361D02*
X154809373Y-63488932D01*
X154809373Y-63488932D02*
X154809373Y-63670361D01*
X154809373Y-63670361D02*
X154773087Y-63742932D01*
X154773087Y-63742932D02*
X154736802Y-63779218D01*
X154736802Y-63779218D02*
X154664230Y-63815504D01*
X154664230Y-63815504D02*
X154446516Y-63815504D01*
X154446516Y-63815504D02*
X154373944Y-63779218D01*
X154373944Y-63779218D02*
X154337659Y-63742932D01*
X137377714Y-65049944D02*
X137522857Y-65049944D01*
X137522857Y-65049944D02*
X137595428Y-65013658D01*
X137595428Y-65013658D02*
X137631714Y-64977372D01*
X137631714Y-64977372D02*
X137704285Y-64868515D01*
X137704285Y-64868515D02*
X137740571Y-64723372D01*
X137740571Y-64723372D02*
X137740571Y-64433087D01*
X137740571Y-64433087D02*
X137704285Y-64360515D01*
X137704285Y-64360515D02*
X137668000Y-64324230D01*
X137668000Y-64324230D02*
X137595428Y-64287944D01*
X137595428Y-64287944D02*
X137450285Y-64287944D01*
X137450285Y-64287944D02*
X137377714Y-64324230D01*
X137377714Y-64324230D02*
X137341428Y-64360515D01*
X137341428Y-64360515D02*
X137305142Y-64433087D01*
X137305142Y-64433087D02*
X137305142Y-64614515D01*
X137305142Y-64614515D02*
X137341428Y-64687087D01*
X137341428Y-64687087D02*
X137377714Y-64723372D01*
X137377714Y-64723372D02*
X137450285Y-64759658D01*
X137450285Y-64759658D02*
X137595428Y-64759658D01*
X137595428Y-64759658D02*
X137668000Y-64723372D01*
X137668000Y-64723372D02*
X137704285Y-64687087D01*
X137704285Y-64687087D02*
X137740571Y-64614515D01*
X137994571Y-64287944D02*
X138502571Y-64287944D01*
X138502571Y-64287944D02*
X138175999Y-65049944D01*
X139228285Y-64977372D02*
X139191999Y-65013658D01*
X139191999Y-65013658D02*
X139083142Y-65049944D01*
X139083142Y-65049944D02*
X139010570Y-65049944D01*
X139010570Y-65049944D02*
X138901713Y-65013658D01*
X138901713Y-65013658D02*
X138829142Y-64941087D01*
X138829142Y-64941087D02*
X138792856Y-64868515D01*
X138792856Y-64868515D02*
X138756570Y-64723372D01*
X138756570Y-64723372D02*
X138756570Y-64614515D01*
X138756570Y-64614515D02*
X138792856Y-64469372D01*
X138792856Y-64469372D02*
X138829142Y-64396801D01*
X138829142Y-64396801D02*
X138901713Y-64324230D01*
X138901713Y-64324230D02*
X139010570Y-64287944D01*
X139010570Y-64287944D02*
X139083142Y-64287944D01*
X139083142Y-64287944D02*
X139191999Y-64324230D01*
X139191999Y-64324230D02*
X139228285Y-64360515D01*
X139482285Y-64287944D02*
X139663713Y-65049944D01*
X139663713Y-65049944D02*
X139808856Y-64505658D01*
X139808856Y-64505658D02*
X139953999Y-65049944D01*
X139953999Y-65049944D02*
X140135428Y-64287944D01*
X140425713Y-64650801D02*
X140679713Y-64650801D01*
X140788570Y-65049944D02*
X140425713Y-65049944D01*
X140425713Y-65049944D02*
X140425713Y-64287944D01*
X140425713Y-64287944D02*
X140788570Y-64287944D01*
X141369142Y-64650801D02*
X141477999Y-64687087D01*
X141477999Y-64687087D02*
X141514285Y-64723372D01*
X141514285Y-64723372D02*
X141550571Y-64795944D01*
X141550571Y-64795944D02*
X141550571Y-64904801D01*
X141550571Y-64904801D02*
X141514285Y-64977372D01*
X141514285Y-64977372D02*
X141477999Y-65013658D01*
X141477999Y-65013658D02*
X141405428Y-65049944D01*
X141405428Y-65049944D02*
X141115142Y-65049944D01*
X141115142Y-65049944D02*
X141115142Y-64287944D01*
X141115142Y-64287944D02*
X141369142Y-64287944D01*
X141369142Y-64287944D02*
X141441714Y-64324230D01*
X141441714Y-64324230D02*
X141477999Y-64360515D01*
X141477999Y-64360515D02*
X141514285Y-64433087D01*
X141514285Y-64433087D02*
X141514285Y-64505658D01*
X141514285Y-64505658D02*
X141477999Y-64578230D01*
X141477999Y-64578230D02*
X141441714Y-64614515D01*
X141441714Y-64614515D02*
X141369142Y-64650801D01*
X141369142Y-64650801D02*
X141115142Y-64650801D01*
X142421428Y-64251658D02*
X141768285Y-65231372D01*
X142820571Y-64687087D02*
X142820571Y-65049944D01*
X142566571Y-64287944D02*
X142820571Y-64687087D01*
X142820571Y-64687087D02*
X143074571Y-64287944D01*
X143764000Y-65049944D02*
X143510000Y-64687087D01*
X143328571Y-65049944D02*
X143328571Y-64287944D01*
X143328571Y-64287944D02*
X143618857Y-64287944D01*
X143618857Y-64287944D02*
X143691428Y-64324230D01*
X143691428Y-64324230D02*
X143727714Y-64360515D01*
X143727714Y-64360515D02*
X143764000Y-64433087D01*
X143764000Y-64433087D02*
X143764000Y-64541944D01*
X143764000Y-64541944D02*
X143727714Y-64614515D01*
X143727714Y-64614515D02*
X143691428Y-64650801D01*
X143691428Y-64650801D02*
X143618857Y-64687087D01*
X143618857Y-64687087D02*
X143328571Y-64687087D01*
X144090571Y-65049944D02*
X144090571Y-64287944D01*
X137305142Y-65594955D02*
X137341428Y-65558670D01*
X137341428Y-65558670D02*
X137414000Y-65522384D01*
X137414000Y-65522384D02*
X137595428Y-65522384D01*
X137595428Y-65522384D02*
X137668000Y-65558670D01*
X137668000Y-65558670D02*
X137704285Y-65594955D01*
X137704285Y-65594955D02*
X137740571Y-65667527D01*
X137740571Y-65667527D02*
X137740571Y-65740098D01*
X137740571Y-65740098D02*
X137704285Y-65848955D01*
X137704285Y-65848955D02*
X137268857Y-66284384D01*
X137268857Y-66284384D02*
X137740571Y-66284384D01*
X138212285Y-65522384D02*
X138284856Y-65522384D01*
X138284856Y-65522384D02*
X138357428Y-65558670D01*
X138357428Y-65558670D02*
X138393714Y-65594955D01*
X138393714Y-65594955D02*
X138429999Y-65667527D01*
X138429999Y-65667527D02*
X138466285Y-65812670D01*
X138466285Y-65812670D02*
X138466285Y-65994098D01*
X138466285Y-65994098D02*
X138429999Y-66139241D01*
X138429999Y-66139241D02*
X138393714Y-66211812D01*
X138393714Y-66211812D02*
X138357428Y-66248098D01*
X138357428Y-66248098D02*
X138284856Y-66284384D01*
X138284856Y-66284384D02*
X138212285Y-66284384D01*
X138212285Y-66284384D02*
X138139714Y-66248098D01*
X138139714Y-66248098D02*
X138103428Y-66211812D01*
X138103428Y-66211812D02*
X138067142Y-66139241D01*
X138067142Y-66139241D02*
X138030856Y-65994098D01*
X138030856Y-65994098D02*
X138030856Y-65812670D01*
X138030856Y-65812670D02*
X138067142Y-65667527D01*
X138067142Y-65667527D02*
X138103428Y-65594955D01*
X138103428Y-65594955D02*
X138139714Y-65558670D01*
X138139714Y-65558670D02*
X138212285Y-65522384D01*
X138756570Y-65594955D02*
X138792856Y-65558670D01*
X138792856Y-65558670D02*
X138865428Y-65522384D01*
X138865428Y-65522384D02*
X139046856Y-65522384D01*
X139046856Y-65522384D02*
X139119428Y-65558670D01*
X139119428Y-65558670D02*
X139155713Y-65594955D01*
X139155713Y-65594955D02*
X139191999Y-65667527D01*
X139191999Y-65667527D02*
X139191999Y-65740098D01*
X139191999Y-65740098D02*
X139155713Y-65848955D01*
X139155713Y-65848955D02*
X138720285Y-66284384D01*
X138720285Y-66284384D02*
X139191999Y-66284384D01*
X139445999Y-65522384D02*
X139917713Y-65522384D01*
X139917713Y-65522384D02*
X139663713Y-65812670D01*
X139663713Y-65812670D02*
X139772570Y-65812670D01*
X139772570Y-65812670D02*
X139845142Y-65848955D01*
X139845142Y-65848955D02*
X139881427Y-65885241D01*
X139881427Y-65885241D02*
X139917713Y-65957812D01*
X139917713Y-65957812D02*
X139917713Y-66139241D01*
X139917713Y-66139241D02*
X139881427Y-66211812D01*
X139881427Y-66211812D02*
X139845142Y-66248098D01*
X139845142Y-66248098D02*
X139772570Y-66284384D01*
X139772570Y-66284384D02*
X139554856Y-66284384D01*
X139554856Y-66284384D02*
X139482284Y-66248098D01*
X139482284Y-66248098D02*
X139445999Y-66211812D01*
X140244284Y-65994098D02*
X140824856Y-65994098D01*
X141586856Y-66284384D02*
X141151427Y-66284384D01*
X141369142Y-66284384D02*
X141369142Y-65522384D01*
X141369142Y-65522384D02*
X141296570Y-65631241D01*
X141296570Y-65631241D02*
X141223999Y-65703812D01*
X141223999Y-65703812D02*
X141151427Y-65740098D01*
X142058570Y-65522384D02*
X142131141Y-65522384D01*
X142131141Y-65522384D02*
X142203713Y-65558670D01*
X142203713Y-65558670D02*
X142239999Y-65594955D01*
X142239999Y-65594955D02*
X142276284Y-65667527D01*
X142276284Y-65667527D02*
X142312570Y-65812670D01*
X142312570Y-65812670D02*
X142312570Y-65994098D01*
X142312570Y-65994098D02*
X142276284Y-66139241D01*
X142276284Y-66139241D02*
X142239999Y-66211812D01*
X142239999Y-66211812D02*
X142203713Y-66248098D01*
X142203713Y-66248098D02*
X142131141Y-66284384D01*
X142131141Y-66284384D02*
X142058570Y-66284384D01*
X142058570Y-66284384D02*
X141985999Y-66248098D01*
X141985999Y-66248098D02*
X141949713Y-66211812D01*
X141949713Y-66211812D02*
X141913427Y-66139241D01*
X141913427Y-66139241D02*
X141877141Y-65994098D01*
X141877141Y-65994098D02*
X141877141Y-65812670D01*
X141877141Y-65812670D02*
X141913427Y-65667527D01*
X141913427Y-65667527D02*
X141949713Y-65594955D01*
X141949713Y-65594955D02*
X141985999Y-65558670D01*
X141985999Y-65558670D02*
X142058570Y-65522384D01*
X142639141Y-65994098D02*
X143219713Y-65994098D01*
X143727713Y-65522384D02*
X143800284Y-65522384D01*
X143800284Y-65522384D02*
X143872856Y-65558670D01*
X143872856Y-65558670D02*
X143909142Y-65594955D01*
X143909142Y-65594955D02*
X143945427Y-65667527D01*
X143945427Y-65667527D02*
X143981713Y-65812670D01*
X143981713Y-65812670D02*
X143981713Y-65994098D01*
X143981713Y-65994098D02*
X143945427Y-66139241D01*
X143945427Y-66139241D02*
X143909142Y-66211812D01*
X143909142Y-66211812D02*
X143872856Y-66248098D01*
X143872856Y-66248098D02*
X143800284Y-66284384D01*
X143800284Y-66284384D02*
X143727713Y-66284384D01*
X143727713Y-66284384D02*
X143655142Y-66248098D01*
X143655142Y-66248098D02*
X143618856Y-66211812D01*
X143618856Y-66211812D02*
X143582570Y-66139241D01*
X143582570Y-66139241D02*
X143546284Y-65994098D01*
X143546284Y-65994098D02*
X143546284Y-65812670D01*
X143546284Y-65812670D02*
X143582570Y-65667527D01*
X143582570Y-65667527D02*
X143618856Y-65594955D01*
X143618856Y-65594955D02*
X143655142Y-65558670D01*
X143655142Y-65558670D02*
X143727713Y-65522384D01*
X144344570Y-66284384D02*
X144489713Y-66284384D01*
X144489713Y-66284384D02*
X144562284Y-66248098D01*
X144562284Y-66248098D02*
X144598570Y-66211812D01*
X144598570Y-66211812D02*
X144671141Y-66102955D01*
X144671141Y-66102955D02*
X144707427Y-65957812D01*
X144707427Y-65957812D02*
X144707427Y-65667527D01*
X144707427Y-65667527D02*
X144671141Y-65594955D01*
X144671141Y-65594955D02*
X144634856Y-65558670D01*
X144634856Y-65558670D02*
X144562284Y-65522384D01*
X144562284Y-65522384D02*
X144417141Y-65522384D01*
X144417141Y-65522384D02*
X144344570Y-65558670D01*
X144344570Y-65558670D02*
X144308284Y-65594955D01*
X144308284Y-65594955D02*
X144271998Y-65667527D01*
X144271998Y-65667527D02*
X144271998Y-65848955D01*
X144271998Y-65848955D02*
X144308284Y-65921527D01*
X144308284Y-65921527D02*
X144344570Y-65957812D01*
X144344570Y-65957812D02*
X144417141Y-65994098D01*
X144417141Y-65994098D02*
X144562284Y-65994098D01*
X144562284Y-65994098D02*
X144634856Y-65957812D01*
X144634856Y-65957812D02*
X144671141Y-65921527D01*
X144671141Y-65921527D02*
X144707427Y-65848955D01*
D11*
%TO.C,R4*%
X148423333Y-70217380D02*
X148090000Y-69741190D01*
X147851905Y-70217380D02*
X147851905Y-69217380D01*
X147851905Y-69217380D02*
X148232857Y-69217380D01*
X148232857Y-69217380D02*
X148328095Y-69265000D01*
X148328095Y-69265000D02*
X148375714Y-69312619D01*
X148375714Y-69312619D02*
X148423333Y-69407857D01*
X148423333Y-69407857D02*
X148423333Y-69550714D01*
X148423333Y-69550714D02*
X148375714Y-69645952D01*
X148375714Y-69645952D02*
X148328095Y-69693571D01*
X148328095Y-69693571D02*
X148232857Y-69741190D01*
X148232857Y-69741190D02*
X147851905Y-69741190D01*
X149280476Y-69550714D02*
X149280476Y-70217380D01*
X149042381Y-69169761D02*
X148804286Y-69884047D01*
X148804286Y-69884047D02*
X149423333Y-69884047D01*
%TO.C,R2*%
X151598333Y-105777380D02*
X151265000Y-105301190D01*
X151026905Y-105777380D02*
X151026905Y-104777380D01*
X151026905Y-104777380D02*
X151407857Y-104777380D01*
X151407857Y-104777380D02*
X151503095Y-104825000D01*
X151503095Y-104825000D02*
X151550714Y-104872619D01*
X151550714Y-104872619D02*
X151598333Y-104967857D01*
X151598333Y-104967857D02*
X151598333Y-105110714D01*
X151598333Y-105110714D02*
X151550714Y-105205952D01*
X151550714Y-105205952D02*
X151503095Y-105253571D01*
X151503095Y-105253571D02*
X151407857Y-105301190D01*
X151407857Y-105301190D02*
X151026905Y-105301190D01*
X151979286Y-104872619D02*
X152026905Y-104825000D01*
X152026905Y-104825000D02*
X152122143Y-104777380D01*
X152122143Y-104777380D02*
X152360238Y-104777380D01*
X152360238Y-104777380D02*
X152455476Y-104825000D01*
X152455476Y-104825000D02*
X152503095Y-104872619D01*
X152503095Y-104872619D02*
X152550714Y-104967857D01*
X152550714Y-104967857D02*
X152550714Y-105063095D01*
X152550714Y-105063095D02*
X152503095Y-105205952D01*
X152503095Y-105205952D02*
X151931667Y-105777380D01*
X151931667Y-105777380D02*
X152550714Y-105777380D01*
%TO.C,H2*%
X164807380Y-94741904D02*
X163807380Y-94741904D01*
X164283571Y-94741904D02*
X164283571Y-94170476D01*
X164807380Y-94170476D02*
X163807380Y-94170476D01*
X163902619Y-93741904D02*
X163855000Y-93694285D01*
X163855000Y-93694285D02*
X163807380Y-93599047D01*
X163807380Y-93599047D02*
X163807380Y-93360952D01*
X163807380Y-93360952D02*
X163855000Y-93265714D01*
X163855000Y-93265714D02*
X163902619Y-93218095D01*
X163902619Y-93218095D02*
X163997857Y-93170476D01*
X163997857Y-93170476D02*
X164093095Y-93170476D01*
X164093095Y-93170476D02*
X164235952Y-93218095D01*
X164235952Y-93218095D02*
X164807380Y-93789523D01*
X164807380Y-93789523D02*
X164807380Y-93170476D01*
%TO.C,C1*%
X130663333Y-68072142D02*
X130615714Y-68119761D01*
X130615714Y-68119761D02*
X130472857Y-68167380D01*
X130472857Y-68167380D02*
X130377619Y-68167380D01*
X130377619Y-68167380D02*
X130234762Y-68119761D01*
X130234762Y-68119761D02*
X130139524Y-68024523D01*
X130139524Y-68024523D02*
X130091905Y-67929285D01*
X130091905Y-67929285D02*
X130044286Y-67738809D01*
X130044286Y-67738809D02*
X130044286Y-67595952D01*
X130044286Y-67595952D02*
X130091905Y-67405476D01*
X130091905Y-67405476D02*
X130139524Y-67310238D01*
X130139524Y-67310238D02*
X130234762Y-67215000D01*
X130234762Y-67215000D02*
X130377619Y-67167380D01*
X130377619Y-67167380D02*
X130472857Y-67167380D01*
X130472857Y-67167380D02*
X130615714Y-67215000D01*
X130615714Y-67215000D02*
X130663333Y-67262619D01*
X131615714Y-68167380D02*
X131044286Y-68167380D01*
X131330000Y-68167380D02*
X131330000Y-67167380D01*
X131330000Y-67167380D02*
X131234762Y-67310238D01*
X131234762Y-67310238D02*
X131139524Y-67405476D01*
X131139524Y-67405476D02*
X131044286Y-67453095D01*
%TO.C,C2*%
X126062142Y-95396666D02*
X126109761Y-95444285D01*
X126109761Y-95444285D02*
X126157380Y-95587142D01*
X126157380Y-95587142D02*
X126157380Y-95682380D01*
X126157380Y-95682380D02*
X126109761Y-95825237D01*
X126109761Y-95825237D02*
X126014523Y-95920475D01*
X126014523Y-95920475D02*
X125919285Y-95968094D01*
X125919285Y-95968094D02*
X125728809Y-96015713D01*
X125728809Y-96015713D02*
X125585952Y-96015713D01*
X125585952Y-96015713D02*
X125395476Y-95968094D01*
X125395476Y-95968094D02*
X125300238Y-95920475D01*
X125300238Y-95920475D02*
X125205000Y-95825237D01*
X125205000Y-95825237D02*
X125157380Y-95682380D01*
X125157380Y-95682380D02*
X125157380Y-95587142D01*
X125157380Y-95587142D02*
X125205000Y-95444285D01*
X125205000Y-95444285D02*
X125252619Y-95396666D01*
X125252619Y-95015713D02*
X125205000Y-94968094D01*
X125205000Y-94968094D02*
X125157380Y-94872856D01*
X125157380Y-94872856D02*
X125157380Y-94634761D01*
X125157380Y-94634761D02*
X125205000Y-94539523D01*
X125205000Y-94539523D02*
X125252619Y-94491904D01*
X125252619Y-94491904D02*
X125347857Y-94444285D01*
X125347857Y-94444285D02*
X125443095Y-94444285D01*
X125443095Y-94444285D02*
X125585952Y-94491904D01*
X125585952Y-94491904D02*
X126157380Y-95063332D01*
X126157380Y-95063332D02*
X126157380Y-94444285D01*
%TO.C,U1*%
X134797380Y-99821904D02*
X135606904Y-99821904D01*
X135606904Y-99821904D02*
X135702142Y-99774285D01*
X135702142Y-99774285D02*
X135749761Y-99726666D01*
X135749761Y-99726666D02*
X135797380Y-99631428D01*
X135797380Y-99631428D02*
X135797380Y-99440952D01*
X135797380Y-99440952D02*
X135749761Y-99345714D01*
X135749761Y-99345714D02*
X135702142Y-99298095D01*
X135702142Y-99298095D02*
X135606904Y-99250476D01*
X135606904Y-99250476D02*
X134797380Y-99250476D01*
X135797380Y-98250476D02*
X135797380Y-98821904D01*
X135797380Y-98536190D02*
X134797380Y-98536190D01*
X134797380Y-98536190D02*
X134940238Y-98631428D01*
X134940238Y-98631428D02*
X135035476Y-98726666D01*
X135035476Y-98726666D02*
X135083095Y-98821904D01*
%TO.C,A1*%
X127081666Y-87074285D02*
X127081666Y-86598095D01*
X127367380Y-87169523D02*
X126367380Y-86836190D01*
X126367380Y-86836190D02*
X127367380Y-86502857D01*
X127367380Y-85645714D02*
X127367380Y-86217142D01*
X127367380Y-85931428D02*
X126367380Y-85931428D01*
X126367380Y-85931428D02*
X126510238Y-86026666D01*
X126510238Y-86026666D02*
X126605476Y-86121904D01*
X126605476Y-86121904D02*
X126653095Y-86217142D01*
X164467380Y-82541904D02*
X165276904Y-82541904D01*
X165276904Y-82541904D02*
X165372142Y-82494285D01*
X165372142Y-82494285D02*
X165419761Y-82446666D01*
X165419761Y-82446666D02*
X165467380Y-82351428D01*
X165467380Y-82351428D02*
X165467380Y-82160952D01*
X165467380Y-82160952D02*
X165419761Y-82065714D01*
X165419761Y-82065714D02*
X165372142Y-82018095D01*
X165372142Y-82018095D02*
X165276904Y-81970476D01*
X165276904Y-81970476D02*
X164467380Y-81970476D01*
X165419761Y-81541904D02*
X165467380Y-81399047D01*
X165467380Y-81399047D02*
X165467380Y-81160952D01*
X165467380Y-81160952D02*
X165419761Y-81065714D01*
X165419761Y-81065714D02*
X165372142Y-81018095D01*
X165372142Y-81018095D02*
X165276904Y-80970476D01*
X165276904Y-80970476D02*
X165181666Y-80970476D01*
X165181666Y-80970476D02*
X165086428Y-81018095D01*
X165086428Y-81018095D02*
X165038809Y-81065714D01*
X165038809Y-81065714D02*
X164991190Y-81160952D01*
X164991190Y-81160952D02*
X164943571Y-81351428D01*
X164943571Y-81351428D02*
X164895952Y-81446666D01*
X164895952Y-81446666D02*
X164848333Y-81494285D01*
X164848333Y-81494285D02*
X164753095Y-81541904D01*
X164753095Y-81541904D02*
X164657857Y-81541904D01*
X164657857Y-81541904D02*
X164562619Y-81494285D01*
X164562619Y-81494285D02*
X164515000Y-81446666D01*
X164515000Y-81446666D02*
X164467380Y-81351428D01*
X164467380Y-81351428D02*
X164467380Y-81113333D01*
X164467380Y-81113333D02*
X164515000Y-80970476D01*
X164943571Y-80208571D02*
X164991190Y-80065714D01*
X164991190Y-80065714D02*
X165038809Y-80018095D01*
X165038809Y-80018095D02*
X165134047Y-79970476D01*
X165134047Y-79970476D02*
X165276904Y-79970476D01*
X165276904Y-79970476D02*
X165372142Y-80018095D01*
X165372142Y-80018095D02*
X165419761Y-80065714D01*
X165419761Y-80065714D02*
X165467380Y-80160952D01*
X165467380Y-80160952D02*
X165467380Y-80541904D01*
X165467380Y-80541904D02*
X164467380Y-80541904D01*
X164467380Y-80541904D02*
X164467380Y-80208571D01*
X164467380Y-80208571D02*
X164515000Y-80113333D01*
X164515000Y-80113333D02*
X164562619Y-80065714D01*
X164562619Y-80065714D02*
X164657857Y-80018095D01*
X164657857Y-80018095D02*
X164753095Y-80018095D01*
X164753095Y-80018095D02*
X164848333Y-80065714D01*
X164848333Y-80065714D02*
X164895952Y-80113333D01*
X164895952Y-80113333D02*
X164943571Y-80208571D01*
X164943571Y-80208571D02*
X164943571Y-80541904D01*
%TO.C,C3*%
X147173333Y-99392142D02*
X147125714Y-99439761D01*
X147125714Y-99439761D02*
X146982857Y-99487380D01*
X146982857Y-99487380D02*
X146887619Y-99487380D01*
X146887619Y-99487380D02*
X146744762Y-99439761D01*
X146744762Y-99439761D02*
X146649524Y-99344523D01*
X146649524Y-99344523D02*
X146601905Y-99249285D01*
X146601905Y-99249285D02*
X146554286Y-99058809D01*
X146554286Y-99058809D02*
X146554286Y-98915952D01*
X146554286Y-98915952D02*
X146601905Y-98725476D01*
X146601905Y-98725476D02*
X146649524Y-98630238D01*
X146649524Y-98630238D02*
X146744762Y-98535000D01*
X146744762Y-98535000D02*
X146887619Y-98487380D01*
X146887619Y-98487380D02*
X146982857Y-98487380D01*
X146982857Y-98487380D02*
X147125714Y-98535000D01*
X147125714Y-98535000D02*
X147173333Y-98582619D01*
X147506667Y-98487380D02*
X148125714Y-98487380D01*
X148125714Y-98487380D02*
X147792381Y-98868333D01*
X147792381Y-98868333D02*
X147935238Y-98868333D01*
X147935238Y-98868333D02*
X148030476Y-98915952D01*
X148030476Y-98915952D02*
X148078095Y-98963571D01*
X148078095Y-98963571D02*
X148125714Y-99058809D01*
X148125714Y-99058809D02*
X148125714Y-99296904D01*
X148125714Y-99296904D02*
X148078095Y-99392142D01*
X148078095Y-99392142D02*
X148030476Y-99439761D01*
X148030476Y-99439761D02*
X147935238Y-99487380D01*
X147935238Y-99487380D02*
X147649524Y-99487380D01*
X147649524Y-99487380D02*
X147554286Y-99439761D01*
X147554286Y-99439761D02*
X147506667Y-99392142D01*
%TO.C,J2*%
X160532380Y-107053333D02*
X161246666Y-107053333D01*
X161246666Y-107053333D02*
X161389523Y-107100952D01*
X161389523Y-107100952D02*
X161484761Y-107196190D01*
X161484761Y-107196190D02*
X161532380Y-107339047D01*
X161532380Y-107339047D02*
X161532380Y-107434285D01*
X160627619Y-106624761D02*
X160580000Y-106577142D01*
X160580000Y-106577142D02*
X160532380Y-106481904D01*
X160532380Y-106481904D02*
X160532380Y-106243809D01*
X160532380Y-106243809D02*
X160580000Y-106148571D01*
X160580000Y-106148571D02*
X160627619Y-106100952D01*
X160627619Y-106100952D02*
X160722857Y-106053333D01*
X160722857Y-106053333D02*
X160818095Y-106053333D01*
X160818095Y-106053333D02*
X160960952Y-106100952D01*
X160960952Y-106100952D02*
X161532380Y-106672380D01*
X161532380Y-106672380D02*
X161532380Y-106053333D01*
%TO.C,R1*%
X154773333Y-105777380D02*
X154440000Y-105301190D01*
X154201905Y-105777380D02*
X154201905Y-104777380D01*
X154201905Y-104777380D02*
X154582857Y-104777380D01*
X154582857Y-104777380D02*
X154678095Y-104825000D01*
X154678095Y-104825000D02*
X154725714Y-104872619D01*
X154725714Y-104872619D02*
X154773333Y-104967857D01*
X154773333Y-104967857D02*
X154773333Y-105110714D01*
X154773333Y-105110714D02*
X154725714Y-105205952D01*
X154725714Y-105205952D02*
X154678095Y-105253571D01*
X154678095Y-105253571D02*
X154582857Y-105301190D01*
X154582857Y-105301190D02*
X154201905Y-105301190D01*
X155725714Y-105777380D02*
X155154286Y-105777380D01*
X155440000Y-105777380D02*
X155440000Y-104777380D01*
X155440000Y-104777380D02*
X155344762Y-104920238D01*
X155344762Y-104920238D02*
X155249524Y-105015476D01*
X155249524Y-105015476D02*
X155154286Y-105063095D01*
%TO.C,J1*%
X134267380Y-107093333D02*
X134981666Y-107093333D01*
X134981666Y-107093333D02*
X135124523Y-107140952D01*
X135124523Y-107140952D02*
X135219761Y-107236190D01*
X135219761Y-107236190D02*
X135267380Y-107379047D01*
X135267380Y-107379047D02*
X135267380Y-107474285D01*
X135267380Y-106093333D02*
X135267380Y-106664761D01*
X135267380Y-106379047D02*
X134267380Y-106379047D01*
X134267380Y-106379047D02*
X134410238Y-106474285D01*
X134410238Y-106474285D02*
X134505476Y-106569523D01*
X134505476Y-106569523D02*
X134553095Y-106664761D01*
%TO.C,C4*%
X147173333Y-91772142D02*
X147125714Y-91819761D01*
X147125714Y-91819761D02*
X146982857Y-91867380D01*
X146982857Y-91867380D02*
X146887619Y-91867380D01*
X146887619Y-91867380D02*
X146744762Y-91819761D01*
X146744762Y-91819761D02*
X146649524Y-91724523D01*
X146649524Y-91724523D02*
X146601905Y-91629285D01*
X146601905Y-91629285D02*
X146554286Y-91438809D01*
X146554286Y-91438809D02*
X146554286Y-91295952D01*
X146554286Y-91295952D02*
X146601905Y-91105476D01*
X146601905Y-91105476D02*
X146649524Y-91010238D01*
X146649524Y-91010238D02*
X146744762Y-90915000D01*
X146744762Y-90915000D02*
X146887619Y-90867380D01*
X146887619Y-90867380D02*
X146982857Y-90867380D01*
X146982857Y-90867380D02*
X147125714Y-90915000D01*
X147125714Y-90915000D02*
X147173333Y-90962619D01*
X148030476Y-91200714D02*
X148030476Y-91867380D01*
X147792381Y-90819761D02*
X147554286Y-91534047D01*
X147554286Y-91534047D02*
X148173333Y-91534047D01*
%TO.C,R3*%
X149693333Y-66407380D02*
X149360000Y-65931190D01*
X149121905Y-66407380D02*
X149121905Y-65407380D01*
X149121905Y-65407380D02*
X149502857Y-65407380D01*
X149502857Y-65407380D02*
X149598095Y-65455000D01*
X149598095Y-65455000D02*
X149645714Y-65502619D01*
X149645714Y-65502619D02*
X149693333Y-65597857D01*
X149693333Y-65597857D02*
X149693333Y-65740714D01*
X149693333Y-65740714D02*
X149645714Y-65835952D01*
X149645714Y-65835952D02*
X149598095Y-65883571D01*
X149598095Y-65883571D02*
X149502857Y-65931190D01*
X149502857Y-65931190D02*
X149121905Y-65931190D01*
X150026667Y-65407380D02*
X150645714Y-65407380D01*
X150645714Y-65407380D02*
X150312381Y-65788333D01*
X150312381Y-65788333D02*
X150455238Y-65788333D01*
X150455238Y-65788333D02*
X150550476Y-65835952D01*
X150550476Y-65835952D02*
X150598095Y-65883571D01*
X150598095Y-65883571D02*
X150645714Y-65978809D01*
X150645714Y-65978809D02*
X150645714Y-66216904D01*
X150645714Y-66216904D02*
X150598095Y-66312142D01*
X150598095Y-66312142D02*
X150550476Y-66359761D01*
X150550476Y-66359761D02*
X150455238Y-66407380D01*
X150455238Y-66407380D02*
X150169524Y-66407380D01*
X150169524Y-66407380D02*
X150074286Y-66359761D01*
X150074286Y-66359761D02*
X150026667Y-66312142D01*
%TO.C,H1*%
X134377380Y-65531904D02*
X133377380Y-65531904D01*
X133853571Y-65531904D02*
X133853571Y-64960476D01*
X134377380Y-64960476D02*
X133377380Y-64960476D01*
X134377380Y-63960476D02*
X134377380Y-64531904D01*
X134377380Y-64246190D02*
X133377380Y-64246190D01*
X133377380Y-64246190D02*
X133520238Y-64341428D01*
X133520238Y-64341428D02*
X133615476Y-64436666D01*
X133615476Y-64436666D02*
X133663095Y-64531904D01*
%TO.C,Q1*%
X158654761Y-105872619D02*
X158559523Y-105825000D01*
X158559523Y-105825000D02*
X158464285Y-105729761D01*
X158464285Y-105729761D02*
X158321428Y-105586904D01*
X158321428Y-105586904D02*
X158226190Y-105539285D01*
X158226190Y-105539285D02*
X158130952Y-105539285D01*
X158178571Y-105777380D02*
X158083333Y-105729761D01*
X158083333Y-105729761D02*
X157988095Y-105634523D01*
X157988095Y-105634523D02*
X157940476Y-105444047D01*
X157940476Y-105444047D02*
X157940476Y-105110714D01*
X157940476Y-105110714D02*
X157988095Y-104920238D01*
X157988095Y-104920238D02*
X158083333Y-104825000D01*
X158083333Y-104825000D02*
X158178571Y-104777380D01*
X158178571Y-104777380D02*
X158369047Y-104777380D01*
X158369047Y-104777380D02*
X158464285Y-104825000D01*
X158464285Y-104825000D02*
X158559523Y-104920238D01*
X158559523Y-104920238D02*
X158607142Y-105110714D01*
X158607142Y-105110714D02*
X158607142Y-105444047D01*
X158607142Y-105444047D02*
X158559523Y-105634523D01*
X158559523Y-105634523D02*
X158464285Y-105729761D01*
X158464285Y-105729761D02*
X158369047Y-105777380D01*
X158369047Y-105777380D02*
X158178571Y-105777380D01*
X159559523Y-105777380D02*
X158988095Y-105777380D01*
X159273809Y-105777380D02*
X159273809Y-104777380D01*
X159273809Y-104777380D02*
X159178571Y-104920238D01*
X159178571Y-104920238D02*
X159083333Y-105015476D01*
X159083333Y-105015476D02*
X158988095Y-105063095D01*
D12*
%TO.C,R4*%
X152170000Y-69850000D02*
X152940000Y-69850000D01*
X152940000Y-68480000D02*
X152940000Y-71220000D01*
X152940000Y-71220000D02*
X159480000Y-71220000D01*
X159480000Y-68480000D02*
X152940000Y-68480000D01*
X159480000Y-71220000D02*
X159480000Y-68480000D01*
X160250000Y-69850000D02*
X159480000Y-69850000D01*
%TO.C,R2*%
X151765000Y-101830000D02*
X151765000Y-101060000D01*
X150395000Y-101060000D02*
X153135000Y-101060000D01*
X153135000Y-101060000D02*
X153135000Y-94520000D01*
X150395000Y-94520000D02*
X150395000Y-101060000D01*
X153135000Y-94520000D02*
X150395000Y-94520000D01*
X151765000Y-93750000D02*
X151765000Y-94520000D01*
%TO.C,C1*%
X130201000Y-68930000D02*
X131459000Y-68930000D01*
X130201000Y-70770000D02*
X131459000Y-70770000D01*
%TO.C,J3*%
X166490000Y-68890000D02*
X166490000Y-67840000D01*
X168990000Y-68890000D02*
X166490000Y-68890000D01*
X166490000Y-67840000D02*
X165500000Y-67840000D01*
X170960000Y-67720000D02*
X170960000Y-63840000D01*
X166490000Y-62670000D02*
X166490000Y-63720000D01*
X168990000Y-62670000D02*
X166490000Y-62670000D01*
%TO.C,C2*%
X128065000Y-98034775D02*
X128065000Y-97534775D01*
X127815000Y-97784775D02*
X128315000Y-97784775D01*
X126960000Y-95230000D02*
X132120000Y-95230000D01*
X126960000Y-95190000D02*
X132120000Y-95190000D01*
X126961000Y-95150000D02*
X132119000Y-95150000D01*
X126962000Y-95110000D02*
X132118000Y-95110000D01*
X126964000Y-95070000D02*
X132116000Y-95070000D01*
X126967000Y-95030000D02*
X132113000Y-95030000D01*
X126971000Y-94990000D02*
X128500000Y-94990000D01*
X130580000Y-94990000D02*
X132109000Y-94990000D01*
X126975000Y-94950000D02*
X128500000Y-94950000D01*
X130580000Y-94950000D02*
X132105000Y-94950000D01*
X126979000Y-94910000D02*
X128500000Y-94910000D01*
X130580000Y-94910000D02*
X132101000Y-94910000D01*
X126984000Y-94870000D02*
X128500000Y-94870000D01*
X130580000Y-94870000D02*
X132096000Y-94870000D01*
X126990000Y-94830000D02*
X128500000Y-94830000D01*
X130580000Y-94830000D02*
X132090000Y-94830000D01*
X126997000Y-94790000D02*
X128500000Y-94790000D01*
X130580000Y-94790000D02*
X132083000Y-94790000D01*
X127004000Y-94750000D02*
X128500000Y-94750000D01*
X130580000Y-94750000D02*
X132076000Y-94750000D01*
X127012000Y-94710000D02*
X128500000Y-94710000D01*
X130580000Y-94710000D02*
X132068000Y-94710000D01*
X127020000Y-94670000D02*
X128500000Y-94670000D01*
X130580000Y-94670000D02*
X132060000Y-94670000D01*
X127029000Y-94630000D02*
X128500000Y-94630000D01*
X130580000Y-94630000D02*
X132051000Y-94630000D01*
X127039000Y-94590000D02*
X128500000Y-94590000D01*
X130580000Y-94590000D02*
X132041000Y-94590000D01*
X127049000Y-94550000D02*
X128500000Y-94550000D01*
X130580000Y-94550000D02*
X132031000Y-94550000D01*
X127060000Y-94509000D02*
X128500000Y-94509000D01*
X130580000Y-94509000D02*
X132020000Y-94509000D01*
X127072000Y-94469000D02*
X128500000Y-94469000D01*
X130580000Y-94469000D02*
X132008000Y-94469000D01*
X127085000Y-94429000D02*
X128500000Y-94429000D01*
X130580000Y-94429000D02*
X131995000Y-94429000D01*
X127098000Y-94389000D02*
X128500000Y-94389000D01*
X130580000Y-94389000D02*
X131982000Y-94389000D01*
X127112000Y-94349000D02*
X128500000Y-94349000D01*
X130580000Y-94349000D02*
X131968000Y-94349000D01*
X127126000Y-94309000D02*
X128500000Y-94309000D01*
X130580000Y-94309000D02*
X131954000Y-94309000D01*
X127142000Y-94269000D02*
X128500000Y-94269000D01*
X130580000Y-94269000D02*
X131938000Y-94269000D01*
X127158000Y-94229000D02*
X128500000Y-94229000D01*
X130580000Y-94229000D02*
X131922000Y-94229000D01*
X127175000Y-94189000D02*
X128500000Y-94189000D01*
X130580000Y-94189000D02*
X131905000Y-94189000D01*
X127192000Y-94149000D02*
X128500000Y-94149000D01*
X130580000Y-94149000D02*
X131888000Y-94149000D01*
X127211000Y-94109000D02*
X128500000Y-94109000D01*
X130580000Y-94109000D02*
X131869000Y-94109000D01*
X127230000Y-94069000D02*
X128500000Y-94069000D01*
X130580000Y-94069000D02*
X131850000Y-94069000D01*
X127250000Y-94029000D02*
X128500000Y-94029000D01*
X130580000Y-94029000D02*
X131830000Y-94029000D01*
X127272000Y-93989000D02*
X128500000Y-93989000D01*
X130580000Y-93989000D02*
X131808000Y-93989000D01*
X127293000Y-93949000D02*
X128500000Y-93949000D01*
X130580000Y-93949000D02*
X131787000Y-93949000D01*
X127316000Y-93909000D02*
X128500000Y-93909000D01*
X130580000Y-93909000D02*
X131764000Y-93909000D01*
X127340000Y-93869000D02*
X128500000Y-93869000D01*
X130580000Y-93869000D02*
X131740000Y-93869000D01*
X127365000Y-93829000D02*
X128500000Y-93829000D01*
X130580000Y-93829000D02*
X131715000Y-93829000D01*
X127391000Y-93789000D02*
X128500000Y-93789000D01*
X130580000Y-93789000D02*
X131689000Y-93789000D01*
X127418000Y-93749000D02*
X128500000Y-93749000D01*
X130580000Y-93749000D02*
X131662000Y-93749000D01*
X127445000Y-93709000D02*
X128500000Y-93709000D01*
X130580000Y-93709000D02*
X131635000Y-93709000D01*
X127475000Y-93669000D02*
X128500000Y-93669000D01*
X130580000Y-93669000D02*
X131605000Y-93669000D01*
X127505000Y-93629000D02*
X128500000Y-93629000D01*
X130580000Y-93629000D02*
X131575000Y-93629000D01*
X127536000Y-93589000D02*
X128500000Y-93589000D01*
X130580000Y-93589000D02*
X131544000Y-93589000D01*
X127569000Y-93549000D02*
X128500000Y-93549000D01*
X130580000Y-93549000D02*
X131511000Y-93549000D01*
X127603000Y-93509000D02*
X128500000Y-93509000D01*
X130580000Y-93509000D02*
X131477000Y-93509000D01*
X127639000Y-93469000D02*
X128500000Y-93469000D01*
X130580000Y-93469000D02*
X131441000Y-93469000D01*
X127676000Y-93429000D02*
X128500000Y-93429000D01*
X130580000Y-93429000D02*
X131404000Y-93429000D01*
X127714000Y-93389000D02*
X128500000Y-93389000D01*
X130580000Y-93389000D02*
X131366000Y-93389000D01*
X127755000Y-93349000D02*
X128500000Y-93349000D01*
X130580000Y-93349000D02*
X131325000Y-93349000D01*
X127797000Y-93309000D02*
X128500000Y-93309000D01*
X130580000Y-93309000D02*
X131283000Y-93309000D01*
X127841000Y-93269000D02*
X128500000Y-93269000D01*
X130580000Y-93269000D02*
X131239000Y-93269000D01*
X127887000Y-93229000D02*
X128500000Y-93229000D01*
X130580000Y-93229000D02*
X131193000Y-93229000D01*
X127935000Y-93189000D02*
X128500000Y-93189000D01*
X130580000Y-93189000D02*
X131145000Y-93189000D01*
X127986000Y-93149000D02*
X128500000Y-93149000D01*
X130580000Y-93149000D02*
X131094000Y-93149000D01*
X128040000Y-93109000D02*
X128500000Y-93109000D01*
X130580000Y-93109000D02*
X131040000Y-93109000D01*
X128097000Y-93069000D02*
X128500000Y-93069000D01*
X130580000Y-93069000D02*
X130983000Y-93069000D01*
X128157000Y-93029000D02*
X128500000Y-93029000D01*
X130580000Y-93029000D02*
X130923000Y-93029000D01*
X128221000Y-92989000D02*
X128500000Y-92989000D01*
X130580000Y-92989000D02*
X130859000Y-92989000D01*
X128289000Y-92949000D02*
X128500000Y-92949000D01*
X130580000Y-92949000D02*
X130791000Y-92949000D01*
X128362000Y-92909000D02*
X130718000Y-92909000D01*
X128442000Y-92869000D02*
X130638000Y-92869000D01*
X128529000Y-92829000D02*
X130551000Y-92829000D01*
X128625000Y-92789000D02*
X130455000Y-92789000D01*
X128735000Y-92749000D02*
X130345000Y-92749000D01*
X128863000Y-92709000D02*
X130217000Y-92709000D01*
X129022000Y-92669000D02*
X130058000Y-92669000D01*
X129256000Y-92629000D02*
X129824000Y-92629000D01*
X132160000Y-95230000D02*
G75*
G03*
X132160000Y-95230000I-2620000J0D01*
G01*
%TO.C,U1*%
X136430000Y-104180000D02*
X141071000Y-104180000D01*
X136430000Y-104180000D02*
X136430000Y-93940000D01*
X137940000Y-104180000D02*
X137940000Y-93940000D01*
X141071000Y-104180000D02*
X141071000Y-93940000D01*
X136430000Y-100910000D02*
X137940000Y-100910000D01*
X136430000Y-97209000D02*
X137940000Y-97209000D01*
X136430000Y-93940000D02*
X141071000Y-93940000D01*
%TO.C,A1*%
X125600000Y-90300000D02*
X128270000Y-90300000D01*
X130810000Y-90300000D02*
X169040000Y-90300000D01*
X169040000Y-90300000D02*
X169040000Y-85220000D01*
X128270000Y-87630000D02*
X128270000Y-90300000D01*
X130810000Y-87630000D02*
X130810000Y-90300000D01*
X130810000Y-87630000D02*
X128270000Y-87630000D01*
X130810000Y-87630000D02*
X166370000Y-87630000D01*
X166370000Y-87630000D02*
X166370000Y-90300000D01*
X161160000Y-85220000D02*
X161160000Y-77340000D01*
X171580000Y-85220000D02*
X161160000Y-85220000D01*
X161160000Y-77340000D02*
X171580000Y-77340000D01*
X171580000Y-77340000D02*
X171580000Y-85220000D01*
X128270000Y-74930000D02*
X166370000Y-74930000D01*
X128270000Y-74930000D02*
X128270000Y-72260000D01*
X166370000Y-74930000D02*
X166370000Y-72260000D01*
X125600000Y-72260000D02*
X125600000Y-90300000D01*
X169040000Y-72260000D02*
X169040000Y-77340000D01*
X169040000Y-72260000D02*
X125600000Y-72260000D01*
%TO.C,C3*%
X144535225Y-101395000D02*
X145035225Y-101395000D01*
X144785225Y-101145000D02*
X144785225Y-101645000D01*
X147340000Y-100290000D02*
X147340000Y-105450000D01*
X147380000Y-100290000D02*
X147380000Y-105450000D01*
X147420000Y-100291000D02*
X147420000Y-105449000D01*
X147460000Y-100292000D02*
X147460000Y-105448000D01*
X147500000Y-100294000D02*
X147500000Y-105446000D01*
X147540000Y-100297000D02*
X147540000Y-105443000D01*
X147580000Y-100301000D02*
X147580000Y-101830000D01*
X147580000Y-103910000D02*
X147580000Y-105439000D01*
X147620000Y-100305000D02*
X147620000Y-101830000D01*
X147620000Y-103910000D02*
X147620000Y-105435000D01*
X147660000Y-100309000D02*
X147660000Y-101830000D01*
X147660000Y-103910000D02*
X147660000Y-105431000D01*
X147700000Y-100314000D02*
X147700000Y-101830000D01*
X147700000Y-103910000D02*
X147700000Y-105426000D01*
X147740000Y-100320000D02*
X147740000Y-101830000D01*
X147740000Y-103910000D02*
X147740000Y-105420000D01*
X147780000Y-100327000D02*
X147780000Y-101830000D01*
X147780000Y-103910000D02*
X147780000Y-105413000D01*
X147820000Y-100334000D02*
X147820000Y-101830000D01*
X147820000Y-103910000D02*
X147820000Y-105406000D01*
X147860000Y-100342000D02*
X147860000Y-101830000D01*
X147860000Y-103910000D02*
X147860000Y-105398000D01*
X147900000Y-100350000D02*
X147900000Y-101830000D01*
X147900000Y-103910000D02*
X147900000Y-105390000D01*
X147940000Y-100359000D02*
X147940000Y-101830000D01*
X147940000Y-103910000D02*
X147940000Y-105381000D01*
X147980000Y-100369000D02*
X147980000Y-101830000D01*
X147980000Y-103910000D02*
X147980000Y-105371000D01*
X148020000Y-100379000D02*
X148020000Y-101830000D01*
X148020000Y-103910000D02*
X148020000Y-105361000D01*
X148061000Y-100390000D02*
X148061000Y-101830000D01*
X148061000Y-103910000D02*
X148061000Y-105350000D01*
X148101000Y-100402000D02*
X148101000Y-101830000D01*
X148101000Y-103910000D02*
X148101000Y-105338000D01*
X148141000Y-100415000D02*
X148141000Y-101830000D01*
X148141000Y-103910000D02*
X148141000Y-105325000D01*
X148181000Y-100428000D02*
X148181000Y-101830000D01*
X148181000Y-103910000D02*
X148181000Y-105312000D01*
X148221000Y-100442000D02*
X148221000Y-101830000D01*
X148221000Y-103910000D02*
X148221000Y-105298000D01*
X148261000Y-100456000D02*
X148261000Y-101830000D01*
X148261000Y-103910000D02*
X148261000Y-105284000D01*
X148301000Y-100472000D02*
X148301000Y-101830000D01*
X148301000Y-103910000D02*
X148301000Y-105268000D01*
X148341000Y-100488000D02*
X148341000Y-101830000D01*
X148341000Y-103910000D02*
X148341000Y-105252000D01*
X148381000Y-100505000D02*
X148381000Y-101830000D01*
X148381000Y-103910000D02*
X148381000Y-105235000D01*
X148421000Y-100522000D02*
X148421000Y-101830000D01*
X148421000Y-103910000D02*
X148421000Y-105218000D01*
X148461000Y-100541000D02*
X148461000Y-101830000D01*
X148461000Y-103910000D02*
X148461000Y-105199000D01*
X148501000Y-100560000D02*
X148501000Y-101830000D01*
X148501000Y-103910000D02*
X148501000Y-105180000D01*
X148541000Y-100580000D02*
X148541000Y-101830000D01*
X148541000Y-103910000D02*
X148541000Y-105160000D01*
X148581000Y-100602000D02*
X148581000Y-101830000D01*
X148581000Y-103910000D02*
X148581000Y-105138000D01*
X148621000Y-100623000D02*
X148621000Y-101830000D01*
X148621000Y-103910000D02*
X148621000Y-105117000D01*
X148661000Y-100646000D02*
X148661000Y-101830000D01*
X148661000Y-103910000D02*
X148661000Y-105094000D01*
X148701000Y-100670000D02*
X148701000Y-101830000D01*
X148701000Y-103910000D02*
X148701000Y-105070000D01*
X148741000Y-100695000D02*
X148741000Y-101830000D01*
X148741000Y-103910000D02*
X148741000Y-105045000D01*
X148781000Y-100721000D02*
X148781000Y-101830000D01*
X148781000Y-103910000D02*
X148781000Y-105019000D01*
X148821000Y-100748000D02*
X148821000Y-101830000D01*
X148821000Y-103910000D02*
X148821000Y-104992000D01*
X148861000Y-100775000D02*
X148861000Y-101830000D01*
X148861000Y-103910000D02*
X148861000Y-104965000D01*
X148901000Y-100805000D02*
X148901000Y-101830000D01*
X148901000Y-103910000D02*
X148901000Y-104935000D01*
X148941000Y-100835000D02*
X148941000Y-101830000D01*
X148941000Y-103910000D02*
X148941000Y-104905000D01*
X148981000Y-100866000D02*
X148981000Y-101830000D01*
X148981000Y-103910000D02*
X148981000Y-104874000D01*
X149021000Y-100899000D02*
X149021000Y-101830000D01*
X149021000Y-103910000D02*
X149021000Y-104841000D01*
X149061000Y-100933000D02*
X149061000Y-101830000D01*
X149061000Y-103910000D02*
X149061000Y-104807000D01*
X149101000Y-100969000D02*
X149101000Y-101830000D01*
X149101000Y-103910000D02*
X149101000Y-104771000D01*
X149141000Y-101006000D02*
X149141000Y-101830000D01*
X149141000Y-103910000D02*
X149141000Y-104734000D01*
X149181000Y-101044000D02*
X149181000Y-101830000D01*
X149181000Y-103910000D02*
X149181000Y-104696000D01*
X149221000Y-101085000D02*
X149221000Y-101830000D01*
X149221000Y-103910000D02*
X149221000Y-104655000D01*
X149261000Y-101127000D02*
X149261000Y-101830000D01*
X149261000Y-103910000D02*
X149261000Y-104613000D01*
X149301000Y-101171000D02*
X149301000Y-101830000D01*
X149301000Y-103910000D02*
X149301000Y-104569000D01*
X149341000Y-101217000D02*
X149341000Y-101830000D01*
X149341000Y-103910000D02*
X149341000Y-104523000D01*
X149381000Y-101265000D02*
X149381000Y-101830000D01*
X149381000Y-103910000D02*
X149381000Y-104475000D01*
X149421000Y-101316000D02*
X149421000Y-101830000D01*
X149421000Y-103910000D02*
X149421000Y-104424000D01*
X149461000Y-101370000D02*
X149461000Y-101830000D01*
X149461000Y-103910000D02*
X149461000Y-104370000D01*
X149501000Y-101427000D02*
X149501000Y-101830000D01*
X149501000Y-103910000D02*
X149501000Y-104313000D01*
X149541000Y-101487000D02*
X149541000Y-101830000D01*
X149541000Y-103910000D02*
X149541000Y-104253000D01*
X149581000Y-101551000D02*
X149581000Y-101830000D01*
X149581000Y-103910000D02*
X149581000Y-104189000D01*
X149621000Y-101619000D02*
X149621000Y-101830000D01*
X149621000Y-103910000D02*
X149621000Y-104121000D01*
X149661000Y-101692000D02*
X149661000Y-104048000D01*
X149701000Y-101772000D02*
X149701000Y-103968000D01*
X149741000Y-101859000D02*
X149741000Y-103881000D01*
X149781000Y-101955000D02*
X149781000Y-103785000D01*
X149821000Y-102065000D02*
X149821000Y-103675000D01*
X149861000Y-102193000D02*
X149861000Y-103547000D01*
X149901000Y-102352000D02*
X149901000Y-103388000D01*
X149941000Y-102586000D02*
X149941000Y-103154000D01*
X149960000Y-102870000D02*
G75*
G03*
X149960000Y-102870000I-2620000J0D01*
G01*
%TO.C,J2*%
X170085000Y-112020000D02*
X170825000Y-112020000D01*
X170825000Y-112020000D02*
X170825000Y-111520000D01*
X162165000Y-111780000D02*
X170585000Y-111780000D01*
X162165000Y-111780000D02*
X162165000Y-101660000D01*
X164224000Y-111780000D02*
X164224000Y-101660000D01*
X168525000Y-111780000D02*
X168525000Y-101660000D01*
X170025000Y-111780000D02*
X170025000Y-101660000D01*
X170585000Y-111780000D02*
X170585000Y-101660000D01*
X162225000Y-110220000D02*
X163225000Y-110220000D01*
X162225000Y-110220000D02*
X162225000Y-108220000D01*
X163225000Y-110220000D02*
X163225000Y-108220000D01*
X162225000Y-108220000D02*
X163225000Y-108220000D01*
X167548000Y-105447000D02*
X167594000Y-105494000D01*
X167764000Y-105254000D02*
X167799000Y-105289000D01*
X162225000Y-105220000D02*
X163225000Y-105220000D01*
X162225000Y-105220000D02*
X162225000Y-103220000D01*
X163225000Y-105220000D02*
X163225000Y-103220000D01*
X162225000Y-103220000D02*
X163225000Y-103220000D01*
X165250000Y-103150000D02*
X165286000Y-103185000D01*
X165456000Y-102945000D02*
X165502000Y-102992000D01*
X162165000Y-101660000D02*
X170585000Y-101660000D01*
X165841001Y-110754999D02*
G75*
G03*
X167208042Y-110755426I684000J1534992D01*
G01*
X164990001Y-108536001D02*
G75*
G03*
X164989574Y-109903042I1534992J-684000D01*
G01*
X168059999Y-109904000D02*
G75*
G03*
X168205252Y-109191195I-1535000J683999D01*
G01*
X168204999Y-109220000D02*
G75*
G03*
X168059755Y-108536682I-1679999J0D01*
G01*
X167209000Y-107685000D02*
G75*
G03*
X165841958Y-107684574I-684000J-1535000D01*
G01*
X168205000Y-104220000D02*
G75*
G03*
X168205000Y-104220000I-1680000J0D01*
G01*
%TO.C,R1*%
X154940000Y-93750000D02*
X154940000Y-94520000D01*
X156310000Y-94520000D02*
X153570000Y-94520000D01*
X153570000Y-94520000D02*
X153570000Y-101060000D01*
X156310000Y-101060000D02*
X156310000Y-94520000D01*
X153570000Y-101060000D02*
X156310000Y-101060000D01*
X154940000Y-101830000D02*
X154940000Y-101060000D01*
%TO.C,J1*%
X125980000Y-101460000D02*
X125240000Y-101460000D01*
X125240000Y-101460000D02*
X125240000Y-101960000D01*
X133900000Y-101700000D02*
X125480000Y-101700000D01*
X133900000Y-101700000D02*
X133900000Y-111820000D01*
X131841000Y-101700000D02*
X131841000Y-111820000D01*
X127540000Y-101700000D02*
X127540000Y-111820000D01*
X126040000Y-101700000D02*
X126040000Y-111820000D01*
X125480000Y-101700000D02*
X125480000Y-111820000D01*
X133840000Y-103260000D02*
X132840000Y-103260000D01*
X133840000Y-103260000D02*
X133840000Y-105260000D01*
X132840000Y-103260000D02*
X132840000Y-105260000D01*
X133840000Y-105260000D02*
X132840000Y-105260000D01*
X128517000Y-108033000D02*
X128471000Y-107986000D01*
X128301000Y-108226000D02*
X128266000Y-108191000D01*
X133840000Y-108260000D02*
X132840000Y-108260000D01*
X133840000Y-108260000D02*
X133840000Y-110260000D01*
X132840000Y-108260000D02*
X132840000Y-110260000D01*
X133840000Y-110260000D02*
X132840000Y-110260000D01*
X130815000Y-110330000D02*
X130779000Y-110295000D01*
X130609000Y-110535000D02*
X130563000Y-110488000D01*
X133900000Y-111820000D02*
X125480000Y-111820000D01*
X130223999Y-102725001D02*
G75*
G03*
X128856958Y-102724574I-684000J-1534992D01*
G01*
X131074999Y-104943999D02*
G75*
G03*
X131075426Y-103576958I-1534992J684000D01*
G01*
X128005001Y-103576000D02*
G75*
G03*
X127859748Y-104288805I1535000J-683999D01*
G01*
X127860001Y-104260000D02*
G75*
G03*
X128005245Y-104943318I1679999J0D01*
G01*
X128856000Y-105795000D02*
G75*
G03*
X130223042Y-105795426I684000J1535000D01*
G01*
X131220000Y-109260000D02*
G75*
G03*
X131220000Y-109260000I-1680000J0D01*
G01*
%TO.C,C4*%
X144535225Y-93775000D02*
X145035225Y-93775000D01*
X144785225Y-93525000D02*
X144785225Y-94025000D01*
X147340000Y-92670000D02*
X147340000Y-97830000D01*
X147380000Y-92670000D02*
X147380000Y-97830000D01*
X147420000Y-92671000D02*
X147420000Y-97829000D01*
X147460000Y-92672000D02*
X147460000Y-97828000D01*
X147500000Y-92674000D02*
X147500000Y-97826000D01*
X147540000Y-92677000D02*
X147540000Y-97823000D01*
X147580000Y-92681000D02*
X147580000Y-94210000D01*
X147580000Y-96290000D02*
X147580000Y-97819000D01*
X147620000Y-92685000D02*
X147620000Y-94210000D01*
X147620000Y-96290000D02*
X147620000Y-97815000D01*
X147660000Y-92689000D02*
X147660000Y-94210000D01*
X147660000Y-96290000D02*
X147660000Y-97811000D01*
X147700000Y-92694000D02*
X147700000Y-94210000D01*
X147700000Y-96290000D02*
X147700000Y-97806000D01*
X147740000Y-92700000D02*
X147740000Y-94210000D01*
X147740000Y-96290000D02*
X147740000Y-97800000D01*
X147780000Y-92707000D02*
X147780000Y-94210000D01*
X147780000Y-96290000D02*
X147780000Y-97793000D01*
X147820000Y-92714000D02*
X147820000Y-94210000D01*
X147820000Y-96290000D02*
X147820000Y-97786000D01*
X147860000Y-92722000D02*
X147860000Y-94210000D01*
X147860000Y-96290000D02*
X147860000Y-97778000D01*
X147900000Y-92730000D02*
X147900000Y-94210000D01*
X147900000Y-96290000D02*
X147900000Y-97770000D01*
X147940000Y-92739000D02*
X147940000Y-94210000D01*
X147940000Y-96290000D02*
X147940000Y-97761000D01*
X147980000Y-92749000D02*
X147980000Y-94210000D01*
X147980000Y-96290000D02*
X147980000Y-97751000D01*
X148020000Y-92759000D02*
X148020000Y-94210000D01*
X148020000Y-96290000D02*
X148020000Y-97741000D01*
X148061000Y-92770000D02*
X148061000Y-94210000D01*
X148061000Y-96290000D02*
X148061000Y-97730000D01*
X148101000Y-92782000D02*
X148101000Y-94210000D01*
X148101000Y-96290000D02*
X148101000Y-97718000D01*
X148141000Y-92795000D02*
X148141000Y-94210000D01*
X148141000Y-96290000D02*
X148141000Y-97705000D01*
X148181000Y-92808000D02*
X148181000Y-94210000D01*
X148181000Y-96290000D02*
X148181000Y-97692000D01*
X148221000Y-92822000D02*
X148221000Y-94210000D01*
X148221000Y-96290000D02*
X148221000Y-97678000D01*
X148261000Y-92836000D02*
X148261000Y-94210000D01*
X148261000Y-96290000D02*
X148261000Y-97664000D01*
X148301000Y-92852000D02*
X148301000Y-94210000D01*
X148301000Y-96290000D02*
X148301000Y-97648000D01*
X148341000Y-92868000D02*
X148341000Y-94210000D01*
X148341000Y-96290000D02*
X148341000Y-97632000D01*
X148381000Y-92885000D02*
X148381000Y-94210000D01*
X148381000Y-96290000D02*
X148381000Y-97615000D01*
X148421000Y-92902000D02*
X148421000Y-94210000D01*
X148421000Y-96290000D02*
X148421000Y-97598000D01*
X148461000Y-92921000D02*
X148461000Y-94210000D01*
X148461000Y-96290000D02*
X148461000Y-97579000D01*
X148501000Y-92940000D02*
X148501000Y-94210000D01*
X148501000Y-96290000D02*
X148501000Y-97560000D01*
X148541000Y-92960000D02*
X148541000Y-94210000D01*
X148541000Y-96290000D02*
X148541000Y-97540000D01*
X148581000Y-92982000D02*
X148581000Y-94210000D01*
X148581000Y-96290000D02*
X148581000Y-97518000D01*
X148621000Y-93003000D02*
X148621000Y-94210000D01*
X148621000Y-96290000D02*
X148621000Y-97497000D01*
X148661000Y-93026000D02*
X148661000Y-94210000D01*
X148661000Y-96290000D02*
X148661000Y-97474000D01*
X148701000Y-93050000D02*
X148701000Y-94210000D01*
X148701000Y-96290000D02*
X148701000Y-97450000D01*
X148741000Y-93075000D02*
X148741000Y-94210000D01*
X148741000Y-96290000D02*
X148741000Y-97425000D01*
X148781000Y-93101000D02*
X148781000Y-94210000D01*
X148781000Y-96290000D02*
X148781000Y-97399000D01*
X148821000Y-93128000D02*
X148821000Y-94210000D01*
X148821000Y-96290000D02*
X148821000Y-97372000D01*
X148861000Y-93155000D02*
X148861000Y-94210000D01*
X148861000Y-96290000D02*
X148861000Y-97345000D01*
X148901000Y-93185000D02*
X148901000Y-94210000D01*
X148901000Y-96290000D02*
X148901000Y-97315000D01*
X148941000Y-93215000D02*
X148941000Y-94210000D01*
X148941000Y-96290000D02*
X148941000Y-97285000D01*
X148981000Y-93246000D02*
X148981000Y-94210000D01*
X148981000Y-96290000D02*
X148981000Y-97254000D01*
X149021000Y-93279000D02*
X149021000Y-94210000D01*
X149021000Y-96290000D02*
X149021000Y-97221000D01*
X149061000Y-93313000D02*
X149061000Y-94210000D01*
X149061000Y-96290000D02*
X149061000Y-97187000D01*
X149101000Y-93349000D02*
X149101000Y-94210000D01*
X149101000Y-96290000D02*
X149101000Y-97151000D01*
X149141000Y-93386000D02*
X149141000Y-94210000D01*
X149141000Y-96290000D02*
X149141000Y-97114000D01*
X149181000Y-93424000D02*
X149181000Y-94210000D01*
X149181000Y-96290000D02*
X149181000Y-97076000D01*
X149221000Y-93465000D02*
X149221000Y-94210000D01*
X149221000Y-96290000D02*
X149221000Y-97035000D01*
X149261000Y-93507000D02*
X149261000Y-94210000D01*
X149261000Y-96290000D02*
X149261000Y-96993000D01*
X149301000Y-93551000D02*
X149301000Y-94210000D01*
X149301000Y-96290000D02*
X149301000Y-96949000D01*
X149341000Y-93597000D02*
X149341000Y-94210000D01*
X149341000Y-96290000D02*
X149341000Y-96903000D01*
X149381000Y-93645000D02*
X149381000Y-94210000D01*
X149381000Y-96290000D02*
X149381000Y-96855000D01*
X149421000Y-93696000D02*
X149421000Y-94210000D01*
X149421000Y-96290000D02*
X149421000Y-96804000D01*
X149461000Y-93750000D02*
X149461000Y-94210000D01*
X149461000Y-96290000D02*
X149461000Y-96750000D01*
X149501000Y-93807000D02*
X149501000Y-94210000D01*
X149501000Y-96290000D02*
X149501000Y-96693000D01*
X149541000Y-93867000D02*
X149541000Y-94210000D01*
X149541000Y-96290000D02*
X149541000Y-96633000D01*
X149581000Y-93931000D02*
X149581000Y-94210000D01*
X149581000Y-96290000D02*
X149581000Y-96569000D01*
X149621000Y-93999000D02*
X149621000Y-94210000D01*
X149621000Y-96290000D02*
X149621000Y-96501000D01*
X149661000Y-94072000D02*
X149661000Y-96428000D01*
X149701000Y-94152000D02*
X149701000Y-96348000D01*
X149741000Y-94239000D02*
X149741000Y-96261000D01*
X149781000Y-94335000D02*
X149781000Y-96165000D01*
X149821000Y-94445000D02*
X149821000Y-96055000D01*
X149861000Y-94573000D02*
X149861000Y-95927000D01*
X149901000Y-94732000D02*
X149901000Y-95768000D01*
X149941000Y-94966000D02*
X149941000Y-95534000D01*
X149960000Y-95250000D02*
G75*
G03*
X149960000Y-95250000I-2620000J0D01*
G01*
%TO.C,R3*%
X153440000Y-66040000D02*
X154210000Y-66040000D01*
X154210000Y-64670000D02*
X154210000Y-67410000D01*
X154210000Y-67410000D02*
X160750000Y-67410000D01*
X160750000Y-64670000D02*
X154210000Y-64670000D01*
X160750000Y-67410000D02*
X160750000Y-64670000D01*
X161520000Y-66040000D02*
X160750000Y-66040000D01*
%TO.C,Q1*%
X156750000Y-104180000D02*
X161391000Y-104180000D01*
X156750000Y-104180000D02*
X156750000Y-93940000D01*
X158260000Y-104180000D02*
X158260000Y-93940000D01*
X161391000Y-104180000D02*
X161391000Y-93940000D01*
X156750000Y-100910000D02*
X158260000Y-100910000D01*
X156750000Y-97209000D02*
X158260000Y-97209000D01*
X156750000Y-93940000D02*
X161391000Y-93940000D01*
%TD*%
M02*
