%TF.GenerationSoftware,KiCad,Pcbnew,(7.0.0)*%
%TF.CreationDate,2023-10-09T21:37:50-04:00*%
%TF.ProjectId,CPS V2,43505320-5632-42e6-9b69-6361645f7063,rev?*%
%TF.SameCoordinates,Original*%
%TF.FileFunction,Copper,L1,Top*%
%TF.FilePolarity,Positive*%
%FSLAX46Y46*%
G04 Gerber Fmt 4.6, Leading zero omitted, Abs format (unit mm)*
G04 Created by KiCad (PCBNEW (7.0.0)) date 2023-10-09 21:37:50*
%MOMM*%
%LPD*%
G01*
G04 APERTURE LIST*
G04 Aperture macros list*
%AMRoundRect*
0 Rectangle with rounded corners*
0 $1 Rounding radius*
0 $2 $3 $4 $5 $6 $7 $8 $9 X,Y pos of 4 corners*
0 Add a 4 corners polygon primitive as box body*
4,1,4,$2,$3,$4,$5,$6,$7,$8,$9,$2,$3,0*
0 Add four circle primitives for the rounded corners*
1,1,$1+$1,$2,$3*
1,1,$1+$1,$4,$5*
1,1,$1+$1,$6,$7*
1,1,$1+$1,$8,$9*
0 Add four rect primitives between the rounded corners*
20,1,$1+$1,$2,$3,$4,$5,0*
20,1,$1+$1,$4,$5,$6,$7,0*
20,1,$1+$1,$6,$7,$8,$9,0*
20,1,$1+$1,$8,$9,$2,$3,0*%
G04 Aperture macros list end*
%TA.AperFunction,ComponentPad*%
%ADD10C,1.600000*%
%TD*%
%TA.AperFunction,ComponentPad*%
%ADD11O,1.600000X1.600000*%
%TD*%
%TA.AperFunction,ComponentPad*%
%ADD12C,4.400000*%
%TD*%
%TA.AperFunction,SMDPad,CuDef*%
%ADD13RoundRect,0.150000X0.625000X-0.150000X0.625000X0.150000X-0.625000X0.150000X-0.625000X-0.150000X0*%
%TD*%
%TA.AperFunction,SMDPad,CuDef*%
%ADD14RoundRect,0.250000X0.650000X-0.350000X0.650000X0.350000X-0.650000X0.350000X-0.650000X-0.350000X0*%
%TD*%
%TA.AperFunction,ComponentPad*%
%ADD15R,1.600000X1.600000*%
%TD*%
%TA.AperFunction,ComponentPad*%
%ADD16R,2.000000X1.905000*%
%TD*%
%TA.AperFunction,ComponentPad*%
%ADD17O,2.000000X1.905000*%
%TD*%
%TA.AperFunction,ComponentPad*%
%ADD18R,2.600000X2.600000*%
%TD*%
%TA.AperFunction,ComponentPad*%
%ADD19C,2.600000*%
%TD*%
%TA.AperFunction,ViaPad*%
%ADD20C,0.800000*%
%TD*%
%TA.AperFunction,Conductor*%
%ADD21C,0.250000*%
%TD*%
%TA.AperFunction,Conductor*%
%ADD22C,0.600000*%
%TD*%
%TA.AperFunction,Conductor*%
%ADD23C,2.540000*%
%TD*%
G04 APERTURE END LIST*
D10*
%TO.P,R4,1*%
%TO.N,To SDA*%
X151130000Y-69850000D03*
D11*
%TO.P,R4,2*%
%TO.N,+3.3V*%
X161289999Y-69849999D03*
%TD*%
D10*
%TO.P,R2,1*%
%TO.N,Net-(Q1-G)*%
X151765000Y-102870000D03*
D11*
%TO.P,R2,2*%
%TO.N,Net-(A1-A2)*%
X151764999Y-92709999D03*
%TD*%
D12*
%TO.P,H2,1,1*%
%TO.N,GND*%
X167640000Y-93980000D03*
%TD*%
D10*
%TO.P,C1,1*%
%TO.N,+5V*%
X129580000Y-69850000D03*
%TO.P,C1,2*%
%TO.N,GND*%
X132080000Y-69850000D03*
%TD*%
D13*
%TO.P,J3,1,Pin_1*%
%TO.N,GND*%
X166275000Y-67280000D03*
%TO.P,J3,2,Pin_2*%
%TO.N,+3.3V*%
X166275000Y-66280000D03*
%TO.P,J3,3,Pin_3*%
%TO.N,To SDA*%
X166275000Y-65280000D03*
%TO.P,J3,4,Pin_4*%
%TO.N,To SCL*%
X166275000Y-64280000D03*
D14*
%TO.P,J3,MP*%
%TO.N,N/C*%
X170150000Y-68580000D03*
X170150000Y-62980000D03*
%TD*%
D15*
%TO.P,C2,1*%
%TO.N,+5V*%
X129539999Y-96479999D03*
D10*
%TO.P,C2,2*%
%TO.N,GND*%
X129540000Y-93980000D03*
%TD*%
D16*
%TO.P,U1,1,VI*%
%TO.N,+20V*%
X139699999Y-101599999D03*
D17*
%TO.P,U1,2,GND*%
%TO.N,GND*%
X139699999Y-99059999D03*
%TO.P,U1,3,VO*%
%TO.N,+5V*%
X139699999Y-96519999D03*
%TD*%
D15*
%TO.P,A1,1,D1/TX*%
%TO.N,unconnected-(A1-D1{slash}TX-Pad1)*%
X129539999Y-88899999D03*
D11*
%TO.P,A1,2,D0/RX*%
%TO.N,unconnected-(A1-D0{slash}RX-Pad2)*%
X132079999Y-88899999D03*
%TO.P,A1,3,~{RESET}*%
%TO.N,unconnected-(A1-~{RESET}-Pad3)*%
X134619999Y-88899999D03*
%TO.P,A1,4,GND*%
%TO.N,GND*%
X137159999Y-88899999D03*
%TO.P,A1,5,D2*%
%TO.N,unconnected-(A1-D2-Pad5)*%
X139699999Y-88899999D03*
%TO.P,A1,6,D3*%
%TO.N,unconnected-(A1-D3-Pad6)*%
X142239999Y-88899999D03*
%TO.P,A1,7,D4*%
%TO.N,unconnected-(A1-D4-Pad7)*%
X144779999Y-88899999D03*
%TO.P,A1,8,D5*%
%TO.N,unconnected-(A1-D5-Pad8)*%
X147319999Y-88899999D03*
%TO.P,A1,9,D6*%
%TO.N,unconnected-(A1-D6-Pad9)*%
X149859999Y-88899999D03*
%TO.P,A1,10,D7*%
%TO.N,unconnected-(A1-D7-Pad10)*%
X152399999Y-88899999D03*
%TO.P,A1,11,D8*%
%TO.N,unconnected-(A1-D8-Pad11)*%
X154939999Y-88899999D03*
%TO.P,A1,12,D9*%
%TO.N,unconnected-(A1-D9-Pad12)*%
X157479999Y-88899999D03*
%TO.P,A1,13,D10*%
%TO.N,unconnected-(A1-D10-Pad13)*%
X160019999Y-88899999D03*
%TO.P,A1,14,D11*%
%TO.N,unconnected-(A1-D11-Pad14)*%
X162559999Y-88899999D03*
%TO.P,A1,15,D12*%
%TO.N,unconnected-(A1-D12-Pad15)*%
X165099999Y-88899999D03*
%TO.P,A1,16,D13*%
%TO.N,unconnected-(A1-D13-Pad16)*%
X165099999Y-73659999D03*
%TO.P,A1,17,3V3*%
%TO.N,+3.3V*%
X162559999Y-73659999D03*
%TO.P,A1,18,AREF*%
%TO.N,unconnected-(A1-AREF-Pad18)*%
X160019999Y-73659999D03*
%TO.P,A1,19,A0*%
%TO.N,unconnected-(A1-A0-Pad19)*%
X157479999Y-73659999D03*
%TO.P,A1,20,A1*%
%TO.N,unconnected-(A1-A1-Pad20)*%
X154939999Y-73659999D03*
%TO.P,A1,21,A2*%
%TO.N,Net-(A1-A2)*%
X152399999Y-73659999D03*
%TO.P,A1,22,A3*%
%TO.N,unconnected-(A1-A3-Pad22)*%
X149859999Y-73659999D03*
%TO.P,A1,23,A4*%
%TO.N,To SDA*%
X147319999Y-73659999D03*
%TO.P,A1,24,A5*%
%TO.N,To SCL*%
X144779999Y-73659999D03*
%TO.P,A1,25,A6*%
%TO.N,unconnected-(A1-A6-Pad25)*%
X142239999Y-73659999D03*
%TO.P,A1,26,A7*%
%TO.N,unconnected-(A1-A7-Pad26)*%
X139699999Y-73659999D03*
%TO.P,A1,27,+5V*%
%TO.N,unconnected-(A1-+5V-Pad27)*%
X137159999Y-73659999D03*
%TO.P,A1,28,~{RESET}*%
%TO.N,unconnected-(A1-~{RESET}-Pad28)*%
X134619999Y-73659999D03*
%TO.P,A1,29,GND*%
%TO.N,GND*%
X132079999Y-73659999D03*
%TO.P,A1,30,VIN*%
%TO.N,+5V*%
X129539999Y-73659999D03*
%TD*%
D15*
%TO.P,C3,1*%
%TO.N,+20V*%
X146089999Y-102869999D03*
D10*
%TO.P,C3,2*%
%TO.N,GND*%
X148590000Y-102870000D03*
%TD*%
D18*
%TO.P,J2,1,Pin_1*%
%TO.N,+20V*%
X166524999Y-109219999D03*
D19*
%TO.P,J2,2,Pin_2*%
%TO.N,From Batt*%
X166525000Y-104220000D03*
%TD*%
D10*
%TO.P,R1,1*%
%TO.N,GND*%
X154940000Y-92710000D03*
D11*
%TO.P,R1,2*%
%TO.N,Net-(Q1-G)*%
X154939999Y-102869999D03*
%TD*%
D18*
%TO.P,J1,1,Pin_1*%
%TO.N,GND*%
X129539999Y-104259999D03*
D19*
%TO.P,J1,2,Pin_2*%
%TO.N,+20V*%
X129540000Y-109260000D03*
%TD*%
D15*
%TO.P,C4,1*%
%TO.N,+5V*%
X146089999Y-95249999D03*
D10*
%TO.P,C4,2*%
%TO.N,GND*%
X148590000Y-95250000D03*
%TD*%
%TO.P,R3,1*%
%TO.N,To SCL*%
X152400000Y-66040000D03*
D11*
%TO.P,R3,2*%
%TO.N,+3.3V*%
X162559999Y-66039999D03*
%TD*%
D12*
%TO.P,H1,1,1*%
%TO.N,GND*%
X130810000Y-64770000D03*
%TD*%
D16*
%TO.P,Q1,1,G*%
%TO.N,Net-(Q1-G)*%
X160019999Y-101599999D03*
D17*
%TO.P,Q1,2,D*%
%TO.N,From Batt*%
X160019999Y-99059999D03*
%TO.P,Q1,3,S*%
%TO.N,GND*%
X160019999Y-96519999D03*
%TD*%
D20*
%TO.N,GND*%
X157480000Y-71120000D03*
X154940000Y-68580000D03*
X152400000Y-71120000D03*
%TO.N,To SCL*%
X163830000Y-63500000D03*
%TD*%
D21*
%TO.N,+3.3V*%
X166275000Y-66280000D02*
X166035000Y-66040000D01*
X161290000Y-69850000D02*
X161290000Y-67310000D01*
X161290000Y-67310000D02*
X162560000Y-66040000D01*
X166035000Y-66040000D02*
X162560000Y-66040000D01*
X161290000Y-72390000D02*
X162560000Y-73660000D01*
X161290000Y-69850000D02*
X161290000Y-72390000D01*
%TO.N,Net-(A1-A2)*%
X151275000Y-92220000D02*
X151275000Y-91585000D01*
X151765000Y-92710000D02*
X151275000Y-92220000D01*
X151275000Y-91585000D02*
X151275000Y-74785000D01*
X151275000Y-74785000D02*
X152400000Y-73660000D01*
%TO.N,To SDA*%
X165910000Y-64915000D02*
X166275000Y-65280000D01*
X147320000Y-73660000D02*
X156065000Y-64915000D01*
X156065000Y-64915000D02*
X165910000Y-64915000D01*
%TO.N,To SCL*%
X163830000Y-63500000D02*
X164860000Y-63500000D01*
X164860000Y-63500000D02*
X165640000Y-64280000D01*
D22*
%TO.N,+5V*%
X128240000Y-74960000D02*
X128240000Y-95180000D01*
X129540000Y-73660000D02*
X129540000Y-69890000D01*
X139700000Y-96520000D02*
X144820000Y-96520000D01*
X129540000Y-69890000D02*
X129580000Y-69850000D01*
X129540000Y-73660000D02*
X128240000Y-74960000D01*
X144820000Y-96520000D02*
X146090000Y-95250000D01*
X139700000Y-96520000D02*
X129580000Y-96520000D01*
X128240000Y-95180000D02*
X129540000Y-96480000D01*
X129580000Y-96520000D02*
X129540000Y-96480000D01*
D23*
%TO.N,+20V*%
X139700000Y-101600000D02*
X144820000Y-101600000D01*
X166525000Y-109220000D02*
X139740000Y-109220000D01*
X129540000Y-109260000D02*
X139700000Y-109260000D01*
X144820000Y-101600000D02*
X146090000Y-102870000D01*
X139700000Y-109260000D02*
X139700000Y-101600000D01*
D21*
%TO.N,Net-(Q1-G)*%
X154940000Y-102870000D02*
X158750000Y-102870000D01*
X158750000Y-102870000D02*
X160020000Y-101600000D01*
X154940000Y-102870000D02*
X151765000Y-102870000D01*
D23*
%TO.N,From Batt*%
X163560000Y-99060000D02*
X166525000Y-102025000D01*
X160020000Y-99060000D02*
X163560000Y-99060000D01*
X166525000Y-102025000D02*
X166525000Y-104220000D01*
%TD*%
%TA.AperFunction,Conductor*%
%TO.N,GND*%
G36*
X161240708Y-65553288D02*
G01*
X161284240Y-65589014D01*
X161307481Y-65640309D01*
X161305639Y-65696590D01*
X161274365Y-65813308D01*
X161273893Y-65818693D01*
X161273893Y-65818698D01*
X161269440Y-65869602D01*
X161254532Y-66040000D01*
X161255004Y-66045392D01*
X161255004Y-66045395D01*
X161269710Y-66213491D01*
X161274365Y-66266692D01*
X161275763Y-66271911D01*
X161275765Y-66271920D01*
X161292680Y-66335048D01*
X161292680Y-66399234D01*
X161260586Y-66454821D01*
X160902696Y-66812711D01*
X160894511Y-66820159D01*
X160888123Y-66824214D01*
X160882788Y-66829894D01*
X160882783Y-66829899D01*
X160842096Y-66873225D01*
X160839392Y-66876016D01*
X160822628Y-66892780D01*
X160822621Y-66892787D01*
X160819880Y-66895529D01*
X160817500Y-66898596D01*
X160817489Y-66898609D01*
X160817400Y-66898725D01*
X160809842Y-66907570D01*
X160785280Y-66933727D01*
X160785273Y-66933736D01*
X160779938Y-66939418D01*
X160776182Y-66946249D01*
X160776179Y-66946254D01*
X160770285Y-66956975D01*
X160759609Y-66973227D01*
X160752109Y-66982896D01*
X160752101Y-66982907D01*
X160747327Y-66989064D01*
X160744234Y-66996208D01*
X160744229Y-66996219D01*
X160729974Y-67029160D01*
X160724838Y-67039643D01*
X160703803Y-67077908D01*
X160701864Y-67085456D01*
X160701863Y-67085461D01*
X160698822Y-67097307D01*
X160692521Y-67115711D01*
X160687658Y-67126948D01*
X160687656Y-67126952D01*
X160684562Y-67134104D01*
X160683342Y-67141803D01*
X160683342Y-67141805D01*
X160677729Y-67177241D01*
X160675361Y-67188676D01*
X160666438Y-67223428D01*
X160666436Y-67223436D01*
X160664500Y-67230981D01*
X160664500Y-67238777D01*
X160664500Y-67251017D01*
X160662974Y-67270402D01*
X160659840Y-67290196D01*
X160660574Y-67297961D01*
X160660574Y-67297964D01*
X160663950Y-67333676D01*
X160664500Y-67345345D01*
X160664500Y-68635812D01*
X160650489Y-68693069D01*
X160611623Y-68737387D01*
X160455296Y-68846847D01*
X160455291Y-68846850D01*
X160450861Y-68849953D01*
X160447037Y-68853776D01*
X160447031Y-68853782D01*
X160293782Y-69007031D01*
X160293776Y-69007037D01*
X160289953Y-69010861D01*
X160286850Y-69015291D01*
X160286847Y-69015296D01*
X160162540Y-69192826D01*
X160162535Y-69192833D01*
X160159432Y-69197266D01*
X160157144Y-69202172D01*
X160157142Y-69202176D01*
X160065550Y-69398594D01*
X160065547Y-69398599D01*
X160063261Y-69403504D01*
X160061862Y-69408724D01*
X160061858Y-69408736D01*
X160005764Y-69618083D01*
X160005762Y-69618094D01*
X160004365Y-69623308D01*
X160003893Y-69628693D01*
X160003893Y-69628698D01*
X159999389Y-69680180D01*
X159984532Y-69850000D01*
X160004365Y-70076692D01*
X160005762Y-70081907D01*
X160005764Y-70081916D01*
X160061858Y-70291263D01*
X160061861Y-70291271D01*
X160063261Y-70296496D01*
X160159432Y-70502734D01*
X160289953Y-70689139D01*
X160450861Y-70850047D01*
X160529500Y-70905110D01*
X160611623Y-70962613D01*
X160650489Y-71006931D01*
X160664500Y-71064188D01*
X160664500Y-72312225D01*
X160663978Y-72323280D01*
X160662327Y-72330667D01*
X160662571Y-72338461D01*
X160662253Y-72341834D01*
X160643032Y-72397335D01*
X160600427Y-72437764D01*
X160543995Y-72454051D01*
X160486399Y-72442542D01*
X160471405Y-72435550D01*
X160471403Y-72435549D01*
X160466496Y-72433261D01*
X160461271Y-72431861D01*
X160461263Y-72431858D01*
X160251916Y-72375764D01*
X160251907Y-72375762D01*
X160246692Y-72374365D01*
X160241304Y-72373893D01*
X160241301Y-72373893D01*
X160025395Y-72355004D01*
X160020000Y-72354532D01*
X160014605Y-72355004D01*
X159798698Y-72373893D01*
X159798693Y-72373893D01*
X159793308Y-72374365D01*
X159788094Y-72375762D01*
X159788083Y-72375764D01*
X159578736Y-72431858D01*
X159578724Y-72431862D01*
X159573504Y-72433261D01*
X159568599Y-72435547D01*
X159568594Y-72435550D01*
X159372176Y-72527142D01*
X159372172Y-72527144D01*
X159367266Y-72529432D01*
X159362833Y-72532535D01*
X159362826Y-72532540D01*
X159185296Y-72656847D01*
X159185291Y-72656850D01*
X159180861Y-72659953D01*
X159177037Y-72663776D01*
X159177031Y-72663782D01*
X159023782Y-72817031D01*
X159023776Y-72817037D01*
X159019953Y-72820861D01*
X159016850Y-72825291D01*
X159016847Y-72825296D01*
X158892540Y-73002826D01*
X158892535Y-73002833D01*
X158889432Y-73007266D01*
X158887148Y-73012163D01*
X158887141Y-73012176D01*
X158862382Y-73065274D01*
X158816625Y-73117450D01*
X158750000Y-73136869D01*
X158683375Y-73117450D01*
X158637618Y-73065274D01*
X158612858Y-73012176D01*
X158612855Y-73012172D01*
X158610568Y-73007266D01*
X158480047Y-72820861D01*
X158319139Y-72659953D01*
X158132734Y-72529432D01*
X157926496Y-72433261D01*
X157921271Y-72431861D01*
X157921263Y-72431858D01*
X157711916Y-72375764D01*
X157711907Y-72375762D01*
X157706692Y-72374365D01*
X157701304Y-72373893D01*
X157701301Y-72373893D01*
X157485395Y-72355004D01*
X157480000Y-72354532D01*
X157474605Y-72355004D01*
X157258698Y-72373893D01*
X157258693Y-72373893D01*
X157253308Y-72374365D01*
X157248094Y-72375762D01*
X157248083Y-72375764D01*
X157038736Y-72431858D01*
X157038724Y-72431862D01*
X157033504Y-72433261D01*
X157028599Y-72435547D01*
X157028594Y-72435550D01*
X156832176Y-72527142D01*
X156832172Y-72527144D01*
X156827266Y-72529432D01*
X156822833Y-72532535D01*
X156822826Y-72532540D01*
X156645296Y-72656847D01*
X156645291Y-72656850D01*
X156640861Y-72659953D01*
X156637037Y-72663776D01*
X156637031Y-72663782D01*
X156483782Y-72817031D01*
X156483776Y-72817037D01*
X156479953Y-72820861D01*
X156476850Y-72825291D01*
X156476847Y-72825296D01*
X156352540Y-73002826D01*
X156352535Y-73002833D01*
X156349432Y-73007266D01*
X156347148Y-73012163D01*
X156347141Y-73012176D01*
X156322382Y-73065274D01*
X156276625Y-73117450D01*
X156210000Y-73136869D01*
X156143375Y-73117450D01*
X156097618Y-73065274D01*
X156072858Y-73012176D01*
X156072855Y-73012172D01*
X156070568Y-73007266D01*
X155940047Y-72820861D01*
X155779139Y-72659953D01*
X155592734Y-72529432D01*
X155386496Y-72433261D01*
X155381271Y-72431861D01*
X155381263Y-72431858D01*
X155171916Y-72375764D01*
X155171907Y-72375762D01*
X155166692Y-72374365D01*
X155161304Y-72373893D01*
X155161301Y-72373893D01*
X154945395Y-72355004D01*
X154940000Y-72354532D01*
X154934605Y-72355004D01*
X154718698Y-72373893D01*
X154718693Y-72373893D01*
X154713308Y-72374365D01*
X154708094Y-72375762D01*
X154708083Y-72375764D01*
X154498736Y-72431858D01*
X154498724Y-72431862D01*
X154493504Y-72433261D01*
X154488599Y-72435547D01*
X154488594Y-72435550D01*
X154292176Y-72527142D01*
X154292172Y-72527144D01*
X154287266Y-72529432D01*
X154282833Y-72532535D01*
X154282826Y-72532540D01*
X154105296Y-72656847D01*
X154105291Y-72656850D01*
X154100861Y-72659953D01*
X154097037Y-72663776D01*
X154097031Y-72663782D01*
X153943782Y-72817031D01*
X153943776Y-72817037D01*
X153939953Y-72820861D01*
X153936850Y-72825291D01*
X153936847Y-72825296D01*
X153812540Y-73002826D01*
X153812535Y-73002833D01*
X153809432Y-73007266D01*
X153807148Y-73012163D01*
X153807141Y-73012176D01*
X153782382Y-73065274D01*
X153736625Y-73117450D01*
X153670000Y-73136869D01*
X153603375Y-73117450D01*
X153557618Y-73065274D01*
X153532858Y-73012176D01*
X153532855Y-73012172D01*
X153530568Y-73007266D01*
X153400047Y-72820861D01*
X153239139Y-72659953D01*
X153052734Y-72529432D01*
X152846496Y-72433261D01*
X152841271Y-72431861D01*
X152841263Y-72431858D01*
X152631916Y-72375764D01*
X152631907Y-72375762D01*
X152626692Y-72374365D01*
X152621304Y-72373893D01*
X152621301Y-72373893D01*
X152405395Y-72355004D01*
X152400000Y-72354532D01*
X152394605Y-72355004D01*
X152178698Y-72373893D01*
X152178693Y-72373893D01*
X152173308Y-72374365D01*
X152168094Y-72375762D01*
X152168083Y-72375764D01*
X151958736Y-72431858D01*
X151958724Y-72431862D01*
X151953504Y-72433261D01*
X151948599Y-72435547D01*
X151948594Y-72435550D01*
X151752176Y-72527142D01*
X151752172Y-72527144D01*
X151747266Y-72529432D01*
X151742833Y-72532535D01*
X151742826Y-72532540D01*
X151565296Y-72656847D01*
X151565291Y-72656850D01*
X151560861Y-72659953D01*
X151557037Y-72663776D01*
X151557031Y-72663782D01*
X151403782Y-72817031D01*
X151403776Y-72817037D01*
X151399953Y-72820861D01*
X151396850Y-72825291D01*
X151396847Y-72825296D01*
X151272540Y-73002826D01*
X151272535Y-73002833D01*
X151269432Y-73007266D01*
X151267148Y-73012163D01*
X151267141Y-73012176D01*
X151242382Y-73065274D01*
X151196625Y-73117450D01*
X151130000Y-73136869D01*
X151063375Y-73117450D01*
X151017618Y-73065274D01*
X150992858Y-73012176D01*
X150992855Y-73012172D01*
X150990568Y-73007266D01*
X150860047Y-72820861D01*
X150699139Y-72659953D01*
X150512734Y-72529432D01*
X150306496Y-72433261D01*
X150301271Y-72431861D01*
X150301263Y-72431858D01*
X150091916Y-72375764D01*
X150091907Y-72375762D01*
X150086692Y-72374365D01*
X150081304Y-72373893D01*
X150081301Y-72373893D01*
X149865395Y-72355004D01*
X149860000Y-72354532D01*
X149854605Y-72355004D01*
X149854602Y-72355004D01*
X149815893Y-72358390D01*
X149756636Y-72349004D01*
X149708721Y-72312897D01*
X149683366Y-72258522D01*
X149686506Y-72198608D01*
X149717405Y-72147183D01*
X150715178Y-71149410D01*
X150770764Y-71117318D01*
X150834947Y-71117318D01*
X150903308Y-71135635D01*
X151130000Y-71155468D01*
X151356692Y-71135635D01*
X151576496Y-71076739D01*
X151782734Y-70980568D01*
X151969139Y-70850047D01*
X152130047Y-70689139D01*
X152260568Y-70502734D01*
X152356739Y-70296496D01*
X152415635Y-70076692D01*
X152435468Y-69850000D01*
X152415635Y-69623308D01*
X152397318Y-69554947D01*
X152397318Y-69490764D01*
X152429410Y-69435178D01*
X156287770Y-65576819D01*
X156327999Y-65549939D01*
X156375452Y-65540500D01*
X161185864Y-65540500D01*
X161240708Y-65553288D01*
G37*
%TD.AperFunction*%
%TA.AperFunction,Conductor*%
G36*
X171387500Y-60977113D02*
G01*
X171432887Y-61022500D01*
X171449500Y-61084500D01*
X171449500Y-61926659D01*
X171432434Y-61989438D01*
X171385932Y-62034936D01*
X171322796Y-62050630D01*
X171260404Y-62032198D01*
X171125480Y-61948977D01*
X171119334Y-61945186D01*
X171063423Y-61926659D01*
X170959225Y-61892131D01*
X170959224Y-61892130D01*
X170952797Y-61890001D01*
X170946064Y-61889313D01*
X170946059Y-61889312D01*
X170853140Y-61879819D01*
X170853123Y-61879818D01*
X170850009Y-61879500D01*
X170846860Y-61879500D01*
X169453140Y-61879500D01*
X169453120Y-61879500D01*
X169449992Y-61879501D01*
X169446860Y-61879820D01*
X169446858Y-61879821D01*
X169353938Y-61889312D01*
X169353928Y-61889313D01*
X169347203Y-61890001D01*
X169340781Y-61892128D01*
X169340776Y-61892130D01*
X169187521Y-61942914D01*
X169187517Y-61942915D01*
X169180666Y-61945186D01*
X169174522Y-61948975D01*
X169174519Y-61948977D01*
X169037488Y-62033497D01*
X169037480Y-62033503D01*
X169031344Y-62037288D01*
X169026242Y-62042389D01*
X169026238Y-62042393D01*
X168912393Y-62156238D01*
X168912389Y-62156242D01*
X168907288Y-62161344D01*
X168903503Y-62167480D01*
X168903497Y-62167488D01*
X168818977Y-62304519D01*
X168815186Y-62310666D01*
X168812915Y-62317517D01*
X168812914Y-62317521D01*
X168793259Y-62376836D01*
X168760001Y-62477203D01*
X168759313Y-62483933D01*
X168759312Y-62483940D01*
X168749819Y-62576859D01*
X168749818Y-62576877D01*
X168749500Y-62579991D01*
X168749500Y-62583138D01*
X168749500Y-62583139D01*
X168749500Y-63376858D01*
X168749500Y-63376877D01*
X168749501Y-63380008D01*
X168749820Y-63383140D01*
X168749821Y-63383141D01*
X168759312Y-63476061D01*
X168759313Y-63476069D01*
X168760001Y-63482797D01*
X168762129Y-63489219D01*
X168762130Y-63489223D01*
X168801471Y-63607946D01*
X168815186Y-63649334D01*
X168818977Y-63655480D01*
X168903497Y-63792511D01*
X168903500Y-63792515D01*
X168907288Y-63798656D01*
X169031344Y-63922712D01*
X169037485Y-63926500D01*
X169037488Y-63926502D01*
X169039596Y-63927802D01*
X169180666Y-64014814D01*
X169347203Y-64069999D01*
X169449991Y-64080500D01*
X170850008Y-64080499D01*
X170952797Y-64069999D01*
X171119334Y-64014814D01*
X171260403Y-63927802D01*
X171322796Y-63909370D01*
X171385932Y-63925064D01*
X171432434Y-63970562D01*
X171449500Y-64033341D01*
X171449500Y-67526659D01*
X171432434Y-67589438D01*
X171385932Y-67634936D01*
X171322796Y-67650630D01*
X171260404Y-67632198D01*
X171158089Y-67569090D01*
X171119334Y-67545186D01*
X171083917Y-67533450D01*
X170959225Y-67492131D01*
X170959224Y-67492130D01*
X170952797Y-67490001D01*
X170946064Y-67489313D01*
X170946059Y-67489312D01*
X170853140Y-67479819D01*
X170853123Y-67479818D01*
X170850009Y-67479500D01*
X170846860Y-67479500D01*
X169453140Y-67479500D01*
X169453120Y-67479500D01*
X169449992Y-67479501D01*
X169446860Y-67479820D01*
X169446858Y-67479821D01*
X169353938Y-67489312D01*
X169353928Y-67489313D01*
X169347203Y-67490001D01*
X169340781Y-67492128D01*
X169340776Y-67492130D01*
X169187521Y-67542914D01*
X169187517Y-67542915D01*
X169180666Y-67545186D01*
X169174522Y-67548975D01*
X169174519Y-67548977D01*
X169037488Y-67633497D01*
X169037480Y-67633503D01*
X169031344Y-67637288D01*
X169026242Y-67642389D01*
X169026238Y-67642393D01*
X168912393Y-67756238D01*
X168912389Y-67756242D01*
X168907288Y-67761344D01*
X168903503Y-67767480D01*
X168903497Y-67767488D01*
X168818977Y-67904519D01*
X168815186Y-67910666D01*
X168812915Y-67917517D01*
X168812914Y-67917521D01*
X168764484Y-68063674D01*
X168760001Y-68077203D01*
X168759313Y-68083933D01*
X168759312Y-68083940D01*
X168749819Y-68176859D01*
X168749818Y-68176877D01*
X168749500Y-68179991D01*
X168749500Y-68183138D01*
X168749500Y-68183139D01*
X168749500Y-68976858D01*
X168749500Y-68976877D01*
X168749501Y-68980008D01*
X168749820Y-68983140D01*
X168749821Y-68983141D01*
X168759312Y-69076061D01*
X168759313Y-69076069D01*
X168760001Y-69082797D01*
X168762129Y-69089219D01*
X168762130Y-69089223D01*
X168803137Y-69212973D01*
X168815186Y-69249334D01*
X168818977Y-69255480D01*
X168903497Y-69392511D01*
X168903500Y-69392515D01*
X168907288Y-69398656D01*
X169031344Y-69522712D01*
X169037485Y-69526500D01*
X169037488Y-69526502D01*
X169039596Y-69527802D01*
X169180666Y-69614814D01*
X169347203Y-69669999D01*
X169449991Y-69680500D01*
X170850008Y-69680499D01*
X170952797Y-69669999D01*
X171119334Y-69614814D01*
X171260403Y-69527802D01*
X171322796Y-69509370D01*
X171385932Y-69525064D01*
X171432434Y-69570562D01*
X171449500Y-69633341D01*
X171449500Y-112905500D01*
X171432887Y-112967500D01*
X171387500Y-113012887D01*
X171325500Y-113029500D01*
X124584500Y-113029500D01*
X124522500Y-113012887D01*
X124477113Y-112967500D01*
X124460500Y-112905500D01*
X124460500Y-109260000D01*
X127734451Y-109260000D01*
X127754617Y-109529103D01*
X127814666Y-109792195D01*
X127913257Y-110043398D01*
X128048185Y-110277102D01*
X128216439Y-110488085D01*
X128219843Y-110491243D01*
X128374508Y-110634752D01*
X128414259Y-110671635D01*
X128637226Y-110823651D01*
X128880359Y-110940738D01*
X128884787Y-110942103D01*
X128884790Y-110942105D01*
X128937877Y-110958480D01*
X129138228Y-111020280D01*
X129405071Y-111060500D01*
X129670292Y-111060500D01*
X129674929Y-111060500D01*
X129864778Y-111031884D01*
X129883259Y-111030500D01*
X139828046Y-111030500D01*
X139832681Y-111030500D01*
X139893805Y-111021286D01*
X139902976Y-111020254D01*
X139964619Y-111015635D01*
X140024886Y-111001879D01*
X140033980Y-111000158D01*
X140059090Y-110996374D01*
X140088876Y-110991885D01*
X140107356Y-110990500D01*
X165031894Y-110990500D01*
X165075227Y-110998318D01*
X165117517Y-111014091D01*
X165177127Y-111020500D01*
X167872872Y-111020499D01*
X167932483Y-111014091D01*
X168067331Y-110963796D01*
X168182546Y-110877546D01*
X168268796Y-110762331D01*
X168319091Y-110627483D01*
X168325500Y-110567873D01*
X168325499Y-107872128D01*
X168319091Y-107812517D01*
X168268796Y-107677669D01*
X168182546Y-107562454D01*
X168067331Y-107476204D01*
X167932483Y-107425909D01*
X167924770Y-107425079D01*
X167924767Y-107425079D01*
X167876180Y-107419855D01*
X167876169Y-107419854D01*
X167872873Y-107419500D01*
X167869550Y-107419500D01*
X165180439Y-107419500D01*
X165180420Y-107419500D01*
X165177128Y-107419501D01*
X165173850Y-107419853D01*
X165173838Y-107419854D01*
X165125231Y-107425079D01*
X165125225Y-107425080D01*
X165117517Y-107425909D01*
X165110252Y-107428618D01*
X165110246Y-107428620D01*
X165075227Y-107441682D01*
X165031894Y-107449500D01*
X141594500Y-107449500D01*
X141532500Y-107432887D01*
X141487113Y-107387500D01*
X141470500Y-107325500D01*
X141470500Y-103494500D01*
X141487113Y-103432500D01*
X141532500Y-103387113D01*
X141594500Y-103370500D01*
X144035273Y-103370500D01*
X144082726Y-103379939D01*
X144122954Y-103406819D01*
X144884917Y-104168782D01*
X144886671Y-104170291D01*
X144886677Y-104170297D01*
X144892686Y-104175468D01*
X145035692Y-104298535D01*
X145039620Y-104301003D01*
X145039624Y-104301006D01*
X145148036Y-104369125D01*
X145260380Y-104439715D01*
X145503600Y-104545832D01*
X145508071Y-104547030D01*
X145508074Y-104547031D01*
X145563263Y-104561818D01*
X145759920Y-104614512D01*
X146023613Y-104644223D01*
X146288789Y-104634301D01*
X146549524Y-104584968D01*
X146799994Y-104497324D01*
X147034604Y-104373329D01*
X147248113Y-104215752D01*
X147435752Y-104028113D01*
X147551419Y-103871388D01*
X147591204Y-103836499D01*
X147641919Y-103821373D01*
X147694322Y-103828771D01*
X147738867Y-103857345D01*
X147747352Y-103865830D01*
X147755618Y-103872767D01*
X147933087Y-103997032D01*
X147942419Y-104002420D01*
X148138768Y-104093979D01*
X148148902Y-104097667D01*
X148358162Y-104153739D01*
X148368793Y-104155613D01*
X148584605Y-104174494D01*
X148595395Y-104174494D01*
X148811206Y-104155613D01*
X148821837Y-104153739D01*
X149031097Y-104097667D01*
X149041231Y-104093979D01*
X149237575Y-104002422D01*
X149246920Y-103997026D01*
X149304348Y-103956814D01*
X149311780Y-103948703D01*
X149305867Y-103939421D01*
X148324127Y-102957681D01*
X148292033Y-102902093D01*
X148292033Y-102870000D01*
X148948431Y-102870000D01*
X148955095Y-102881542D01*
X149659421Y-103585867D01*
X149668703Y-103591780D01*
X149676814Y-103584348D01*
X149717026Y-103526920D01*
X149722422Y-103517575D01*
X149813979Y-103321231D01*
X149817667Y-103311097D01*
X149873739Y-103101837D01*
X149875613Y-103091206D01*
X149894494Y-102875395D01*
X149894494Y-102870000D01*
X150459532Y-102870000D01*
X150460004Y-102875395D01*
X150476923Y-103068789D01*
X150479365Y-103096692D01*
X150480762Y-103101907D01*
X150480764Y-103101916D01*
X150536858Y-103311263D01*
X150536861Y-103311271D01*
X150538261Y-103316496D01*
X150540549Y-103321403D01*
X150540550Y-103321405D01*
X150559785Y-103362654D01*
X150634432Y-103522734D01*
X150637539Y-103527171D01*
X150637540Y-103527173D01*
X150677574Y-103584348D01*
X150764953Y-103709139D01*
X150925861Y-103870047D01*
X151112266Y-104000568D01*
X151318504Y-104096739D01*
X151538308Y-104155635D01*
X151765000Y-104175468D01*
X151991692Y-104155635D01*
X152211496Y-104096739D01*
X152417734Y-104000568D01*
X152604139Y-103870047D01*
X152765047Y-103709139D01*
X152877612Y-103548377D01*
X152921931Y-103509511D01*
X152979188Y-103495500D01*
X153725812Y-103495500D01*
X153783069Y-103509511D01*
X153827387Y-103548377D01*
X153852574Y-103584348D01*
X153939953Y-103709139D01*
X154100861Y-103870047D01*
X154287266Y-104000568D01*
X154493504Y-104096739D01*
X154713308Y-104155635D01*
X154940000Y-104175468D01*
X155166692Y-104155635D01*
X155386496Y-104096739D01*
X155592734Y-104000568D01*
X155779139Y-103870047D01*
X155940047Y-103709139D01*
X156052612Y-103548377D01*
X156096931Y-103509511D01*
X156154188Y-103495500D01*
X158672225Y-103495500D01*
X158683280Y-103496021D01*
X158690667Y-103497673D01*
X158757872Y-103495561D01*
X158761768Y-103495500D01*
X158785448Y-103495500D01*
X158789350Y-103495500D01*
X158793313Y-103494999D01*
X158804963Y-103494080D01*
X158848627Y-103492709D01*
X158867861Y-103487119D01*
X158886917Y-103483174D01*
X158906792Y-103480664D01*
X158947395Y-103464587D01*
X158958450Y-103460802D01*
X159000390Y-103448618D01*
X159017629Y-103438422D01*
X159035103Y-103429862D01*
X159046474Y-103425360D01*
X159046476Y-103425358D01*
X159053732Y-103422486D01*
X159089069Y-103396811D01*
X159098824Y-103390403D01*
X159136420Y-103368170D01*
X159150584Y-103354005D01*
X159165379Y-103341368D01*
X159181587Y-103329594D01*
X159209428Y-103295938D01*
X159217279Y-103287309D01*
X159415271Y-103089318D01*
X159455499Y-103062438D01*
X159502952Y-103052999D01*
X161064561Y-103052999D01*
X161067872Y-103052999D01*
X161127483Y-103046591D01*
X161262331Y-102996296D01*
X161377546Y-102910046D01*
X161463796Y-102794831D01*
X161514091Y-102659983D01*
X161520500Y-102600373D01*
X161520499Y-100954499D01*
X161537112Y-100892500D01*
X161582499Y-100847113D01*
X161644499Y-100830500D01*
X162775273Y-100830500D01*
X162822726Y-100839939D01*
X162862954Y-100866819D01*
X164718181Y-102722046D01*
X164745061Y-102762274D01*
X164754500Y-102809727D01*
X164754500Y-103871719D01*
X164751391Y-103899311D01*
X164740649Y-103946373D01*
X164740647Y-103946380D01*
X164739617Y-103950897D01*
X164739270Y-103955520D01*
X164739270Y-103955524D01*
X164722788Y-104175468D01*
X164719451Y-104220000D01*
X164739617Y-104489103D01*
X164740647Y-104493616D01*
X164740648Y-104493622D01*
X164772757Y-104634301D01*
X164799666Y-104752195D01*
X164898257Y-105003398D01*
X165033185Y-105237102D01*
X165201439Y-105448085D01*
X165204843Y-105451243D01*
X165377142Y-105611114D01*
X165399259Y-105631635D01*
X165622226Y-105783651D01*
X165865359Y-105900738D01*
X165869787Y-105902103D01*
X165869790Y-105902105D01*
X165935913Y-105922501D01*
X166123228Y-105980280D01*
X166390071Y-106020500D01*
X166655292Y-106020500D01*
X166659929Y-106020500D01*
X166926772Y-105980280D01*
X167184641Y-105900738D01*
X167427775Y-105783651D01*
X167650741Y-105631635D01*
X167848561Y-105448085D01*
X168016815Y-105237102D01*
X168151743Y-105003398D01*
X168250334Y-104752195D01*
X168310383Y-104489103D01*
X168330549Y-104220000D01*
X168310383Y-103950897D01*
X168298609Y-103899311D01*
X168295500Y-103871719D01*
X168295500Y-102060425D01*
X168295587Y-102055789D01*
X168295626Y-102054739D01*
X168299223Y-101958613D01*
X168288334Y-101861984D01*
X168287902Y-101857367D01*
X168284515Y-101812169D01*
X168280635Y-101760381D01*
X168279601Y-101755851D01*
X168279600Y-101755844D01*
X168274783Y-101734741D01*
X168272455Y-101721045D01*
X168269512Y-101694920D01*
X168244335Y-101600961D01*
X168243224Y-101596476D01*
X168222618Y-101506195D01*
X168221586Y-101501673D01*
X168211980Y-101477199D01*
X168207639Y-101464007D01*
X168200832Y-101438600D01*
X168161940Y-101349461D01*
X168160166Y-101345177D01*
X168130898Y-101270604D01*
X168124639Y-101254655D01*
X168122316Y-101250631D01*
X168111491Y-101231880D01*
X168105229Y-101219478D01*
X168094715Y-101195380D01*
X168042970Y-101113028D01*
X168040578Y-101109058D01*
X167994276Y-101028860D01*
X167991958Y-101024845D01*
X167975571Y-101004297D01*
X167967525Y-100992958D01*
X167953535Y-100970692D01*
X167890088Y-100896966D01*
X167887130Y-100893395D01*
X167865936Y-100866819D01*
X167826508Y-100817377D01*
X167755202Y-100751215D01*
X167751862Y-100747997D01*
X164837001Y-97833136D01*
X164833783Y-97829796D01*
X164770778Y-97761892D01*
X164770775Y-97761890D01*
X164767623Y-97758492D01*
X164691584Y-97697853D01*
X164688019Y-97694899D01*
X164687461Y-97694419D01*
X164614308Y-97631465D01*
X164592039Y-97617472D01*
X164580709Y-97609432D01*
X164563784Y-97595935D01*
X164563775Y-97595929D01*
X164560155Y-97593042D01*
X164475934Y-97544417D01*
X164471973Y-97542029D01*
X164393557Y-97492757D01*
X164393543Y-97492749D01*
X164389619Y-97490284D01*
X164385365Y-97488428D01*
X164385350Y-97488420D01*
X164365518Y-97479767D01*
X164353109Y-97473503D01*
X164334369Y-97462684D01*
X164334366Y-97462682D01*
X164330345Y-97460361D01*
X164326026Y-97458666D01*
X164326020Y-97458663D01*
X164239842Y-97424841D01*
X164235558Y-97423067D01*
X164150648Y-97386021D01*
X164150638Y-97386017D01*
X164146399Y-97384168D01*
X164120995Y-97377361D01*
X164107790Y-97373015D01*
X164087649Y-97365110D01*
X164087645Y-97365109D01*
X164083327Y-97363414D01*
X164078804Y-97362381D01*
X164078802Y-97362381D01*
X164030769Y-97351418D01*
X163988503Y-97341770D01*
X163984034Y-97340662D01*
X163890080Y-97315488D01*
X163885481Y-97314969D01*
X163885477Y-97314969D01*
X163863956Y-97312544D01*
X163850254Y-97310216D01*
X163829138Y-97305396D01*
X163829132Y-97305395D01*
X163824619Y-97304365D01*
X163819991Y-97304018D01*
X163819990Y-97304018D01*
X163727639Y-97297097D01*
X163723023Y-97296664D01*
X163630999Y-97286295D01*
X163630990Y-97286294D01*
X163626387Y-97285776D01*
X163621756Y-97285949D01*
X163621750Y-97285949D01*
X163529194Y-97289413D01*
X163524557Y-97289500D01*
X161510721Y-97289500D01*
X161449453Y-97273306D01*
X161404187Y-97228955D01*
X161386747Y-97168030D01*
X161399501Y-97115452D01*
X161397718Y-97114670D01*
X161403883Y-97100613D01*
X161478713Y-96882642D01*
X161481224Y-96872731D01*
X161496144Y-96783320D01*
X161495577Y-96772363D01*
X161484860Y-96770000D01*
X158555140Y-96770000D01*
X158544422Y-96772363D01*
X158543855Y-96783320D01*
X158558775Y-96872731D01*
X158561286Y-96882642D01*
X158636116Y-97100613D01*
X158640219Y-97109968D01*
X158749906Y-97312654D01*
X158755498Y-97321212D01*
X158897047Y-97503074D01*
X158906636Y-97513490D01*
X158937011Y-97573222D01*
X158931872Y-97640036D01*
X158892720Y-97694419D01*
X158816006Y-97755597D01*
X158815998Y-97755603D01*
X158812377Y-97758492D01*
X158809223Y-97761890D01*
X158809221Y-97761893D01*
X158635039Y-97949617D01*
X158635034Y-97949623D01*
X158631886Y-97953016D01*
X158629276Y-97956843D01*
X158629272Y-97956849D01*
X158485017Y-98168430D01*
X158485011Y-98168439D01*
X158482402Y-98172267D01*
X158480390Y-98176443D01*
X158480387Y-98176450D01*
X158369280Y-98407166D01*
X158369276Y-98407176D01*
X158367266Y-98411350D01*
X158365900Y-98415777D01*
X158365897Y-98415786D01*
X158290418Y-98660485D01*
X158290416Y-98660492D01*
X158289050Y-98664922D01*
X158249500Y-98927319D01*
X158249500Y-99192681D01*
X158289050Y-99455078D01*
X158290417Y-99459510D01*
X158290418Y-99459514D01*
X158350857Y-99655452D01*
X158367266Y-99708650D01*
X158369280Y-99712832D01*
X158480385Y-99943545D01*
X158480388Y-99943551D01*
X158482402Y-99947732D01*
X158631886Y-100166984D01*
X158635038Y-100170381D01*
X158635609Y-100171097D01*
X158659263Y-100219585D01*
X158660088Y-100273528D01*
X158637927Y-100322716D01*
X158581520Y-100398068D01*
X158576204Y-100405169D01*
X158573104Y-100413478D01*
X158573104Y-100413480D01*
X158528620Y-100532747D01*
X158528619Y-100532750D01*
X158525909Y-100540017D01*
X158525079Y-100547727D01*
X158525079Y-100547732D01*
X158519855Y-100596319D01*
X158519854Y-100596331D01*
X158519500Y-100599627D01*
X158519500Y-100602949D01*
X158519500Y-102120500D01*
X158502887Y-102182500D01*
X158457500Y-102227887D01*
X158395500Y-102244500D01*
X156154188Y-102244500D01*
X156096931Y-102230489D01*
X156052613Y-102191623D01*
X156002812Y-102120500D01*
X155940047Y-102030861D01*
X155779139Y-101869953D01*
X155592734Y-101739432D01*
X155487680Y-101690444D01*
X155391405Y-101645550D01*
X155391403Y-101645549D01*
X155386496Y-101643261D01*
X155381271Y-101641861D01*
X155381263Y-101641858D01*
X155171916Y-101585764D01*
X155171907Y-101585762D01*
X155166692Y-101584365D01*
X155161304Y-101583893D01*
X155161301Y-101583893D01*
X154945395Y-101565004D01*
X154940000Y-101564532D01*
X154934605Y-101565004D01*
X154718698Y-101583893D01*
X154718693Y-101583893D01*
X154713308Y-101584365D01*
X154708094Y-101585762D01*
X154708083Y-101585764D01*
X154498736Y-101641858D01*
X154498724Y-101641862D01*
X154493504Y-101643261D01*
X154488599Y-101645547D01*
X154488594Y-101645550D01*
X154292176Y-101737142D01*
X154292172Y-101737144D01*
X154287266Y-101739432D01*
X154282833Y-101742535D01*
X154282826Y-101742540D01*
X154105296Y-101866847D01*
X154105291Y-101866850D01*
X154100861Y-101869953D01*
X154097037Y-101873776D01*
X154097031Y-101873782D01*
X153943782Y-102027031D01*
X153943776Y-102027037D01*
X153939953Y-102030861D01*
X153936850Y-102035291D01*
X153936847Y-102035296D01*
X153827387Y-102191623D01*
X153783069Y-102230489D01*
X153725812Y-102244500D01*
X152979188Y-102244500D01*
X152921931Y-102230489D01*
X152877613Y-102191623D01*
X152827812Y-102120500D01*
X152765047Y-102030861D01*
X152604139Y-101869953D01*
X152417734Y-101739432D01*
X152312680Y-101690444D01*
X152216405Y-101645550D01*
X152216403Y-101645549D01*
X152211496Y-101643261D01*
X152206271Y-101641861D01*
X152206263Y-101641858D01*
X151996916Y-101585764D01*
X151996907Y-101585762D01*
X151991692Y-101584365D01*
X151986304Y-101583893D01*
X151986301Y-101583893D01*
X151770395Y-101565004D01*
X151765000Y-101564532D01*
X151759605Y-101565004D01*
X151543698Y-101583893D01*
X151543693Y-101583893D01*
X151538308Y-101584365D01*
X151533094Y-101585762D01*
X151533083Y-101585764D01*
X151323736Y-101641858D01*
X151323724Y-101641862D01*
X151318504Y-101643261D01*
X151313599Y-101645547D01*
X151313594Y-101645550D01*
X151117176Y-101737142D01*
X151117172Y-101737144D01*
X151112266Y-101739432D01*
X151107833Y-101742535D01*
X151107826Y-101742540D01*
X150930296Y-101866847D01*
X150930291Y-101866850D01*
X150925861Y-101869953D01*
X150922037Y-101873776D01*
X150922031Y-101873782D01*
X150768782Y-102027031D01*
X150768776Y-102027037D01*
X150764953Y-102030861D01*
X150761850Y-102035291D01*
X150761847Y-102035296D01*
X150637540Y-102212826D01*
X150637535Y-102212833D01*
X150634432Y-102217266D01*
X150632144Y-102222172D01*
X150632142Y-102222176D01*
X150540550Y-102418594D01*
X150540547Y-102418599D01*
X150538261Y-102423504D01*
X150536862Y-102428724D01*
X150536858Y-102428736D01*
X150480764Y-102638083D01*
X150480762Y-102638094D01*
X150479365Y-102643308D01*
X150478893Y-102648693D01*
X150478893Y-102648698D01*
X150466108Y-102794831D01*
X150459532Y-102870000D01*
X149894494Y-102870000D01*
X149894494Y-102864605D01*
X149875613Y-102648793D01*
X149873739Y-102638162D01*
X149817667Y-102428902D01*
X149813979Y-102418768D01*
X149722423Y-102222427D01*
X149717025Y-102213077D01*
X149676814Y-102155650D01*
X149668703Y-102148217D01*
X149659424Y-102154128D01*
X148955095Y-102858457D01*
X148948431Y-102870000D01*
X148292033Y-102870000D01*
X148292033Y-102837906D01*
X148324127Y-102782319D01*
X148590000Y-102516447D01*
X149305870Y-101800574D01*
X149311781Y-101791295D01*
X149304348Y-101783184D01*
X149246922Y-101742974D01*
X149237572Y-101737576D01*
X149041231Y-101646020D01*
X149031097Y-101642332D01*
X148821837Y-101586260D01*
X148811206Y-101584386D01*
X148595395Y-101565506D01*
X148584605Y-101565506D01*
X148368793Y-101584386D01*
X148358162Y-101586260D01*
X148148902Y-101642332D01*
X148138768Y-101646020D01*
X147942419Y-101737579D01*
X147933087Y-101742967D01*
X147755613Y-101867236D01*
X147747358Y-101874163D01*
X147739341Y-101882180D01*
X147692614Y-101911538D01*
X147637777Y-101917715D01*
X147585690Y-101899488D01*
X147546669Y-101860467D01*
X147521006Y-101819624D01*
X147521003Y-101819620D01*
X147518535Y-101815692D01*
X147451313Y-101737579D01*
X147390297Y-101666677D01*
X147390291Y-101666671D01*
X147388782Y-101664917D01*
X146097001Y-100373136D01*
X146093783Y-100369796D01*
X146030778Y-100301892D01*
X146030775Y-100301890D01*
X146027623Y-100298492D01*
X145951584Y-100237853D01*
X145948019Y-100234899D01*
X145908164Y-100200601D01*
X145874308Y-100171465D01*
X145852039Y-100157472D01*
X145840709Y-100149432D01*
X145823784Y-100135935D01*
X145823775Y-100135929D01*
X145820155Y-100133042D01*
X145735934Y-100084417D01*
X145731973Y-100082029D01*
X145653557Y-100032757D01*
X145653543Y-100032749D01*
X145649619Y-100030284D01*
X145645365Y-100028428D01*
X145645350Y-100028420D01*
X145625518Y-100019767D01*
X145613109Y-100013503D01*
X145594369Y-100002684D01*
X145594366Y-100002682D01*
X145590345Y-100000361D01*
X145586026Y-99998666D01*
X145586020Y-99998663D01*
X145499842Y-99964841D01*
X145495558Y-99963067D01*
X145410648Y-99926021D01*
X145410638Y-99926017D01*
X145406399Y-99924168D01*
X145380995Y-99917361D01*
X145367790Y-99913015D01*
X145347649Y-99905110D01*
X145347645Y-99905109D01*
X145343327Y-99903414D01*
X145338804Y-99902381D01*
X145338802Y-99902381D01*
X145278555Y-99888630D01*
X145248503Y-99881770D01*
X145244034Y-99880662D01*
X145150080Y-99855488D01*
X145145481Y-99854969D01*
X145145477Y-99854969D01*
X145123956Y-99852544D01*
X145110254Y-99850216D01*
X145089138Y-99845396D01*
X145089132Y-99845395D01*
X145084619Y-99844365D01*
X145079991Y-99844018D01*
X145079990Y-99844018D01*
X144987639Y-99837097D01*
X144983023Y-99836664D01*
X144890999Y-99826295D01*
X144890990Y-99826294D01*
X144886387Y-99825776D01*
X144881756Y-99825949D01*
X144881750Y-99825949D01*
X144789194Y-99829413D01*
X144784557Y-99829500D01*
X141190721Y-99829500D01*
X141129453Y-99813306D01*
X141084187Y-99768955D01*
X141066747Y-99708030D01*
X141079501Y-99655452D01*
X141077718Y-99654670D01*
X141083883Y-99640613D01*
X141158713Y-99422642D01*
X141161224Y-99412731D01*
X141176144Y-99323320D01*
X141175577Y-99312363D01*
X141164860Y-99310000D01*
X138235140Y-99310000D01*
X138224422Y-99312363D01*
X138223855Y-99323320D01*
X138238775Y-99412731D01*
X138241286Y-99422642D01*
X138316116Y-99640613D01*
X138320219Y-99649968D01*
X138429906Y-99852654D01*
X138435498Y-99861212D01*
X138543324Y-99999746D01*
X138567178Y-100052174D01*
X138564771Y-100109724D01*
X138536622Y-100159977D01*
X138488805Y-100192090D01*
X138465984Y-100200601D01*
X138465974Y-100200606D01*
X138457669Y-100203704D01*
X138450572Y-100209016D01*
X138450568Y-100209019D01*
X138349550Y-100284641D01*
X138349546Y-100284644D01*
X138342454Y-100289954D01*
X138337144Y-100297046D01*
X138337141Y-100297050D01*
X138261519Y-100398068D01*
X138261516Y-100398072D01*
X138256204Y-100405169D01*
X138253104Y-100413478D01*
X138253104Y-100413480D01*
X138208620Y-100532747D01*
X138208619Y-100532750D01*
X138205909Y-100540017D01*
X138205079Y-100547727D01*
X138205079Y-100547732D01*
X138199855Y-100596319D01*
X138199854Y-100596331D01*
X138199500Y-100599627D01*
X138199500Y-100602949D01*
X138199500Y-100619605D01*
X138193991Y-100656154D01*
X138177954Y-100689456D01*
X138165014Y-100708435D01*
X138165010Y-100708440D01*
X138162402Y-100712267D01*
X138160393Y-100716438D01*
X138160391Y-100716442D01*
X138135591Y-100767939D01*
X138131260Y-100776133D01*
X138102683Y-100825631D01*
X138102677Y-100825643D01*
X138100361Y-100829655D01*
X138098669Y-100833964D01*
X138098667Y-100833970D01*
X138077788Y-100887168D01*
X138074081Y-100895663D01*
X138049282Y-100947159D01*
X138049272Y-100947184D01*
X138047266Y-100951350D01*
X138040088Y-100974618D01*
X138029051Y-101010398D01*
X138025991Y-101019144D01*
X138003414Y-101076673D01*
X138002385Y-101081179D01*
X138002380Y-101081197D01*
X137989658Y-101136932D01*
X137987260Y-101145882D01*
X137973204Y-101191453D01*
X137969050Y-101204922D01*
X137968359Y-101209504D01*
X137968358Y-101209510D01*
X137959839Y-101266026D01*
X137958115Y-101275134D01*
X137944365Y-101335381D01*
X137944018Y-101340000D01*
X137944017Y-101340012D01*
X137939745Y-101397015D01*
X137938707Y-101406224D01*
X137930191Y-101462727D01*
X137930189Y-101462741D01*
X137929500Y-101467319D01*
X137929500Y-101471957D01*
X137929500Y-107365500D01*
X137912887Y-107427500D01*
X137867500Y-107472887D01*
X137805500Y-107489500D01*
X129883259Y-107489500D01*
X129864778Y-107488115D01*
X129679514Y-107460191D01*
X129679513Y-107460190D01*
X129674929Y-107459500D01*
X129405071Y-107459500D01*
X129400487Y-107460190D01*
X129400485Y-107460191D01*
X129142813Y-107499028D01*
X129142801Y-107499030D01*
X129138228Y-107499720D01*
X129133806Y-107501083D01*
X129133797Y-107501086D01*
X128884790Y-107577894D01*
X128884775Y-107577899D01*
X128880359Y-107579262D01*
X128876185Y-107581271D01*
X128876180Y-107581274D01*
X128641411Y-107694333D01*
X128641404Y-107694336D01*
X128637226Y-107696349D01*
X128633393Y-107698962D01*
X128633390Y-107698964D01*
X128418090Y-107845752D01*
X128418080Y-107845759D01*
X128414259Y-107848365D01*
X128410863Y-107851516D01*
X128410853Y-107851524D01*
X128219843Y-108028756D01*
X128219839Y-108028759D01*
X128216439Y-108031915D01*
X128213549Y-108035537D01*
X128213546Y-108035542D01*
X128051077Y-108239271D01*
X128048185Y-108242898D01*
X128045866Y-108246913D01*
X128045865Y-108246916D01*
X127915578Y-108472581D01*
X127915575Y-108472586D01*
X127913257Y-108476602D01*
X127911563Y-108480916D01*
X127911561Y-108480922D01*
X127816363Y-108723480D01*
X127814666Y-108727805D01*
X127813633Y-108732326D01*
X127813632Y-108732333D01*
X127755648Y-108986377D01*
X127755646Y-108986385D01*
X127754617Y-108990897D01*
X127734451Y-109260000D01*
X124460500Y-109260000D01*
X124460500Y-105604518D01*
X127740000Y-105604518D01*
X127740353Y-105611114D01*
X127745573Y-105659667D01*
X127749111Y-105674641D01*
X127793547Y-105793777D01*
X127801962Y-105809189D01*
X127877498Y-105910092D01*
X127889907Y-105922501D01*
X127990810Y-105998037D01*
X128006222Y-106006452D01*
X128125358Y-106050888D01*
X128140332Y-106054426D01*
X128188885Y-106059646D01*
X128195482Y-106060000D01*
X129273674Y-106060000D01*
X129286549Y-106056549D01*
X129290000Y-106043674D01*
X129790000Y-106043674D01*
X129793450Y-106056549D01*
X129806326Y-106060000D01*
X130884518Y-106060000D01*
X130891114Y-106059646D01*
X130939667Y-106054426D01*
X130954641Y-106050888D01*
X131073777Y-106006452D01*
X131089189Y-105998037D01*
X131190092Y-105922501D01*
X131202501Y-105910092D01*
X131278037Y-105809189D01*
X131286452Y-105793777D01*
X131330888Y-105674641D01*
X131334426Y-105659667D01*
X131339646Y-105611114D01*
X131340000Y-105604518D01*
X131340000Y-104526326D01*
X131336549Y-104513450D01*
X131323674Y-104510000D01*
X129806326Y-104510000D01*
X129793450Y-104513450D01*
X129790000Y-104526326D01*
X129790000Y-106043674D01*
X129290000Y-106043674D01*
X129290000Y-104526326D01*
X129286549Y-104513450D01*
X129273674Y-104510000D01*
X127756326Y-104510000D01*
X127743450Y-104513450D01*
X127740000Y-104526326D01*
X127740000Y-105604518D01*
X124460500Y-105604518D01*
X124460500Y-103993674D01*
X127740000Y-103993674D01*
X127743450Y-104006549D01*
X127756326Y-104010000D01*
X129273674Y-104010000D01*
X129286549Y-104006549D01*
X129290000Y-103993674D01*
X129790000Y-103993674D01*
X129793450Y-104006549D01*
X129806326Y-104010000D01*
X131323674Y-104010000D01*
X131336549Y-104006549D01*
X131340000Y-103993674D01*
X131340000Y-102915482D01*
X131339646Y-102908885D01*
X131334426Y-102860332D01*
X131330888Y-102845358D01*
X131286452Y-102726222D01*
X131278037Y-102710810D01*
X131202501Y-102609907D01*
X131190092Y-102597498D01*
X131089189Y-102521962D01*
X131073777Y-102513547D01*
X130954641Y-102469111D01*
X130939667Y-102465573D01*
X130891114Y-102460353D01*
X130884518Y-102460000D01*
X129806326Y-102460000D01*
X129793450Y-102463450D01*
X129790000Y-102476326D01*
X129790000Y-103993674D01*
X129290000Y-103993674D01*
X129290000Y-102476326D01*
X129286549Y-102463450D01*
X129273674Y-102460000D01*
X128195482Y-102460000D01*
X128188885Y-102460353D01*
X128140332Y-102465573D01*
X128125358Y-102469111D01*
X128006222Y-102513547D01*
X127990810Y-102521962D01*
X127889907Y-102597498D01*
X127877498Y-102609907D01*
X127801962Y-102710810D01*
X127793547Y-102726222D01*
X127749111Y-102845358D01*
X127745573Y-102860332D01*
X127740353Y-102908885D01*
X127740000Y-102915482D01*
X127740000Y-103993674D01*
X124460500Y-103993674D01*
X124460500Y-95270194D01*
X127439500Y-95270194D01*
X127441049Y-95276983D01*
X127441050Y-95276988D01*
X127448017Y-95307518D01*
X127450345Y-95321218D01*
X127453852Y-95352336D01*
X127454632Y-95359255D01*
X127456929Y-95365821D01*
X127456930Y-95365823D01*
X127467272Y-95395379D01*
X127471119Y-95408735D01*
X127478088Y-95439267D01*
X127478091Y-95439276D01*
X127479640Y-95446061D01*
X127482658Y-95452329D01*
X127482661Y-95452336D01*
X127496250Y-95480554D01*
X127501568Y-95493393D01*
X127514211Y-95529522D01*
X127517912Y-95535412D01*
X127517913Y-95535414D01*
X127534572Y-95561927D01*
X127541296Y-95574093D01*
X127554888Y-95602315D01*
X127557909Y-95608587D01*
X127563099Y-95615095D01*
X127581771Y-95638509D01*
X127589818Y-95649850D01*
X127603523Y-95671662D01*
X127610184Y-95682262D01*
X127615111Y-95687189D01*
X127615112Y-95687190D01*
X128203181Y-96275259D01*
X128230061Y-96315487D01*
X128239500Y-96362940D01*
X128239500Y-97324560D01*
X128239500Y-97324578D01*
X128239501Y-97327872D01*
X128239853Y-97331150D01*
X128239854Y-97331161D01*
X128245079Y-97379768D01*
X128245080Y-97379773D01*
X128245909Y-97387483D01*
X128248619Y-97394749D01*
X128248620Y-97394753D01*
X128272457Y-97458663D01*
X128296204Y-97522331D01*
X128382454Y-97637546D01*
X128497669Y-97723796D01*
X128632517Y-97774091D01*
X128692127Y-97780500D01*
X130387872Y-97780499D01*
X130447483Y-97774091D01*
X130582331Y-97723796D01*
X130697546Y-97637546D01*
X130783796Y-97522331D01*
X130828987Y-97401166D01*
X130855426Y-97358931D01*
X130896356Y-97330512D01*
X130945169Y-97320500D01*
X138373691Y-97320500D01*
X138428151Y-97333100D01*
X138471541Y-97368335D01*
X138579829Y-97507463D01*
X138583596Y-97510930D01*
X138583599Y-97510934D01*
X138721137Y-97637546D01*
X138756990Y-97670551D01*
X138781384Y-97686488D01*
X138822618Y-97731278D01*
X138837565Y-97790295D01*
X138822621Y-97849313D01*
X138781389Y-97894105D01*
X138761589Y-97907041D01*
X138753527Y-97913315D01*
X138583966Y-98069408D01*
X138577053Y-98076918D01*
X138435498Y-98258787D01*
X138429906Y-98267345D01*
X138320219Y-98470031D01*
X138316116Y-98479386D01*
X138241286Y-98697357D01*
X138238775Y-98707268D01*
X138223855Y-98796679D01*
X138224422Y-98807636D01*
X138235140Y-98810000D01*
X141164860Y-98810000D01*
X141175577Y-98807636D01*
X141176144Y-98796679D01*
X141161224Y-98707268D01*
X141158713Y-98697357D01*
X141083883Y-98479386D01*
X141079780Y-98470031D01*
X140970093Y-98267345D01*
X140964501Y-98258787D01*
X140822946Y-98076918D01*
X140816033Y-98069408D01*
X140646471Y-97913314D01*
X140638409Y-97907039D01*
X140618614Y-97894107D01*
X140577380Y-97849315D01*
X140562435Y-97790297D01*
X140577381Y-97731279D01*
X140618615Y-97686488D01*
X140643010Y-97670551D01*
X140820171Y-97507463D01*
X140928458Y-97368335D01*
X140971849Y-97333100D01*
X141026309Y-97320500D01*
X144903233Y-97320500D01*
X144910194Y-97320500D01*
X144947523Y-97311979D01*
X144961197Y-97309655D01*
X144999255Y-97305368D01*
X145035403Y-97292718D01*
X145048726Y-97288881D01*
X145086061Y-97280360D01*
X145120546Y-97263752D01*
X145133398Y-97258429D01*
X145169522Y-97245789D01*
X145201939Y-97225418D01*
X145214086Y-97218705D01*
X145248587Y-97202091D01*
X145278519Y-97178220D01*
X145289853Y-97170179D01*
X145322262Y-97149816D01*
X145449816Y-97022262D01*
X145449816Y-97022261D01*
X145885259Y-96586817D01*
X145925487Y-96559938D01*
X145972940Y-96550499D01*
X146934561Y-96550499D01*
X146937872Y-96550499D01*
X146997483Y-96544091D01*
X147132331Y-96493796D01*
X147247546Y-96407546D01*
X147306568Y-96328703D01*
X147868217Y-96328703D01*
X147875650Y-96336814D01*
X147933077Y-96377025D01*
X147942427Y-96382423D01*
X148138768Y-96473979D01*
X148148902Y-96477667D01*
X148358162Y-96533739D01*
X148368793Y-96535613D01*
X148584605Y-96554494D01*
X148595395Y-96554494D01*
X148811206Y-96535613D01*
X148821837Y-96533739D01*
X149031097Y-96477667D01*
X149041231Y-96473979D01*
X149237575Y-96382422D01*
X149246920Y-96377026D01*
X149304348Y-96336814D01*
X149311780Y-96328703D01*
X149305867Y-96319421D01*
X149243125Y-96256679D01*
X158543855Y-96256679D01*
X158544422Y-96267636D01*
X158555140Y-96270000D01*
X159753674Y-96270000D01*
X159766549Y-96266549D01*
X159770000Y-96253674D01*
X160270000Y-96253674D01*
X160273450Y-96266549D01*
X160286326Y-96270000D01*
X161484860Y-96270000D01*
X161495577Y-96267636D01*
X161496144Y-96256679D01*
X161481224Y-96167268D01*
X161478713Y-96157357D01*
X161444663Y-96058172D01*
X165920811Y-96058172D01*
X165928881Y-96069373D01*
X166100474Y-96203808D01*
X166106626Y-96208054D01*
X166379748Y-96373163D01*
X166386368Y-96376637D01*
X166677410Y-96507625D01*
X166684386Y-96510270D01*
X166989092Y-96605221D01*
X166996348Y-96607009D01*
X167310267Y-96664537D01*
X167317697Y-96665439D01*
X167636264Y-96684709D01*
X167643736Y-96684709D01*
X167962302Y-96665439D01*
X167969732Y-96664537D01*
X168283651Y-96607009D01*
X168290907Y-96605221D01*
X168595613Y-96510270D01*
X168602589Y-96507625D01*
X168893631Y-96376637D01*
X168900251Y-96373163D01*
X169173369Y-96208057D01*
X169179534Y-96203801D01*
X169351117Y-96069374D01*
X169359187Y-96058172D01*
X169352526Y-96046079D01*
X167651542Y-94345095D01*
X167640000Y-94338431D01*
X167628457Y-94345095D01*
X165927472Y-96046079D01*
X165920811Y-96058172D01*
X161444663Y-96058172D01*
X161403883Y-95939386D01*
X161399780Y-95930031D01*
X161290093Y-95727345D01*
X161284501Y-95718787D01*
X161142946Y-95536918D01*
X161136033Y-95529408D01*
X160966471Y-95373314D01*
X160958414Y-95367043D01*
X160765471Y-95240988D01*
X160756488Y-95236126D01*
X160545438Y-95143552D01*
X160535771Y-95140233D01*
X160312362Y-95083658D01*
X160302284Y-95081976D01*
X160287136Y-95080721D01*
X160273719Y-95083342D01*
X160270000Y-95096496D01*
X160270000Y-96253674D01*
X159770000Y-96253674D01*
X159770000Y-95096496D01*
X159766280Y-95083342D01*
X159752863Y-95080721D01*
X159737715Y-95081976D01*
X159727637Y-95083658D01*
X159504228Y-95140233D01*
X159494561Y-95143552D01*
X159283511Y-95236126D01*
X159274528Y-95240988D01*
X159081585Y-95367043D01*
X159073528Y-95373314D01*
X158903966Y-95529408D01*
X158897053Y-95536918D01*
X158755498Y-95718787D01*
X158749906Y-95727345D01*
X158640219Y-95930031D01*
X158636116Y-95939386D01*
X158561286Y-96157357D01*
X158558775Y-96167268D01*
X158543855Y-96256679D01*
X149243125Y-96256679D01*
X148601542Y-95615095D01*
X148589999Y-95608431D01*
X148578457Y-95615095D01*
X147874128Y-96319424D01*
X147868217Y-96328703D01*
X147306568Y-96328703D01*
X147333796Y-96292331D01*
X147384091Y-96157483D01*
X147390500Y-96097873D01*
X147390499Y-96094548D01*
X147390678Y-96091232D01*
X147391954Y-96091300D01*
X147404460Y-96039950D01*
X147443333Y-95995567D01*
X147498317Y-95974172D01*
X147509946Y-95972641D01*
X147520574Y-95965870D01*
X148224903Y-95261542D01*
X148231567Y-95250000D01*
X148231566Y-95249999D01*
X148948431Y-95249999D01*
X148955095Y-95261541D01*
X149659421Y-95965867D01*
X149668703Y-95971780D01*
X149676814Y-95964348D01*
X149717026Y-95906920D01*
X149722422Y-95897575D01*
X149813979Y-95701231D01*
X149817667Y-95691097D01*
X149873739Y-95481837D01*
X149875613Y-95471206D01*
X149894494Y-95255395D01*
X149894494Y-95244605D01*
X149875613Y-95028793D01*
X149873739Y-95018162D01*
X149817667Y-94808902D01*
X149813979Y-94798768D01*
X149722423Y-94602427D01*
X149717025Y-94593077D01*
X149676814Y-94535650D01*
X149668703Y-94528217D01*
X149659424Y-94534128D01*
X148955095Y-95238456D01*
X148948431Y-95249999D01*
X148231566Y-95249999D01*
X148224903Y-95238457D01*
X147520574Y-94534128D01*
X147509943Y-94527356D01*
X147498314Y-94525825D01*
X147443376Y-94504461D01*
X147404510Y-94460143D01*
X147391920Y-94408695D01*
X147390677Y-94408762D01*
X147390499Y-94405441D01*
X147390499Y-94402128D01*
X147384091Y-94342517D01*
X147333796Y-94207669D01*
X147306567Y-94171296D01*
X147868217Y-94171296D01*
X147874128Y-94180574D01*
X148578457Y-94884903D01*
X148590000Y-94891567D01*
X148601542Y-94884903D01*
X149305870Y-94180574D01*
X149311781Y-94171295D01*
X149304348Y-94163184D01*
X149246922Y-94122974D01*
X149237572Y-94117576D01*
X149041231Y-94026020D01*
X149031097Y-94022332D01*
X148821837Y-93966260D01*
X148811206Y-93964386D01*
X148595395Y-93945506D01*
X148584605Y-93945506D01*
X148368793Y-93964386D01*
X148358162Y-93966260D01*
X148148902Y-94022332D01*
X148138768Y-94026020D01*
X147942425Y-94117577D01*
X147933081Y-94122971D01*
X147875651Y-94163183D01*
X147868217Y-94171296D01*
X147306567Y-94171296D01*
X147247546Y-94092454D01*
X147132331Y-94006204D01*
X147031126Y-93968457D01*
X147004752Y-93958620D01*
X147004750Y-93958619D01*
X146997483Y-93955909D01*
X146989770Y-93955079D01*
X146989767Y-93955079D01*
X146941180Y-93949855D01*
X146941169Y-93949854D01*
X146937873Y-93949500D01*
X146934550Y-93949500D01*
X145245439Y-93949500D01*
X145245420Y-93949500D01*
X145242128Y-93949501D01*
X145238850Y-93949853D01*
X145238838Y-93949854D01*
X145190231Y-93955079D01*
X145190225Y-93955080D01*
X145182517Y-93955909D01*
X145175252Y-93958618D01*
X145175246Y-93958620D01*
X145055980Y-94003104D01*
X145055978Y-94003104D01*
X145047669Y-94006204D01*
X145040572Y-94011516D01*
X145040568Y-94011519D01*
X144939550Y-94087141D01*
X144939546Y-94087144D01*
X144932454Y-94092454D01*
X144927144Y-94099546D01*
X144927141Y-94099550D01*
X144851519Y-94200568D01*
X144851516Y-94200572D01*
X144846204Y-94207669D01*
X144843104Y-94215978D01*
X144843104Y-94215980D01*
X144798620Y-94335247D01*
X144798619Y-94335250D01*
X144795909Y-94342517D01*
X144795079Y-94350227D01*
X144795079Y-94350232D01*
X144789855Y-94398819D01*
X144789854Y-94398831D01*
X144789500Y-94402127D01*
X144789500Y-94405449D01*
X144789500Y-95367059D01*
X144780061Y-95414512D01*
X144753181Y-95454740D01*
X144524741Y-95683181D01*
X144484513Y-95710061D01*
X144437060Y-95719500D01*
X141026309Y-95719500D01*
X140971849Y-95706900D01*
X140928458Y-95671664D01*
X140820171Y-95532537D01*
X140816403Y-95529068D01*
X140816400Y-95529065D01*
X140646779Y-95372918D01*
X140646774Y-95372914D01*
X140643010Y-95369449D01*
X140638726Y-95366650D01*
X140638722Y-95366647D01*
X140501488Y-95276988D01*
X140441422Y-95237745D01*
X140436732Y-95235688D01*
X140436727Y-95235685D01*
X140225601Y-95143077D01*
X140225602Y-95143077D01*
X140220905Y-95141017D01*
X140215935Y-95139758D01*
X140215934Y-95139758D01*
X139992450Y-95083164D01*
X139992443Y-95083162D01*
X139987476Y-95081905D01*
X139982364Y-95081481D01*
X139982356Y-95081480D01*
X139810166Y-95067212D01*
X139810150Y-95067211D01*
X139807600Y-95067000D01*
X139592400Y-95067000D01*
X139589850Y-95067211D01*
X139589833Y-95067212D01*
X139417643Y-95081480D01*
X139417633Y-95081481D01*
X139412524Y-95081905D01*
X139407558Y-95083162D01*
X139407549Y-95083164D01*
X139184065Y-95139758D01*
X139184060Y-95139759D01*
X139179095Y-95141017D01*
X139174401Y-95143075D01*
X139174398Y-95143077D01*
X138963272Y-95235685D01*
X138963262Y-95235690D01*
X138958578Y-95237745D01*
X138954290Y-95240546D01*
X138954289Y-95240547D01*
X138761277Y-95366647D01*
X138761267Y-95366654D01*
X138756990Y-95369449D01*
X138753230Y-95372909D01*
X138753220Y-95372918D01*
X138583599Y-95529065D01*
X138583590Y-95529074D01*
X138579829Y-95532537D01*
X138471541Y-95671664D01*
X138428151Y-95706900D01*
X138373691Y-95719500D01*
X130961276Y-95719500D01*
X130903148Y-95705031D01*
X130858585Y-95665001D01*
X130837986Y-95608752D01*
X130837968Y-95608587D01*
X130834091Y-95572517D01*
X130783796Y-95437669D01*
X130697546Y-95322454D01*
X130582331Y-95236204D01*
X130447483Y-95185909D01*
X130439770Y-95185079D01*
X130439767Y-95185079D01*
X130391180Y-95179855D01*
X130391169Y-95179854D01*
X130387873Y-95179500D01*
X130384554Y-95179500D01*
X130381232Y-95179322D01*
X130381298Y-95178077D01*
X130329856Y-95165489D01*
X130285538Y-95126623D01*
X130264174Y-95071684D01*
X130262643Y-95060057D01*
X130255867Y-95049421D01*
X129274127Y-94067681D01*
X129242033Y-94012093D01*
X129242033Y-93980000D01*
X129898431Y-93980000D01*
X129905095Y-93991542D01*
X130609421Y-94695867D01*
X130618703Y-94701780D01*
X130626814Y-94694348D01*
X130667026Y-94636920D01*
X130672422Y-94627575D01*
X130763979Y-94431231D01*
X130767667Y-94421097D01*
X130823739Y-94211837D01*
X130825613Y-94201206D01*
X130844494Y-93985395D01*
X130844494Y-93974605D01*
X130825613Y-93758793D01*
X130823739Y-93748162D01*
X130767667Y-93538902D01*
X130763979Y-93528768D01*
X130672423Y-93332427D01*
X130667025Y-93323077D01*
X130626814Y-93265650D01*
X130618703Y-93258217D01*
X130609424Y-93264128D01*
X129905095Y-93968457D01*
X129898431Y-93980000D01*
X129242033Y-93980000D01*
X129242033Y-93947906D01*
X129274127Y-93892319D01*
X129540000Y-93626447D01*
X130255870Y-92910574D01*
X130261781Y-92901295D01*
X130254348Y-92893184D01*
X130196922Y-92852974D01*
X130187572Y-92847576D01*
X129991231Y-92756020D01*
X129981097Y-92752332D01*
X129771837Y-92696260D01*
X129761206Y-92694386D01*
X129545395Y-92675506D01*
X129534605Y-92675506D01*
X129318793Y-92694386D01*
X129308162Y-92696260D01*
X129196594Y-92726156D01*
X129140309Y-92727998D01*
X129089014Y-92704757D01*
X129053288Y-92661225D01*
X129040500Y-92606381D01*
X129040500Y-90324500D01*
X129057113Y-90262500D01*
X129102500Y-90217113D01*
X129164500Y-90200500D01*
X130352820Y-90200499D01*
X130387872Y-90200499D01*
X130447483Y-90194091D01*
X130582331Y-90143796D01*
X130697546Y-90057546D01*
X130783796Y-89942331D01*
X130834091Y-89807483D01*
X130837862Y-89772400D01*
X130858240Y-89716483D01*
X130902329Y-89676499D01*
X130959970Y-89661665D01*
X131017884Y-89675398D01*
X131062725Y-89714535D01*
X131079953Y-89739139D01*
X131240861Y-89900047D01*
X131427266Y-90030568D01*
X131633504Y-90126739D01*
X131638734Y-90128140D01*
X131638736Y-90128141D01*
X131814285Y-90175179D01*
X131853308Y-90185635D01*
X132080000Y-90205468D01*
X132306692Y-90185635D01*
X132526496Y-90126739D01*
X132732734Y-90030568D01*
X132919139Y-89900047D01*
X133080047Y-89739139D01*
X133210568Y-89552734D01*
X133237618Y-89494724D01*
X133283375Y-89442549D01*
X133350000Y-89423130D01*
X133416625Y-89442549D01*
X133462381Y-89494724D01*
X133489432Y-89552734D01*
X133619953Y-89739139D01*
X133780861Y-89900047D01*
X133967266Y-90030568D01*
X134173504Y-90126739D01*
X134178734Y-90128140D01*
X134178736Y-90128141D01*
X134354285Y-90175179D01*
X134393308Y-90185635D01*
X134620000Y-90205468D01*
X134846692Y-90185635D01*
X135066496Y-90126739D01*
X135272734Y-90030568D01*
X135459139Y-89900047D01*
X135620047Y-89739139D01*
X135750568Y-89552734D01*
X135777894Y-89494131D01*
X135823649Y-89441959D01*
X135890274Y-89422539D01*
X135956899Y-89441958D01*
X136002657Y-89494134D01*
X136027579Y-89547579D01*
X136032967Y-89556912D01*
X136157232Y-89734381D01*
X136164169Y-89742647D01*
X136317352Y-89895830D01*
X136325618Y-89902767D01*
X136503087Y-90027032D01*
X136512419Y-90032420D01*
X136708765Y-90123977D01*
X136718907Y-90127669D01*
X136896219Y-90175179D01*
X136907448Y-90175547D01*
X136910000Y-90164605D01*
X136910000Y-87635395D01*
X136907448Y-87624452D01*
X136896219Y-87624820D01*
X136718907Y-87672330D01*
X136708765Y-87676022D01*
X136512419Y-87767579D01*
X136503087Y-87772967D01*
X136325618Y-87897232D01*
X136317352Y-87904169D01*
X136164169Y-88057352D01*
X136157232Y-88065618D01*
X136032967Y-88243087D01*
X136027581Y-88252416D01*
X136002657Y-88305866D01*
X135956899Y-88358041D01*
X135890274Y-88377460D01*
X135823649Y-88358040D01*
X135777893Y-88305864D01*
X135752860Y-88252180D01*
X135752856Y-88252173D01*
X135750568Y-88247266D01*
X135620047Y-88060861D01*
X135459139Y-87899953D01*
X135272734Y-87769432D01*
X135066496Y-87673261D01*
X135061271Y-87671861D01*
X135061263Y-87671858D01*
X134851916Y-87615764D01*
X134851907Y-87615762D01*
X134846692Y-87614365D01*
X134841304Y-87613893D01*
X134841301Y-87613893D01*
X134625395Y-87595004D01*
X134620000Y-87594532D01*
X134614605Y-87595004D01*
X134398698Y-87613893D01*
X134398693Y-87613893D01*
X134393308Y-87614365D01*
X134388094Y-87615762D01*
X134388083Y-87615764D01*
X134178736Y-87671858D01*
X134178724Y-87671862D01*
X134173504Y-87673261D01*
X134168599Y-87675547D01*
X134168594Y-87675550D01*
X133972176Y-87767142D01*
X133972172Y-87767144D01*
X133967266Y-87769432D01*
X133962833Y-87772535D01*
X133962826Y-87772540D01*
X133785296Y-87896847D01*
X133785291Y-87896850D01*
X133780861Y-87899953D01*
X133777037Y-87903776D01*
X133777031Y-87903782D01*
X133623782Y-88057031D01*
X133623776Y-88057037D01*
X133619953Y-88060861D01*
X133616850Y-88065291D01*
X133616847Y-88065296D01*
X133492540Y-88242826D01*
X133492535Y-88242833D01*
X133489432Y-88247266D01*
X133487148Y-88252163D01*
X133487141Y-88252176D01*
X133462382Y-88305274D01*
X133416625Y-88357450D01*
X133350000Y-88376869D01*
X133283375Y-88357450D01*
X133237618Y-88305274D01*
X133212858Y-88252176D01*
X133212855Y-88252172D01*
X133210568Y-88247266D01*
X133080047Y-88060861D01*
X132919139Y-87899953D01*
X132732734Y-87769432D01*
X132526496Y-87673261D01*
X132521271Y-87671861D01*
X132521263Y-87671858D01*
X132311916Y-87615764D01*
X132311907Y-87615762D01*
X132306692Y-87614365D01*
X132301304Y-87613893D01*
X132301301Y-87613893D01*
X132085395Y-87595004D01*
X132080000Y-87594532D01*
X132074605Y-87595004D01*
X131858698Y-87613893D01*
X131858693Y-87613893D01*
X131853308Y-87614365D01*
X131848094Y-87615762D01*
X131848083Y-87615764D01*
X131638736Y-87671858D01*
X131638724Y-87671862D01*
X131633504Y-87673261D01*
X131628599Y-87675547D01*
X131628594Y-87675550D01*
X131432176Y-87767142D01*
X131432172Y-87767144D01*
X131427266Y-87769432D01*
X131422833Y-87772535D01*
X131422826Y-87772540D01*
X131245296Y-87896847D01*
X131245291Y-87896850D01*
X131240861Y-87899953D01*
X131237037Y-87903776D01*
X131237031Y-87903782D01*
X131083782Y-88057031D01*
X131083776Y-88057037D01*
X131079953Y-88060861D01*
X131076849Y-88065293D01*
X131076849Y-88065294D01*
X131062725Y-88085465D01*
X131017882Y-88124602D01*
X130959968Y-88138334D01*
X130902327Y-88123499D01*
X130858239Y-88083514D01*
X130837861Y-88027591D01*
X130834920Y-88000232D01*
X130834091Y-87992517D01*
X130783796Y-87857669D01*
X130697546Y-87742454D01*
X130638442Y-87698209D01*
X130589431Y-87661519D01*
X130589430Y-87661518D01*
X130582331Y-87656204D01*
X130498186Y-87624820D01*
X130454752Y-87608620D01*
X130454750Y-87608619D01*
X130447483Y-87605909D01*
X130439770Y-87605079D01*
X130439767Y-87605079D01*
X130391180Y-87599855D01*
X130391169Y-87599854D01*
X130387873Y-87599500D01*
X130384550Y-87599500D01*
X130352707Y-87599500D01*
X129164499Y-87599500D01*
X129102500Y-87582888D01*
X129057113Y-87537501D01*
X129040500Y-87475501D01*
X129040500Y-75342940D01*
X129049939Y-75295487D01*
X129076816Y-75255261D01*
X129339676Y-74992400D01*
X129384943Y-74963563D01*
X129438158Y-74956557D01*
X129540000Y-74965468D01*
X129766692Y-74945635D01*
X129986496Y-74886739D01*
X130192734Y-74790568D01*
X130379139Y-74660047D01*
X130540047Y-74499139D01*
X130670568Y-74312734D01*
X130697894Y-74254131D01*
X130743649Y-74201959D01*
X130810274Y-74182539D01*
X130876899Y-74201958D01*
X130922657Y-74254134D01*
X130947579Y-74307579D01*
X130952967Y-74316912D01*
X131077232Y-74494381D01*
X131084169Y-74502647D01*
X131237352Y-74655830D01*
X131245618Y-74662767D01*
X131423087Y-74787032D01*
X131432419Y-74792420D01*
X131628765Y-74883977D01*
X131638907Y-74887669D01*
X131816219Y-74935179D01*
X131827448Y-74935547D01*
X131830000Y-74924605D01*
X132330000Y-74924605D01*
X132332551Y-74935547D01*
X132343780Y-74935179D01*
X132521092Y-74887669D01*
X132531234Y-74883977D01*
X132727580Y-74792420D01*
X132736912Y-74787032D01*
X132914381Y-74662767D01*
X132922647Y-74655830D01*
X133075830Y-74502647D01*
X133082767Y-74494381D01*
X133207032Y-74316912D01*
X133212417Y-74307585D01*
X133237341Y-74254135D01*
X133283098Y-74201959D01*
X133349723Y-74182539D01*
X133416349Y-74201958D01*
X133462106Y-74254134D01*
X133487141Y-74307823D01*
X133487144Y-74307828D01*
X133489432Y-74312734D01*
X133492539Y-74317171D01*
X133492540Y-74317173D01*
X133501652Y-74330186D01*
X133619953Y-74499139D01*
X133780861Y-74660047D01*
X133967266Y-74790568D01*
X134173504Y-74886739D01*
X134178734Y-74888140D01*
X134178736Y-74888141D01*
X134324951Y-74927319D01*
X134393308Y-74945635D01*
X134620000Y-74965468D01*
X134846692Y-74945635D01*
X135066496Y-74886739D01*
X135272734Y-74790568D01*
X135459139Y-74660047D01*
X135620047Y-74499139D01*
X135750568Y-74312734D01*
X135777618Y-74254724D01*
X135823375Y-74202549D01*
X135890000Y-74183130D01*
X135956625Y-74202549D01*
X136002381Y-74254724D01*
X136029432Y-74312734D01*
X136032539Y-74317171D01*
X136032540Y-74317173D01*
X136041652Y-74330186D01*
X136159953Y-74499139D01*
X136320861Y-74660047D01*
X136507266Y-74790568D01*
X136713504Y-74886739D01*
X136718734Y-74888140D01*
X136718736Y-74888141D01*
X136864951Y-74927319D01*
X136933308Y-74945635D01*
X137160000Y-74965468D01*
X137386692Y-74945635D01*
X137606496Y-74886739D01*
X137812734Y-74790568D01*
X137999139Y-74660047D01*
X138160047Y-74499139D01*
X138290568Y-74312734D01*
X138317618Y-74254724D01*
X138363375Y-74202549D01*
X138430000Y-74183130D01*
X138496625Y-74202549D01*
X138542381Y-74254724D01*
X138569432Y-74312734D01*
X138572539Y-74317171D01*
X138572540Y-74317173D01*
X138581652Y-74330186D01*
X138699953Y-74499139D01*
X138860861Y-74660047D01*
X139047266Y-74790568D01*
X139253504Y-74886739D01*
X139258734Y-74888140D01*
X139258736Y-74888141D01*
X139404951Y-74927319D01*
X139473308Y-74945635D01*
X139700000Y-74965468D01*
X139926692Y-74945635D01*
X140146496Y-74886739D01*
X140352734Y-74790568D01*
X140539139Y-74660047D01*
X140700047Y-74499139D01*
X140830568Y-74312734D01*
X140857618Y-74254724D01*
X140903375Y-74202549D01*
X140970000Y-74183130D01*
X141036625Y-74202549D01*
X141082381Y-74254724D01*
X141109432Y-74312734D01*
X141112539Y-74317171D01*
X141112540Y-74317173D01*
X141121652Y-74330186D01*
X141239953Y-74499139D01*
X141400861Y-74660047D01*
X141587266Y-74790568D01*
X141793504Y-74886739D01*
X141798734Y-74888140D01*
X141798736Y-74888141D01*
X141944951Y-74927319D01*
X142013308Y-74945635D01*
X142240000Y-74965468D01*
X142466692Y-74945635D01*
X142686496Y-74886739D01*
X142892734Y-74790568D01*
X143079139Y-74660047D01*
X143240047Y-74499139D01*
X143370568Y-74312734D01*
X143397618Y-74254724D01*
X143443375Y-74202549D01*
X143510000Y-74183130D01*
X143576625Y-74202549D01*
X143622381Y-74254724D01*
X143649432Y-74312734D01*
X143652539Y-74317171D01*
X143652540Y-74317173D01*
X143661652Y-74330186D01*
X143779953Y-74499139D01*
X143940861Y-74660047D01*
X144127266Y-74790568D01*
X144333504Y-74886739D01*
X144338734Y-74888140D01*
X144338736Y-74888141D01*
X144484951Y-74927319D01*
X144553308Y-74945635D01*
X144780000Y-74965468D01*
X145006692Y-74945635D01*
X145226496Y-74886739D01*
X145432734Y-74790568D01*
X145619139Y-74660047D01*
X145780047Y-74499139D01*
X145910568Y-74312734D01*
X145937618Y-74254724D01*
X145983375Y-74202549D01*
X146050000Y-74183130D01*
X146116625Y-74202549D01*
X146162381Y-74254724D01*
X146189432Y-74312734D01*
X146192539Y-74317171D01*
X146192540Y-74317173D01*
X146201652Y-74330186D01*
X146319953Y-74499139D01*
X146480861Y-74660047D01*
X146667266Y-74790568D01*
X146873504Y-74886739D01*
X146878734Y-74888140D01*
X146878736Y-74888141D01*
X147024951Y-74927319D01*
X147093308Y-74945635D01*
X147320000Y-74965468D01*
X147546692Y-74945635D01*
X147766496Y-74886739D01*
X147972734Y-74790568D01*
X148159139Y-74660047D01*
X148320047Y-74499139D01*
X148450568Y-74312734D01*
X148477618Y-74254724D01*
X148523375Y-74202549D01*
X148590000Y-74183130D01*
X148656625Y-74202549D01*
X148702381Y-74254724D01*
X148729432Y-74312734D01*
X148732539Y-74317171D01*
X148732540Y-74317173D01*
X148741652Y-74330186D01*
X148859953Y-74499139D01*
X149020861Y-74660047D01*
X149207266Y-74790568D01*
X149413504Y-74886739D01*
X149418734Y-74888140D01*
X149418736Y-74888141D01*
X149564951Y-74927319D01*
X149633308Y-74945635D01*
X149860000Y-74965468D01*
X150086692Y-74945635D01*
X150306496Y-74886739D01*
X150473095Y-74809051D01*
X150533610Y-74797699D01*
X150592125Y-74816853D01*
X150634214Y-74861791D01*
X150649500Y-74921434D01*
X150649500Y-87638566D01*
X150634214Y-87698209D01*
X150592125Y-87743147D01*
X150533610Y-87762301D01*
X150473095Y-87750948D01*
X150311405Y-87675550D01*
X150311403Y-87675549D01*
X150306496Y-87673261D01*
X150301271Y-87671861D01*
X150301263Y-87671858D01*
X150091916Y-87615764D01*
X150091907Y-87615762D01*
X150086692Y-87614365D01*
X150081304Y-87613893D01*
X150081301Y-87613893D01*
X149865395Y-87595004D01*
X149860000Y-87594532D01*
X149854605Y-87595004D01*
X149638698Y-87613893D01*
X149638693Y-87613893D01*
X149633308Y-87614365D01*
X149628094Y-87615762D01*
X149628083Y-87615764D01*
X149418736Y-87671858D01*
X149418724Y-87671862D01*
X149413504Y-87673261D01*
X149408599Y-87675547D01*
X149408594Y-87675550D01*
X149212176Y-87767142D01*
X149212172Y-87767144D01*
X149207266Y-87769432D01*
X149202833Y-87772535D01*
X149202826Y-87772540D01*
X149025296Y-87896847D01*
X149025291Y-87896850D01*
X149020861Y-87899953D01*
X149017037Y-87903776D01*
X149017031Y-87903782D01*
X148863782Y-88057031D01*
X148863776Y-88057037D01*
X148859953Y-88060861D01*
X148856850Y-88065291D01*
X148856847Y-88065296D01*
X148732540Y-88242826D01*
X148732535Y-88242833D01*
X148729432Y-88247266D01*
X148727148Y-88252163D01*
X148727141Y-88252176D01*
X148702382Y-88305274D01*
X148656625Y-88357450D01*
X148590000Y-88376869D01*
X148523375Y-88357450D01*
X148477618Y-88305274D01*
X148452858Y-88252176D01*
X148452855Y-88252172D01*
X148450568Y-88247266D01*
X148320047Y-88060861D01*
X148159139Y-87899953D01*
X147972734Y-87769432D01*
X147766496Y-87673261D01*
X147761271Y-87671861D01*
X147761263Y-87671858D01*
X147551916Y-87615764D01*
X147551907Y-87615762D01*
X147546692Y-87614365D01*
X147541304Y-87613893D01*
X147541301Y-87613893D01*
X147325395Y-87595004D01*
X147320000Y-87594532D01*
X147314605Y-87595004D01*
X147098698Y-87613893D01*
X147098693Y-87613893D01*
X147093308Y-87614365D01*
X147088094Y-87615762D01*
X147088083Y-87615764D01*
X146878736Y-87671858D01*
X146878724Y-87671862D01*
X146873504Y-87673261D01*
X146868599Y-87675547D01*
X146868594Y-87675550D01*
X146672176Y-87767142D01*
X146672172Y-87767144D01*
X146667266Y-87769432D01*
X146662833Y-87772535D01*
X146662826Y-87772540D01*
X146485296Y-87896847D01*
X146485291Y-87896850D01*
X146480861Y-87899953D01*
X146477037Y-87903776D01*
X146477031Y-87903782D01*
X146323782Y-88057031D01*
X146323776Y-88057037D01*
X146319953Y-88060861D01*
X146316850Y-88065291D01*
X146316847Y-88065296D01*
X146192540Y-88242826D01*
X146192535Y-88242833D01*
X146189432Y-88247266D01*
X146187148Y-88252163D01*
X146187141Y-88252176D01*
X146162382Y-88305274D01*
X146116625Y-88357450D01*
X146050000Y-88376869D01*
X145983375Y-88357450D01*
X145937618Y-88305274D01*
X145912858Y-88252176D01*
X145912855Y-88252172D01*
X145910568Y-88247266D01*
X145780047Y-88060861D01*
X145619139Y-87899953D01*
X145432734Y-87769432D01*
X145226496Y-87673261D01*
X145221271Y-87671861D01*
X145221263Y-87671858D01*
X145011916Y-87615764D01*
X145011907Y-87615762D01*
X145006692Y-87614365D01*
X145001304Y-87613893D01*
X145001301Y-87613893D01*
X144785395Y-87595004D01*
X144780000Y-87594532D01*
X144774605Y-87595004D01*
X144558698Y-87613893D01*
X144558693Y-87613893D01*
X144553308Y-87614365D01*
X144548094Y-87615762D01*
X144548083Y-87615764D01*
X144338736Y-87671858D01*
X144338724Y-87671862D01*
X144333504Y-87673261D01*
X144328599Y-87675547D01*
X144328594Y-87675550D01*
X144132176Y-87767142D01*
X144132172Y-87767144D01*
X144127266Y-87769432D01*
X144122833Y-87772535D01*
X144122826Y-87772540D01*
X143945296Y-87896847D01*
X143945291Y-87896850D01*
X143940861Y-87899953D01*
X143937037Y-87903776D01*
X143937031Y-87903782D01*
X143783782Y-88057031D01*
X143783776Y-88057037D01*
X143779953Y-88060861D01*
X143776850Y-88065291D01*
X143776847Y-88065296D01*
X143652540Y-88242826D01*
X143652535Y-88242833D01*
X143649432Y-88247266D01*
X143647148Y-88252163D01*
X143647141Y-88252176D01*
X143622382Y-88305274D01*
X143576625Y-88357450D01*
X143510000Y-88376869D01*
X143443375Y-88357450D01*
X143397618Y-88305274D01*
X143372858Y-88252176D01*
X143372855Y-88252172D01*
X143370568Y-88247266D01*
X143240047Y-88060861D01*
X143079139Y-87899953D01*
X142892734Y-87769432D01*
X142686496Y-87673261D01*
X142681271Y-87671861D01*
X142681263Y-87671858D01*
X142471916Y-87615764D01*
X142471907Y-87615762D01*
X142466692Y-87614365D01*
X142461304Y-87613893D01*
X142461301Y-87613893D01*
X142245395Y-87595004D01*
X142240000Y-87594532D01*
X142234605Y-87595004D01*
X142018698Y-87613893D01*
X142018693Y-87613893D01*
X142013308Y-87614365D01*
X142008094Y-87615762D01*
X142008083Y-87615764D01*
X141798736Y-87671858D01*
X141798724Y-87671862D01*
X141793504Y-87673261D01*
X141788599Y-87675547D01*
X141788594Y-87675550D01*
X141592176Y-87767142D01*
X141592172Y-87767144D01*
X141587266Y-87769432D01*
X141582833Y-87772535D01*
X141582826Y-87772540D01*
X141405296Y-87896847D01*
X141405291Y-87896850D01*
X141400861Y-87899953D01*
X141397037Y-87903776D01*
X141397031Y-87903782D01*
X141243782Y-88057031D01*
X141243776Y-88057037D01*
X141239953Y-88060861D01*
X141236850Y-88065291D01*
X141236847Y-88065296D01*
X141112540Y-88242826D01*
X141112535Y-88242833D01*
X141109432Y-88247266D01*
X141107148Y-88252163D01*
X141107141Y-88252176D01*
X141082382Y-88305274D01*
X141036625Y-88357450D01*
X140970000Y-88376869D01*
X140903375Y-88357450D01*
X140857618Y-88305274D01*
X140832858Y-88252176D01*
X140832855Y-88252172D01*
X140830568Y-88247266D01*
X140700047Y-88060861D01*
X140539139Y-87899953D01*
X140352734Y-87769432D01*
X140146496Y-87673261D01*
X140141271Y-87671861D01*
X140141263Y-87671858D01*
X139931916Y-87615764D01*
X139931907Y-87615762D01*
X139926692Y-87614365D01*
X139921304Y-87613893D01*
X139921301Y-87613893D01*
X139705395Y-87595004D01*
X139700000Y-87594532D01*
X139694605Y-87595004D01*
X139478698Y-87613893D01*
X139478693Y-87613893D01*
X139473308Y-87614365D01*
X139468094Y-87615762D01*
X139468083Y-87615764D01*
X139258736Y-87671858D01*
X139258724Y-87671862D01*
X139253504Y-87673261D01*
X139248599Y-87675547D01*
X139248594Y-87675550D01*
X139052176Y-87767142D01*
X139052172Y-87767144D01*
X139047266Y-87769432D01*
X139042833Y-87772535D01*
X139042826Y-87772540D01*
X138865296Y-87896847D01*
X138865291Y-87896850D01*
X138860861Y-87899953D01*
X138857037Y-87903776D01*
X138857031Y-87903782D01*
X138703782Y-88057031D01*
X138703776Y-88057037D01*
X138699953Y-88060861D01*
X138696850Y-88065291D01*
X138696847Y-88065296D01*
X138572540Y-88242826D01*
X138572535Y-88242833D01*
X138569432Y-88247266D01*
X138567027Y-88252423D01*
X138542106Y-88305866D01*
X138496348Y-88358041D01*
X138429723Y-88377460D01*
X138363098Y-88358040D01*
X138317342Y-88305864D01*
X138292422Y-88252423D01*
X138287032Y-88243087D01*
X138162767Y-88065618D01*
X138155830Y-88057352D01*
X138002647Y-87904169D01*
X137994381Y-87897232D01*
X137816912Y-87772967D01*
X137807580Y-87767579D01*
X137611234Y-87676022D01*
X137601092Y-87672330D01*
X137423780Y-87624820D01*
X137412551Y-87624452D01*
X137410000Y-87635395D01*
X137410000Y-90164605D01*
X137412551Y-90175547D01*
X137423780Y-90175179D01*
X137601092Y-90127669D01*
X137611234Y-90123977D01*
X137807580Y-90032420D01*
X137816912Y-90027032D01*
X137994381Y-89902767D01*
X138002647Y-89895830D01*
X138155830Y-89742647D01*
X138162767Y-89734381D01*
X138287032Y-89556912D01*
X138292417Y-89547585D01*
X138317341Y-89494135D01*
X138363098Y-89441959D01*
X138429723Y-89422539D01*
X138496349Y-89441958D01*
X138542106Y-89494134D01*
X138567141Y-89547823D01*
X138567144Y-89547828D01*
X138569432Y-89552734D01*
X138699953Y-89739139D01*
X138860861Y-89900047D01*
X139047266Y-90030568D01*
X139253504Y-90126739D01*
X139258734Y-90128140D01*
X139258736Y-90128141D01*
X139434285Y-90175179D01*
X139473308Y-90185635D01*
X139700000Y-90205468D01*
X139926692Y-90185635D01*
X140146496Y-90126739D01*
X140352734Y-90030568D01*
X140539139Y-89900047D01*
X140700047Y-89739139D01*
X140830568Y-89552734D01*
X140857618Y-89494724D01*
X140903375Y-89442549D01*
X140970000Y-89423130D01*
X141036625Y-89442549D01*
X141082381Y-89494724D01*
X141109432Y-89552734D01*
X141239953Y-89739139D01*
X141400861Y-89900047D01*
X141587266Y-90030568D01*
X141793504Y-90126739D01*
X141798734Y-90128140D01*
X141798736Y-90128141D01*
X141974285Y-90175179D01*
X142013308Y-90185635D01*
X142240000Y-90205468D01*
X142466692Y-90185635D01*
X142686496Y-90126739D01*
X142892734Y-90030568D01*
X143079139Y-89900047D01*
X143240047Y-89739139D01*
X143370568Y-89552734D01*
X143397618Y-89494724D01*
X143443375Y-89442549D01*
X143510000Y-89423130D01*
X143576625Y-89442549D01*
X143622381Y-89494724D01*
X143649432Y-89552734D01*
X143779953Y-89739139D01*
X143940861Y-89900047D01*
X144127266Y-90030568D01*
X144333504Y-90126739D01*
X144338734Y-90128140D01*
X144338736Y-90128141D01*
X144514285Y-90175179D01*
X144553308Y-90185635D01*
X144780000Y-90205468D01*
X145006692Y-90185635D01*
X145226496Y-90126739D01*
X145432734Y-90030568D01*
X145619139Y-89900047D01*
X145780047Y-89739139D01*
X145910568Y-89552734D01*
X145937618Y-89494724D01*
X145983375Y-89442549D01*
X146050000Y-89423130D01*
X146116625Y-89442549D01*
X146162381Y-89494724D01*
X146189432Y-89552734D01*
X146319953Y-89739139D01*
X146480861Y-89900047D01*
X146667266Y-90030568D01*
X146873504Y-90126739D01*
X146878734Y-90128140D01*
X146878736Y-90128141D01*
X147054285Y-90175179D01*
X147093308Y-90185635D01*
X147320000Y-90205468D01*
X147546692Y-90185635D01*
X147766496Y-90126739D01*
X147972734Y-90030568D01*
X148159139Y-89900047D01*
X148320047Y-89739139D01*
X148450568Y-89552734D01*
X148477618Y-89494724D01*
X148523375Y-89442549D01*
X148590000Y-89423130D01*
X148656625Y-89442549D01*
X148702381Y-89494724D01*
X148729432Y-89552734D01*
X148859953Y-89739139D01*
X149020861Y-89900047D01*
X149207266Y-90030568D01*
X149413504Y-90126739D01*
X149418734Y-90128140D01*
X149418736Y-90128141D01*
X149594285Y-90175179D01*
X149633308Y-90185635D01*
X149860000Y-90205468D01*
X150086692Y-90185635D01*
X150306496Y-90126739D01*
X150473095Y-90049051D01*
X150533610Y-90037699D01*
X150592125Y-90056853D01*
X150634214Y-90101791D01*
X150649500Y-90161434D01*
X150649500Y-91998885D01*
X150633921Y-92057027D01*
X150634432Y-92057266D01*
X150632147Y-92062164D01*
X150632144Y-92062171D01*
X150540550Y-92258594D01*
X150540547Y-92258599D01*
X150538261Y-92263504D01*
X150536862Y-92268724D01*
X150536858Y-92268736D01*
X150480764Y-92478083D01*
X150480762Y-92478094D01*
X150479365Y-92483308D01*
X150459532Y-92710000D01*
X150460004Y-92715395D01*
X150475558Y-92893184D01*
X150479365Y-92936692D01*
X150480762Y-92941907D01*
X150480764Y-92941916D01*
X150536858Y-93151263D01*
X150536861Y-93151271D01*
X150538261Y-93156496D01*
X150634432Y-93362734D01*
X150764953Y-93549139D01*
X150925861Y-93710047D01*
X151112266Y-93840568D01*
X151318504Y-93936739D01*
X151323734Y-93938140D01*
X151323736Y-93938141D01*
X151523033Y-93991542D01*
X151538308Y-93995635D01*
X151765000Y-94015468D01*
X151991692Y-93995635D01*
X152211496Y-93936739D01*
X152417734Y-93840568D01*
X152491806Y-93788703D01*
X154218217Y-93788703D01*
X154225650Y-93796814D01*
X154283077Y-93837025D01*
X154292427Y-93842423D01*
X154488768Y-93933979D01*
X154498902Y-93937667D01*
X154708162Y-93993739D01*
X154718793Y-93995613D01*
X154934605Y-94014494D01*
X154945395Y-94014494D01*
X155161206Y-93995613D01*
X155171837Y-93993739D01*
X155209168Y-93983736D01*
X164935291Y-93983736D01*
X164954560Y-94302302D01*
X164955462Y-94309732D01*
X165012990Y-94623651D01*
X165014778Y-94630907D01*
X165109729Y-94935613D01*
X165112374Y-94942589D01*
X165243362Y-95233631D01*
X165246836Y-95240251D01*
X165411945Y-95513373D01*
X165416191Y-95519525D01*
X165550625Y-95691117D01*
X165561826Y-95699187D01*
X165573919Y-95692526D01*
X167274904Y-93991542D01*
X167281568Y-93980000D01*
X167998431Y-93980000D01*
X168005095Y-93991542D01*
X169706079Y-95692526D01*
X169718172Y-95699187D01*
X169729374Y-95691117D01*
X169863801Y-95519534D01*
X169868057Y-95513369D01*
X170033163Y-95240251D01*
X170036637Y-95233631D01*
X170167625Y-94942589D01*
X170170270Y-94935613D01*
X170265221Y-94630907D01*
X170267009Y-94623651D01*
X170324537Y-94309732D01*
X170325439Y-94302302D01*
X170344709Y-93983736D01*
X170344709Y-93976264D01*
X170325439Y-93657697D01*
X170324537Y-93650267D01*
X170267009Y-93336348D01*
X170265221Y-93329092D01*
X170170270Y-93024386D01*
X170167625Y-93017410D01*
X170036637Y-92726368D01*
X170033163Y-92719748D01*
X169868054Y-92446626D01*
X169863808Y-92440474D01*
X169729373Y-92268881D01*
X169718172Y-92260811D01*
X169706079Y-92267472D01*
X168005095Y-93968457D01*
X167998431Y-93980000D01*
X167281568Y-93980000D01*
X167274904Y-93968457D01*
X165573919Y-92267472D01*
X165561826Y-92260811D01*
X165550626Y-92268879D01*
X165416191Y-92440474D01*
X165411945Y-92446626D01*
X165246836Y-92719748D01*
X165243362Y-92726368D01*
X165112374Y-93017410D01*
X165109729Y-93024386D01*
X165014778Y-93329092D01*
X165012990Y-93336348D01*
X164955462Y-93650267D01*
X164954560Y-93657697D01*
X164935291Y-93976264D01*
X164935291Y-93983736D01*
X155209168Y-93983736D01*
X155381097Y-93937667D01*
X155391231Y-93933979D01*
X155587575Y-93842422D01*
X155596920Y-93837026D01*
X155654348Y-93796814D01*
X155661780Y-93788703D01*
X155655867Y-93779421D01*
X154951542Y-93075095D01*
X154940000Y-93068431D01*
X154928457Y-93075095D01*
X154224128Y-93779424D01*
X154218217Y-93788703D01*
X152491806Y-93788703D01*
X152604139Y-93710047D01*
X152765047Y-93549139D01*
X152895568Y-93362734D01*
X152991739Y-93156496D01*
X153050635Y-92936692D01*
X153069996Y-92715395D01*
X153635506Y-92715395D01*
X153654386Y-92931206D01*
X153656260Y-92941837D01*
X153712332Y-93151097D01*
X153716020Y-93161231D01*
X153807576Y-93357572D01*
X153812974Y-93366922D01*
X153853184Y-93424348D01*
X153861295Y-93431781D01*
X153870574Y-93425870D01*
X154574903Y-92721542D01*
X154581567Y-92710000D01*
X155298431Y-92710000D01*
X155305095Y-92721542D01*
X156009421Y-93425867D01*
X156018703Y-93431780D01*
X156026814Y-93424348D01*
X156067026Y-93366920D01*
X156072422Y-93357575D01*
X156163979Y-93161231D01*
X156167667Y-93151097D01*
X156223739Y-92941837D01*
X156225613Y-92931206D01*
X156244494Y-92715395D01*
X156244494Y-92704605D01*
X156225613Y-92488793D01*
X156223739Y-92478162D01*
X156167667Y-92268902D01*
X156163979Y-92258768D01*
X156072423Y-92062427D01*
X156067025Y-92053077D01*
X156026814Y-91995650D01*
X156018703Y-91988217D01*
X156009424Y-91994128D01*
X155305095Y-92698457D01*
X155298431Y-92710000D01*
X154581567Y-92710000D01*
X154574903Y-92698457D01*
X153870574Y-91994128D01*
X153861296Y-91988217D01*
X153853183Y-91995651D01*
X153812971Y-92053081D01*
X153807577Y-92062425D01*
X153716020Y-92258768D01*
X153712332Y-92268902D01*
X153656260Y-92478162D01*
X153654386Y-92488793D01*
X153635506Y-92704605D01*
X153635506Y-92715395D01*
X153069996Y-92715395D01*
X153070468Y-92710000D01*
X153050635Y-92483308D01*
X152991739Y-92263504D01*
X152895568Y-92057266D01*
X152765047Y-91870861D01*
X152604139Y-91709953D01*
X152491804Y-91631296D01*
X154218217Y-91631296D01*
X154224128Y-91640574D01*
X154928457Y-92344903D01*
X154939999Y-92351567D01*
X154951542Y-92344903D01*
X155394618Y-91901826D01*
X165920811Y-91901826D01*
X165927472Y-91913919D01*
X167628457Y-93614904D01*
X167640000Y-93621568D01*
X167651542Y-93614904D01*
X169352526Y-91913919D01*
X169359187Y-91901826D01*
X169351117Y-91890625D01*
X169179525Y-91756191D01*
X169173373Y-91751945D01*
X168900251Y-91586836D01*
X168893631Y-91583362D01*
X168602589Y-91452374D01*
X168595613Y-91449729D01*
X168290907Y-91354778D01*
X168283651Y-91352990D01*
X167969732Y-91295462D01*
X167962302Y-91294560D01*
X167643736Y-91275291D01*
X167636264Y-91275291D01*
X167317697Y-91294560D01*
X167310267Y-91295462D01*
X166996348Y-91352990D01*
X166989092Y-91354778D01*
X166684386Y-91449729D01*
X166677410Y-91452374D01*
X166386368Y-91583362D01*
X166379748Y-91586836D01*
X166106626Y-91751945D01*
X166100474Y-91756191D01*
X165928879Y-91890626D01*
X165920811Y-91901826D01*
X155394618Y-91901826D01*
X155655870Y-91640574D01*
X155661781Y-91631295D01*
X155654348Y-91623184D01*
X155596922Y-91582974D01*
X155587572Y-91577576D01*
X155391231Y-91486020D01*
X155381097Y-91482332D01*
X155171837Y-91426260D01*
X155161206Y-91424386D01*
X154945395Y-91405506D01*
X154934605Y-91405506D01*
X154718793Y-91424386D01*
X154708162Y-91426260D01*
X154498902Y-91482332D01*
X154488768Y-91486020D01*
X154292425Y-91577577D01*
X154283081Y-91582971D01*
X154225651Y-91623183D01*
X154218217Y-91631296D01*
X152491804Y-91631296D01*
X152480219Y-91623184D01*
X152422173Y-91582540D01*
X152422171Y-91582539D01*
X152417734Y-91579432D01*
X152211496Y-91483261D01*
X152206271Y-91481861D01*
X152206263Y-91481858D01*
X152064007Y-91443741D01*
X151992405Y-91424556D01*
X151944795Y-91399772D01*
X151912118Y-91357187D01*
X151900500Y-91304782D01*
X151900500Y-90274136D01*
X151913288Y-90219292D01*
X151949014Y-90175760D01*
X152000309Y-90152519D01*
X152056590Y-90154360D01*
X152173308Y-90185635D01*
X152400000Y-90205468D01*
X152626692Y-90185635D01*
X152846496Y-90126739D01*
X153052734Y-90030568D01*
X153239139Y-89900047D01*
X153400047Y-89739139D01*
X153530568Y-89552734D01*
X153557618Y-89494724D01*
X153603375Y-89442549D01*
X153670000Y-89423130D01*
X153736625Y-89442549D01*
X153782381Y-89494724D01*
X153809432Y-89552734D01*
X153939953Y-89739139D01*
X154100861Y-89900047D01*
X154287266Y-90030568D01*
X154493504Y-90126739D01*
X154498734Y-90128140D01*
X154498736Y-90128141D01*
X154674285Y-90175179D01*
X154713308Y-90185635D01*
X154940000Y-90205468D01*
X155166692Y-90185635D01*
X155386496Y-90126739D01*
X155592734Y-90030568D01*
X155779139Y-89900047D01*
X155940047Y-89739139D01*
X156070568Y-89552734D01*
X156097618Y-89494724D01*
X156143375Y-89442549D01*
X156210000Y-89423130D01*
X156276625Y-89442549D01*
X156322381Y-89494724D01*
X156349432Y-89552734D01*
X156479953Y-89739139D01*
X156640861Y-89900047D01*
X156827266Y-90030568D01*
X157033504Y-90126739D01*
X157038734Y-90128140D01*
X157038736Y-90128141D01*
X157214285Y-90175179D01*
X157253308Y-90185635D01*
X157480000Y-90205468D01*
X157706692Y-90185635D01*
X157926496Y-90126739D01*
X158132734Y-90030568D01*
X158319139Y-89900047D01*
X158480047Y-89739139D01*
X158610568Y-89552734D01*
X158637618Y-89494724D01*
X158683375Y-89442549D01*
X158750000Y-89423130D01*
X158816625Y-89442549D01*
X158862381Y-89494724D01*
X158889432Y-89552734D01*
X159019953Y-89739139D01*
X159180861Y-89900047D01*
X159367266Y-90030568D01*
X159573504Y-90126739D01*
X159578734Y-90128140D01*
X159578736Y-90128141D01*
X159754285Y-90175179D01*
X159793308Y-90185635D01*
X160020000Y-90205468D01*
X160246692Y-90185635D01*
X160466496Y-90126739D01*
X160672734Y-90030568D01*
X160859139Y-89900047D01*
X161020047Y-89739139D01*
X161150568Y-89552734D01*
X161177618Y-89494724D01*
X161223375Y-89442549D01*
X161290000Y-89423130D01*
X161356625Y-89442549D01*
X161402381Y-89494724D01*
X161429432Y-89552734D01*
X161559953Y-89739139D01*
X161720861Y-89900047D01*
X161907266Y-90030568D01*
X162113504Y-90126739D01*
X162118734Y-90128140D01*
X162118736Y-90128141D01*
X162294285Y-90175179D01*
X162333308Y-90185635D01*
X162560000Y-90205468D01*
X162786692Y-90185635D01*
X163006496Y-90126739D01*
X163212734Y-90030568D01*
X163399139Y-89900047D01*
X163560047Y-89739139D01*
X163690568Y-89552734D01*
X163717618Y-89494724D01*
X163763375Y-89442549D01*
X163830000Y-89423130D01*
X163896625Y-89442549D01*
X163942381Y-89494724D01*
X163969432Y-89552734D01*
X164099953Y-89739139D01*
X164260861Y-89900047D01*
X164447266Y-90030568D01*
X164653504Y-90126739D01*
X164658734Y-90128140D01*
X164658736Y-90128141D01*
X164834285Y-90175179D01*
X164873308Y-90185635D01*
X165100000Y-90205468D01*
X165326692Y-90185635D01*
X165546496Y-90126739D01*
X165752734Y-90030568D01*
X165939139Y-89900047D01*
X166100047Y-89739139D01*
X166230568Y-89552734D01*
X166326739Y-89346496D01*
X166385635Y-89126692D01*
X166405468Y-88900000D01*
X166385635Y-88673308D01*
X166326739Y-88453504D01*
X166230568Y-88247266D01*
X166100047Y-88060861D01*
X165939139Y-87899953D01*
X165752734Y-87769432D01*
X165546496Y-87673261D01*
X165541271Y-87671861D01*
X165541263Y-87671858D01*
X165331916Y-87615764D01*
X165331907Y-87615762D01*
X165326692Y-87614365D01*
X165321304Y-87613893D01*
X165321301Y-87613893D01*
X165105395Y-87595004D01*
X165100000Y-87594532D01*
X165094605Y-87595004D01*
X164878698Y-87613893D01*
X164878693Y-87613893D01*
X164873308Y-87614365D01*
X164868094Y-87615762D01*
X164868083Y-87615764D01*
X164658736Y-87671858D01*
X164658724Y-87671862D01*
X164653504Y-87673261D01*
X164648599Y-87675547D01*
X164648594Y-87675550D01*
X164452176Y-87767142D01*
X164452172Y-87767144D01*
X164447266Y-87769432D01*
X164442833Y-87772535D01*
X164442826Y-87772540D01*
X164265296Y-87896847D01*
X164265291Y-87896850D01*
X164260861Y-87899953D01*
X164257037Y-87903776D01*
X164257031Y-87903782D01*
X164103782Y-88057031D01*
X164103776Y-88057037D01*
X164099953Y-88060861D01*
X164096850Y-88065291D01*
X164096847Y-88065296D01*
X163972540Y-88242826D01*
X163972535Y-88242833D01*
X163969432Y-88247266D01*
X163967148Y-88252163D01*
X163967141Y-88252176D01*
X163942382Y-88305274D01*
X163896625Y-88357450D01*
X163830000Y-88376869D01*
X163763375Y-88357450D01*
X163717618Y-88305274D01*
X163692858Y-88252176D01*
X163692855Y-88252172D01*
X163690568Y-88247266D01*
X163560047Y-88060861D01*
X163399139Y-87899953D01*
X163212734Y-87769432D01*
X163006496Y-87673261D01*
X163001271Y-87671861D01*
X163001263Y-87671858D01*
X162791916Y-87615764D01*
X162791907Y-87615762D01*
X162786692Y-87614365D01*
X162781304Y-87613893D01*
X162781301Y-87613893D01*
X162565395Y-87595004D01*
X162560000Y-87594532D01*
X162554605Y-87595004D01*
X162338698Y-87613893D01*
X162338693Y-87613893D01*
X162333308Y-87614365D01*
X162328094Y-87615762D01*
X162328083Y-87615764D01*
X162118736Y-87671858D01*
X162118724Y-87671862D01*
X162113504Y-87673261D01*
X162108599Y-87675547D01*
X162108594Y-87675550D01*
X161912176Y-87767142D01*
X161912172Y-87767144D01*
X161907266Y-87769432D01*
X161902833Y-87772535D01*
X161902826Y-87772540D01*
X161725296Y-87896847D01*
X161725291Y-87896850D01*
X161720861Y-87899953D01*
X161717037Y-87903776D01*
X161717031Y-87903782D01*
X161563782Y-88057031D01*
X161563776Y-88057037D01*
X161559953Y-88060861D01*
X161556850Y-88065291D01*
X161556847Y-88065296D01*
X161432540Y-88242826D01*
X161432535Y-88242833D01*
X161429432Y-88247266D01*
X161427148Y-88252163D01*
X161427141Y-88252176D01*
X161402382Y-88305274D01*
X161356625Y-88357450D01*
X161290000Y-88376869D01*
X161223375Y-88357450D01*
X161177618Y-88305274D01*
X161152858Y-88252176D01*
X161152855Y-88252172D01*
X161150568Y-88247266D01*
X161020047Y-88060861D01*
X160859139Y-87899953D01*
X160672734Y-87769432D01*
X160466496Y-87673261D01*
X160461271Y-87671861D01*
X160461263Y-87671858D01*
X160251916Y-87615764D01*
X160251907Y-87615762D01*
X160246692Y-87614365D01*
X160241304Y-87613893D01*
X160241301Y-87613893D01*
X160025395Y-87595004D01*
X160020000Y-87594532D01*
X160014605Y-87595004D01*
X159798698Y-87613893D01*
X159798693Y-87613893D01*
X159793308Y-87614365D01*
X159788094Y-87615762D01*
X159788083Y-87615764D01*
X159578736Y-87671858D01*
X159578724Y-87671862D01*
X159573504Y-87673261D01*
X159568599Y-87675547D01*
X159568594Y-87675550D01*
X159372176Y-87767142D01*
X159372172Y-87767144D01*
X159367266Y-87769432D01*
X159362833Y-87772535D01*
X159362826Y-87772540D01*
X159185296Y-87896847D01*
X159185291Y-87896850D01*
X159180861Y-87899953D01*
X159177037Y-87903776D01*
X159177031Y-87903782D01*
X159023782Y-88057031D01*
X159023776Y-88057037D01*
X159019953Y-88060861D01*
X159016850Y-88065291D01*
X159016847Y-88065296D01*
X158892540Y-88242826D01*
X158892535Y-88242833D01*
X158889432Y-88247266D01*
X158887148Y-88252163D01*
X158887141Y-88252176D01*
X158862382Y-88305274D01*
X158816625Y-88357450D01*
X158750000Y-88376869D01*
X158683375Y-88357450D01*
X158637618Y-88305274D01*
X158612858Y-88252176D01*
X158612855Y-88252172D01*
X158610568Y-88247266D01*
X158480047Y-88060861D01*
X158319139Y-87899953D01*
X158132734Y-87769432D01*
X157926496Y-87673261D01*
X157921271Y-87671861D01*
X157921263Y-87671858D01*
X157711916Y-87615764D01*
X157711907Y-87615762D01*
X157706692Y-87614365D01*
X157701304Y-87613893D01*
X157701301Y-87613893D01*
X157485395Y-87595004D01*
X157480000Y-87594532D01*
X157474605Y-87595004D01*
X157258698Y-87613893D01*
X157258693Y-87613893D01*
X157253308Y-87614365D01*
X157248094Y-87615762D01*
X157248083Y-87615764D01*
X157038736Y-87671858D01*
X157038724Y-87671862D01*
X157033504Y-87673261D01*
X157028599Y-87675547D01*
X157028594Y-87675550D01*
X156832176Y-87767142D01*
X156832172Y-87767144D01*
X156827266Y-87769432D01*
X156822833Y-87772535D01*
X156822826Y-87772540D01*
X156645296Y-87896847D01*
X156645291Y-87896850D01*
X156640861Y-87899953D01*
X156637037Y-87903776D01*
X156637031Y-87903782D01*
X156483782Y-88057031D01*
X156483776Y-88057037D01*
X156479953Y-88060861D01*
X156476850Y-88065291D01*
X156476847Y-88065296D01*
X156352540Y-88242826D01*
X156352535Y-88242833D01*
X156349432Y-88247266D01*
X156347148Y-88252163D01*
X156347141Y-88252176D01*
X156322382Y-88305274D01*
X156276625Y-88357450D01*
X156210000Y-88376869D01*
X156143375Y-88357450D01*
X156097618Y-88305274D01*
X156072858Y-88252176D01*
X156072855Y-88252172D01*
X156070568Y-88247266D01*
X155940047Y-88060861D01*
X155779139Y-87899953D01*
X155592734Y-87769432D01*
X155386496Y-87673261D01*
X155381271Y-87671861D01*
X155381263Y-87671858D01*
X155171916Y-87615764D01*
X155171907Y-87615762D01*
X155166692Y-87614365D01*
X155161304Y-87613893D01*
X155161301Y-87613893D01*
X154945395Y-87595004D01*
X154940000Y-87594532D01*
X154934605Y-87595004D01*
X154718698Y-87613893D01*
X154718693Y-87613893D01*
X154713308Y-87614365D01*
X154708094Y-87615762D01*
X154708083Y-87615764D01*
X154498736Y-87671858D01*
X154498724Y-87671862D01*
X154493504Y-87673261D01*
X154488599Y-87675547D01*
X154488594Y-87675550D01*
X154292176Y-87767142D01*
X154292172Y-87767144D01*
X154287266Y-87769432D01*
X154282833Y-87772535D01*
X154282826Y-87772540D01*
X154105296Y-87896847D01*
X154105291Y-87896850D01*
X154100861Y-87899953D01*
X154097037Y-87903776D01*
X154097031Y-87903782D01*
X153943782Y-88057031D01*
X153943776Y-88057037D01*
X153939953Y-88060861D01*
X153936850Y-88065291D01*
X153936847Y-88065296D01*
X153812540Y-88242826D01*
X153812535Y-88242833D01*
X153809432Y-88247266D01*
X153807148Y-88252163D01*
X153807141Y-88252176D01*
X153782382Y-88305274D01*
X153736625Y-88357450D01*
X153670000Y-88376869D01*
X153603375Y-88357450D01*
X153557618Y-88305274D01*
X153532858Y-88252176D01*
X153532855Y-88252172D01*
X153530568Y-88247266D01*
X153400047Y-88060861D01*
X153239139Y-87899953D01*
X153052734Y-87769432D01*
X152846496Y-87673261D01*
X152841271Y-87671861D01*
X152841263Y-87671858D01*
X152631916Y-87615764D01*
X152631907Y-87615762D01*
X152626692Y-87614365D01*
X152621304Y-87613893D01*
X152621301Y-87613893D01*
X152405395Y-87595004D01*
X152400000Y-87594532D01*
X152394605Y-87595004D01*
X152178698Y-87613893D01*
X152178693Y-87613893D01*
X152173308Y-87614365D01*
X152168088Y-87615763D01*
X152168086Y-87615764D01*
X152142215Y-87622696D01*
X152056590Y-87645639D01*
X152000309Y-87647481D01*
X151949014Y-87624240D01*
X151913288Y-87580708D01*
X151900500Y-87525864D01*
X151900500Y-75095452D01*
X151909939Y-75048000D01*
X151936818Y-75007772D01*
X151952186Y-74992404D01*
X151985178Y-74959411D01*
X152040764Y-74927318D01*
X152104951Y-74927318D01*
X152134286Y-74935179D01*
X152168078Y-74944234D01*
X152168082Y-74944234D01*
X152173308Y-74945635D01*
X152400000Y-74965468D01*
X152626692Y-74945635D01*
X152846496Y-74886739D01*
X153052734Y-74790568D01*
X153239139Y-74660047D01*
X153400047Y-74499139D01*
X153530568Y-74312734D01*
X153557618Y-74254724D01*
X153603375Y-74202549D01*
X153670000Y-74183130D01*
X153736625Y-74202549D01*
X153782381Y-74254724D01*
X153809432Y-74312734D01*
X153812539Y-74317171D01*
X153812540Y-74317173D01*
X153821652Y-74330186D01*
X153939953Y-74499139D01*
X154100861Y-74660047D01*
X154287266Y-74790568D01*
X154493504Y-74886739D01*
X154498734Y-74888140D01*
X154498736Y-74888141D01*
X154644951Y-74927319D01*
X154713308Y-74945635D01*
X154940000Y-74965468D01*
X155166692Y-74945635D01*
X155386496Y-74886739D01*
X155592734Y-74790568D01*
X155779139Y-74660047D01*
X155940047Y-74499139D01*
X156070568Y-74312734D01*
X156097618Y-74254724D01*
X156143375Y-74202549D01*
X156210000Y-74183130D01*
X156276625Y-74202549D01*
X156322381Y-74254724D01*
X156349432Y-74312734D01*
X156352539Y-74317171D01*
X156352540Y-74317173D01*
X156361652Y-74330186D01*
X156479953Y-74499139D01*
X156640861Y-74660047D01*
X156827266Y-74790568D01*
X157033504Y-74886739D01*
X157038734Y-74888140D01*
X157038736Y-74888141D01*
X157184951Y-74927319D01*
X157253308Y-74945635D01*
X157480000Y-74965468D01*
X157706692Y-74945635D01*
X157926496Y-74886739D01*
X158132734Y-74790568D01*
X158319139Y-74660047D01*
X158480047Y-74499139D01*
X158610568Y-74312734D01*
X158637618Y-74254724D01*
X158683375Y-74202549D01*
X158750000Y-74183130D01*
X158816625Y-74202549D01*
X158862381Y-74254724D01*
X158889432Y-74312734D01*
X158892539Y-74317171D01*
X158892540Y-74317173D01*
X158901652Y-74330186D01*
X159019953Y-74499139D01*
X159180861Y-74660047D01*
X159367266Y-74790568D01*
X159573504Y-74886739D01*
X159578734Y-74888140D01*
X159578736Y-74888141D01*
X159724951Y-74927319D01*
X159793308Y-74945635D01*
X160020000Y-74965468D01*
X160246692Y-74945635D01*
X160466496Y-74886739D01*
X160672734Y-74790568D01*
X160859139Y-74660047D01*
X161020047Y-74499139D01*
X161150568Y-74312734D01*
X161177618Y-74254724D01*
X161223375Y-74202549D01*
X161290000Y-74183130D01*
X161356625Y-74202549D01*
X161402381Y-74254724D01*
X161429432Y-74312734D01*
X161432539Y-74317171D01*
X161432540Y-74317173D01*
X161441652Y-74330186D01*
X161559953Y-74499139D01*
X161720861Y-74660047D01*
X161907266Y-74790568D01*
X162113504Y-74886739D01*
X162118734Y-74888140D01*
X162118736Y-74888141D01*
X162264951Y-74927319D01*
X162333308Y-74945635D01*
X162560000Y-74965468D01*
X162786692Y-74945635D01*
X163006496Y-74886739D01*
X163212734Y-74790568D01*
X163399139Y-74660047D01*
X163560047Y-74499139D01*
X163690568Y-74312734D01*
X163717618Y-74254724D01*
X163763375Y-74202549D01*
X163830000Y-74183130D01*
X163896625Y-74202549D01*
X163942381Y-74254724D01*
X163969432Y-74312734D01*
X163972539Y-74317171D01*
X163972540Y-74317173D01*
X163981652Y-74330186D01*
X164099953Y-74499139D01*
X164260861Y-74660047D01*
X164447266Y-74790568D01*
X164653504Y-74886739D01*
X164658734Y-74888140D01*
X164658736Y-74888141D01*
X164804951Y-74927319D01*
X164873308Y-74945635D01*
X165100000Y-74965468D01*
X165326692Y-74945635D01*
X165546496Y-74886739D01*
X165752734Y-74790568D01*
X165939139Y-74660047D01*
X166100047Y-74499139D01*
X166230568Y-74312734D01*
X166326739Y-74106496D01*
X166385635Y-73886692D01*
X166405468Y-73660000D01*
X166385635Y-73433308D01*
X166326739Y-73213504D01*
X166230568Y-73007266D01*
X166100047Y-72820861D01*
X165939139Y-72659953D01*
X165752734Y-72529432D01*
X165546496Y-72433261D01*
X165541271Y-72431861D01*
X165541263Y-72431858D01*
X165331916Y-72375764D01*
X165331907Y-72375762D01*
X165326692Y-72374365D01*
X165321304Y-72373893D01*
X165321301Y-72373893D01*
X165105395Y-72355004D01*
X165100000Y-72354532D01*
X165094605Y-72355004D01*
X164878698Y-72373893D01*
X164878693Y-72373893D01*
X164873308Y-72374365D01*
X164868094Y-72375762D01*
X164868083Y-72375764D01*
X164658736Y-72431858D01*
X164658724Y-72431862D01*
X164653504Y-72433261D01*
X164648599Y-72435547D01*
X164648594Y-72435550D01*
X164452176Y-72527142D01*
X164452172Y-72527144D01*
X164447266Y-72529432D01*
X164442833Y-72532535D01*
X164442826Y-72532540D01*
X164265296Y-72656847D01*
X164265291Y-72656850D01*
X164260861Y-72659953D01*
X164257037Y-72663776D01*
X164257031Y-72663782D01*
X164103782Y-72817031D01*
X164103776Y-72817037D01*
X164099953Y-72820861D01*
X164096850Y-72825291D01*
X164096847Y-72825296D01*
X163972540Y-73002826D01*
X163972535Y-73002833D01*
X163969432Y-73007266D01*
X163967148Y-73012163D01*
X163967141Y-73012176D01*
X163942382Y-73065274D01*
X163896625Y-73117450D01*
X163830000Y-73136869D01*
X163763375Y-73117450D01*
X163717618Y-73065274D01*
X163692858Y-73012176D01*
X163692855Y-73012172D01*
X163690568Y-73007266D01*
X163560047Y-72820861D01*
X163399139Y-72659953D01*
X163212734Y-72529432D01*
X163006496Y-72433261D01*
X163001271Y-72431861D01*
X163001263Y-72431858D01*
X162791916Y-72375764D01*
X162791907Y-72375762D01*
X162786692Y-72374365D01*
X162781304Y-72373893D01*
X162781301Y-72373893D01*
X162565395Y-72355004D01*
X162560000Y-72354532D01*
X162554605Y-72355004D01*
X162338698Y-72373893D01*
X162338693Y-72373893D01*
X162333308Y-72374365D01*
X162328090Y-72375762D01*
X162328079Y-72375765D01*
X162264950Y-72392680D01*
X162200763Y-72392680D01*
X162145177Y-72360586D01*
X161951819Y-72167228D01*
X161924939Y-72127000D01*
X161915500Y-72079547D01*
X161915500Y-71064188D01*
X161929511Y-71006931D01*
X161968377Y-70962613D01*
X162005222Y-70936814D01*
X162129139Y-70850047D01*
X162290047Y-70689139D01*
X162420568Y-70502734D01*
X162516739Y-70296496D01*
X162575635Y-70076692D01*
X162595468Y-69850000D01*
X162575635Y-69623308D01*
X162538550Y-69484903D01*
X162518141Y-69408736D01*
X162518140Y-69408734D01*
X162516739Y-69403504D01*
X162420568Y-69197266D01*
X162290047Y-69010861D01*
X162129139Y-68849953D01*
X162005219Y-68763184D01*
X161968377Y-68737387D01*
X161929511Y-68693069D01*
X161915500Y-68635812D01*
X161915500Y-67620452D01*
X161924939Y-67572999D01*
X161946470Y-67540776D01*
X165005307Y-67540776D01*
X165046541Y-67682705D01*
X165052689Y-67696912D01*
X165128344Y-67824838D01*
X165137835Y-67837074D01*
X165242925Y-67942164D01*
X165255161Y-67951655D01*
X165383087Y-68027310D01*
X165397294Y-68033458D01*
X165541420Y-68075331D01*
X165553826Y-68077597D01*
X165581923Y-68079808D01*
X165586803Y-68080000D01*
X166008674Y-68080000D01*
X166021549Y-68076549D01*
X166025000Y-68063674D01*
X166525000Y-68063674D01*
X166528450Y-68076549D01*
X166541326Y-68080000D01*
X166963197Y-68080000D01*
X166968076Y-68079808D01*
X166996173Y-68077597D01*
X167008579Y-68075331D01*
X167152705Y-68033458D01*
X167166912Y-68027310D01*
X167294838Y-67951655D01*
X167307074Y-67942164D01*
X167412164Y-67837074D01*
X167421655Y-67824838D01*
X167497310Y-67696912D01*
X167503458Y-67682705D01*
X167544692Y-67540776D01*
X167543286Y-67533706D01*
X167530144Y-67530000D01*
X166541326Y-67530000D01*
X166528450Y-67533450D01*
X166525000Y-67546326D01*
X166525000Y-68063674D01*
X166025000Y-68063674D01*
X166025000Y-67546326D01*
X166021549Y-67533450D01*
X166008674Y-67530000D01*
X165019856Y-67530000D01*
X165006713Y-67533706D01*
X165005307Y-67540776D01*
X161946470Y-67540776D01*
X161951819Y-67532771D01*
X162043114Y-67441476D01*
X162145179Y-67339410D01*
X162200765Y-67307318D01*
X162264951Y-67307318D01*
X162298255Y-67316242D01*
X162328078Y-67324234D01*
X162328082Y-67324234D01*
X162333308Y-67325635D01*
X162560000Y-67345468D01*
X162786692Y-67325635D01*
X163006496Y-67266739D01*
X163212734Y-67170568D01*
X163399139Y-67040047D01*
X163560047Y-66879139D01*
X163672612Y-66718377D01*
X163716931Y-66679511D01*
X163774188Y-66665500D01*
X164952146Y-66665500D01*
X165014426Y-66682275D01*
X165059856Y-66728062D01*
X165076142Y-66790472D01*
X165058879Y-66852619D01*
X165052690Y-66863084D01*
X165046541Y-66877294D01*
X165005307Y-67019223D01*
X165006713Y-67026293D01*
X165019856Y-67030000D01*
X165365953Y-67030000D01*
X165400547Y-67034923D01*
X165547431Y-67077598D01*
X165584306Y-67080500D01*
X166963249Y-67080500D01*
X166965694Y-67080500D01*
X167002569Y-67077598D01*
X167149452Y-67034923D01*
X167184047Y-67030000D01*
X167530144Y-67030000D01*
X167543286Y-67026293D01*
X167544692Y-67019223D01*
X167503458Y-66877294D01*
X167497311Y-66863089D01*
X167485792Y-66843610D01*
X167468525Y-66780488D01*
X167485795Y-66717366D01*
X167497770Y-66697118D01*
X167497770Y-66697116D01*
X167501744Y-66690398D01*
X167547598Y-66532569D01*
X167550500Y-66495694D01*
X167550500Y-66064306D01*
X167547598Y-66027431D01*
X167501744Y-65869602D01*
X167486082Y-65843120D01*
X167468815Y-65779997D01*
X167486084Y-65716877D01*
X167501744Y-65690398D01*
X167547598Y-65532569D01*
X167550500Y-65495694D01*
X167550500Y-65064306D01*
X167547598Y-65027431D01*
X167501744Y-64869602D01*
X167486082Y-64843120D01*
X167468815Y-64779997D01*
X167486084Y-64716877D01*
X167501744Y-64690398D01*
X167547598Y-64532569D01*
X167550500Y-64495694D01*
X167550500Y-64064306D01*
X167547598Y-64027431D01*
X167501744Y-63869602D01*
X167418081Y-63728135D01*
X167301865Y-63611919D01*
X167295151Y-63607948D01*
X167295148Y-63607946D01*
X167167113Y-63532227D01*
X167167111Y-63532226D01*
X167160398Y-63528256D01*
X167119480Y-63516368D01*
X167008657Y-63484170D01*
X167008650Y-63484168D01*
X167002569Y-63482402D01*
X166996258Y-63481905D01*
X166996251Y-63481904D01*
X166968128Y-63479691D01*
X166968114Y-63479690D01*
X166965694Y-63479500D01*
X166963249Y-63479500D01*
X165775452Y-63479500D01*
X165727999Y-63470061D01*
X165687771Y-63443181D01*
X165357286Y-63112695D01*
X165349842Y-63104514D01*
X165345786Y-63098123D01*
X165296775Y-63052098D01*
X165293978Y-63049387D01*
X165277227Y-63032636D01*
X165274471Y-63029880D01*
X165271290Y-63027412D01*
X165262414Y-63019830D01*
X165236269Y-62995278D01*
X165236267Y-62995276D01*
X165230582Y-62989938D01*
X165223749Y-62986182D01*
X165223743Y-62986177D01*
X165213025Y-62980285D01*
X165196766Y-62969606D01*
X165187095Y-62962104D01*
X165187092Y-62962102D01*
X165180936Y-62957327D01*
X165173779Y-62954229D01*
X165173776Y-62954228D01*
X165140849Y-62939978D01*
X165130363Y-62934841D01*
X165098932Y-62917562D01*
X165098923Y-62917558D01*
X165092092Y-62913803D01*
X165084535Y-62911862D01*
X165084531Y-62911861D01*
X165072688Y-62908820D01*
X165054284Y-62902519D01*
X165043057Y-62897660D01*
X165043050Y-62897658D01*
X165035896Y-62894562D01*
X165028192Y-62893341D01*
X165028190Y-62893341D01*
X164992759Y-62887729D01*
X164981324Y-62885361D01*
X164946571Y-62876438D01*
X164946563Y-62876437D01*
X164939019Y-62874500D01*
X164931223Y-62874500D01*
X164918983Y-62874500D01*
X164899597Y-62872974D01*
X164879804Y-62869840D01*
X164872038Y-62870574D01*
X164872035Y-62870574D01*
X164836324Y-62873950D01*
X164824655Y-62874500D01*
X164533748Y-62874500D01*
X164483315Y-62863781D01*
X164445218Y-62836104D01*
X164445050Y-62836291D01*
X164443271Y-62834689D01*
X164441601Y-62833476D01*
X164435871Y-62827112D01*
X164430613Y-62823292D01*
X164430611Y-62823290D01*
X164287988Y-62719669D01*
X164287987Y-62719668D01*
X164282730Y-62715849D01*
X164276792Y-62713205D01*
X164115745Y-62641501D01*
X164115740Y-62641499D01*
X164109803Y-62638856D01*
X164103444Y-62637504D01*
X164103440Y-62637503D01*
X163931008Y-62600852D01*
X163931005Y-62600851D01*
X163924646Y-62599500D01*
X163735354Y-62599500D01*
X163728995Y-62600851D01*
X163728991Y-62600852D01*
X163556559Y-62637503D01*
X163556552Y-62637505D01*
X163550197Y-62638856D01*
X163544262Y-62641498D01*
X163544254Y-62641501D01*
X163383207Y-62713205D01*
X163383202Y-62713207D01*
X163377270Y-62715849D01*
X163372016Y-62719665D01*
X163372011Y-62719669D01*
X163229388Y-62823290D01*
X163229381Y-62823295D01*
X163224129Y-62827112D01*
X163219784Y-62831937D01*
X163219779Y-62831942D01*
X163101813Y-62962956D01*
X163101808Y-62962962D01*
X163097467Y-62967784D01*
X163094222Y-62973404D01*
X163094218Y-62973410D01*
X163006069Y-63126089D01*
X163006066Y-63126094D01*
X163002821Y-63131716D01*
X163000815Y-63137888D01*
X163000813Y-63137894D01*
X162946333Y-63305564D01*
X162946331Y-63305573D01*
X162944326Y-63311744D01*
X162943648Y-63318194D01*
X162943646Y-63318204D01*
X162926442Y-63481904D01*
X162924540Y-63500000D01*
X162925219Y-63506460D01*
X162943646Y-63681795D01*
X162943647Y-63681803D01*
X162944326Y-63688256D01*
X162946331Y-63694428D01*
X162946333Y-63694435D01*
X162985308Y-63814386D01*
X163002821Y-63868284D01*
X163006068Y-63873908D01*
X163006069Y-63873910D01*
X163085230Y-64011022D01*
X163097467Y-64032216D01*
X163124169Y-64061871D01*
X163142768Y-64082528D01*
X163170050Y-64132154D01*
X163172422Y-64188735D01*
X163149388Y-64240470D01*
X163105753Y-64276568D01*
X163050618Y-64289500D01*
X156142775Y-64289500D01*
X156131719Y-64288978D01*
X156124333Y-64287327D01*
X156116545Y-64287571D01*
X156116538Y-64287571D01*
X156057113Y-64289439D01*
X156053219Y-64289500D01*
X156025650Y-64289500D01*
X156021794Y-64289986D01*
X156021791Y-64289987D01*
X156021735Y-64289994D01*
X156021662Y-64290003D01*
X156010044Y-64290917D01*
X155974165Y-64292045D01*
X155974164Y-64292045D01*
X155966373Y-64292290D01*
X155958888Y-64294464D01*
X155958884Y-64294465D01*
X155947125Y-64297881D01*
X155928087Y-64301823D01*
X155915949Y-64303357D01*
X155915941Y-64303358D01*
X155908208Y-64304336D01*
X155900960Y-64307205D01*
X155900954Y-64307207D01*
X155867597Y-64320413D01*
X155856554Y-64324194D01*
X155822100Y-64334205D01*
X155822094Y-64334207D01*
X155814610Y-64336382D01*
X155807898Y-64340351D01*
X155807896Y-64340352D01*
X155797364Y-64346580D01*
X155779904Y-64355134D01*
X155768519Y-64359642D01*
X155768513Y-64359644D01*
X155761268Y-64362514D01*
X155754963Y-64367094D01*
X155754955Y-64367099D01*
X155725932Y-64388185D01*
X155716174Y-64394595D01*
X155685296Y-64412857D01*
X155685290Y-64412861D01*
X155678580Y-64416830D01*
X155673067Y-64422341D01*
X155673060Y-64422348D01*
X155664410Y-64430998D01*
X155649627Y-64443624D01*
X155639726Y-64450817D01*
X155639716Y-64450826D01*
X155633413Y-64455406D01*
X155628444Y-64461411D01*
X155628441Y-64461415D01*
X155605572Y-64489059D01*
X155597711Y-64497697D01*
X153912818Y-66182590D01*
X153861391Y-66213491D01*
X153801476Y-66216631D01*
X153747101Y-66191274D01*
X153710994Y-66143358D01*
X153701609Y-66084103D01*
X153705468Y-66040000D01*
X153685635Y-65813308D01*
X153626739Y-65593504D01*
X153530568Y-65387266D01*
X153400047Y-65200861D01*
X153239139Y-65039953D01*
X153052734Y-64909432D01*
X152846496Y-64813261D01*
X152841271Y-64811861D01*
X152841263Y-64811858D01*
X152631916Y-64755764D01*
X152631907Y-64755762D01*
X152626692Y-64754365D01*
X152621304Y-64753893D01*
X152621301Y-64753893D01*
X152405395Y-64735004D01*
X152400000Y-64734532D01*
X152394605Y-64735004D01*
X152178698Y-64753893D01*
X152178693Y-64753893D01*
X152173308Y-64754365D01*
X152168094Y-64755762D01*
X152168083Y-64755764D01*
X151958736Y-64811858D01*
X151958724Y-64811862D01*
X151953504Y-64813261D01*
X151948599Y-64815547D01*
X151948594Y-64815550D01*
X151752176Y-64907142D01*
X151752172Y-64907144D01*
X151747266Y-64909432D01*
X151742833Y-64912535D01*
X151742826Y-64912540D01*
X151565296Y-65036847D01*
X151565291Y-65036850D01*
X151560861Y-65039953D01*
X151557037Y-65043776D01*
X151557031Y-65043782D01*
X151403782Y-65197031D01*
X151403776Y-65197037D01*
X151399953Y-65200861D01*
X151396850Y-65205291D01*
X151396847Y-65205296D01*
X151272540Y-65382826D01*
X151272535Y-65382833D01*
X151269432Y-65387266D01*
X151267144Y-65392172D01*
X151267142Y-65392176D01*
X151175550Y-65588594D01*
X151175547Y-65588599D01*
X151173261Y-65593504D01*
X151171862Y-65598724D01*
X151171858Y-65598736D01*
X151115764Y-65808083D01*
X151115762Y-65808094D01*
X151114365Y-65813308D01*
X151113893Y-65818693D01*
X151113893Y-65818698D01*
X151109440Y-65869602D01*
X151094532Y-66040000D01*
X151095004Y-66045392D01*
X151095004Y-66045395D01*
X151109710Y-66213491D01*
X151114365Y-66266692D01*
X151115762Y-66271907D01*
X151115764Y-66271916D01*
X151171858Y-66481263D01*
X151171861Y-66481271D01*
X151173261Y-66486496D01*
X151269432Y-66692734D01*
X151399953Y-66879139D01*
X151560861Y-67040047D01*
X151747266Y-67170568D01*
X151953504Y-67266739D01*
X151958734Y-67268140D01*
X151958736Y-67268141D01*
X152104951Y-67307319D01*
X152173308Y-67325635D01*
X152400000Y-67345468D01*
X152444103Y-67341609D01*
X152503358Y-67350994D01*
X152551275Y-67387101D01*
X152576631Y-67441476D01*
X152573491Y-67501391D01*
X152542590Y-67552818D01*
X151544821Y-68550586D01*
X151489234Y-68582680D01*
X151425048Y-68582680D01*
X151361920Y-68565765D01*
X151361911Y-68565763D01*
X151356692Y-68564365D01*
X151351304Y-68563893D01*
X151351301Y-68563893D01*
X151135395Y-68545004D01*
X151130000Y-68544532D01*
X151124605Y-68545004D01*
X150908698Y-68563893D01*
X150908693Y-68563893D01*
X150903308Y-68564365D01*
X150898094Y-68565762D01*
X150898083Y-68565764D01*
X150688736Y-68621858D01*
X150688724Y-68621862D01*
X150683504Y-68623261D01*
X150678599Y-68625547D01*
X150678594Y-68625550D01*
X150482176Y-68717142D01*
X150482172Y-68717144D01*
X150477266Y-68719432D01*
X150472833Y-68722535D01*
X150472826Y-68722540D01*
X150295296Y-68846847D01*
X150295291Y-68846850D01*
X150290861Y-68849953D01*
X150287037Y-68853776D01*
X150287031Y-68853782D01*
X150133782Y-69007031D01*
X150133776Y-69007037D01*
X150129953Y-69010861D01*
X150126850Y-69015291D01*
X150126847Y-69015296D01*
X150002540Y-69192826D01*
X150002535Y-69192833D01*
X149999432Y-69197266D01*
X149997144Y-69202172D01*
X149997142Y-69202176D01*
X149905550Y-69398594D01*
X149905547Y-69398599D01*
X149903261Y-69403504D01*
X149901862Y-69408724D01*
X149901858Y-69408736D01*
X149845764Y-69618083D01*
X149845762Y-69618094D01*
X149844365Y-69623308D01*
X149843893Y-69628693D01*
X149843893Y-69628698D01*
X149839389Y-69680180D01*
X149824532Y-69850000D01*
X149844365Y-70076692D01*
X149845763Y-70081911D01*
X149845765Y-70081920D01*
X149862680Y-70145048D01*
X149862680Y-70209234D01*
X149830586Y-70264821D01*
X147734821Y-72360586D01*
X147679234Y-72392680D01*
X147615048Y-72392680D01*
X147551920Y-72375765D01*
X147551911Y-72375763D01*
X147546692Y-72374365D01*
X147541304Y-72373893D01*
X147541301Y-72373893D01*
X147325395Y-72355004D01*
X147320000Y-72354532D01*
X147314605Y-72355004D01*
X147098698Y-72373893D01*
X147098693Y-72373893D01*
X147093308Y-72374365D01*
X147088094Y-72375762D01*
X147088083Y-72375764D01*
X146878736Y-72431858D01*
X146878724Y-72431862D01*
X146873504Y-72433261D01*
X146868599Y-72435547D01*
X146868594Y-72435550D01*
X146672176Y-72527142D01*
X146672172Y-72527144D01*
X146667266Y-72529432D01*
X146662833Y-72532535D01*
X146662826Y-72532540D01*
X146485296Y-72656847D01*
X146485291Y-72656850D01*
X146480861Y-72659953D01*
X146477037Y-72663776D01*
X146477031Y-72663782D01*
X146323782Y-72817031D01*
X146323776Y-72817037D01*
X146319953Y-72820861D01*
X146316850Y-72825291D01*
X146316847Y-72825296D01*
X146192540Y-73002826D01*
X146192535Y-73002833D01*
X146189432Y-73007266D01*
X146187148Y-73012163D01*
X146187141Y-73012176D01*
X146162382Y-73065274D01*
X146116625Y-73117450D01*
X146050000Y-73136869D01*
X145983375Y-73117450D01*
X145937618Y-73065274D01*
X145912858Y-73012176D01*
X145912855Y-73012172D01*
X145910568Y-73007266D01*
X145780047Y-72820861D01*
X145619139Y-72659953D01*
X145432734Y-72529432D01*
X145226496Y-72433261D01*
X145221271Y-72431861D01*
X145221263Y-72431858D01*
X145011916Y-72375764D01*
X145011907Y-72375762D01*
X145006692Y-72374365D01*
X145001304Y-72373893D01*
X145001301Y-72373893D01*
X144785395Y-72355004D01*
X144780000Y-72354532D01*
X144774605Y-72355004D01*
X144558698Y-72373893D01*
X144558693Y-72373893D01*
X144553308Y-72374365D01*
X144548094Y-72375762D01*
X144548083Y-72375764D01*
X144338736Y-72431858D01*
X144338724Y-72431862D01*
X144333504Y-72433261D01*
X144328599Y-72435547D01*
X144328594Y-72435550D01*
X144132176Y-72527142D01*
X144132172Y-72527144D01*
X144127266Y-72529432D01*
X144122833Y-72532535D01*
X144122826Y-72532540D01*
X143945296Y-72656847D01*
X143945291Y-72656850D01*
X143940861Y-72659953D01*
X143937037Y-72663776D01*
X143937031Y-72663782D01*
X143783782Y-72817031D01*
X143783776Y-72817037D01*
X143779953Y-72820861D01*
X143776850Y-72825291D01*
X143776847Y-72825296D01*
X143652540Y-73002826D01*
X143652535Y-73002833D01*
X143649432Y-73007266D01*
X143647148Y-73012163D01*
X143647141Y-73012176D01*
X143622382Y-73065274D01*
X143576625Y-73117450D01*
X143510000Y-73136869D01*
X143443375Y-73117450D01*
X143397618Y-73065274D01*
X143372858Y-73012176D01*
X143372855Y-73012172D01*
X143370568Y-73007266D01*
X143240047Y-72820861D01*
X143079139Y-72659953D01*
X142892734Y-72529432D01*
X142686496Y-72433261D01*
X142681271Y-72431861D01*
X142681263Y-72431858D01*
X142471916Y-72375764D01*
X142471907Y-72375762D01*
X142466692Y-72374365D01*
X142461304Y-72373893D01*
X142461301Y-72373893D01*
X142245395Y-72355004D01*
X142240000Y-72354532D01*
X142234605Y-72355004D01*
X142018698Y-72373893D01*
X142018693Y-72373893D01*
X142013308Y-72374365D01*
X142008094Y-72375762D01*
X142008083Y-72375764D01*
X141798736Y-72431858D01*
X141798724Y-72431862D01*
X141793504Y-72433261D01*
X141788599Y-72435547D01*
X141788594Y-72435550D01*
X141592176Y-72527142D01*
X141592172Y-72527144D01*
X141587266Y-72529432D01*
X141582833Y-72532535D01*
X141582826Y-72532540D01*
X141405296Y-72656847D01*
X141405291Y-72656850D01*
X141400861Y-72659953D01*
X141397037Y-72663776D01*
X141397031Y-72663782D01*
X141243782Y-72817031D01*
X141243776Y-72817037D01*
X141239953Y-72820861D01*
X141236850Y-72825291D01*
X141236847Y-72825296D01*
X141112540Y-73002826D01*
X141112535Y-73002833D01*
X141109432Y-73007266D01*
X141107148Y-73012163D01*
X141107141Y-73012176D01*
X141082382Y-73065274D01*
X141036625Y-73117450D01*
X140970000Y-73136869D01*
X140903375Y-73117450D01*
X140857618Y-73065274D01*
X140832858Y-73012176D01*
X140832855Y-73012172D01*
X140830568Y-73007266D01*
X140700047Y-72820861D01*
X140539139Y-72659953D01*
X140352734Y-72529432D01*
X140146496Y-72433261D01*
X140141271Y-72431861D01*
X140141263Y-72431858D01*
X139931916Y-72375764D01*
X139931907Y-72375762D01*
X139926692Y-72374365D01*
X139921304Y-72373893D01*
X139921301Y-72373893D01*
X139705395Y-72355004D01*
X139700000Y-72354532D01*
X139694605Y-72355004D01*
X139478698Y-72373893D01*
X139478693Y-72373893D01*
X139473308Y-72374365D01*
X139468094Y-72375762D01*
X139468083Y-72375764D01*
X139258736Y-72431858D01*
X139258724Y-72431862D01*
X139253504Y-72433261D01*
X139248599Y-72435547D01*
X139248594Y-72435550D01*
X139052176Y-72527142D01*
X139052172Y-72527144D01*
X139047266Y-72529432D01*
X139042833Y-72532535D01*
X139042826Y-72532540D01*
X138865296Y-72656847D01*
X138865291Y-72656850D01*
X138860861Y-72659953D01*
X138857037Y-72663776D01*
X138857031Y-72663782D01*
X138703782Y-72817031D01*
X138703776Y-72817037D01*
X138699953Y-72820861D01*
X138696850Y-72825291D01*
X138696847Y-72825296D01*
X138572540Y-73002826D01*
X138572535Y-73002833D01*
X138569432Y-73007266D01*
X138567148Y-73012163D01*
X138567141Y-73012176D01*
X138542382Y-73065274D01*
X138496625Y-73117450D01*
X138430000Y-73136869D01*
X138363375Y-73117450D01*
X138317618Y-73065274D01*
X138292858Y-73012176D01*
X138292855Y-73012172D01*
X138290568Y-73007266D01*
X138160047Y-72820861D01*
X137999139Y-72659953D01*
X137812734Y-72529432D01*
X137606496Y-72433261D01*
X137601271Y-72431861D01*
X137601263Y-72431858D01*
X137391916Y-72375764D01*
X137391907Y-72375762D01*
X137386692Y-72374365D01*
X137381304Y-72373893D01*
X137381301Y-72373893D01*
X137165395Y-72355004D01*
X137160000Y-72354532D01*
X137154605Y-72355004D01*
X136938698Y-72373893D01*
X136938693Y-72373893D01*
X136933308Y-72374365D01*
X136928094Y-72375762D01*
X136928083Y-72375764D01*
X136718736Y-72431858D01*
X136718724Y-72431862D01*
X136713504Y-72433261D01*
X136708599Y-72435547D01*
X136708594Y-72435550D01*
X136512176Y-72527142D01*
X136512172Y-72527144D01*
X136507266Y-72529432D01*
X136502833Y-72532535D01*
X136502826Y-72532540D01*
X136325296Y-72656847D01*
X136325291Y-72656850D01*
X136320861Y-72659953D01*
X136317037Y-72663776D01*
X136317031Y-72663782D01*
X136163782Y-72817031D01*
X136163776Y-72817037D01*
X136159953Y-72820861D01*
X136156850Y-72825291D01*
X136156847Y-72825296D01*
X136032540Y-73002826D01*
X136032535Y-73002833D01*
X136029432Y-73007266D01*
X136027148Y-73012163D01*
X136027141Y-73012176D01*
X136002382Y-73065274D01*
X135956625Y-73117450D01*
X135890000Y-73136869D01*
X135823375Y-73117450D01*
X135777618Y-73065274D01*
X135752858Y-73012176D01*
X135752855Y-73012172D01*
X135750568Y-73007266D01*
X135620047Y-72820861D01*
X135459139Y-72659953D01*
X135272734Y-72529432D01*
X135066496Y-72433261D01*
X135061271Y-72431861D01*
X135061263Y-72431858D01*
X134851916Y-72375764D01*
X134851907Y-72375762D01*
X134846692Y-72374365D01*
X134841304Y-72373893D01*
X134841301Y-72373893D01*
X134625395Y-72355004D01*
X134620000Y-72354532D01*
X134614605Y-72355004D01*
X134398698Y-72373893D01*
X134398693Y-72373893D01*
X134393308Y-72374365D01*
X134388094Y-72375762D01*
X134388083Y-72375764D01*
X134178736Y-72431858D01*
X134178724Y-72431862D01*
X134173504Y-72433261D01*
X134168599Y-72435547D01*
X134168594Y-72435550D01*
X133972176Y-72527142D01*
X133972172Y-72527144D01*
X133967266Y-72529432D01*
X133962833Y-72532535D01*
X133962826Y-72532540D01*
X133785296Y-72656847D01*
X133785291Y-72656850D01*
X133780861Y-72659953D01*
X133777037Y-72663776D01*
X133777031Y-72663782D01*
X133623782Y-72817031D01*
X133623776Y-72817037D01*
X133619953Y-72820861D01*
X133616850Y-72825291D01*
X133616847Y-72825296D01*
X133492540Y-73002826D01*
X133492535Y-73002833D01*
X133489432Y-73007266D01*
X133487027Y-73012423D01*
X133462106Y-73065866D01*
X133416348Y-73118041D01*
X133349723Y-73137460D01*
X133283098Y-73118040D01*
X133237342Y-73065864D01*
X133212422Y-73012423D01*
X133207032Y-73003087D01*
X133082767Y-72825618D01*
X133075830Y-72817352D01*
X132922647Y-72664169D01*
X132914381Y-72657232D01*
X132736912Y-72532967D01*
X132727580Y-72527579D01*
X132531234Y-72436022D01*
X132521092Y-72432330D01*
X132343780Y-72384820D01*
X132332551Y-72384452D01*
X132330000Y-72395395D01*
X132330000Y-74924605D01*
X131830000Y-74924605D01*
X131830000Y-72395395D01*
X131827448Y-72384452D01*
X131816219Y-72384820D01*
X131638907Y-72432330D01*
X131628765Y-72436022D01*
X131432419Y-72527579D01*
X131423087Y-72532967D01*
X131245618Y-72657232D01*
X131237352Y-72664169D01*
X131084169Y-72817352D01*
X131077232Y-72825618D01*
X130952967Y-73003087D01*
X130947581Y-73012416D01*
X130922657Y-73065866D01*
X130876899Y-73118041D01*
X130810274Y-73137460D01*
X130743649Y-73118040D01*
X130697893Y-73065864D01*
X130672860Y-73012180D01*
X130672856Y-73012173D01*
X130670568Y-73007266D01*
X130540047Y-72820861D01*
X130379139Y-72659953D01*
X130380009Y-72659082D01*
X130352116Y-72622726D01*
X130340500Y-72570325D01*
X130340500Y-70969661D01*
X130350522Y-70928703D01*
X131358217Y-70928703D01*
X131365650Y-70936814D01*
X131423077Y-70977025D01*
X131432427Y-70982423D01*
X131628768Y-71073979D01*
X131638902Y-71077667D01*
X131848162Y-71133739D01*
X131858793Y-71135613D01*
X132074605Y-71154494D01*
X132085395Y-71154494D01*
X132301206Y-71135613D01*
X132311837Y-71133739D01*
X132521097Y-71077667D01*
X132531231Y-71073979D01*
X132727575Y-70982422D01*
X132736920Y-70977026D01*
X132794348Y-70936814D01*
X132801780Y-70928703D01*
X132795867Y-70919421D01*
X132091542Y-70215095D01*
X132080000Y-70208431D01*
X132068457Y-70215095D01*
X131364128Y-70919424D01*
X131358217Y-70928703D01*
X130350522Y-70928703D01*
X130354510Y-70912405D01*
X130393376Y-70868087D01*
X130406359Y-70858995D01*
X130419139Y-70850047D01*
X130580047Y-70689139D01*
X130710568Y-70502734D01*
X130717892Y-70487025D01*
X130763647Y-70434851D01*
X130830272Y-70415429D01*
X130896898Y-70434847D01*
X130942656Y-70487022D01*
X130947575Y-70497570D01*
X130952974Y-70506922D01*
X130993184Y-70564348D01*
X131001295Y-70571781D01*
X131010574Y-70565870D01*
X131714903Y-69861541D01*
X131721567Y-69849999D01*
X132438431Y-69849999D01*
X132445095Y-69861541D01*
X133149421Y-70565867D01*
X133158703Y-70571780D01*
X133166814Y-70564348D01*
X133207026Y-70506920D01*
X133212422Y-70497575D01*
X133303979Y-70301231D01*
X133307667Y-70291097D01*
X133363739Y-70081837D01*
X133365613Y-70071206D01*
X133384494Y-69855395D01*
X133384494Y-69844605D01*
X133365613Y-69628793D01*
X133363739Y-69618162D01*
X133307667Y-69408902D01*
X133303979Y-69398768D01*
X133212423Y-69202427D01*
X133207025Y-69193077D01*
X133166814Y-69135650D01*
X133158703Y-69128217D01*
X133149424Y-69134128D01*
X132445095Y-69838456D01*
X132438431Y-69849999D01*
X131721567Y-69849999D01*
X131714903Y-69838456D01*
X131010574Y-69134128D01*
X131001296Y-69128217D01*
X130993183Y-69135651D01*
X130952971Y-69193081D01*
X130947577Y-69202424D01*
X130942655Y-69212980D01*
X130896896Y-69265153D01*
X130830272Y-69284570D01*
X130763648Y-69265149D01*
X130717892Y-69212973D01*
X130712857Y-69202176D01*
X130710568Y-69197266D01*
X130580047Y-69010861D01*
X130419139Y-68849953D01*
X130306804Y-68771296D01*
X131358217Y-68771296D01*
X131364128Y-68780574D01*
X132068457Y-69484903D01*
X132080000Y-69491567D01*
X132091542Y-69484903D01*
X132795870Y-68780574D01*
X132801781Y-68771295D01*
X132794348Y-68763184D01*
X132736922Y-68722974D01*
X132727572Y-68717576D01*
X132531231Y-68626020D01*
X132521097Y-68622332D01*
X132311837Y-68566260D01*
X132301206Y-68564386D01*
X132085395Y-68545506D01*
X132074605Y-68545506D01*
X131858793Y-68564386D01*
X131848162Y-68566260D01*
X131638902Y-68622332D01*
X131628768Y-68626020D01*
X131432425Y-68717577D01*
X131423081Y-68722971D01*
X131365651Y-68763183D01*
X131358217Y-68771296D01*
X130306804Y-68771296D01*
X130295219Y-68763184D01*
X130237173Y-68722540D01*
X130237171Y-68722539D01*
X130232734Y-68719432D01*
X130026496Y-68623261D01*
X130021271Y-68621861D01*
X130021263Y-68621858D01*
X129811916Y-68565764D01*
X129811907Y-68565762D01*
X129806692Y-68564365D01*
X129801304Y-68563893D01*
X129801301Y-68563893D01*
X129585395Y-68545004D01*
X129580000Y-68544532D01*
X129574605Y-68545004D01*
X129358698Y-68563893D01*
X129358693Y-68563893D01*
X129353308Y-68564365D01*
X129348094Y-68565762D01*
X129348083Y-68565764D01*
X129138736Y-68621858D01*
X129138724Y-68621862D01*
X129133504Y-68623261D01*
X129128599Y-68625547D01*
X129128594Y-68625550D01*
X128932176Y-68717142D01*
X128932172Y-68717144D01*
X128927266Y-68719432D01*
X128922833Y-68722535D01*
X128922826Y-68722540D01*
X128745296Y-68846847D01*
X128745291Y-68846850D01*
X128740861Y-68849953D01*
X128737037Y-68853776D01*
X128737031Y-68853782D01*
X128583782Y-69007031D01*
X128583776Y-69007037D01*
X128579953Y-69010861D01*
X128576850Y-69015291D01*
X128576847Y-69015296D01*
X128452540Y-69192826D01*
X128452535Y-69192833D01*
X128449432Y-69197266D01*
X128447144Y-69202172D01*
X128447142Y-69202176D01*
X128355550Y-69398594D01*
X128355547Y-69398599D01*
X128353261Y-69403504D01*
X128351862Y-69408724D01*
X128351858Y-69408736D01*
X128295764Y-69618083D01*
X128295762Y-69618094D01*
X128294365Y-69623308D01*
X128293893Y-69628693D01*
X128293893Y-69628698D01*
X128289389Y-69680180D01*
X128274532Y-69850000D01*
X128294365Y-70076692D01*
X128295762Y-70081907D01*
X128295764Y-70081916D01*
X128351858Y-70291263D01*
X128351861Y-70291271D01*
X128353261Y-70296496D01*
X128449432Y-70502734D01*
X128579953Y-70689139D01*
X128583781Y-70692967D01*
X128583782Y-70692968D01*
X128703181Y-70812367D01*
X128730061Y-70852595D01*
X128739500Y-70900048D01*
X128739500Y-72570325D01*
X128727884Y-72622726D01*
X128699990Y-72659082D01*
X128700861Y-72659953D01*
X128543782Y-72817031D01*
X128543776Y-72817037D01*
X128539953Y-72820861D01*
X128536850Y-72825291D01*
X128536847Y-72825296D01*
X128412540Y-73002826D01*
X128412535Y-73002833D01*
X128409432Y-73007266D01*
X128407144Y-73012172D01*
X128407142Y-73012176D01*
X128315550Y-73208594D01*
X128315547Y-73208599D01*
X128313261Y-73213504D01*
X128311862Y-73218724D01*
X128311858Y-73218736D01*
X128255764Y-73428083D01*
X128255762Y-73428094D01*
X128254365Y-73433308D01*
X128234532Y-73660000D01*
X128235004Y-73665395D01*
X128243441Y-73761838D01*
X128236435Y-73815056D01*
X128207594Y-73860326D01*
X127737738Y-74330183D01*
X127737735Y-74330186D01*
X127737736Y-74330186D01*
X127610184Y-74457738D01*
X127606479Y-74463632D01*
X127606479Y-74463634D01*
X127589816Y-74490152D01*
X127581773Y-74501487D01*
X127562253Y-74525965D01*
X127562251Y-74525967D01*
X127557909Y-74531413D01*
X127554889Y-74537682D01*
X127554883Y-74537693D01*
X127541299Y-74565900D01*
X127534577Y-74578064D01*
X127514211Y-74610478D01*
X127511915Y-74617037D01*
X127511911Y-74617047D01*
X127501565Y-74646613D01*
X127496247Y-74659451D01*
X127482660Y-74687666D01*
X127482657Y-74687671D01*
X127479640Y-74693939D01*
X127478092Y-74700717D01*
X127478089Y-74700728D01*
X127471118Y-74731268D01*
X127467272Y-74744619D01*
X127454632Y-74780745D01*
X127453852Y-74787663D01*
X127453852Y-74787665D01*
X127450345Y-74818781D01*
X127448017Y-74832479D01*
X127441050Y-74863008D01*
X127441048Y-74863020D01*
X127439500Y-74869806D01*
X127439500Y-74915046D01*
X127439500Y-95089806D01*
X127439500Y-95270194D01*
X124460500Y-95270194D01*
X124460500Y-66848172D01*
X129090811Y-66848172D01*
X129098881Y-66859373D01*
X129270474Y-66993808D01*
X129276626Y-66998054D01*
X129549748Y-67163163D01*
X129556368Y-67166637D01*
X129847410Y-67297625D01*
X129854386Y-67300270D01*
X130159092Y-67395221D01*
X130166348Y-67397009D01*
X130480267Y-67454537D01*
X130487697Y-67455439D01*
X130806264Y-67474709D01*
X130813736Y-67474709D01*
X131132302Y-67455439D01*
X131139732Y-67454537D01*
X131453651Y-67397009D01*
X131460907Y-67395221D01*
X131765613Y-67300270D01*
X131772589Y-67297625D01*
X132063631Y-67166637D01*
X132070251Y-67163163D01*
X132343369Y-66998057D01*
X132349534Y-66993801D01*
X132521117Y-66859374D01*
X132529187Y-66848172D01*
X132522526Y-66836079D01*
X130821542Y-65135095D01*
X130810000Y-65128431D01*
X130798457Y-65135095D01*
X129097472Y-66836079D01*
X129090811Y-66848172D01*
X124460500Y-66848172D01*
X124460500Y-64773736D01*
X128105291Y-64773736D01*
X128124560Y-65092302D01*
X128125462Y-65099732D01*
X128182990Y-65413651D01*
X128184778Y-65420907D01*
X128279729Y-65725613D01*
X128282374Y-65732589D01*
X128413362Y-66023631D01*
X128416836Y-66030251D01*
X128581945Y-66303373D01*
X128586191Y-66309525D01*
X128720625Y-66481117D01*
X128731826Y-66489187D01*
X128743919Y-66482526D01*
X130444904Y-64781542D01*
X130451568Y-64769999D01*
X131168431Y-64769999D01*
X131175095Y-64781542D01*
X132876079Y-66482526D01*
X132888172Y-66489187D01*
X132899374Y-66481117D01*
X133033801Y-66309534D01*
X133038057Y-66303369D01*
X133203163Y-66030251D01*
X133206637Y-66023631D01*
X133337625Y-65732589D01*
X133340270Y-65725613D01*
X133435221Y-65420907D01*
X133437009Y-65413651D01*
X133494537Y-65099732D01*
X133495439Y-65092302D01*
X133514709Y-64773736D01*
X133514709Y-64766264D01*
X133495439Y-64447697D01*
X133494537Y-64440267D01*
X133437009Y-64126348D01*
X133435221Y-64119092D01*
X133340270Y-63814386D01*
X133337625Y-63807410D01*
X133206637Y-63516368D01*
X133203163Y-63509748D01*
X133038054Y-63236626D01*
X133033808Y-63230474D01*
X132899373Y-63058881D01*
X132888172Y-63050811D01*
X132876079Y-63057472D01*
X131175095Y-64758457D01*
X131168431Y-64769999D01*
X130451568Y-64769999D01*
X130444904Y-64758457D01*
X128743919Y-63057472D01*
X128731826Y-63050811D01*
X128720626Y-63058879D01*
X128586191Y-63230474D01*
X128581945Y-63236626D01*
X128416836Y-63509748D01*
X128413362Y-63516368D01*
X128282374Y-63807410D01*
X128279729Y-63814386D01*
X128184778Y-64119092D01*
X128182990Y-64126348D01*
X128125462Y-64440267D01*
X128124560Y-64447697D01*
X128105291Y-64766264D01*
X128105291Y-64773736D01*
X124460500Y-64773736D01*
X124460500Y-62691826D01*
X129090811Y-62691826D01*
X129097472Y-62703919D01*
X130798457Y-64404904D01*
X130810000Y-64411568D01*
X130821542Y-64404904D01*
X132522526Y-62703919D01*
X132529187Y-62691826D01*
X132521117Y-62680625D01*
X132349525Y-62546191D01*
X132343373Y-62541945D01*
X132070251Y-62376836D01*
X132063631Y-62373362D01*
X131772589Y-62242374D01*
X131765613Y-62239729D01*
X131460907Y-62144778D01*
X131453651Y-62142990D01*
X131139732Y-62085462D01*
X131132302Y-62084560D01*
X130813736Y-62065291D01*
X130806264Y-62065291D01*
X130487697Y-62084560D01*
X130480267Y-62085462D01*
X130166348Y-62142990D01*
X130159092Y-62144778D01*
X129854386Y-62239729D01*
X129847410Y-62242374D01*
X129556368Y-62373362D01*
X129549748Y-62376836D01*
X129276626Y-62541945D01*
X129270474Y-62546191D01*
X129098879Y-62680626D01*
X129090811Y-62691826D01*
X124460500Y-62691826D01*
X124460500Y-61084500D01*
X124477113Y-61022500D01*
X124522500Y-60977113D01*
X124584500Y-60960500D01*
X171325500Y-60960500D01*
X171387500Y-60977113D01*
G37*
%TD.AperFunction*%
%TD*%
M02*
